<svg xmlns="http://www.w3.org/2000/svg" xmlns:xlink="http://www.w3.org/1999/xlink" viewBox="0 0 379 206"><defs><style>.cls-1{fill:url(#Unbenannter_Verlauf_46);}</style><linearGradient id="Unbenannter_Verlauf_46" x1="379" y1="103" x2="0" y2="103" gradientUnits="userSpaceOnUse"><stop offset="0.3" stop-color="#0e559c"/><stop offset="0.48" stop-color="#0d4f93"/><stop offset="0.77" stop-color="#094079"/><stop offset="0.94" stop-color="#063567"/></linearGradient></defs><g id="Ebene_2" data-name="Ebene 2"><g id="Ebene_1-2" data-name="Ebene 1"><path class="cls-1" d="M379,133.9c-3.56,1.74,3.9,26.26-70.84,24.42L78.05,160.15c-3.81,0,7.69,0-.11,0-5.2,0,17.25,50.39,10.72,45.51-5.85-4.38-38-35-49.64-43.58-.81-.6,1-.09-.05-.18h0c-23.31-2.12-39-16-39-30.53V29C0,13,21.73,0,48.54,0H327c26.81,0,48.54,13,48.54,29,2.3,40.53,1.21,64.37,3.51,104.9"/></g></g></svg>