<svg id="Ebene_1" data-name="Ebene 1" xmlns="http://www.w3.org/2000/svg" viewBox="0 0 240 130"><defs><style>.cls-1{fill:gray;}.cls-2{fill:#e58638;}.cls-3{fill:#f2f2f2;}.cls-4{opacity:0.5;}.cls-5{fill:#999;}.cls-6{fill:#b3b3b3;}.cls-7{fill:#f9ddbf;}.cls-8{fill:#fff3e9;}.cls-9{fill:#efcdaf;}.cls-10{fill:#e2b99a;}.cls-11{fill:#fff;}.cls-12{fill:#998675;}.cls-13{fill:#c7b299;}.cls-14{fill:#d86713;opacity:0.4;}.cls-15{fill:#f1a34f;}.cls-16{fill:#736357;}.cls-17{fill:#ffc100;}.cls-18{fill:#b64c41;}.cls-19{fill:#c66e26;}.cls-20{fill:#4a75cb;}.cls-21{fill:#d3671e;}.cls-22{fill:#699ff0;}.cls-23{opacity:0.67;}</style></defs><path class="cls-1" d="M221.88,36.53,213.55,46.9l-.13-.07-15-7.27s7.52,1.55,8.48,1.17,10.66-5,13.09-4.93a.88.88,0,0,1,.35.06Z"/><path class="cls-2" d="M213.41,49.48c-.38,0-1.53-.18-3.09-.4-4.48-.64-12.4-1.94-15.62-3.36-2.9-1.28-18.19-8.07-28.75-12.86a18.56,18.56,0,0,1,10.91-3.22c12.31,5.53,28.4,12.79,30.39,13.89,3.27,1.8,7.7,3.94,7.7,3.94s0,.12,0,.3C214.85,48.36,214.55,49.6,213.41,49.48Z"/><path class="cls-3" d="M213.41,49.48c-.38,0-1.53-.18-3.09-.4-4.48-.64-12.4-1.94-15.62-3.36-2.9-1.28-18.19-8.07-28.75-12.86-5.29-2.4-9.4-4.3-10.13-4.75-2.19-1.33-6.51-4.79-5.63-5.63s2.82-.3,3.51-.49h0c.17,0,.43-.11.8-.18,1.33-.22,4-.33,8,1.44l14.32,6.4c12.31,5.53,28.4,12.79,30.39,13.89,3.27,1.8,7.7,3.94,7.7,3.94s0,.12,0,.3C214.85,48.36,214.55,49.6,213.41,49.48Z"/><path class="cls-1" d="M213.41,49.48c-.38,0-1.53-.18-3.09-.4a4.48,4.48,0,0,0-1.35-3l6,1.69C214.85,48.36,214.55,49.6,213.41,49.48Z"/><g class="cls-4"><path class="cls-5" d="M200.25,43.49h0a.19.19,0,0,1-.09-.25l.08-.18a.19.19,0,0,1,.25-.1h0a.2.2,0,0,1,.09.25l-.08.18A.19.19,0,0,1,200.25,43.49Z"/><path class="cls-5" d="M199.36,43.09h0a.2.2,0,0,1-.09-.25l.08-.18a.19.19,0,0,1,.25-.1h0a.19.19,0,0,1,.09.25l-.08.18A.19.19,0,0,1,199.36,43.09Z"/><path class="cls-5" d="M198.48,42.69h0a.19.19,0,0,1-.1-.25l.08-.19a.2.2,0,0,1,.25-.09h0a.19.19,0,0,1,.1.25l-.09.18A.18.18,0,0,1,198.48,42.69Z"/><path class="cls-5" d="M197.59,42.28h0a.18.18,0,0,1-.1-.24l.09-.19a.19.19,0,0,1,.25-.09h0a.19.19,0,0,1,.09.25l-.08.18A.18.18,0,0,1,197.59,42.28Z"/><path class="cls-5" d="M196.7,41.88h0a.18.18,0,0,1-.09-.25l.08-.18a.18.18,0,0,1,.25-.09h0a.18.18,0,0,1,.09.25l-.08.18A.18.18,0,0,1,196.7,41.88Z"/><path class="cls-5" d="M195.81,41.48h0a.19.19,0,0,1-.09-.25l.08-.18a.19.19,0,0,1,.25-.09h0a.19.19,0,0,1,.1.25l-.09.18A.19.19,0,0,1,195.81,41.48Z"/><path class="cls-5" d="M194.93,41.08h0a.19.19,0,0,1-.1-.25l.08-.18a.19.19,0,0,1,.25-.1h0a.19.19,0,0,1,.1.25l-.08.19A.2.2,0,0,1,194.93,41.08Z"/><path class="cls-5" d="M194,40.68h0a.18.18,0,0,1-.09-.25l.08-.18a.19.19,0,0,1,.25-.1h0a.2.2,0,0,1,.09.25l-.08.19A.2.2,0,0,1,194,40.68Z"/><path class="cls-5" d="M193.15,40.28h0a.2.2,0,0,1-.09-.25l.08-.18a.19.19,0,0,1,.25-.1h0a.19.19,0,0,1,.09.25l-.08.18A.19.19,0,0,1,193.15,40.28Z"/><path class="cls-5" d="M182.7,35.55h0a.19.19,0,0,1-.1-.25l.09-.18a.19.19,0,0,1,.25-.1h0a.2.2,0,0,1,.09.25l-.08.18A.19.19,0,0,1,182.7,35.55Z"/><path class="cls-5" d="M181.81,35.15h0a.19.19,0,0,1-.09-.25l.08-.18a.19.19,0,0,1,.25-.1h0a.19.19,0,0,1,.09.25l-.08.18A.19.19,0,0,1,181.81,35.15Z"/><path class="cls-5" d="M180.92,34.75h0a.2.2,0,0,1-.09-.25l.08-.19a.2.2,0,0,1,.25-.09h0a.19.19,0,0,1,.1.25l-.09.18A.19.19,0,0,1,180.92,34.75Z"/><path class="cls-5" d="M180,34.35h0a.19.19,0,0,1-.1-.25l.09-.19a.18.18,0,0,1,.24-.09h0a.19.19,0,0,1,.1.25l-.08.18A.19.19,0,0,1,180,34.35Z"/><path class="cls-5" d="M179.15,33.94h0a.18.18,0,0,1-.09-.25l.08-.18a.18.18,0,0,1,.25-.09h0a.19.19,0,0,1,.09.25l-.08.18A.19.19,0,0,1,179.15,33.94Z"/><path class="cls-5" d="M178.26,33.54h0a.19.19,0,0,1-.09-.25l.08-.18a.19.19,0,0,1,.25-.09h0a.18.18,0,0,1,.09.25l-.08.18A.18.18,0,0,1,178.26,33.54Z"/><path class="cls-5" d="M177.38,33.14h0a.19.19,0,0,1-.1-.25l.08-.18a.18.18,0,0,1,.25-.09h0a.18.18,0,0,1,.1.24l-.08.19A.2.2,0,0,1,177.38,33.14Z"/><path class="cls-5" d="M176.49,32.74h0a.19.19,0,0,1-.1-.25l.09-.18a.19.19,0,0,1,.25-.1h0a.2.2,0,0,1,.09.25l-.08.19A.2.2,0,0,1,176.49,32.74Z"/><path class="cls-5" d="M175.6,32.34h0a.19.19,0,0,1-.09-.25l.08-.18a.19.19,0,0,1,.25-.1h0a.19.19,0,0,1,.09.25l-.08.18A.19.19,0,0,1,175.6,32.34Z"/><path class="cls-5" d="M172.17,30.79h0a.19.19,0,0,1-.1-.25l.09-.19a.19.19,0,0,1,.25-.09h0a.19.19,0,0,1,.09.25l-.08.18A.19.19,0,0,1,172.17,30.79Z"/><path class="cls-5" d="M173.9,31.57h0a.2.2,0,0,1-.09-.25l.08-.18a.19.19,0,0,1,.25-.1h0a.19.19,0,0,1,.09.25l-.08.19A.19.19,0,0,1,173.9,31.57Z"/><path class="cls-5" d="M171.28,30.38h0a.18.18,0,0,1-.09-.25l.08-.18a.19.19,0,0,1,.25-.09h0a.18.18,0,0,1,.09.25l-.08.18A.18.18,0,0,1,171.28,30.38Z"/><path class="cls-5" d="M170.39,30h0a.19.19,0,0,1-.09-.25l.08-.18a.19.19,0,0,1,.25-.09h0a.19.19,0,0,1,.1.25l-.09.18A.18.18,0,0,1,170.39,30Z"/><path class="cls-5" d="M169.51,29.58h0a.19.19,0,0,1-.1-.25l.08-.18a.19.19,0,0,1,.25-.09h0a.19.19,0,0,1,.1.25l-.08.18A.2.2,0,0,1,169.51,29.58Z"/><path class="cls-5" d="M168.62,29.18h0a.19.19,0,0,1-.1-.25l.09-.18a.19.19,0,0,1,.25-.1h0a.2.2,0,0,1,.09.25l-.08.19A.2.2,0,0,1,168.62,29.18Z"/><path class="cls-5" d="M167.73,28.78h0a.19.19,0,0,1-.09-.25l.08-.18a.19.19,0,0,1,.25-.1h0a.19.19,0,0,1,.09.25l-.08.18A.19.19,0,0,1,167.73,28.78Z"/><path class="cls-5" d="M166.84,28.38h0a.2.2,0,0,1-.09-.25l.08-.18a.19.19,0,0,1,.25-.1h0a.19.19,0,0,1,.1.25l-.09.18A.19.19,0,0,1,166.84,28.38Z"/><path class="cls-5" d="M166,28h0a.19.19,0,0,1-.1-.25l.09-.19a.19.19,0,0,1,.25-.09h0a.2.2,0,0,1,.09.25l-.08.18A.19.19,0,0,1,166,28Z"/><path class="cls-5" d="M165.07,27.57h0a.18.18,0,0,1-.09-.25l.08-.18a.19.19,0,0,1,.25-.09h0a.18.18,0,0,1,.09.25l-.08.18A.18.18,0,0,1,165.07,27.57Z"/><path class="cls-5" d="M164.2,27.18h0a.18.18,0,0,1-.09-.25l.08-.18a.18.18,0,0,1,.25-.09h0a.18.18,0,0,1,.09.25l-.08.18A.19.19,0,0,1,164.2,27.18Z"/><path class="cls-5" d="M163.31,26.78h0a.2.2,0,0,1-.09-.25l.08-.18a.19.19,0,0,1,.25-.1h0a.19.19,0,0,1,.1.25l-.09.19A.19.19,0,0,1,163.31,26.78Z"/><path class="cls-5" d="M162.43,26.38h0a.19.19,0,0,1-.1-.25l.08-.18a.19.19,0,0,1,.25-.1h0a.19.19,0,0,1,.1.25l-.08.18A.19.19,0,0,1,162.43,26.38Z"/><path class="cls-5" d="M155.55,22.78a.28.28,0,0,1-.31.13l-.09,0-1.42-.9c.17,0,.43-.11.8-.18l.93.59A.28.28,0,0,1,155.55,22.78Z"/><rect class="cls-5" x="177.81" y="32.46" width="1.01" height="1.94" rx="0.38" transform="translate(29.61 -70.5) rotate(24.33)"/><rect class="cls-5" x="179.57" y="33.26" width="1.01" height="1.94" rx="0.38" transform="translate(30.1 -71.16) rotate(24.33)"/><path class="cls-5" d="M190.54,39.1h0a.2.2,0,0,1-.09-.25l.08-.18a.19.19,0,0,1,.25-.1h0a.19.19,0,0,1,.1.25l-.09.18A.19.19,0,0,1,190.54,39.1Z"/><path class="cls-5" d="M189.66,38.7h0a.19.19,0,0,1-.1-.25l.09-.18a.19.19,0,0,1,.25-.1h0a.2.2,0,0,1,.09.25l-.08.18A.19.19,0,0,1,189.66,38.7Z"/><path class="cls-5" d="M188.77,38.3h0a.19.19,0,0,1-.09-.25l.08-.19a.19.19,0,0,1,.25-.09h0a.18.18,0,0,1,.09.25l-.08.18A.19.19,0,0,1,188.77,38.3Z"/><path class="cls-5" d="M187.88,37.89h0a.19.19,0,0,1-.09-.25l.08-.18a.2.2,0,0,1,.25-.09h0a.18.18,0,0,1,.09.25l-.08.18A.18.18,0,0,1,187.88,37.89Z"/><path class="cls-5" d="M187,37.49h0a.19.19,0,0,1-.1-.25l.08-.18a.19.19,0,0,1,.25-.09h0a.19.19,0,0,1,.1.25l-.08.18A.19.19,0,0,1,187,37.49Z"/><path class="cls-5" d="M186.11,37.09h0a.19.19,0,0,1-.1-.25l.09-.18a.18.18,0,0,1,.25-.09h0a.19.19,0,0,1,.09.25l-.08.18A.2.2,0,0,1,186.11,37.09Z"/><path class="cls-5" d="M185.22,36.69h0a.18.18,0,0,1-.09-.25l.08-.18a.19.19,0,0,1,.25-.1h0a.19.19,0,0,1,.09.25l-.08.19A.19.19,0,0,1,185.22,36.69Z"/><path class="cls-5" d="M184.33,36.29h0a.2.2,0,0,1-.09-.25l.08-.18a.19.19,0,0,1,.25-.1h0a.19.19,0,0,1,.1.25l-.09.19A.19.19,0,0,1,184.33,36.29Z"/><path class="cls-5" d="M183.45,35.89h0a.19.19,0,0,1-.1-.25l.09-.18a.18.18,0,0,1,.24-.1h0a.19.19,0,0,1,.1.25l-.08.18A.19.19,0,0,1,183.45,35.89Z"/></g><path class="cls-5" d="M178.57,38.78a.67.67,0,0,0,.59-1.07,3.81,3.81,0,0,0-1.48-1.27c-1.34-.59-1.46,1.76-1,2A7,7,0,0,0,178.57,38.78Z"/><path class="cls-5" d="M178.15,36.05l-1.26,2.79a14,14,0,0,1-3.82-1.09,11,11,0,0,1-2.67-1.53,4.13,4.13,0,0,1-.42-.37l1.33-2.93a1.63,1.63,0,0,1,.58,0c1.9.32,6,2.9,6,2.9Z"/><path class="cls-1" d="M171.89,32.93l-1.49,3.29a4.13,4.13,0,0,1-.42-.37l1.33-2.93A1.63,1.63,0,0,1,171.89,32.93Z"/><path class="cls-1" d="M209,45.61c.07,0,5.56.59,8.71,2.41l-3.69.34-5-2.28S208.63,45.8,209,45.61Z"/><path class="cls-5" d="M196.89,36.14s-3.06,2.65-3.61,3a3.24,3.24,0,0,1-1.47.39h0l-5.8-.34s-6.47-2.88-7.86-3.54h0l-.25-.12c-.41-.23-.57-.46-.45-.56S188,37.77,189.15,38.1h0c1.12.31,1.32.06,1.32.06l5.34-2.11a.52.52,0,0,1,.29-.07A2.74,2.74,0,0,1,196.89,36.14Z"/><path class="cls-5" d="M196.13,36c-1.45.63-5.48,2.36-5.84,2.44s-9.83-2.2-12.15-2.76h0l-.25-.12c-.41-.23-.57-.46-.45-.56S188,37.77,189.15,38.1s1.35.07,1.35.07l5.34-2.11A.52.52,0,0,1,196.13,36Z"/><path class="cls-5" d="M196.89,36.14s-3.06,2.65-3.61,3a3.24,3.24,0,0,1-1.47.39h0a12.53,12.53,0,0,1-2.62-1.44c1.12.31,1.32.06,1.32.06l5.34-2.11a.52.52,0,0,1,.29-.07A2.74,2.74,0,0,1,196.89,36.14Z"/><path class="cls-6" d="M213.69,46.94l-15.28-7.38s7.65,1.6,8.61,1.23,10.8-4.91,13.26-4.86c-2.64,1.41-8.8,4.88-9.08,6.45S212.75,46,213.69,46.94Z"/><path class="cls-7" d="M169.76,59.37c-5.77.3-9.71-8.65-12.14-8.77a15,15,0,0,0-2.13.23,42,42,0,0,1,5.23,13.62c3.46,17.26-3.83,33.29-16.27,35.78-12.11,2.42-24.64-8.85-28.5-25.36l-.3-1.4A42.12,42.12,0,0,1,115.23,59a.08.08,0,0,1,0,0,8.75,8.75,0,0,0-1.17.37c-2.2,1-2.39,10.83-7.83,12.77s-9.11-8.48-2.63-16.61c4-4.95,11-7.34,15.81-8.45a23.46,23.46,0,0,1,3.47-4.41l.14-.14a14.19,14.19,0,0,1-7.34-14h0a7.18,7.18,0,1,1,7.84-11.16A14.28,14.28,0,0,1,127,16.15a14,14,0,0,1,3.27-.27A7.18,7.18,0,1,1,142.05,23a14.38,14.38,0,0,1,1.58,4.24,14.09,14.09,0,0,1-2.46,11.14A22.84,22.84,0,0,1,147,41.47c4.88-.93,12.85-1.69,18.75,1.56C174.9,48,175.53,59.06,169.76,59.37Z"/><path class="cls-8" d="M116,74.87l-.3-1.4A42.12,42.12,0,0,1,115.23,59c.72-.83,1.67-1.45,2.75-.94,2.38,1.13,2,12.54,5.64,15.18C126.32,75.17,119.57,75.19,116,74.87Z"/><path class="cls-8" d="M133.46,16.79s1.82-3.39,4.52-2.51,3.07,4.76,1.31,5.83A16.26,16.26,0,0,0,133.46,16.79Z"/><path class="cls-8" d="M120.8,18.76s-3.89-1.79-5.65.28,1.76,4.71,1.76,4.71S118.6,20.24,120.8,18.76Z"/><path class="cls-9" d="M123.33,61.78c-2.12-1.91-.38-6.4-1.19-7.29a6.56,6.56,0,0,0-.82-.66,20.51,20.51,0,0,1-2.92,6.57c-4.8,7.23-12.93,10.28-18.14,6.82s-5.51-11.67-1.1-18.77c.12-.2.25-.4.38-.6a20.55,20.55,0,0,1,4.9-5.2h0a3.78,3.78,0,0,0-.53-.27c-1.13-.41-4.61,2.94-7.18,1.72s-.22-6.13,4.86-6.71c3.11-.35,6.38,1.25,8.46,2.56a11.42,11.42,0,0,1,2.75-.33h.1a7,7,0,0,1,2.3-7.43v0a3.58,3.58,0,0,1,.17-3.64A3.54,3.54,0,0,1,121.82,31a7,7,0,0,1,1.63.8,7.35,7.35,0,0,1,1.23,1,3.54,3.54,0,0,1,4.74,5,3.53,3.53,0,0,1-3.1,1.58,7.11,7.11,0,0,1-.92,2,6.94,6.94,0,0,1-4.74,3,10.93,10.93,0,0,1,1,3.12c2,1.38,5.07,3.89,6,7.08C129.07,59.61,125.44,63.68,123.33,61.78Z"/><path class="cls-10" d="M99.16,48.45c.12-.2.25-.4.38-.6a20.55,20.55,0,0,1,4.9-5.2,1.13,1.13,0,0,1,1.28.63c.44,1.22-3.67,5.07-3.31,7.26C102.67,52.16,100.31,49.82,99.16,48.45Z"/><path class="cls-10" d="M115.85,41.38a19.39,19.39,0,0,1-3-1.77h.1a7,7,0,0,1,2.3-7.43v0c.07,0,.11.13.07.33-.13.76-2,6.1,1.08,8.39C116.35,40.88,116.82,41.82,115.85,41.38Z"/><path class="cls-8" d="M125.49,34.28s1.82-.55,2.45.7-.59,2.73-1.57,2.49A8.06,8.06,0,0,0,125.49,34.28Z"/><path class="cls-8" d="M120.38,30.56s-.73-2-2.06-1.87-1,2.26-1,2.26A7.31,7.31,0,0,1,120.38,30.56Z"/><path class="cls-6" d="M79.31,50.14s-4.55-5.86-4.58-10.64.11-6.37.91-6.15a14.59,14.59,0,0,1,5.68,5.54,65.51,65.51,0,0,1,3.6,10.54C85,50.38,79.31,50.14,79.31,50.14Z"/><path class="cls-11" d="M79.55,48.27s-2.9-4.05-3-7.28-.05-4.3.44-4.14a10.28,10.28,0,0,1,3.6,3.85A50.43,50.43,0,0,1,83,47.9C83,48.54,79.55,48.27,79.55,48.27Z"/><path class="cls-6" d="M86.64,47.7s-2.18-7.94-1.32-10.1,5.32-.72,5.83.81.19,8,.19,8Z"/><path class="cls-3" d="M87.22,38.57s-.32,6.29.78,8.74l2.12-.6s.33-7,0-7.5S87.22,38.57,87.22,38.57Z"/><path class="cls-6" d="M85.2,38.05s7.32,4.85,7.92,4.34S91.48,37,90.61,36.51,85.14,35.16,85.2,38.05Z"/><rect class="cls-12" x="71.72" y="44.32" width="99.89" height="82.37" transform="translate(243.33 171.01) rotate(180)"/><rect class="cls-13" x="121.66" y="44.32" width="99.89" height="82.37"/><polygon class="cls-14" points="221.56 44.32 221.56 100.82 121.67 126.69 121.67 44.32 221.56 44.32"/><polygon class="cls-13" points="121.67 44.32 141.43 65.99 240 65.99 221.56 44.32 121.67 44.32"/><polygon class="cls-15" points="71.78 105.8 87.61 105.8 86.21 101.34 87.61 98.16 71.78 98.16 71.78 105.8"/><polygon class="cls-16" points="121.67 53.63 100.61 74.69 71.78 74.69 71.78 44.32 121.67 44.32 121.67 53.63"/><polygon class="cls-13" points="71.72 44.32 49.26 65.99 99.24 65.99 121.67 44.32 71.72 44.32"/><path class="cls-7" d="M26.77,101.34l-2.1.4a4.6,4.6,0,0,1-5.39-3.64L16.2,82.24a4.63,4.63,0,0,1,3-5.23.75.75,0,0,1,0-.16L19,75.91a1.19,1.19,0,0,1,.94-1.4l.94-.18a1.19,1.19,0,0,1,1.4,1l.18.93a.59.59,0,0,1,0,.13v0a4.62,4.62,0,0,1,4.88,3.71l3.08,15.87A4.63,4.63,0,0,1,26.77,101.34Z"/><rect class="cls-3" x="17.33" y="81.96" width="11.34" height="11.11" transform="translate(-16.26 5.99) rotate(-10.99)"/><path class="cls-17" d="M22.45,76.34,19.19,77a.75.75,0,0,1,0-.16L19,75.91a1.19,1.19,0,0,1,.94-1.4l.94-.18a1.19,1.19,0,0,1,1.4,1l.18.93A.59.59,0,0,1,22.45,76.34Z"/><path class="cls-7" d="M83.22,72.34s-1.38,1.94-2.64,2a9.37,9.37,0,0,1-3.19-.9S76.23,70.82,77,69.8a1.7,1.7,0,0,1,1.61.27,2.71,2.71,0,0,1,.43.41,1.38,1.38,0,0,0,.66.45c.91.27,2-.37,2.38.25a4.14,4.14,0,0,0,.7.83A3.06,3.06,0,0,0,83.22,72.34Z"/><path class="cls-7" d="M65.24,86.34s4.88-11.81,13.65-12c0,0,8.1.9,8.55,12Z"/><path class="cls-17" d="M76.49,74.67s3.52.78,4.6.32a1.09,1.09,0,0,0-1.32-1.27,3.11,3.11,0,0,1-2.06-.54C77.16,72.9,76.34,74.05,76.49,74.67Z"/><path class="cls-17" d="M79.55,72.45c-.23.17-.92-2.38-.92-2.38a2.71,2.71,0,0,1,.43.41,1.38,1.38,0,0,0,.66.45C79.73,71,79.77,72.28,79.55,72.45Z"/><path class="cls-17" d="M82.8,72a14.52,14.52,0,0,1-1.9,1c-.23,0,1.2-1.83,1.2-1.83A4.14,4.14,0,0,0,82.8,72Z"/><path class="cls-17" d="M70,83c-.09-.07,3.45-5.21,4.43-5.25s3.16,1.13,4.75,1.28,3.12-.3,3.42.64,1.13,4.26.62,4.79S72,84.71,70,83Z"/><path class="cls-17" d="M28.91,91a1.56,1.56,0,0,1-.56.63,1.42,1.42,0,0,1-.41.2,1.68,1.68,0,0,1-1.28-.09L4.8,80.66a1.69,1.69,0,0,1-.74-2.25,1.7,1.7,0,0,1,2.25-.74L28.18,88.78A1.68,1.68,0,0,1,28.91,91Z"/><polygon class="cls-7" points="12.05 84.34 10.67 79.89 7.15 78.1 9.27 82.93 12.05 84.34"/><polygon class="cls-7" points="17.39 87.06 14.61 85.64 12.49 80.81 16.01 82.6 17.39 87.06"/><polygon class="cls-7" points="22.72 89.77 19.94 88.35 17.82 83.52 21.34 85.31 22.72 89.77"/><path class="cls-18" d="M28.35,91.66a1.42,1.42,0,0,1-.41.2,1.68,1.68,0,0,1-1.28-.09l-1.28-.66-2.12-4.83,3.52,1.79Z"/><path class="cls-17" d="M4.06,78.41a4.31,4.31,0,0,0-2.37-3.08s.23.27-.7.57-.66.93-1,1.22A4.16,4.16,0,0,0,4.06,78.41Z"/><rect class="cls-19" x="3.33" y="77.84" width="1.2" height="0.66" rx="0.3" transform="translate(-67.56 46.33) rotate(-63.11)"/><path class="cls-18" d="M28.82,91a4.33,4.33,0,0,1,3.89.09s-.36,0-.05.91-.37,1.08-.4,1.52A4.16,4.16,0,0,1,28.82,91Z"/><rect class="cls-20" x="28.76" y="90.35" width="0.66" height="1.2" rx="0.25" transform="translate(13.86 185.21) rotate(-153.09)"/><path class="cls-17" d="M57.21,91.2a1.68,1.68,0,0,1-.81.23,1.76,1.76,0,0,1-.46-.06,1.71,1.71,0,0,1-1-.78L42.64,69.37a1.68,1.68,0,0,1,1.88-2.46,1.65,1.65,0,0,1,1,.78L57.82,88.92A1.67,1.67,0,0,1,57.21,91.2Z"/><polygon class="cls-7" points="46.72 76.41 47.99 71.92 46.01 68.5 45.16 73.71 46.72 76.41"/><polygon class="cls-7" points="49.72 81.59 48.16 78.89 49.01 73.68 50.99 77.1 49.72 81.59"/><polygon class="cls-7" points="52.71 86.77 51.15 84.07 52.01 78.86 53.98 82.28 52.71 86.77"/><path class="cls-7" d="M56.4,91.43a1.76,1.76,0,0,1-.46-.06,1.71,1.71,0,0,1-1-.78l-.72-1.24.86-5.21,2,3.42Z"/><path class="cls-15" d="M43.25,67.08a4.31,4.31,0,0,0-.31-3.88s.05.36-.89.1-1.07.42-1.5.49A4.15,4.15,0,0,0,43.25,67.08Z"/><path class="cls-21" d="M42.77,67.14l0,0a.31.31,0,0,1,.11-.41l.52-.3a.29.29,0,0,1,.41.11l0,.05a.29.29,0,0,1-.11.41l-.52.3A.31.31,0,0,1,42.77,67.14Z"/><path class="cls-15" d="M57.16,91.12a4.33,4.33,0,0,1,3.21,2.2s-.29-.22-.53.73-.9.71-1.17,1A4.16,4.16,0,0,1,57.16,91.12Z"/><path class="cls-21" d="M56.87,91.51l0,0a.31.31,0,0,0,.41.11l.52-.3a.32.32,0,0,0,.11-.42l0,0a.31.31,0,0,0-.41-.11l-.52.3A.3.3,0,0,0,56.87,91.51Z"/><path class="cls-17" d="M17.47,97.16a1.71,1.71,0,0,1-.62-.57,1.62,1.62,0,0,1-.2-.42,1.71,1.71,0,0,1,.12-1.27L28.23,73.21a1.68,1.68,0,0,1,2.26-.69,1.65,1.65,0,0,1,.82,1,1.74,1.74,0,0,1-.12,1.28L19.73,96.46A1.68,1.68,0,0,1,17.47,97.16Z"/><polygon class="cls-7" points="24.43 80.4 28.91 79.1 30.75 75.61 25.88 77.65 24.43 80.4"/><polygon class="cls-17" points="21.63 85.7 23.09 82.95 27.95 80.9 26.11 84.39 21.63 85.7"/><polygon class="cls-22" points="18.84 90.99 20.29 88.23 25.16 86.19 23.31 89.68 18.84 90.99"/><path class="cls-22" d="M16.85,96.59a1.62,1.62,0,0,1-.2-.42,1.71,1.71,0,0,1,.12-1.27l.67-1.28,4.87-2-1.85,3.49Z"/><path class="cls-7" d="M30.49,72.52a4.35,4.35,0,0,0,3.12-2.33s-.28.23-.56-.71-.92-.67-1.21-1A4.18,4.18,0,0,0,30.49,72.52Z"/><rect class="cls-21" x="30.4" y="71.79" width="0.66" height="1.2" rx="0.25" transform="translate(109.09 79.02) rotate(117.83)"/><path class="cls-20" d="M17.52,97.07a4.31,4.31,0,0,1-.16,3.88s0-.35-.91-.06-1.07-.38-1.51-.43A4.15,4.15,0,0,1,17.52,97.07Z"/><rect class="cls-20" x="17.22" y="96.73" width="0.66" height="1.2" rx="0.3" transform="translate(-76.63 67.13) rotate(-62)"/><path class="cls-17" d="M40.36,77.45s1,1.41,1.92,1.43a6.67,6.67,0,0,0,2.31-.65s.85-1.88.27-2.62a1.22,1.22,0,0,0-1.17.2,1.65,1.65,0,0,0-.31.29.93.93,0,0,1-.48.33c-.66.2-1.43-.27-1.72.18a3,3,0,0,1-.51.6A2.48,2.48,0,0,1,40.36,77.45Z"/><path class="cls-17" d="M53.41,87.62S49.87,79,43.5,78.88c0,0-5.88.65-6.2,8.74Z"/><path class="cls-7" d="M45.25,79.14s-2.56.57-3.34.24c0,0-.12-1.07,1-.92a2.23,2.23,0,0,0,1.5-.4C44.76,77.86,45.35,78.7,45.25,79.14Z"/><path class="cls-7" d="M43,77.53c.16.12.66-1.72.66-1.72a1.65,1.65,0,0,0-.31.29.93.93,0,0,1-.48.33S42.87,77.41,43,77.53Z"/><path class="cls-7" d="M40.67,77.21a11,11,0,0,0,1.38.73c.16,0-.87-1.33-.87-1.33A3,3,0,0,1,40.67,77.21Z"/><path class="cls-7" d="M50,85.22c.07,0-2.5-3.78-3.21-3.81s-2.3.82-3.45.93-2.26-.22-2.48.46-.82,3.09-.45,3.48S48.54,86.43,50,85.22Z"/><path class="cls-7" d="M65.73,77.91h0c-1,0-1.58-1.58-1.58-1.58L53.89,79.44a2,2,0,0,1-.29,2,2.87,2.87,0,0,0-1.22,3l2.27,7.5a2.52,2.52,0,0,0,3.15,1.68l10.82-3.27a2.54,2.54,0,0,0,1.69-3.15L68,79.7A2.54,2.54,0,0,0,65.73,77.91Z"/><path class="cls-17" d="M52.86,79.1l.62,2c.22.74,3,.54,6.27-.45s5.7-2.37,5.48-3.11l-.62-2Z"/><path class="cls-17" d="M64.61,75.55c.22.73-2.23,2.13-5.47,3.11s-6.06,1.18-6.28.44S55.09,77,58.33,76,64.39,74.81,64.61,75.55Z"/><path class="cls-7" d="M38.2,82h0c-.74-.35-.55-1.64-.55-1.64l-8.21-1.4a1.55,1.55,0,0,1-.88,1.28,2.24,2.24,0,0,0-1.9,1.66l-1,6a2,2,0,0,0,1.6,2.26l8.65,1.48A2,2,0,0,0,38.15,90l1-6A2,2,0,0,0,38.2,82Z"/><path class="cls-17" d="M28.85,78.35,28.57,80c-.1.59,1.92,1.42,4.51,1.87s4.78.32,4.88-.27L38.24,80Z"/><path class="cls-17" d="M38.24,80c-.1.58-2.29.7-4.88.26s-4.61-1.28-4.51-1.87,2.28-.71,4.87-.26S38.34,79.37,38.24,80Z"/><rect class="cls-12" x="12.05" y="84.42" width="50.83" height="41.91" transform="translate(74.94 210.75) rotate(180)"/><rect class="cls-13" x="37.47" y="84.42" width="50.83" height="41.91" transform="translate(125.76 210.75) rotate(180)"/><polygon class="cls-14" points="37.47 84.42 88.43 84.42 88.43 113.13 37.47 126.33 37.47 84.42"/><polygon class="cls-13" points="37.47 84.42 47.52 95.44 97.68 95.44 88.3 84.42 37.47 84.42"/><polygon class="cls-16" points="37.47 89.16 26.75 99.87 12.09 99.87 12.09 84.42 37.47 84.42 37.47 89.16"/><polygon class="cls-13" points="12.05 84.42 0.63 95.44 26.06 95.44 37.47 84.42 12.05 84.42"/><g class="cls-23"><path class="cls-3" d="M70.31,107.71l3.06,5.63,2.29-4.08a1.51,1.51,0,0,0,0-1.46l-1.41-2.69a.3.3,0,0,0-.41-.13.29.29,0,0,0-.14.13l-1,2h-2a.45.45,0,0,0-.43.46A.53.53,0,0,0,70.31,107.71Z"/><path class="cls-3" d="M75.17,110.06l-.47.32a2.65,2.65,0,0,1-1.54.48H68.9v-1a.12.12,0,0,0-.12-.11.12.12,0,0,0-.1,0l-1.94,3.41,1.94,3.46a.12.12,0,0,0,.15.07.13.13,0,0,0,.08-.12l.06-1.15h2a2.12,2.12,0,0,0,1.9-1.12Z"/><path class="cls-3" d="M65.44,105.81l3.34-5.47-4.67.06a1.57,1.57,0,0,0-1.28.71l-1.62,2.57a.32.32,0,0,0,.09.43.41.41,0,0,0,.19,0l2.19-.14,1,1.77a.45.45,0,0,0,.61.16A.67.67,0,0,0,65.44,105.81Z"/><path class="cls-3" d="M66.11,110.88l-6.4-.15,2.4,4a1.5,1.5,0,0,0,1.25.75l3,.13a.31.31,0,0,0,.32-.3.34.34,0,0,0,0-.19l-1.22-1.82,1-1.76a.43.43,0,0,0-.15-.6A.57.57,0,0,0,66.11,110.88Z"/><path class="cls-3" d="M61.63,114v-.56A2.68,2.68,0,0,1,62,111.8l2.16-3.66.83.49a.11.11,0,0,0,.16,0,.11.11,0,0,0,0-.11l-2-3.45-4,0a.12.12,0,0,0-.12.12.17.17,0,0,0,.06.1l1,.62-1,1.68a2.12,2.12,0,0,0,0,2.2Z"/><path class="cls-3" d="M65.44,100.39l.51.25a2.78,2.78,0,0,1,1.18,1.1l2.1,3.71-.84.47a.12.12,0,0,0,0,.16.11.11,0,0,0,.1.06h4l2-3.41a.12.12,0,0,0-.15-.17l-1,.52-1-1.67a2.08,2.08,0,0,0-1.91-1.09Z"/></g><g class="cls-23"><path class="cls-3" d="M184.89,88.44l5.4,9.94,4-7.21a2.69,2.69,0,0,0,0-2.58l-2.48-4.74a.55.55,0,0,0-.73-.25.53.53,0,0,0-.24.25l-1.73,3.45h-3.59a.78.78,0,0,0-.75.82A.89.89,0,0,0,184.89,88.44Z"/><path class="cls-3" d="M193.48,92.59l-.83.56a4.76,4.76,0,0,1-2.73.84H182.4V92.25a.21.21,0,0,0-.21-.21.23.23,0,0,0-.18.11l-3.42,6,3.42,6.11a.21.21,0,0,0,.27.12.2.2,0,0,0,.13-.21l.11-2H186a3.74,3.74,0,0,0,3.36-2Z"/><path class="cls-3" d="M176.28,85.07l5.91-9.64-8.25.1a2.74,2.74,0,0,0-2.25,1.26l-2.86,4.53a.54.54,0,0,0,.16.75.48.48,0,0,0,.32.09l3.87-.25L175,85a.78.78,0,0,0,1.07.28A.75.75,0,0,0,176.28,85.07Z"/><path class="cls-3" d="M177.48,94l-11.3-.28,4.23,7.08a2.7,2.7,0,0,0,2.21,1.33l5.35.22a.55.55,0,0,0,.57-.52.56.56,0,0,0-.1-.33l-2.14-3.22,1.83-3.1a.79.79,0,0,0-.27-1.08A.86.86,0,0,0,177.48,94Z"/><path class="cls-3" d="M169.56,99.46v-1a4.87,4.87,0,0,1,.65-2.79L174,89.19l1.48.87a.2.2,0,0,0,.28-.08.18.18,0,0,0,0-.2l-3.54-6.08-7-.09a.2.2,0,0,0-.2.21.19.19,0,0,0,.1.17l1.7,1.11-1.77,3a3.75,3.75,0,0,0,0,3.9Z"/><path class="cls-3" d="M176.28,75.52l.91.42a4.89,4.89,0,0,1,2.08,2l3.7,6.55-1.47.84a.2.2,0,0,0-.07.28.19.19,0,0,0,.17.1h7l3.59-6a.21.21,0,0,0-.07-.29.2.2,0,0,0-.2,0l-1.81.92-1.73-3A3.74,3.74,0,0,0,185,75.38Z"/></g></svg>