<svg id="Ebene_1" data-name="Ebene 1" xmlns="http://www.w3.org/2000/svg" xmlns:xlink="http://www.w3.org/1999/xlink" viewBox="0 0 240 130"><defs><style>.cls-1{fill:url(#Unbenannter_Verlauf_4);}.cls-2{fill:url(#Unbenannter_Verlauf_2);}.cls-3{fill:url(#Unbenannter_Verlauf_4-2);}.cls-4{fill:url(#Unbenannter_Verlauf_4-3);}.cls-5{fill:url(#Unbenannter_Verlauf_5);}.cls-6{fill:url(#Unbenannter_Verlauf_9);}.cls-7{fill:url(#Unbenannter_Verlauf_9-2);}.cls-8{fill:url(#Unbenannter_Verlauf_9-3);}.cls-9{fill:url(#Unbenannter_Verlauf_9-4);}.cls-10{fill:#fff;}.cls-11{fill:gray;}.cls-12{fill:#e58638;}.cls-13{fill:#f2f2f2;}.cls-14{opacity:0.5;}.cls-15{fill:#999;}.cls-16{fill:#b3b3b3;}.cls-17{fill:#f9ddbf;}.cls-18{fill:#fff3e9;}.cls-19{fill:#efcdaf;}.cls-20{fill:#e2b99a;}.cls-21{fill:#998675;}.cls-22{fill:#c7b299;}.cls-23{fill:#d86713;opacity:0.4;}.cls-24{fill:#f1a34f;}.cls-25{fill:#736357;}.cls-26{fill:#ffc100;}.cls-27{fill:#b64c41;}.cls-28{fill:#c66e26;}.cls-29{fill:#4a75cb;}.cls-30{fill:#d3671e;}.cls-31{fill:#699ff0;}.cls-32{opacity:0.67;}</style><linearGradient id="Unbenannter_Verlauf_4" x1="190.53" y1="126.28" x2="190.36" y2="116.58" gradientTransform="matrix(1, 0, 0, -1, 0, 131)" gradientUnits="userSpaceOnUse"><stop offset="0" stop-color="#ffc100"/><stop offset="1" stop-color="#ffc100"/></linearGradient><linearGradient id="Unbenannter_Verlauf_2" x1="165.05" y1="21.96" x2="204.39" y2="92.65" gradientTransform="matrix(1, 0.03, 0.03, -1, -0.23, 131.19)" gradientUnits="userSpaceOnUse"><stop offset="0" stop-color="#ffc100"/><stop offset="0.68" stop-color="#ff9000"/><stop offset="1" stop-color="#ffcb00"/></linearGradient><linearGradient id="Unbenannter_Verlauf_4-2" x1="190.62" y1="137.67" x2="188.16" y2="115.53" gradientTransform="matrix(1, 0.03, 0.03, -1, -0.23, 131.19)" xlink:href="#Unbenannter_Verlauf_4"/><linearGradient id="Unbenannter_Verlauf_4-3" x1="269.71" y1="-55" x2="280.32" y2="15.75" gradientTransform="matrix(1, 0.03, 0.03, -1, -84.43, 102.14)" xlink:href="#Unbenannter_Verlauf_4"/><linearGradient id="Unbenannter_Verlauf_5" x1="151" y1="105.13" x2="229.38" y2="105.13" gradientTransform="matrix(1, 0, 0, -1, 0, 131)" gradientUnits="userSpaceOnUse"><stop offset="0" stop-color="#ffc100" stop-opacity="0.87"/><stop offset="1" stop-color="#ff8b00"/></linearGradient><linearGradient id="Unbenannter_Verlauf_9" x1="176.85" y1="129.91" x2="167.44" y2="45.24" gradientTransform="matrix(1, 0, 0, -1, 0, 131)" gradientUnits="userSpaceOnUse"><stop offset="0" stop-color="#ffc100"/><stop offset="1" stop-color="#fff"/></linearGradient><linearGradient id="Unbenannter_Verlauf_9-2" x1="184.47" y1="132.28" x2="175.06" y2="47.61" gradientTransform="matrix(1, 0.01, 0.01, -1, 1.6, 131.47)" xlink:href="#Unbenannter_Verlauf_9"/><linearGradient id="Unbenannter_Verlauf_9-3" x1="-326.39" y1="126.57" x2="-335.79" y2="41.9" gradientTransform="translate(-128.9 131.47) rotate(179.43)" xlink:href="#Unbenannter_Verlauf_9"/><linearGradient id="Unbenannter_Verlauf_9-4" x1="199.5" y1="128.66" x2="190.18" y2="44.75" xlink:href="#Unbenannter_Verlauf_9"/></defs><g id="Ebene_2" data-name="Ebene 2"><g id="Layer_1" data-name="Layer 1"><path class="cls-1" d="M178,14.92l-.4-5.36a3.72,3.72,0,0,1,3.29-4c4.55-.51,12.58-1.16,18.82-.29a4.16,4.16,0,0,1,3.58,4.15v5.48H197.7l.19-2.8a4.17,4.17,0,0,0-3.79-4.45,38.71,38.71,0,0,0-9,.19,3.72,3.72,0,0,0-3.17,4.21c0,.12,0,.25.07.37l.62,2.48Z"/><polygon class="cls-2" points="221.6 120.43 162 119.17 157.76 28.05 224.73 24.12 221.6 120.43"/><path class="cls-3" d="M224.79,22.32l-66.93,2.85L165.21,16a8,8,0,0,1,6.17-2.83l40.41-.62a5.33,5.33,0,0,1,3.69,1.33Z"/><path class="cls-4" d="M162,119.17l59.59,1.26-10.81,8.15a4.86,4.86,0,0,1-2.86,1l-34.31.1a4.71,4.71,0,0,1-3.57-1.59Z"/><path class="cls-5" d="M227.48,31.61l-72.41.1c-2.6,0-4.55-1.71-4-3.48l1.6-4.8c.4-1.2,1.9-2.05,3.67-2.08L225.31,20c1.93,0,3.66.92,4.07,2.25"/><path class="cls-6" d="M170,117.18h0a1,1,0,0,1-1-1l-3.46-76.54a1,1,0,0,1,.95-1h0a1,1,0,0,1,1,1L171,116.13a1,1,0,0,1-.95,1.05Z"/><path class="cls-7" d="M179.24,117.2h0a1,1,0,0,1-1-1L175.9,39.66a1,1,0,0,1,.95-1h.05a1,1,0,0,1,1,1l2.35,76.57a1,1,0,0,1-1,1Z"/><path class="cls-8" d="M204.31,117.2h0a1,1,0,0,0,1-1l2.36-76.57a1,1,0,0,0-1-1h-.05a1,1,0,0,0-1,1l-2.37,76.57a1,1,0,0,0,1,1Z"/><rect class="cls-9" x="190.38" y="39.76" width="1.33" height="77.41" rx="0.58"/><path class="cls-10" d="M205.24,40.53l0,0Z"/><path class="cls-10" d="M205.24,40.53l0,.09Z"/></g></g><path class="cls-11" d="M172,60.08l-6.46,8-.1,0-11.63-5.61s5.83,1.19,6.57.9,8.26-3.83,10.14-3.81a.7.7,0,0,1,.28.05Z"/><path class="cls-12" d="M165.39,70.08c-.3,0-1.18-.14-2.39-.32-3.47-.49-9.61-1.49-12.11-2.59-2.24-1-14.1-6.23-22.28-9.93a14.42,14.42,0,0,1,8.45-2.48c9.54,4.26,22,9.87,23.56,10.72,2.54,1.39,6,3,6,3a1.8,1.8,0,0,1,0,.23C166.51,69.21,166.28,70.17,165.39,70.08Z"/><path class="cls-13" d="M165.39,70.08c-.3,0-1.18-.14-2.39-.32-3.47-.49-9.61-1.49-12.11-2.59-2.24-1-14.1-6.23-22.28-9.93-4.1-1.85-7.28-3.32-7.85-3.67-1.7-1-5-3.7-4.36-4.34s2.19-.24,2.72-.38h0a6.18,6.18,0,0,1,.62-.13,10.87,10.87,0,0,1,6.21,1.1l11.09,4.95c9.54,4.26,22,9.87,23.56,10.72,2.54,1.39,6,3,6,3a1.8,1.8,0,0,1,0,.23C166.51,69.21,166.28,70.17,165.39,70.08Z"/><path class="cls-11" d="M165.39,70.08c-.3,0-1.18-.14-2.39-.32A3.42,3.42,0,0,0,162,67.45l4.62,1.3C166.51,69.21,166.28,70.17,165.39,70.08Z"/><g class="cls-14"><path class="cls-15" d="M155.19,65.45h0a.15.15,0,0,1-.07-.19l.06-.15a.16.16,0,0,1,.2-.07h0a.15.15,0,0,1,.07.19l-.06.15A.16.16,0,0,1,155.19,65.45Z"/><path class="cls-15" d="M154.51,65.14h0a.15.15,0,0,1-.08-.19l.07-.15a.15.15,0,0,1,.19-.07h0a.14.14,0,0,1,.07.19l-.06.15A.15.15,0,0,1,154.51,65.14Z"/><path class="cls-15" d="M153.82,64.83h0a.13.13,0,0,1-.07-.19l.06-.15a.15.15,0,0,1,.19-.07h0a.14.14,0,0,1,.08.19l-.07.15A.15.15,0,0,1,153.82,64.83Z"/><path class="cls-15" d="M153.13,64.52h0a.14.14,0,0,1-.07-.19l.06-.15a.16.16,0,0,1,.2-.07h0a.16.16,0,0,1,.07.2l-.07.14A.15.15,0,0,1,153.13,64.52Z"/><path class="cls-15" d="M152.44,64.21h0a.15.15,0,0,1-.07-.19l.06-.15a.16.16,0,0,1,.2-.07h0a.16.16,0,0,1,.07.2l-.06.14A.16.16,0,0,1,152.44,64.21Z"/><path class="cls-15" d="M151.76,63.9h0a.14.14,0,0,1-.08-.19l.07-.14a.14.14,0,0,1,.19-.08h0a.15.15,0,0,1,.07.2l-.06.14A.15.15,0,0,1,151.76,63.9Z"/><path class="cls-15" d="M151.07,63.59h0a.14.14,0,0,1-.08-.19l.07-.14a.14.14,0,0,1,.19-.08h0a.15.15,0,0,1,.08.2l-.07.14A.15.15,0,0,1,151.07,63.59Z"/><path class="cls-15" d="M150.38,63.28h0a.14.14,0,0,1-.07-.19l.06-.14a.15.15,0,0,1,.2-.08h0a.16.16,0,0,1,.07.2l-.07.14A.15.15,0,0,1,150.38,63.28Z"/><path class="cls-15" d="M149.69,63h0a.15.15,0,0,1-.07-.19l.06-.14a.15.15,0,0,1,.2-.08h0a.16.16,0,0,1,.07.2l-.06.14A.16.16,0,0,1,149.69,63Z"/><path class="cls-15" d="M141.59,59.32h0a.16.16,0,0,1-.07-.2l.06-.14a.16.16,0,0,1,.2-.07h0a.15.15,0,0,1,.07.19l-.07.14A.14.14,0,0,1,141.59,59.32Z"/><path class="cls-15" d="M140.9,59h0a.15.15,0,0,1-.07-.19l.06-.15a.16.16,0,0,1,.2-.07h0a.15.15,0,0,1,.07.19l-.06.15A.16.16,0,0,1,140.9,59Z"/><path class="cls-15" d="M140.22,58.7h0a.15.15,0,0,1-.08-.19l.07-.15a.15.15,0,0,1,.19-.07h0a.14.14,0,0,1,.07.19l-.06.15A.15.15,0,0,1,140.22,58.7Z"/><path class="cls-15" d="M139.53,58.39h0a.14.14,0,0,1-.07-.19l.06-.15a.15.15,0,0,1,.19-.07h0a.14.14,0,0,1,.08.19l-.07.15A.15.15,0,0,1,139.53,58.39Z"/><path class="cls-15" d="M138.84,58.08h0a.14.14,0,0,1-.07-.19l.06-.15a.16.16,0,0,1,.2-.07h0a.15.15,0,0,1,.07.19L139,58A.15.15,0,0,1,138.84,58.08Z"/><path class="cls-15" d="M138.15,57.77h0a.15.15,0,0,1-.07-.19l.06-.15a.16.16,0,0,1,.2-.07h0a.16.16,0,0,1,.07.2l-.06.14A.16.16,0,0,1,138.15,57.77Z"/><path class="cls-15" d="M137.47,57.46h0a.14.14,0,0,1-.08-.19l.07-.15a.15.15,0,0,1,.19-.07h0a.15.15,0,0,1,.07.2l-.06.14A.15.15,0,0,1,137.47,57.46Z"/><path class="cls-15" d="M136.78,57.15h0a.14.14,0,0,1-.07-.19l.06-.14a.14.14,0,0,1,.19-.08h0a.15.15,0,0,1,.08.2l-.07.14A.15.15,0,0,1,136.78,57.15Z"/><path class="cls-15" d="M136.09,56.84h0a.14.14,0,0,1-.07-.19l.06-.14a.15.15,0,0,1,.2-.08h0a.16.16,0,0,1,.07.2l-.07.14A.15.15,0,0,1,136.09,56.84Z"/><path class="cls-15" d="M133.43,55.64h0a.14.14,0,0,1-.07-.19l.06-.14a.14.14,0,0,1,.19-.08h0a.15.15,0,0,1,.08.2l-.07.14A.15.15,0,0,1,133.43,55.64Z"/><path class="cls-15" d="M134.77,56.25h0a.16.16,0,0,1-.07-.2l.07-.14a.15.15,0,0,1,.19-.07h0A.14.14,0,0,1,135,56l-.06.14A.15.15,0,0,1,134.77,56.25Z"/><path class="cls-15" d="M132.74,55.33h0a.15.15,0,0,1-.07-.19l.06-.14a.15.15,0,0,1,.2-.08h0a.16.16,0,0,1,.07.2l-.06.14A.16.16,0,0,1,132.74,55.33Z"/><path class="cls-15" d="M132.06,55h0a.14.14,0,0,1-.08-.19l.07-.14a.14.14,0,0,1,.19-.08h0a.15.15,0,0,1,.07.2l-.06.14A.15.15,0,0,1,132.06,55Z"/><path class="cls-15" d="M131.37,54.71h0a.14.14,0,0,1-.08-.19l.07-.14a.14.14,0,0,1,.19-.08h0a.14.14,0,0,1,.07.2l-.06.14A.15.15,0,0,1,131.37,54.71Z"/><path class="cls-15" d="M130.68,54.4h0a.14.14,0,0,1-.07-.19l.06-.14a.14.14,0,0,1,.19-.08h0a.15.15,0,0,1,.08.2l-.07.14A.15.15,0,0,1,130.68,54.4Z"/><path class="cls-15" d="M130,54.09h0a.15.15,0,0,1-.07-.19l.06-.14a.15.15,0,0,1,.2-.08h0a.16.16,0,0,1,.07.2l-.06.14A.16.16,0,0,1,130,54.09Z"/><path class="cls-15" d="M129.3,53.78h0a.15.15,0,0,1-.07-.19l.07-.14a.14.14,0,0,1,.19-.08h0a.15.15,0,0,1,.07.2l-.06.14A.16.16,0,0,1,129.3,53.78Z"/><path class="cls-15" d="M128.62,53.47h0a.14.14,0,0,1-.08-.19l.07-.14a.14.14,0,0,1,.19-.08h0a.15.15,0,0,1,.07.2l-.06.14A.15.15,0,0,1,128.62,53.47Z"/><path class="cls-15" d="M127.93,53.16h0a.14.14,0,0,1-.07-.19l.06-.14a.14.14,0,0,1,.19-.08h0a.15.15,0,0,1,.08.2l-.07.14A.15.15,0,0,1,127.93,53.16Z"/><path class="cls-15" d="M127.26,52.86h0a.15.15,0,0,1-.08-.2l.07-.14a.15.15,0,0,1,.19-.07h0a.14.14,0,0,1,.07.19l-.06.14A.14.14,0,0,1,127.26,52.86Z"/><path class="cls-15" d="M126.57,52.55h0a.14.14,0,0,1-.07-.2l.06-.14a.15.15,0,0,1,.19-.07h0a.14.14,0,0,1,.08.19l-.07.14A.14.14,0,0,1,126.57,52.55Z"/><path class="cls-15" d="M125.88,52.24h0a.15.15,0,0,1-.07-.2l.06-.14a.16.16,0,0,1,.2-.07h0a.15.15,0,0,1,.07.19l-.07.14A.14.14,0,0,1,125.88,52.24Z"/><path class="cls-15" d="M120.55,49.46a.23.23,0,0,1-.24.1s0,0-.07,0l-1.1-.69a6.18,6.18,0,0,1,.62-.13l.72.44A.22.22,0,0,1,120.55,49.46Z"/><path class="cls-15" d="M138,58.41l-.18-.08a.3.3,0,0,1-.15-.39l.38-.84a.3.3,0,0,1,.39-.14l.18.08a.29.29,0,0,1,.15.38l-.39.84A.29.29,0,0,1,138,58.41Z"/><path class="cls-15" d="M139.33,59l-.17-.08a.28.28,0,0,1-.15-.38l.38-.84a.3.3,0,0,1,.39-.15l.18.08a.3.3,0,0,1,.14.39l-.38.84A.3.3,0,0,1,139.33,59Z"/><path class="cls-15" d="M147.67,62.06h0a.15.15,0,0,1-.07-.19l.06-.15a.16.16,0,0,1,.2-.07h0a.15.15,0,0,1,.07.19l-.06.15A.16.16,0,0,1,147.67,62.06Z"/><path class="cls-15" d="M147,61.75h0a.15.15,0,0,1-.07-.19l.07-.15a.15.15,0,0,1,.19-.07h0a.16.16,0,0,1,.07.2l-.06.14A.16.16,0,0,1,147,61.75Z"/><path class="cls-15" d="M146.3,61.44h0a.14.14,0,0,1-.08-.19l.07-.14a.14.14,0,0,1,.19-.08h0a.15.15,0,0,1,.07.2l-.06.14A.15.15,0,0,1,146.3,61.44Z"/><path class="cls-15" d="M145.61,61.13h0a.14.14,0,0,1-.07-.19l.06-.14a.14.14,0,0,1,.19-.08h0a.15.15,0,0,1,.08.2l-.07.14A.15.15,0,0,1,145.61,61.13Z"/><path class="cls-15" d="M144.92,60.82h0a.15.15,0,0,1-.07-.19l.06-.14a.15.15,0,0,1,.2-.08h0a.16.16,0,0,1,.07.2l-.06.14A.16.16,0,0,1,144.92,60.82Z"/><path class="cls-15" d="M144.23,60.51h0a.15.15,0,0,1-.07-.19l.06-.14a.16.16,0,0,1,.2-.08h0a.16.16,0,0,1,.07.2l-.06.14A.16.16,0,0,1,144.23,60.51Z"/><path class="cls-15" d="M143.55,60.2h0a.14.14,0,0,1-.08-.19l.07-.14a.14.14,0,0,1,.19-.08h0a.15.15,0,0,1,.07.2l-.06.14A.15.15,0,0,1,143.55,60.2Z"/><path class="cls-15" d="M142.86,59.89h0a.14.14,0,0,1-.07-.19l.06-.14a.14.14,0,0,1,.19-.08h0a.15.15,0,0,1,.08.2l-.07.14A.15.15,0,0,1,142.86,59.89Z"/><path class="cls-15" d="M142.17,59.58h0a.15.15,0,0,1-.07-.19l.06-.14a.15.15,0,0,1,.2-.08h0a.16.16,0,0,1,.07.2l-.07.14A.15.15,0,0,1,142.17,59.58Z"/></g><path class="cls-15" d="M138.39,61.82a.52.52,0,0,0,.46-.83,3,3,0,0,0-1.15-1c-1-.45-1.13,1.36-.79,1.53A6,6,0,0,0,138.39,61.82Z"/><path class="cls-15" d="M138.06,59.7l-1,2.16a11,11,0,0,1-3-.84,8.87,8.87,0,0,1-2.07-1.18,3.28,3.28,0,0,1-.32-.29l1-2.26a1.15,1.15,0,0,1,.45,0c1.48.25,4.67,2.23,4.67,2.23Z"/><path class="cls-11" d="M133.21,57.3l-1.15,2.54a3.28,3.28,0,0,1-.32-.29l1-2.26A1.15,1.15,0,0,1,133.21,57.3Z"/><path class="cls-11" d="M162,67.09a20.12,20.12,0,0,1,6.74,1.85l-2.85.27L162,67.45S161.69,67.23,162,67.09Z"/><path class="cls-15" d="M152.59,59.78s-2.38,2-2.8,2.33a2.6,2.6,0,0,1-1.14.3h0l-4.5-.26s-5-2.22-6.09-2.73h0l-.2-.1c-.32-.18-.44-.36-.34-.43s8.18,2.16,9.07,2.41h0c.88.24,1,0,1,0l4.15-1.63a.36.36,0,0,1,.22-.05A2.11,2.11,0,0,1,152.59,59.78Z"/><path class="cls-15" d="M152,59.66c-1.13.48-4.25,1.82-4.52,1.89s-7.62-1.71-9.42-2.14h0l-.2-.1c-.32-.18-.44-.36-.34-.43s8.18,2.16,9.07,2.41,1,.05,1,.05l4.15-1.63A.36.36,0,0,1,152,59.66Z"/><path class="cls-15" d="M152.59,59.78s-2.38,2-2.8,2.33a2.6,2.6,0,0,1-1.14.3h0a9.68,9.68,0,0,1-2-1.1c.88.24,1,0,1,0l4.15-1.63a.36.36,0,0,1,.22-.05A2.11,2.11,0,0,1,152.59,59.78Z"/><path class="cls-16" d="M165.61,68.11l-11.84-5.69s5.93,1.23,6.67.94,8.37-3.79,10.28-3.75c-2.05,1.09-6.82,3.77-7,5S164.88,67.37,165.61,68.11Z"/><path class="cls-17" d="M131.56,77.71c-4.47.23-7.52-6.68-9.41-6.77a11.06,11.06,0,0,0-1.65.18,32.08,32.08,0,0,1,4.06,10.51c2.68,13.33-3,25.7-12.61,27.63-9.39,1.87-19.1-6.84-22.09-19.58-.08-.36-.16-.72-.23-1.08a32.66,32.66,0,0,1-.33-11.19s0,0,0,0a5.61,5.61,0,0,0-.9.29c-1.71.8-1.86,8.35-6.07,9.85S75.28,81,80.3,74.7c3.06-3.82,8.49-5.67,12.25-6.53a18.57,18.57,0,0,1,2.69-3.4,1.14,1.14,0,0,0,.11-.11,10.91,10.91,0,0,1-5.69-10.79h0a5.55,5.55,0,1,1,6.08-8.62,11.15,11.15,0,0,1,5.23-1.12,5.56,5.56,0,1,1,9.15,5.5,10.58,10.58,0,0,1,1.22,3.28,10.85,10.85,0,0,1-1.9,8.59A17.75,17.75,0,0,1,114,63.89c3.78-.72,10-1.3,14.53,1.2C135.55,69,136,77.47,131.56,77.71Z"/><path class="cls-18" d="M89.86,89.68c-.08-.36-.16-.72-.23-1.08a32.66,32.66,0,0,1-.33-11.19,1.77,1.77,0,0,1,2.13-.72c1.85.87,1.56,9.68,4.37,11.71C97.89,89.91,92.67,89.93,89.86,89.68Z"/><path class="cls-18" d="M103.43,44.83s1.41-2.61,3.5-1.94,2.38,3.68,1,4.51A12.62,12.62,0,0,0,103.43,44.83Z"/><path class="cls-18" d="M93.62,46.36s-3-1.38-4.38.21,1.37,3.64,1.37,3.64A11.52,11.52,0,0,1,93.62,46.36Z"/><path class="cls-19" d="M95.58,79.57c-1.64-1.47-.29-4.94-.92-5.63a6.93,6.93,0,0,0-.64-.51,15.85,15.85,0,0,1-2.26,5.08c-3.72,5.58-10,7.93-14.05,5.26s-4.28-9-.86-14.49c.09-.16.19-.31.29-.46a16.1,16.1,0,0,1,3.8-4h0a3.22,3.22,0,0,0-.41-.21c-.88-.31-3.57,2.27-5.57,1.33s-.17-4.73,3.77-5.18c2.41-.27,5,1,6.56,2a9.26,9.26,0,0,1,2.13-.26h.08a5.34,5.34,0,0,1,.67-4.52,5.65,5.65,0,0,1,1.11-1.22h0a2.74,2.74,0,1,1,5.13-.89,5.48,5.48,0,0,1,1.27.61,5.72,5.72,0,0,1,.95.81,2.74,2.74,0,1,1,1.27,5.09,5.31,5.31,0,0,1-.72,1.57,5.39,5.39,0,0,1-3.67,2.34,8.58,8.58,0,0,1,.75,2.41c1.57,1.06,3.93,3,4.65,5.46C100,77.9,97.22,81,95.58,79.57Z"/><path class="cls-20" d="M76.85,69.28c.09-.16.19-.31.29-.46a16.1,16.1,0,0,1,3.8-4c.42,0,.84.06,1,.49.34.94-2.84,3.92-2.57,5.6C79.57,72.14,77.74,70.34,76.85,69.28Z"/><path class="cls-20" d="M89.78,63.82a14.44,14.44,0,0,1-2.35-1.37h.08a5.34,5.34,0,0,1,.67-4.52,5.65,5.65,0,0,1,1.11-1.22h0c.06,0,.08.1.06.25-.1.59-1.59,4.72.83,6.48C90.17,63.43,90.53,64.16,89.78,63.82Z"/><path class="cls-18" d="M97.26,58.34s1.4-.42,1.89.54S98.7,61,97.94,60.8A6.32,6.32,0,0,0,97.26,58.34Z"/><path class="cls-18" d="M93.3,55.47s-.57-1.53-1.6-1.45-.8,1.74-.8,1.74A5.67,5.67,0,0,1,93.3,55.47Z"/><path class="cls-16" d="M61.46,70.58s-3.52-4.52-3.54-8.21.08-4.92.7-4.75A11.27,11.27,0,0,1,63,61.89,49.62,49.62,0,0,1,65.81,70C65.85,70.77,61.46,70.58,61.46,70.58Z"/><path class="cls-10" d="M61.65,69.14S59.4,66,59.32,63.52s0-3.32.34-3.2a8.1,8.1,0,0,1,2.79,3,39.57,39.57,0,0,1,1.87,5.56C64.35,69.35,61.65,69.14,61.65,69.14Z"/><path class="cls-16" d="M67.14,68.7s-1.68-6.13-1-7.8,4.13-.55,4.52.62.15,6.15.15,6.15Z"/><path class="cls-13" d="M67.59,61.65s-.24,4.86.61,6.75l1.64-.47a52.34,52.34,0,0,0,0-5.78C69.66,61.78,67.59,61.65,67.59,61.65Z"/><path class="cls-16" d="M66,61.25S71.71,65,72.16,64.6s-1.26-4.2-1.93-4.54S66,59,66,61.25Z"/><rect class="cls-21" x="55.58" y="66.09" width="77.42" height="63.6" transform="translate(188.58 195.78) rotate(180)"/><rect class="cls-22" x="94.29" y="66.09" width="77.42" height="63.6"/><polygon class="cls-23" points="171.71 66.09 171.71 109.71 94.29 129.69 94.29 66.09 171.71 66.09"/><polygon class="cls-22" points="94.29 66.09 109.61 82.82 186 82.82 171.71 66.09 94.29 66.09"/><polygon class="cls-24" points="55.63 113.56 67.89 113.56 66.81 110.12 67.89 107.66 55.63 107.66 55.63 113.56"/><polygon class="cls-25" points="94.29 73.28 77.97 89.54 55.63 89.54 55.63 66.09 94.29 66.09 94.29 73.28"/><polygon class="cls-22" points="55.58 66.09 38.18 82.82 76.91 82.82 94.29 66.09 55.58 66.09"/><path class="cls-17" d="M20.75,110.11l-1.63.32a3.58,3.58,0,0,1-4.18-2.82L12.55,95.37a3.58,3.58,0,0,1,2.32-4l0-.13-.14-.72a.92.92,0,0,1,.73-1.08l.73-.14a.93.93,0,0,1,1.09.73l.14.72s0,.07,0,.1v0a3.58,3.58,0,0,1,3.78,2.87L23.57,106A3.57,3.57,0,0,1,20.75,110.11Z"/><polygon class="cls-13" points="21.32 94.39 22.96 102.81 14.33 104.48 12.69 96.06 21.32 94.39"/><path class="cls-26" d="M17.4,90.81l-2.53.52,0-.13-.14-.72a.92.92,0,0,1,.73-1.08l.73-.14a.93.93,0,0,1,1.09.73l.14.72S17.4,90.78,17.4,90.81Z"/><path class="cls-17" d="M64.5,87.72s-1.07,1.5-2,1.52A7.23,7.23,0,0,1,60,88.55s-.9-2-.29-2.78a1.31,1.31,0,0,1,1.25.2,2,2,0,0,1,.33.32,1.15,1.15,0,0,0,.52.35c.7.21,1.53-.29,1.84.19a3.05,3.05,0,0,0,.54.64A2.17,2.17,0,0,0,64.5,87.72Z"/><path class="cls-17" d="M50.56,98.54s3.78-9.12,10.58-9.3c0,0,6.28.7,6.63,9.3Z"/><path class="cls-26" d="M59.28,89.52s2.72.6,3.57.25a.85.85,0,0,0-1-1,2.35,2.35,0,0,1-1.59-.42C59.8,88.16,59.16,89.05,59.28,89.52Z"/><path class="cls-26" d="M61.65,87.81c-.17.13-.71-1.84-.71-1.84a2,2,0,0,1,.33.32,1.15,1.15,0,0,0,.52.35S61.82,87.68,61.65,87.81Z"/><path class="cls-26" d="M64.17,87.47a11.75,11.75,0,0,1-1.47.77c-.18,0,.93-1.41.93-1.41A3.05,3.05,0,0,0,64.17,87.47Z"/><path class="cls-26" d="M54.25,96c-.07-.06,2.68-4,3.43-4s2.46.86,3.69,1,2.42-.23,2.65.49.87,3.29.48,3.7S55.76,97.27,54.25,96Z"/><path class="cls-26" d="M22.41,102.16a1.36,1.36,0,0,1-.44.48,1.2,1.2,0,0,1-.32.16,1.32,1.32,0,0,1-1-.08L3.72,94.15a1.3,1.3,0,0,1-.57-1.74,1.27,1.27,0,0,1,.75-.64,1.31,1.31,0,0,1,1,.07l17,8.58A1.3,1.3,0,0,1,22.41,102.16Z"/><polygon class="cls-17" points="9.34 96.99 8.27 93.55 5.54 92.17 7.18 95.9 9.34 96.99"/><polygon class="cls-17" points="13.47 99.09 11.32 98 9.68 94.27 12.41 95.65 13.47 99.09"/><polygon class="cls-17" points="17.61 101.18 15.46 100.09 13.81 96.36 16.54 97.74 17.61 101.18"/><path class="cls-27" d="M22,102.64a1.2,1.2,0,0,1-.32.16,1.32,1.32,0,0,1-1-.08l-1-.5L18,98.49l2.73,1.38Z"/><path class="cls-26" d="M3.15,92.41A3.34,3.34,0,0,0,1.31,90s.18.21-.54.44-.51.72-.77,1A3.24,3.24,0,0,0,3.15,92.41Z"/><rect class="cls-28" x="2.59" y="91.97" width="0.93" height="0.51" rx="0.23" transform="translate(-80.64 53.36) rotate(-63.19)"/><path class="cls-27" d="M22.34,102.12a3.34,3.34,0,0,1,3,.08s-.28,0,0,.69-.28.84-.31,1.18A3.23,3.23,0,0,1,22.34,102.12Z"/><path class="cls-29" d="M22.27,102.48l.12.06a.2.2,0,0,0,.26-.09l.25-.49a.2.2,0,0,0-.09-.25l-.11-.06a.19.19,0,0,0-.26.08l-.25.49A.19.19,0,0,0,22.27,102.48Z"/><path class="cls-26" d="M44.34,102.29a1.32,1.32,0,0,1-.63.17,1.34,1.34,0,0,1-.35,0,1.28,1.28,0,0,1-.79-.6L33.05,85.43a1.29,1.29,0,0,1,.47-1.77,1.37,1.37,0,0,1,1-.13,1.3,1.3,0,0,1,.78.6l9.52,16.39A1.29,1.29,0,0,1,44.34,102.29Z"/><polygon class="cls-17" points="36.2 90.86 37.19 87.4 35.66 84.76 35 88.78 36.2 90.86"/><polygon class="cls-17" points="38.53 94.87 37.32 92.78 37.98 88.76 39.52 91.4 38.53 94.87"/><polygon class="cls-17" points="40.85 98.87 39.64 96.78 40.3 92.76 41.84 95.4 40.85 98.87"/><path class="cls-17" d="M43.71,102.46a1.34,1.34,0,0,1-.35,0,1.28,1.28,0,0,1-.79-.6l-.56-1,.66-4,1.53,2.64Z"/><path class="cls-24" d="M33.52,83.66a3.31,3.31,0,0,0-.24-3s0,.27-.69.07-.83.33-1.17.38A3.21,3.21,0,0,0,33.52,83.66Z"/><path class="cls-30" d="M33.15,83.71l0,0a.24.24,0,0,1,.09-.32l.4-.23a.24.24,0,0,1,.32.08l0,0a.23.23,0,0,1-.08.32l-.4.23A.23.23,0,0,1,33.15,83.71Z"/><path class="cls-24" d="M44.3,102.22a3.36,3.36,0,0,1,2.49,1.7s-.23-.16-.42.57-.69.54-.9.81A3.2,3.2,0,0,1,44.3,102.22Z"/><rect class="cls-30" x="44.02" y="102.05" width="0.93" height="0.51" rx="0.23" transform="translate(-45.22 35.99) rotate(-30.03)"/><path class="cls-26" d="M13.54,106.89a1.28,1.28,0,0,1-.48-.44,1,1,0,0,1-.15-.33,1.25,1.25,0,0,1,.09-1L21.88,88.4a1.29,1.29,0,0,1,2.38.22,1.28,1.28,0,0,1-.09,1l-8.88,16.74A1.3,1.3,0,0,1,13.54,106.89Z"/><polygon class="cls-17" points="18.93 93.95 22.4 92.94 23.83 90.25 20.06 91.83 18.93 93.95"/><polygon class="cls-26" points="16.76 98.04 17.89 95.91 21.66 94.33 20.23 97.03 16.76 98.04"/><polygon class="cls-31" points="14.6 102.13 15.72 100 19.5 98.42 18.07 101.12 14.6 102.13"/><path class="cls-31" d="M13.06,106.45a1,1,0,0,1-.15-.33,1.25,1.25,0,0,1,.09-1l.52-1,3.77-1.58-1.43,2.7Z"/><path class="cls-17" d="M23.63,87.86a3.35,3.35,0,0,0,2.42-1.79s-.22.17-.43-.55-.72-.52-.94-.78A3.2,3.2,0,0,0,23.63,87.86Z"/><path class="cls-30" d="M23.37,87.61l.06-.12a.2.2,0,0,1,.26-.08l.49.26a.19.19,0,0,1,.08.26L24.2,88a.2.2,0,0,1-.26.08l-.49-.26A.19.19,0,0,1,23.37,87.61Z"/><path class="cls-29" d="M13.58,106.82a3.32,3.32,0,0,1-.13,3s0-.28-.7,0-.83-.3-1.17-.33A3.2,3.2,0,0,1,13.58,106.82Z"/><path class="cls-29" d="M13.2,106.79l0,0a.23.23,0,0,0,.09.31l.42.22a.23.23,0,0,0,.31-.1l0,0a.23.23,0,0,0-.09-.31l-.42-.22A.22.22,0,0,0,13.2,106.79Z"/><path class="cls-26" d="M31.28,91.67s.77,1.09,1.49,1.1a5.11,5.11,0,0,0,1.79-.5s.65-1.45.21-2a1,1,0,0,0-.91.15,1.28,1.28,0,0,0-.24.23.72.72,0,0,1-.37.25c-.51.16-1.11-.21-1.34.14a2.2,2.2,0,0,1-.39.47A2,2,0,0,1,31.28,91.67Z"/><path class="cls-26" d="M41.39,99.52s-2.74-6.62-7.68-6.75c0,0-4.55.51-4.8,6.75Z"/><path class="cls-17" d="M35.07,93a7.54,7.54,0,0,1-2.59.18s-.09-.83.74-.71a1.75,1.75,0,0,0,1.16-.31C34.69,92,35.15,92.63,35.07,93Z"/><path class="cls-17" d="M33.35,91.73c.12.1.51-1.33.51-1.33a1.28,1.28,0,0,0-.24.23.72.72,0,0,1-.37.25S33.22,91.64,33.35,91.73Z"/><path class="cls-17" d="M31.52,91.49a8.79,8.79,0,0,0,1.07.56c.12,0-.68-1-.68-1A2.2,2.2,0,0,1,31.52,91.49Z"/><path class="cls-17" d="M38.71,97.67c.06,0-1.94-2.92-2.48-2.94s-1.79.63-2.68.71-1.75-.16-1.92.36-.64,2.39-.35,2.69S37.62,98.6,38.71,97.67Z"/><path class="cls-17" d="M50.94,92h0c-.82,0-1.23-1.21-1.23-1.21l-8,2.39a1.55,1.55,0,0,1-.22,1.54,2.23,2.23,0,0,0-.95,2.32l1.76,5.8a2,2,0,0,0,2.44,1.3l8.39-2.53a2,2,0,0,0,1.31-2.43l-1.76-5.8A2,2,0,0,0,50.94,92Z"/><path class="cls-26" d="M41,93l.47,1.57c.18.57,2.36.41,4.87-.34s4.41-1.84,4.24-2.41l-.48-1.57Z"/><path class="cls-26" d="M50.07,90.2c.17.57-1.72,1.65-4.24,2.4s-4.69.92-4.86.35,1.72-1.65,4.24-2.4S49.9,89.63,50.07,90.2Z"/><path class="cls-17" d="M29.6,95.17h0c-.57-.27-.42-1.27-.42-1.27l-6.36-1.08a1.23,1.23,0,0,1-.69,1,1.73,1.73,0,0,0-1.47,1.28l-.79,4.63a1.52,1.52,0,0,0,1.24,1.75l6.71,1.14a1.52,1.52,0,0,0,1.75-1.23l.79-4.63A1.5,1.5,0,0,0,29.6,95.17Z"/><path class="cls-26" d="M22.36,92.36l-.22,1.26c-.08.46,1.49,1.1,3.5,1.44s3.7.26,3.78-.2l.21-1.26Z"/><path class="cls-26" d="M29.63,93.6c-.07.46-1.77.55-3.78.21s-3.57-1-3.49-1.45,1.77-.54,3.78-.2S29.71,93.15,29.63,93.6Z"/><rect class="cls-21" x="9.34" y="97.05" width="39.39" height="32.36" transform="translate(58.08 226.46) rotate(180)"/><rect class="cls-22" x="29.04" y="97.05" width="39.39" height="32.36" transform="translate(97.47 226.46) rotate(180)"/><polygon class="cls-23" points="29.04 97.05 68.53 97.05 68.53 119.22 29.04 129.41 29.04 97.05"/><polygon class="cls-22" points="29.04 97.05 36.83 105.56 75.7 105.56 68.43 97.05 29.04 97.05"/><polygon class="cls-25" points="29.04 100.71 20.73 108.98 9.37 108.98 9.37 97.05 29.04 97.05 29.04 100.71"/><polygon class="cls-22" points="9.34 97.05 0.49 105.56 20.19 105.56 29.04 97.05 9.34 97.05"/><g class="cls-32"><path class="cls-13" d="M54.49,115l2.37,4.34,1.78-3.15a1.19,1.19,0,0,0,0-1.13L57.55,113a.25.25,0,0,0-.33-.11.27.27,0,0,0-.1.11l-.76,1.51H54.78a.34.34,0,0,0-.32.36A.35.35,0,0,0,54.49,115Z"/><path class="cls-13" d="M58.26,116.85l-.36.25a2.17,2.17,0,0,1-1.2.37H53.4v-.77a.1.1,0,0,0-.1-.09s-.06,0-.07,0l-1.51,2.63L53.23,122a.09.09,0,0,0,.12.05.08.08,0,0,0,0-.09l.05-.89H55a1.64,1.64,0,0,0,1.47-.86Z"/><path class="cls-13" d="M50.71,113.56l2.6-4.21-3.63,0a1.2,1.2,0,0,0-1,.55l-1.26,2a.24.24,0,0,0,.07.33.23.23,0,0,0,.14,0l1.7-.11.78,1.37a.34.34,0,0,0,.47.12A.23.23,0,0,0,50.71,113.56Z"/><path class="cls-13" d="M51.24,117.49l-5-.13,1.85,3.1a1.17,1.17,0,0,0,1,.58l2.35.1a.24.24,0,0,0,.25-.23.23.23,0,0,0,0-.14l-.94-1.41.8-1.36a.34.34,0,0,0-.12-.47A.29.29,0,0,0,51.24,117.49Z"/><path class="cls-13" d="M47.76,119.86v-.44a2.07,2.07,0,0,1,.29-1.22l1.67-2.83.65.38a.09.09,0,0,0,.12,0,.06.06,0,0,0,0-.08L48.94,113l-3.08,0a.09.09,0,0,0-.09.09.07.07,0,0,0,0,.07l.75.49-.78,1.29a1.63,1.63,0,0,0,0,1.7Z"/><path class="cls-13" d="M50.71,109.39l.4.18a2.16,2.16,0,0,1,.91.86l1.63,2.86-.65.37a.08.08,0,0,0,0,.12.09.09,0,0,0,.08,0h3.08l1.58-2.63a.11.11,0,0,0,0-.13.14.14,0,0,0-.09,0l-.8.4L56,110.17a1.64,1.64,0,0,0-1.49-.84Z"/></g><g class="cls-32"><path class="cls-13" d="M143.29,100.15l4.18,7.68,3.14-5.57a2.07,2.07,0,0,0,0-2l-1.93-3.66a.42.42,0,0,0-.56-.19.44.44,0,0,0-.19.19l-1.34,2.67h-2.78a.59.59,0,0,0-.58.63A.5.5,0,0,0,143.29,100.15Z"/><path class="cls-13" d="M149.94,103.36l-.64.43a3.63,3.63,0,0,1-2.11.65h-5.83V103.1a.16.16,0,0,0-.16-.16.16.16,0,0,0-.14.08l-2.65,4.64,2.65,4.72a.17.17,0,0,0,.21.09.18.18,0,0,0,.1-.16l.08-1.57h2.7a2.92,2.92,0,0,0,2.6-1.53Z"/><path class="cls-13" d="M136.62,97.55l4.58-7.44-6.4.08a2.11,2.11,0,0,0-1.74,1l-2.22,3.5a.41.41,0,0,0,.13.58.43.43,0,0,0,.25.07l3-.2,1.37,2.42a.6.6,0,0,0,.83.21A.52.52,0,0,0,136.62,97.55Z"/><path class="cls-13" d="M137.55,104.48l-8.76-.22,3.28,5.47a2.09,2.09,0,0,0,1.71,1l4.15.17a.42.42,0,0,0,.44-.4.47.47,0,0,0-.08-.26l-1.66-2.49,1.42-2.39a.6.6,0,0,0-.5-.91Z"/><path class="cls-13" d="M131.41,108.66v-.77a3.63,3.63,0,0,1,.51-2.16l3-5,1.14.67a.17.17,0,0,0,.22-.06.15.15,0,0,0,0-.16l-2.75-4.7-5.43-.06a.16.16,0,0,0-.16.16.16.16,0,0,0,.08.13l1.31.86-1.37,2.28a2.91,2.91,0,0,0,0,3Z"/><path class="cls-13" d="M136.62,90.18l.7.33a3.65,3.65,0,0,1,1.61,1.5l2.88,5-1.15.65a.15.15,0,0,0,0,.22.14.14,0,0,0,.13.08h5.45L149,93.36a.16.16,0,0,0-.05-.22.18.18,0,0,0-.16,0l-1.4.71L146,91.56a2.91,2.91,0,0,0-2.62-1.49Z"/></g></svg>