<svg xmlns="http://www.w3.org/2000/svg" xmlns:xlink="http://www.w3.org/1999/xlink" viewBox="0 0 1440 790"><defs><style>.cls-1{isolation:isolate;}.cls-2{fill:url(#Unbenannter_Verlauf_46);}.cls-3{fill:url(#Unbenannter_Verlauf_46-2);}.cls-4{fill:url(#Unbenannter_Verlauf_46-3);}.cls-5{fill:#e6e6e6;}.cls-6{fill:#e9b0a9;}.cls-7{fill:#2f2e41;}.cls-8{fill:#ffc100;}.cls-9{fill:#582305;}.cls-10{fill:url(#Unbenannter_Verlauf_203);}.cls-11{fill:url(#Unbenannter_Verlauf_62);}.cls-12{fill:url(#Unbenannter_Verlauf_209);}.cls-13{fill:url(#Unbenannter_Verlauf_209-2);}.cls-14{fill:url(#Unbenannter_Verlauf_40);}.cls-15{fill:url(#Unbenannter_Verlauf_173);}.cls-16{fill:url(#Unbenannter_Verlauf_173-2);}.cls-17{fill:url(#Unbenannter_Verlauf_173-3);}.cls-18{fill:url(#Unbenannter_Verlauf_167);}.cls-19{fill:url(#Unbenannter_Verlauf_182);}.cls-20{fill:#fff;}.cls-21{fill:#999;}.cls-22,.cls-31{fill:#f2f2f2;}.cls-23{opacity:0.5;}.cls-24{fill:#ccc;}.cls-25,.cls-26{fill:#333427;}.cls-26{mix-blend-mode:screen;}.cls-27{font-size:18.19px;}.cls-27,.cls-31{font-family:Montserrat-Light, Montserrat;font-weight:300;}.cls-28{letter-spacing:-0.02em;}.cls-29{letter-spacing:0em;}.cls-30{letter-spacing:0em;}.cls-31{font-size:13.4px;}.cls-32{letter-spacing:-0.01em;}.cls-33{letter-spacing:-0.01em;}.cls-34{letter-spacing:-0.01em;}.cls-35{letter-spacing:0em;}.cls-36{font-family:Montserrat-Bold, Montserrat;font-weight:700;}.cls-37{letter-spacing:0em;}.cls-38{letter-spacing:-0.01em;}.cls-39{letter-spacing:-0.02em;}.cls-40{letter-spacing:-0.06em;}.cls-41{letter-spacing:-0.01em;}.cls-42{letter-spacing:0em;}.cls-43{letter-spacing:-0.02em;}.cls-44{letter-spacing:0em;}.cls-45{letter-spacing:-0.01em;}.cls-46{letter-spacing:0em;}.cls-47{letter-spacing:0.08em;}.cls-48{letter-spacing:-0.01em;}.cls-49{letter-spacing:0em;}.cls-50{letter-spacing:-0.02em;}.cls-51{letter-spacing:-0.01em;}.cls-52{letter-spacing:0em;}.cls-53{letter-spacing:-0.01em;}.cls-54{letter-spacing:0.01em;}.cls-55,.cls-56,.cls-58,.cls-59{stroke-miterlimit:10;}.cls-55,.cls-58{opacity:0.05;}.cls-55{stroke:url(#Unbenannter_Verlauf_243);}.cls-56,.cls-59{opacity:0.04;}.cls-56{stroke:url(#Unbenannter_Verlauf_243-2);}.cls-57{fill:url(#Unbenannter_Verlauf_46-4);}.cls-58{stroke:url(#Unbenannter_Verlauf_243-3);}.cls-59{stroke:url(#Unbenannter_Verlauf_243-4);}</style><linearGradient id="Unbenannter_Verlauf_46" x1="1444.31" y1="241.75" x2="970.37" y2="241.75" gradientUnits="userSpaceOnUse"><stop offset="0.3" stop-color="#0e559c"/><stop offset="0.48" stop-color="#0d4f93"/><stop offset="0.77" stop-color="#094079"/><stop offset="0.94" stop-color="#063567"/></linearGradient><linearGradient id="Unbenannter_Verlauf_46-2" x1="1443.35" y1="416.96" x2="849.33" y2="416.96" xlink:href="#Unbenannter_Verlauf_46"/><linearGradient id="Unbenannter_Verlauf_46-3" x1="1444.1" y1="592.18" x2="970.16" y2="592.18" xlink:href="#Unbenannter_Verlauf_46"/><linearGradient id="Unbenannter_Verlauf_203" x1="1039.74" y1="191.65" x2="1039.62" y2="198.63" gradientUnits="userSpaceOnUse"><stop offset="0" stop-color="#ffc100"/><stop offset="1" stop-color="#ffc100"/></linearGradient><linearGradient id="Unbenannter_Verlauf_62" x1="976.17" y1="253.94" x2="1004.5" y2="203.03" gradientTransform="translate(54.28 -14.84) rotate(1.87)" gradientUnits="userSpaceOnUse"><stop offset="0" stop-color="#ffc100"/><stop offset="0.68" stop-color="#ff9000"/><stop offset="1" stop-color="#ffcb00"/></linearGradient><linearGradient id="Unbenannter_Verlauf_209" x1="994.58" y1="170.62" x2="992.81" y2="186.56" gradientTransform="translate(54.28 -14.84) rotate(1.87)" xlink:href="#Unbenannter_Verlauf_203"/><linearGradient id="Unbenannter_Verlauf_209-2" x1="1075.35" y1="316.72" x2="1082.99" y2="265.77" gradientTransform="translate(-29.92 -43.89) rotate(1.87)" xlink:href="#Unbenannter_Verlauf_203"/><linearGradient id="Unbenannter_Verlauf_40" x1="1011.28" y1="206.89" x2="1067.72" y2="206.89" gradientUnits="userSpaceOnUse"><stop offset="0" stop-color="#ffc100" stop-opacity="0.87"/><stop offset="1" stop-color="#ff8b00"/></linearGradient><linearGradient id="Unbenannter_Verlauf_173" x1="1029.89" y1="189.04" x2="1023.12" y2="250.01" gradientUnits="userSpaceOnUse"><stop offset="0" stop-color="#ffc100"/><stop offset="1" stop-color="#fff"/></linearGradient><linearGradient id="Unbenannter_Verlauf_173-2" x1="1015.86" y1="181.04" x2="1009.09" y2="242.01" gradientTransform="matrix(1, 0.01, -0.01, 1, 24.54, -6.42)" xlink:href="#Unbenannter_Verlauf_173"/><linearGradient id="Unbenannter_Verlauf_173-3" x1="-204.86" y1="189.04" x2="-211.63" y2="250.01" gradientTransform="matrix(-1, 0, 0, 1, 846.53, 0)" xlink:href="#Unbenannter_Verlauf_173"/><linearGradient id="Unbenannter_Verlauf_167" x1="-218.76" y1="198.7" x2="-225.53" y2="259.67" gradientTransform="matrix(-1, 0.01, 0.01, 1, 821.99, -6.42)" xlink:href="#Unbenannter_Verlauf_173"/><linearGradient id="Unbenannter_Verlauf_182" x1="1046.21" y1="189.95" x2="1039.49" y2="250.35" xlink:href="#Unbenannter_Verlauf_173"/><linearGradient id="Unbenannter_Verlauf_243" x1="774.25" y1="1060.04" x2="833.93" y2="1014.97" gradientTransform="matrix(0.96, -0.29, -0.29, -0.96, 173.91, 1280.63)" gradientUnits="userSpaceOnUse"><stop offset="0"/><stop offset="0.98"/></linearGradient><linearGradient id="Unbenannter_Verlauf_243-2" x1="400.64" y1="1097.99" x2="643.35" y2="1097.99" gradientTransform="matrix(1, 0, 0, -1, 0, 1123.85)" xlink:href="#Unbenannter_Verlauf_243"/><linearGradient id="Unbenannter_Verlauf_46-4" x1="1443" y1="56.5" x2="647" y2="56.5" xlink:href="#Unbenannter_Verlauf_46"/><linearGradient id="Unbenannter_Verlauf_243-3" x1="232.75" y1="740.51" x2="292.43" y2="695.44" gradientTransform="translate(-69.62 23.12) rotate(-2.06)" xlink:href="#Unbenannter_Verlauf_243"/><linearGradient id="Unbenannter_Verlauf_243-4" x1="-0.45" y1="765.47" x2="242.26" y2="765.47" gradientTransform="matrix(1, 0, 0, 1, 0, 0)" xlink:href="#Unbenannter_Verlauf_243"/></defs><g class="cls-1"><g id="Ebene_1" data-name="Ebene 1"><path class="cls-2" d="M1444.31,198.31H1135c-22.85-37-67.78-53-106.61-39.17a88.21,88.21,0,0,0-58.06,82.54c0,39.42,27.06,76,67.15,85.33,38.76,9.07,79.23-9.72,97.52-45.46h309.27Z"/><path class="cls-3" d="M1443.35,375.09,1014,373.53c-22.85-37-67.79-53-106.62-39.17a88.19,88.19,0,0,0-58,82.54c0,39.42,27.06,76,67.14,85.33,38.77,9.07,79.24-9.73,97.53-45.46l429.35.65Z"/><path class="cls-4" d="M1444.1,548.74H1134.84c-22.86-37-67.79-53-106.62-39.17a88.21,88.21,0,0,0-58.06,82.54c0,39.42,27.06,76,67.15,85.34,38.76,9.06,79.23-9.73,97.53-45.47H1444.1Z"/><g id="Gruppe_27" data-name="Gruppe 27"><path id="Pfad_518" data-name="Pfad 518" class="cls-5" d="M1121.89,585.72c-.36-.92.15-1.37.35-2.19a11.84,11.84,0,0,0-.45-3.36s-2.14-8.8-2.8-10.53a3.18,3.18,0,0,0-1.5-1.57c0-.23-.1-.37-.18-.41a14.42,14.42,0,0,0-3-1.12,4.93,4.93,0,0,0-.65-.87,2,2,0,0,0,.24-1.07c-.07-1-.8-1.82-.7-2.78a11.21,11.21,0,0,1,.81-2,2.43,2.43,0,0,0-.27-1.88l.45.48a1.68,1.68,0,0,0-.13-2c-.47-.52-1.27-.72-1.64-1.33s-.18-1.47-.54-2.1c-.88-1.56-3.13-.45-4.48-1a3.73,3.73,0,0,0-1.6-.45,6.41,6.41,0,0,0-1.56.29,3.27,3.27,0,0,0-1.79,1.28l.14-.13a.73.73,0,0,1,1,.07l0,.07a.55.55,0,0,1,.05.31,1.41,1.41,0,0,1-.82,1,3.19,3.19,0,0,0-1.1.79c-.42.63-.17,1.46-.17,2.21a3.21,3.21,0,0,1-1.21,2.49l1.43-.59a10.94,10.94,0,0,0-1.32,3.89l1.94-1.6a8.51,8.51,0,0,0-1.28,3.78l1.56-1.59a.72.72,0,0,1,.1.41l-.16.62c-.06.13-.12.25-.19.37-.25.43-.51,1-.28,1.4h0a3.07,3.07,0,0,1-1.44,2.06,2.4,2.4,0,0,0,2.29-1.09,2.35,2.35,0,0,0,.24.37l.08.1-.23.15-.61.41s-4,.81-3.77,2.34l0,.22-1.16,2-1.67,5.7a6.73,6.73,0,0,0-.72,2.59,12.1,12.1,0,0,1,0,2.45c0,1.37-.66,1.93,0,3s2.65,4.37,2.65,4.37l.44.33a1.67,1.67,0,0,0,0,.59l4.22,21.52s-1.93,15.42,2,16.39l1.45.33.59,3.89-.35,4.94s-2.7,6.1,2.24,6.46,2.69-5.29,2.69-5.29a2.7,2.7,0,0,0,.31-1.58c0-.45-.48-2.81-.89-5.07,1.87-.23,1.52-2.22,1.27-3.09a.49.49,0,0,0,.23-.28,8.91,8.91,0,0,0-.32-2.12c-.19-1.12-.52-2.92-.75-4.14l1.22.2,5.14-30.12s0-.48,0-1.18a16.83,16.83,0,0,1,2.17-1c1.68-.66,2.34-3.1,2.9-4.12S1122.24,586.64,1121.89,585.72Zm-18.25-19.18a1.14,1.14,0,0,1,.57-.19c0,.24-.46.31-.8.43a1.31,1.31,0,0,1,.23-.24Zm-2.56,15.16c.41.68-.34,2.51-1,4-.39-.33-.79-.23-.32-1.17a4.72,4.72,0,0,0,.56-1.93,1.89,1.89,0,0,1,.56-1.33,2.72,2.72,0,0,0,.21.46Zm-1.55,5.85c.24-.1.59-.24,1.07-.41-.23.3-.49.66-.76,1.05a.8.8,0,0,1-.31-.64Zm16.51.66c-.31-.32-.56-.62-.77-.88l1.17.32a1.52,1.52,0,0,0,.6,0c0,.35,0,.85,0,.85l-.55.38a3.57,3.57,0,0,0-.46-.64Zm1.58-1.76,0,0a4,4,0,0,0-.14-.6,22.13,22.13,0,0,1-.6-4.51l1,3.24s0,1.63-.21,1.85Z"/><path id="Pfad_519" data-name="Pfad 519" class="cls-5" d="M1097.85,573.07s-5.22-9-5.38-10-2.78-2.77-2.78-2.77a5.37,5.37,0,0,0-3.89-1.16c.58-.48-1.49-.8-1.65-1.13s-.66-.32-1.31-.81-2.28-.08-2.28-.08a5.83,5.83,0,0,1-.51-1.63,4.52,4.52,0,0,0,1.08-2.94v0l.12.19c.31-1.83.85-3.35-.18-5a5.68,5.68,0,0,0-3.21-2.45l-1,.79.38-.92a5.26,5.26,0,0,0-1,0l-.88,1.13.36-1.1a5.66,5.66,0,0,0-3.85,2.29,5,5,0,0,0,.06,5.5v0a4.57,4.57,0,0,0,2.34,3.7l.27,2.22h0a1.54,1.54,0,0,1-.91.4c-.49,0-1,1.3-1,1.3s-.28.14-.58.8a21.74,21.74,0,0,0-4,3.32,1.92,1.92,0,0,0-1,2.08c.16,2.29,0,12.89,0,12.89s-1.47,9-1,9.62S1066,592,1066,592l.49.11v.54s-1.47,6.82.81,6.53c3.75-.49,1-6,1-6v-.63l.65.14s.33-2.28,1-2.45c.23-.05.49-.66.75-1.43l.23,1.92,1-.22.28,1,.22.1-.22,1.2a8.44,8.44,0,0,0,0,2.13c.09.41,3.11,9.2,6.1,17.82l-.06,2.08s-1.47,1.63-1.14,2.77-.82,10.61-.82,10.61l-1,4.73.25.07-.23.83a1.76,1.76,0,0,0-.5.4c-1.31,1.47-2.94,5.71-2.94,5.71s-2.94,4.41,1.63,4.24,4.89-1.8,4.89-1.8.65-4.23.65-4.4-.32-1.84-.32-1.84l-.13-.14.09-2,.85.26s.82-4.24,1.47-4.73a22.67,22.67,0,0,0,1.53-4.52c.71,2,1.39,9.08,1.62,9.72a2.39,2.39,0,0,0-.21.34,38.32,38.32,0,0,1-2.45,4.08s-5.22,3.1,0,3.92c0,0,2.94.16,4.41-.82s5.38-2.45,5.38-2.77-1-5.13-2-4.6h0l-.65-1.51.65-.25-4.13-18.54a10.1,10.1,0,0,0,.22-1.2c0-.86,2.11-17.49,2.65-21.71,2.36.67,4.52-4.23,4.52-4.23l.54-1,.77.48s.65-1.63,1.63-1.8,2.77-8.81,2.77-9.95A5.37,5.37,0,0,0,1097.85,573.07Zm-7.6,12.79a3.89,3.89,0,0,0-.56-.71,19.46,19.46,0,0,0,1-3.43c.33-1.79-.49-7.67-.49-7.67v-.4a11.5,11.5,0,0,1,1.81,2.85,1.21,1.21,0,0,0,.49,1l-1,3.42a19.57,19.57,0,0,0-.82,2.45,8.16,8.16,0,0,0-.16,1.47l.23.14Z"/><path id="Pfad_520" data-name="Pfad 520" class="cls-5" d="M1023.17,576.09l.87-.19-3.59-10.12-7.75-2.85-.09.09a4.22,4.22,0,0,1-1.06-2.3,4.56,4.56,0,0,0,2.53-5.94,4.69,4.69,0,0,0-.4-.77c.64-.15.87-.73,1.08-1.42a2.59,2.59,0,0,0-.4-.09l.3-.68-.53,0,.14-.63-.68.46a1.35,1.35,0,0,0-.23-1.31,2.58,2.58,0,0,0-1.13-.8,5.05,5.05,0,0,0-5.17.9l0-.19a6.51,6.51,0,0,0-2.5,4.35,6.69,6.69,0,0,0,1.66,4.78l0-.18.14.19.13,5-.32.28s-5.49,2.48-5.71,5.45h0c-.33,1.44-.49,9-.49,9h.45l-.45,2.94L997,593.35s-3.75,4.9-.49,5.88c2,.61,2.61-1.75,2.75-3.62a1.15,1.15,0,0,0,1.17.84l.17,0c-1.55,4-.5,16.95-.5,16.95-.82,1.63,8.81,12.89,8.81,12.89l.58-.31.12.25-.54.06v5.05s-1.47,5.06.49,6a1.4,1.4,0,0,0,1.54-.34c-.1,1.56-.23,3.89-.23,4.42,0,.81,2.12,2.28,2.12,2.28s.49,1.8,4.4,1.8,1-4.74,1-4.74l-2.12-4.73s-.16.08-.64-.31l.17-1.89,1,.08,1.3-19.08s1.14-17,1.31-19.58a17.5,17.5,0,0,0-.06-2.51l4.79-9.89Zm-3.54,6.33-.49,1.71v-3.77Zm-20.37,12.1c0-.6,0-1,0-1l3.19-6.38-.09,2s-2.56,3.23-3.08,5.41Zm7.48,18.41,3.1-10.93,1.79,13.21-.12,4.81a7.42,7.42,0,0,1-.53-1.38c-.48-2-4.24-5.71-4.24-5.71Z"/><path id="Pfad_521" data-name="Pfad 521" class="cls-5" d="M1050.89,638.89c-1.53-.63-4.5-2-4.86-2.69s-2.15-6.3-2.15-6.3l-.47,0c-.06-2.54-.31-12.35-.7-13.52,0,0,1.89-15.56-1.89-21.77l-.68-2.74a15.14,15.14,0,0,0,0-4.09c-.18-.54,2.07-2.25,1.44-3.33s-2.34-4.76-2.34-4.76a5.91,5.91,0,0,0-2.25-4.5s-.7-4-3.9-4.07c-.43-.76-1-2-.86-2.49s.92-2.35,1.33-3.35a4.82,4.82,0,0,0,.63-.35,7.67,7.67,0,0,0,4.33-7.08,7.59,7.59,0,0,0-4.88-7.29,2.43,2.43,0,0,0-4.54-1.72,2.72,2.72,0,0,0-.16.85,2.43,2.43,0,0,1,1.3-3.18,2.35,2.35,0,0,1,1.41-.14,3.09,3.09,0,0,0-2.73,3.42,3,3,0,0,0,.23.89,7.95,7.95,0,0,0-.56,14.09,4.62,4.62,0,0,1-1.63,3.69,4.16,4.16,0,0,0-2.32-.52c-.33-.26-.82-.34-1.49.33-1.35,1.35-2.52,4.86-2.52,7S1021,590,1021,590s-1.44.54-.45,1.35a1.19,1.19,0,0,0,.72.27l1,7.28s-.63,7,1.8,7.1a.94.94,0,0,0,.54-.13l-1.8,8.14a27.1,27.1,0,0,0-7.38,8,42.53,42.53,0,0,0-2.91,5.4l-.59-.37-2.07,4s-4.59,2.79-3.6,4.86a6.22,6.22,0,0,0,1.89,2.6l.63-.27,1.17,2.16s3.06,4.41,8,2.16a1.8,1.8,0,0,0,0-2.16c-.81-1.17-2.87-3.68-2.87-3.68l1.34-6.84-.28-.17,8.56-10.35a13.59,13.59,0,0,0,3.41-2.88c.9-1.35,6.48-15.28,6.48-15.28l3.14,14.57a41.49,41.49,0,0,0,.63,8.72,36.8,36.8,0,0,1,.86,5.82l-.23,0,.54,4s-2.34,5.75-.72,6.2a23,23,0,0,0,3.51.63l.18-.63s6.92,3.78,9.44,1C1051.88,641.5,1052.42,639.52,1050.89,638.89Zm-24.64-44.14c.27.27.18,1.52.18,1.52l-.54,3.51-.53,2.43a26.26,26.26,0,0,0-.46-3.42l-.25-6.72a.52.52,0,0,0,.16.06c.18,0,.09-1.52.09-1.52s.11-.28.24-.71c.35,1.05.78,1.73,1.29,1.88l.09,1.16s-1.17.54-.09.54l.19,0-.1.47s-.53.55-.27.82Z"/><path id="Pfad_522" data-name="Pfad 522" class="cls-6" d="M1066.13,633.85l.8,5.56,4-.4-.4-5.75Z"/><path id="Pfad_523" data-name="Pfad 523" class="cls-6" d="M1047.27,633.85l-.8,5.56-4-.4.4-5.75Z"/><path id="Pfad_524" data-name="Pfad 524" class="cls-7" d="M1041.51,576.27a14.67,14.67,0,0,0-2.78,10.72c.79,6.55,2.18,21.44,2.18,21.44l1,26.41,6.35-.39,1-22.44,3.18-18.07,8.54,21s4.17,19.65,4.37,19.65,6-.59,6-.59l-2.77-23.23s-4.37-33.76-7-34.35S1041.51,576.27,1041.51,576.27Z"/><path id="Pfad_525" data-name="Pfad 525" class="cls-7" d="M1071.29,638.22s-3.57-2.38-5,.39a5.14,5.14,0,0,0-.2,4.77s1.19.79.6,1.59-.8,5.95,4.37,5.16,2.58-6.15,2.58-6.15Z"/><path id="Pfad_526" data-name="Pfad 526" class="cls-7" d="M1042.11,638.22s3.57-2.38,5,.39a5.14,5.14,0,0,1,.2,4.77s-1.19.79-.6,1.59.8,5.95-4.37,5.16-2.58-6.15-2.58-6.15Z"/><path id="Pfad_527" data-name="Pfad 527" class="cls-6" d="M1046.37,537.64s1.79,5,.4,7.75,2.18,6,2.18,6,9.34-4.77,8.14-7.15-3.17-5.56-2.78-7.55Z"/><circle id="Ellipse_139" data-name="Ellipse 139" class="cls-6" cx="1049.85" cy="533.18" r="6.35"/><path id="Pfad_528" data-name="Pfad 528" class="cls-5" d="M1045.28,545.09s6.38,5.31,11.13-2.21l5,2.81,2.58,30.18s-14.5,8.34-21.45,1.19l1-28Z"/><path id="Pfad_529" data-name="Pfad 529" class="cls-8" d="M1047.28,542.12l-9,6,3.18,14.7-4.17,22.83,6.75-10.13Z"/><path id="Pfad_530" data-name="Pfad 530" class="cls-8" d="M1055.2,540.46l2.19,1.45,8.94,3.18-1.39,24.62,3.77,15.89-5.36,2.78s-1-7.55-7.15-11.32S1053.79,541.59,1055.2,540.46Z"/><path id="Pfad_531" data-name="Pfad 531" class="cls-6" d="M1040.32,579.05l2.58,1.78s-3.28,3.48-3.87,2.88a1.64,1.64,0,0,1-.5-1.29l-.59-1.39Z"/><path id="Pfad_532" data-name="Pfad 532" class="cls-6" d="M1057.48,578.66l-.88,1.38s-2.58,1.19-2,2,5.55,2.59,6.55.8l1-1.79Z"/><path id="Pfad_533" data-name="Pfad 533" class="cls-8" d="M1039.52,547.87l-1.39.2-2.28,14.79s-.89,2.68.1,9,2,10.49,2,10.49l4.38-3.15-2-5.16,2.58-18.86Z"/><path id="Pfad_534" data-name="Pfad 534" class="cls-8" d="M1063.15,544.69l3.18.4s3.57,3.77,4.17,7.74.4,15.29.4,15.29l-9.14,14.5-5-3.58,7-12.31L1060.37,552Z"/><path id="Pfad_535" data-name="Pfad 535" class="cls-9" d="M1055.91,527.43a7.45,7.45,0,0,0-4.22-3.23l-1.29,1,.5-1.21a6.87,6.87,0,0,0-1.28-.07l-1.16,1.49.48-1.44a7.35,7.35,0,0,0-5.07,3,6.54,6.54,0,0,0-.28,7.25c.4-1.23.89-2.38,1.29-3.61a3.29,3.29,0,0,0,.94,0l.49-1.13.13,1.08c1.51-.13,3.74-.41,5.17-.68l-.14-.83.83.69c.44-.1.7-.19.68-.26,1.06,1.71,2.11,2.8,3.17,4.51C1056.55,531.64,1057.26,529.63,1055.91,527.43Z"/><ellipse id="Ellipse_140" data-name="Ellipse 140" class="cls-6" cx="1055.56" cy="532.98" rx="0.43" ry="0.86"/><path id="Pfad_542" data-name="Pfad 542" class="cls-7" d="M1164.08,534.12l0-.06a0,0,0,0,1,0,0Z"/></g><path class="cls-10" d="M1030.69,199l-.29-3.86a2.68,2.68,0,0,1,2.37-2.86,58.88,58.88,0,0,1,13.55-.21,3,3,0,0,1,2.58,3V199h-4l.13-2a3,3,0,0,0-2.73-3.21,28.84,28.84,0,0,0-6.48.14,2.69,2.69,0,0,0-2.23,3.31l.45,1.78Z"/><polygon class="cls-11" points="1062.11 274.97 1019.21 274.06 1016.15 208.45 1064.37 205.62 1062.11 274.97"/><path class="cls-12" d="M1064.41,204.33l-48.19,2,5.29-6.63a5.78,5.78,0,0,1,4.44-2l29.1-.45a3.85,3.85,0,0,1,2.66,1Z"/><path class="cls-13" d="M1019.2,274.06l42.91.91-7.78,5.87a3.43,3.43,0,0,1-2.06.69l-24.71.08a3.43,3.43,0,0,1-2.57-1.15Z"/><path class="cls-14" d="M1066.35,211l-52.14.08c-1.87,0-3.28-1.24-2.86-2.51l1.16-3.44a2.72,2.72,0,0,1,2.63-1.51l49.64-.94a2.92,2.92,0,0,1,2.94,1.62"/><path class="cls-15" d="M1025,272.63h0a.73.73,0,0,1-.72-.69l-2.49-55.1a.72.72,0,0,1,.72-.75h0a.72.72,0,0,1,.72.68l2.49,55.11A.72.72,0,0,1,1025,272.63Z"/><path class="cls-16" d="M1031.61,272.64h0a.71.71,0,0,1-.7-.69l-1.7-55.14a.71.71,0,0,1,.72-.74h0a.72.72,0,0,1,.71.7l1.7,55.13A.72.72,0,0,1,1031.61,272.64Z"/><path class="cls-17" d="M1056.28,272.63h0a.72.72,0,0,0,.72-.69l2.49-55.1a.72.72,0,0,0-.71-.75h0a.72.72,0,0,0-.72.68l-2.49,55.11A.72.72,0,0,0,1056.28,272.63Z"/><path class="cls-18" d="M1049.66,272.64h0a.71.71,0,0,0,.71-.69l1.7-55.14a.72.72,0,0,0-.73-.74h0a.72.72,0,0,0-.7.7l-1.71,55.13A.72.72,0,0,0,1049.66,272.64Z"/><rect class="cls-19" x="1039.64" y="216.88" width="0.96" height="55.74" rx="0.46"/><path class="cls-20" d="M1050.33,217.44l0,0Z"/><path class="cls-20" d="M1050.33,217.44l0,.06Z"/><path class="cls-21" d="M1064.76,239.87l5.84,1.86-.69,2.31a23.49,23.49,0,0,1,3.65-.37l-.91-4.83-2.65-.64,1.22-3.14c-1.63.17-4.26-1.17-5.9-2a14,14,0,0,0,3.9,3.7A28.53,28.53,0,0,0,1064.76,239.87Z"/><path class="cls-22" d="M1110.1,268.66c-1.93-3.92-5.42-10.79-7.76-12.87s-5.24-2.26-10.46-2.66-6.27-.91-6.27-.91c-6.19-7.31-10.95-7-19.08-7.17a13.55,13.55,0,0,1,3.38-1l.69-2.31-5.84-1.86a28.53,28.53,0,0,1,4.46-3.09,14,14,0,0,1-3.9-3.7.69.69,0,0,1-.15-.07,42.94,42.94,0,0,0-6,9.86,9.67,9.67,0,0,0,0,5.95,43.82,43.82,0,0,0-1,15.72c-.74,3.38-2,11.29,2.68,14.7a23.47,23.47,0,0,0,12.12,4.43c11.86,8.06,12.62,8.06,18.59,6.6a40.27,40.27,0,0,0,14.61-6.95C1110.73,277.55,1112,272.59,1110.1,268.66Z"/><path class="cls-21" d="M1064,240.29l-.68.69-.67.71q-.18.19-.36.42c-.12.13-.24.29-.35.43a9.94,9.94,0,0,0-.63.91c-.08.15-.17.3-.24.44l-.19.42c0,.13-.09.25-.13.36s0,.21-.08.29l-.06.26s0-.09,0-.27a1.59,1.59,0,0,1,0-.31c0-.12,0-.25.06-.4a5,5,0,0,1,.62-1.47,5.22,5.22,0,0,1,.34-.48,5.79,5.79,0,0,1,.78-.85,6.66,6.66,0,0,1,.77-.64A5.13,5.13,0,0,1,1064,240.29Z"/><path class="cls-21" d="M1066.06,242.56l-.78.41-.78.42c-.28.16-.58.32-.87.51a8.42,8.42,0,0,0-.82.56c-.13.1-.23.21-.35.3a3.76,3.76,0,0,0-.28.29c-.09.09-.15.19-.22.27a1.18,1.18,0,0,0-.14.23l-.12.21s0-.09,0-.24a1.21,1.21,0,0,1,.08-.28,2.45,2.45,0,0,1,.16-.33,2.7,2.7,0,0,1,.26-.36,2.24,2.24,0,0,1,.33-.36,3.26,3.26,0,0,1,.4-.34c.14-.11.29-.21.44-.31a7.87,7.87,0,0,1,1.78-.79A4.46,4.46,0,0,1,1066.06,242.56Z"/><path class="cls-21" d="M1066.53,245.05a3.56,3.56,0,0,1-.54.19,8.28,8.28,0,0,1-2.43.32,3.09,3.09,0,0,1-.57-.05s.22-.09.54-.19a9.64,9.64,0,0,1,1.2-.25A9.4,9.4,0,0,1,1066,245,4.44,4.44,0,0,1,1066.53,245.05Z"/><path class="cls-21" d="M1063.85,247.37l.25,1.78c.06.53.16,1.15.25,1.82,0,.33.1.68.15,1s.11.71.16,1.06.13.7.18,1l.18,1c.14.66.26,1.27.37,1.8s.25.95.33,1.25.12.49.12.49l-.19-.46c-.12-.29-.31-.71-.49-1.22s-.33-1.13-.5-1.78c-.07-.33-.15-.67-.21-1s-.15-.7-.2-1.06c-.09-.71-.21-1.42-.26-2.1s-.1-1.3-.13-1.84,0-1,0-1.31S1063.85,247.37,1063.85,247.37Z"/><path class="cls-21" d="M1066,248.29s.3.19.71.51a11.41,11.41,0,0,1,1.41,1.29,8.35,8.35,0,0,1,.65.82,1.67,1.67,0,0,1,.12.23.47.47,0,0,1,0,.35.14.14,0,0,1,0,.08l0,0-.05,0a.32.32,0,0,1-.19.06.5.5,0,0,1-.26-.08,1.71,1.71,0,0,1-.47-.46l-.13-.21.19.15a2.14,2.14,0,0,0,.51.31.35.35,0,0,0,.14,0h0l0,0v0l0,0s0,0-.06-.08a.94.94,0,0,0-.12-.18c-.19-.24-.41-.49-.65-.74-.46-.51-.93-1-1.26-1.41S1066,248.29,1066,248.29Z"/><path class="cls-21" d="M1063.29,269.5l.3,0c.19,0,.46.06.78.12s.69.1,1.09.18l.61.1.63.09c.21,0,.44.06.65.11a5.63,5.63,0,0,1,.62.14,9.61,9.61,0,0,0,1.06.24,2.22,2.22,0,0,0,.43,0,1.09,1.09,0,0,0,.33,0l.21-.06.07,0a1.34,1.34,0,0,1-.26.16,1.14,1.14,0,0,1-.33.12,2.16,2.16,0,0,1-.46.05,5.88,5.88,0,0,1-1.13-.12l-.61-.11a6,6,0,0,0-.63-.08c-.43-.08-.87-.14-1.27-.25s-.76-.2-1.07-.31l-.74-.28Z"/><path class="cls-21" d="M1058.15,264.54s.12.21.26.53c.07.16.14.35.22.55s.16.41.24.63.16.42.22.63.15.38.2.54.07.15.09.22a1.19,1.19,0,0,0,.08.16l0,.16-.12-.1-.14-.13a1.62,1.62,0,0,1-.17-.19,2.5,2.5,0,0,1-.16-.24,1.75,1.75,0,0,1-.16-.27,4.59,4.59,0,0,1-.28-.64c0-.11-.08-.22-.11-.33s-.06-.23-.09-.33a3.83,3.83,0,0,1-.1-.59A3,3,0,0,1,1058.15,264.54Z"/><path class="cls-21" d="M1085.6,252.18l.25.22.63.58c.26.24.56.53.87.84l1,1c.33.35.67.67,1,1s.61.6.85.86.25.23.35.33l.26.26.23.24-.28-.17-.31-.21a4,4,0,0,1-.4-.27l-.46-.36c-.15-.13-.33-.26-.49-.41-.33-.3-.68-.62-1-1s-.66-.68-1-1-.56-.65-.78-.93-.39-.52-.52-.69Z"/><path class="cls-21" d="M1092.21,263.94l.3.94c.18.61.44,1.46.72,2.5s.6,2.25.89,3.57c.14.66.28,1.34.41,2s.24,1.4.31,2.13l0,.54v.56a4.11,4.11,0,0,1-.08.54,3.58,3.58,0,0,1-.14.54,12.06,12.06,0,0,1-.83,1.93c-.31.61-.66,1.16-1,1.69s-.66,1-1,1.44c-.61.89-1.17,1.59-1.56,2.08s-.63.76-.63.76l.57-.81c.35-.51.85-1.26,1.43-2.16q.43-.68.9-1.47c.31-.53.62-1.1.92-1.69a10.55,10.55,0,0,0,.78-1.87,3.92,3.92,0,0,0,.13-.49c0-.17.06-.37.06-.51v-.52l0-.53c-.06-.7-.17-1.41-.29-2.1s-.24-1.37-.38-2c-.27-1.31-.52-2.54-.76-3.58C1092.53,265.34,1092.21,263.94,1092.21,263.94Z"/><path class="cls-21" d="M1106,270.63a1.47,1.47,0,0,1,0,.2,3.26,3.26,0,0,1-.18.52,5.2,5.2,0,0,1-.36.7,3.87,3.87,0,0,1-.24.37,3.17,3.17,0,0,1-.28.36l-.31.34a2.35,2.35,0,0,1-.33.3l-.33.25a1.17,1.17,0,0,1-.31.2,5.63,5.63,0,0,1-.69.32,5.86,5.86,0,0,1,.55-.51c.17-.14.33-.35.53-.53l.15-.15.13-.16.29-.33a2.24,2.24,0,0,0,.27-.34l.27-.32c.15-.23.33-.43.45-.61Z"/><path class="cls-21" d="M1073.06,283.61s.33,0,.82,0l.83,0,1,0c.16,0,.32,0,.48,0l.46,0h.82l.33,0,.26,0h.23l-.21.08-.25.09a1.87,1.87,0,0,1-.33.1l-.39.07c-.14,0-.29.05-.45.06s-.64,0-1,0a9.43,9.43,0,0,1-1-.1c-.31,0-.59-.1-.83-.16A6,6,0,0,1,1073.06,283.61Z"/><path class="cls-20" d="M1072.38,286.75s.17.19.41.49c.11.15.25.32.39.52s.28.39.43.59l.22.3.21.29c.14.19.26.37.37.53a5.08,5.08,0,0,1,.36.53,5.72,5.72,0,0,1-.53-.37,4.86,4.86,0,0,1-.48-.45,7.3,7.3,0,0,1-.49-.59,6,6,0,0,1-.69-1.23A3.31,3.31,0,0,1,1072.38,286.75Z"/><path class="cls-20" d="M1071.94,289.34a.27.27,0,0,0,.07.08c0,.05.11.11.17.19l.13.11a.77.77,0,0,0,.13.12,2.79,2.79,0,0,0,.31.24.83.83,0,0,0,.15.11l.17.11.15.11.14.09a2.17,2.17,0,0,1,.3.24,1.7,1.7,0,0,1-.39,0,1.26,1.26,0,0,1-.38-.1,1.69,1.69,0,0,1-.39-.22l-.19-.15c0-.05-.09-.12-.14-.17a1,1,0,0,1-.19-.36.83.83,0,0,1,0-.28A.5.5,0,0,1,1071.94,289.34Z"/><path class="cls-20" d="M1112.88,267a2.39,2.39,0,0,1,.31.2,3.85,3.85,0,0,1,.31.29,4.06,4.06,0,0,1,.35.43c.05.09.11.18.17.27s.09.21.14.31a4.42,4.42,0,0,1,.25.7,6.18,6.18,0,0,1,.13.77c0,.14,0,.27,0,.41v.4a5.15,5.15,0,0,1-.09.8,3.66,3.66,0,0,1-.17.76,4.64,4.64,0,0,1-.21.69q-.12.31-.24.6a3.75,3.75,0,0,1-.23.49l-.2.37-.18.32s0-.13.1-.35.08-.25.13-.4.11-.32.16-.51.1-.4.16-.61.1-.45.16-.68,0-.24.07-.36,0-.25,0-.38a4.77,4.77,0,0,0,.07-.76l0-.38c0-.12,0-.25,0-.38a5.47,5.47,0,0,0-.08-.72,5.74,5.74,0,0,0-.18-.66,3.76,3.76,0,0,0-.23-.57,4.72,4.72,0,0,0-.26-.46,3.52,3.52,0,0,0-.25-.33A3.48,3.48,0,0,0,1112.88,267Z"/><path class="cls-20" d="M1115.74,269.19a3.36,3.36,0,0,1,.23.77c0,.12,0,.25.06.39a3,3,0,0,1,0,.44c0,.15,0,.3,0,.46a4.22,4.22,0,0,1,0,.49l-.06.48c0,.15-.08.3-.12.45a4.21,4.21,0,0,1-.12.42,1.78,1.78,0,0,1-.14.37,7.53,7.53,0,0,1-.37.72s0-.33.14-.79a3.7,3.7,0,0,0,.07-.38l.06-.41a6.65,6.65,0,0,0,.12-.91c.06-.3.05-.62.09-.91,0-.14,0-.28,0-.42s0-.26,0-.38C1115.74,269.51,1115.74,269.19,1115.74,269.19Z"/><g class="cls-23"><path class="cls-5" d="M1092.62,259.18s-4.07-4.27-1.5-5.1c.73-.23,1.52-.53,2.27-.83l-1.51-.12a30.28,30.28,0,0,1-6.08-.84,30.7,30.7,0,0,0,2.17,2.45C1091,257.78,1092.62,259.18,1092.62,259.18Z"/><path class="cls-24" d="M1110.1,268.66c-1.07-2.18-2.63-5.28-4.21-8,2.79,6,2.07,8.38-1.33,14.48-3.51,6.32-11.48,8.09-10.83,5.79s2.16-5.92.88-8c1.42,6.48-8.78,16.64-12.36,15s-5-3.28-1.24-4.4c-7.79.59-20.91-6.88-20.24-9.8s6.87-3.34,6.87-3.34c-7.47-1.67-9.3-7-9.74-9.67,0,1.2.11,2.46.25,3.78-.74,3.38-2,11.29,2.68,14.7a23.47,23.47,0,0,0,12.12,4.43c11.86,8.06,12.62,8.06,18.59,6.6a40.27,40.27,0,0,0,14.61-6.95C1110.73,277.55,1112,272.59,1110.1,268.66Z"/></g><g class="cls-23"><path class="cls-25" d="M1059.87,250.55c1.75-.67,2.41-1.11,2.86-1.84s1,.36,1.41,1.89c.21-3.22,1.66-2.57,3.15-1.21-1.73-2.42-2.09-3.92-.26-4.33h-.5a10,10,0,0,1,1.36-.51,9.33,9.33,0,0,0-2.27.32c-2.28.6-3.39.13-2.22-1.25-2.41,1.34-2.08.18-.37-2.52-1.17.52-2.73,3.27-2.71,2.11a9.81,9.81,0,0,1,.83-4.3,43.56,43.56,0,0,0-2,4,9.67,9.67,0,0,0,0,5.95,29.19,29.19,0,0,0-.75,3.62A2.78,2.78,0,0,1,1059.87,250.55Z"/></g><path class="cls-26" d="M1074.69,247.14s4.87.23,6.45,3.87S1070.78,246.61,1074.69,247.14Z"/><path class="cls-26" d="M1084.35,253.23c-.07.23-.56.3-1.09.15s-.92-.47-.85-.71.55-.3,1.09-.15S1084.42,253,1084.35,253.23Z"/><path class="cls-8" d="M950.21,382.76V372.35a5.31,5.31,0,1,1,10.61-.1v10.61a5.31,5.31,0,1,1-10.61-.1Z"/><path class="cls-8" d="M969.84,377.44h-3.5v5.05a11.11,11.11,0,0,1-8.76,10.57,10.59,10.59,0,0,1-12.46-10.36v-5.26H924.33v5.05a11.1,11.1,0,0,1-8.76,10.57,10.59,10.59,0,0,1-12.46-10.36v-5.26h-3.93a9.65,9.65,0,0,0-9.65,9.64v11.57h90V387.08A9.65,9.65,0,0,0,969.84,377.44Z"/><path class="cls-8" d="M908.2,382.76V372.35a5.31,5.31,0,1,1,10.61-.1v10.61a5.31,5.31,0,1,1-10.61-.1Z"/><path class="cls-22" d="M889.53,404.17v43a9.65,9.65,0,0,0,9.65,9.65h70.66a9.65,9.65,0,0,0,9.65-9.65v-43Z"/><text class="cls-27" transform="translate(897.04 433.62)">0<tspan class="cls-28" x="11.97" y="0">9</tspan><tspan x="22.56" y="0">/</tspan><tspan class="cls-29" x="28.38" y="0">2</tspan><tspan class="cls-30" x="38.54" y="0">0</tspan><tspan class="cls-29" x="50.49" y="0">2</tspan><tspan x="60.66" y="0">0</tspan></text><text class="cls-31" transform="translate(1162.82 235.29)">Ab<tspan class="cls-32" x="18.5" y="0">f</tspan><tspan x="22.76" y="0">all p</tspan><tspan class="cls-33" x="50.06" y="0">r</tspan><tspan x="55.15" y="0">o Jahr p</tspan><tspan class="cls-33" x="108.09" y="0">r</tspan><tspan x="113.18" y="0">o </tspan><tspan class="cls-34" x="124.94" y="0">P</tspan><tspan x="134.35" y="0">e</tspan><tspan class="cls-35" x="142.35" y="0">r</tspan><tspan x="147.57" y="0">son </tspan><tspan class="cls-36"><tspan class="cls-37" x="0" y="16.08">5</tspan><tspan class="cls-38" x="7.91" y="16.08">3</tspan><tspan x="15.71" y="16.08">5 </tspan><tspan class="cls-39" x="27.48" y="16.08">k</tspan><tspan x="36.01" y="16.08">g</tspan></tspan></text><text class="cls-31" transform="translate(1164.16 411.06)"><tspan class="cls-40">V</tspan><tspan x="8.47" y="0">e</tspan><tspan class="cls-33" x="16.47" y="0">r</tspan><tspan x="21.56" y="0">öf</tspan><tspan class="cls-41" x="34.27" y="0">f</tspan><tspan x="38.54" y="0">entli</tspan><tspan class="cls-41" x="67.9" y="0">c</tspan><tspan x="75.21" y="0">hu</tspan><tspan class="cls-42" x="93.2" y="0">n</tspan><tspan x="102.23" y="0">g</tspan><tspan class="cls-36"><tspan x="0" y="16.08">Sep</tspan><tspan class="cls-43" x="26.26" y="16.08">t</tspan><tspan x="31.86" y="16.08">ember </tspan><tspan class="cls-44" x="81.65" y="16.08">2</tspan><tspan class="cls-45" x="89.53" y="16.08">0</tspan><tspan class="cls-46" x="98.55" y="16.08">2</tspan><tspan x="106.43" y="16.08">0</tspan></tspan></text><text class="cls-31" transform="translate(1162.87 588.15)">Be<tspan class="cls-47" x="18.08" y="0">f</tspan><tspan class="cls-48" x="23.55" y="0">r</tspan><tspan class="cls-49" x="28.71" y="0">a</tspan><tspan x="36.53" y="0">g</tspan><tspan class="cls-50" x="45.67" y="0">t</tspan><tspan x="50.75" y="0">e</tspan><tspan class="cls-36"><tspan x="0" y="16.08">1</tspan><tspan class="cls-34" x="5.25" y="16.08">.</tspan><tspan class="cls-51" x="8.59" y="16.08">0</tspan><tspan class="cls-52" x="17.61" y="16.08">23 </tspan><tspan class="cls-53" x="37.25" y="16.08">P</tspan><tspan x="46.91" y="16.08">e</tspan><tspan class="cls-44" x="55.37" y="16.08">r</tspan><tspan x="61.12" y="16.08">so</tspan><tspan class="cls-54" x="77.01" y="16.08">n</tspan><tspan x="86.35" y="16.08">en</tspan></tspan></text><path class="cls-55" d="M637.2-6.49c2.76,28.62,10.48,49.36,17.33,63.33,8.36,17.06,17,27.24,12.83,38.36-3.87,10.33-17.41,17.73-29.93,16.4-13-1.38-20.49-11.79-23.57-16.08-7.75-10.85-8.39-22.28-8.66-28.62C603.71,31.71,630.53.86,637.2-6.49Z"/><path class="cls-56" d="M642.85-7.74c0,1.55-7.18,1.14-19.07,6.54a87.07,87.07,0,0,0-11.61,6.89c-12.41,8.83-18.89,19.74-24.69,27.16-3.88,5-20.54,26.25-46.18,31-20.2,3.73-39.61-4-41-4.57-7.68-3-11.63-6.11-33.37-27.78S440.06,3.86,427.36-1.2c-14.91-5.95-26.28-5.22-26.22-6.54C401.41-13.82,642.65-15.91,642.85-7.74Z"/><path class="cls-57" d="M647-8a230.91,230.91,0,0,0,14,56c4,10.2,10.92,28.61,20.55,40.69,25.41,31.88,79.08,32.41,103.3,32.35,293.24-.68,508.12-36,508.36-36h0c83.36-10.42,132.33-20.4,149.81-30V-4Z"/><path class="cls-58" d="M233,790.92c-6.67-28-6.08-50.08-4.12-65.52,2.39-18.85,7.26-31.28-.28-40.45-7-8.52-22.22-11.14-33.64-5.82-11.9,5.54-15.57,17.79-17.08,22.85-3.83,12.78-.72,23.8,1.07,29.87C188.92,765.64,224.29,786.14,233,790.92Z"/><path class="cls-59" d="M241.76,799.07c0-1.55-7.18-1.14-19.07-6.53a89,89,0,0,1-11.61-6.9c-12.41-8.83-18.89-19.74-24.7-27.16-3.88-5-20.53-26.25-46.17-31-20.2-3.72-39.62,4-41,4.57-7.68,3-11.64,6.11-33.37,27.78S39,787.47,26.27,792.54C11.36,798.48,0,797.75.05,799.07.31,805.15,241.55,807.24,241.76,799.07Z"/></g></g></svg>