<svg xmlns="http://www.w3.org/2000/svg" xmlns:xlink="http://www.w3.org/1999/xlink" viewBox="0 0 206.87 329.34"><defs><style>.cls-1{fill:url(#Unbenannter_Verlauf_203);}.cls-2{fill:url(#Unbenannter_Verlauf_62);}.cls-3{fill:url(#Unbenannter_Verlauf_209);}.cls-4{fill:url(#Unbenannter_Verlauf_209-2);}.cls-5{fill:url(#Unbenannter_Verlauf_40);}.cls-6{fill:url(#Unbenannter_Verlauf_173);}.cls-7{fill:url(#Unbenannter_Verlauf_173-2);}.cls-8{fill:url(#Unbenannter_Verlauf_167);}.cls-9{fill:url(#Unbenannter_Verlauf_182);}.cls-10{fill:#fff;}</style><linearGradient id="Unbenannter_Verlauf_203" x1="104.32" y1="-0.37" x2="103.88" y2="25.21" gradientUnits="userSpaceOnUse"><stop offset="0" stop-color="#ffc100"/><stop offset="1" stop-color="#ffc100"/></linearGradient><linearGradient id="Unbenannter_Verlauf_62" x1="40.78" y1="287.69" x2="144.62" y2="101.11" gradientTransform="translate(6.74 0.83) rotate(1.87)" gradientUnits="userSpaceOnUse"><stop offset="0" stop-color="#ffc100"/><stop offset="0.68" stop-color="#ff9000"/><stop offset="1" stop-color="#ffcb00"/></linearGradient><linearGradient id="Unbenannter_Verlauf_209" x1="108.28" y1="-17.68" x2="101.79" y2="40.73" gradientTransform="translate(6.74 0.83) rotate(1.87)" xlink:href="#Unbenannter_Verlauf_203"/><linearGradient id="Unbenannter_Verlauf_209-2" x1="177.5" y1="447.71" x2="205.5" y2="260.99" gradientTransform="translate(-77.46 -28.22) rotate(1.87)" xlink:href="#Unbenannter_Verlauf_203"/><linearGradient id="Unbenannter_Verlauf_40" y1="55.46" x2="206.87" y2="55.46" gradientUnits="userSpaceOnUse"><stop offset="0" stop-color="#ffc100" stop-opacity="0.87"/><stop offset="1" stop-color="#ff8b00"/></linearGradient><linearGradient id="Unbenannter_Verlauf_173" x1="68.22" y1="-9.95" x2="43.39" y2="213.5" gradientUnits="userSpaceOnUse"><stop offset="0" stop-color="#ffc100"/><stop offset="1" stop-color="#fff"/></linearGradient><linearGradient id="Unbenannter_Verlauf_173-2" x1="92.98" y1="-11.57" x2="68.15" y2="211.89" gradientTransform="matrix(1, 0.01, -0.01, 1, 3.74, 0.63)" xlink:href="#Unbenannter_Verlauf_173"/><linearGradient id="Unbenannter_Verlauf_167" x1="-281.5" y1="-6.21" x2="-306.33" y2="217.24" gradientTransform="matrix(-1, 0.01, 0.01, 1, -163.04, 0.63)" xlink:href="#Unbenannter_Verlauf_173"/><linearGradient id="Unbenannter_Verlauf_182" x1="128.02" y1="-6.65" x2="103.42" y2="214.78" xlink:href="#Unbenannter_Verlauf_173"/></defs><g id="Ebene_2" data-name="Ebene 2"><g id="Layer_1" data-name="Layer 1"><path class="cls-1" d="M71.16,26.54,70.1,12.39A9.82,9.82,0,0,1,78.79,1.9c12-1.35,33.2-3.08,49.65-.77a11,11,0,0,1,9.46,10.94V26.54H123.26l.49-7.4a11,11,0,0,0-10-11.74A103.12,103.12,0,0,0,90,7.91,9.83,9.83,0,0,0,81.82,20l1.63,6.53Z"/><polygon class="cls-2" points="186.32 305 29.05 301.67 17.86 61.19 194.6 50.82 186.32 305"/><path class="cls-3" d="M194.76,46.07,18.11,53.59,37.5,29.3a21.22,21.22,0,0,1,16.29-7.49l106.65-1.64a14.2,14.2,0,0,1,9.73,3.51Z"/><path class="cls-4" d="M29.05,301.67,186.32,305l-28.53,21.5a12.59,12.59,0,0,1-7.55,2.56l-90.55.28a12.63,12.63,0,0,1-9.42-4.2Z"/><path class="cls-5" d="M201.84,70.58l-191.1.27c-6.85,0-12-4.52-10.46-9.17L4.5,49c1.06-3.17,5-5.41,9.67-5.5l181.94-3.46c5.11-.1,9.66,2.41,10.76,5.93"/><path class="cls-6" d="M50.26,296.41h0a2.63,2.63,0,0,1-2.63-2.52l-9.13-202a2.64,2.64,0,0,1,2.63-2.75h0a2.62,2.62,0,0,1,2.63,2.51l9.13,202A2.63,2.63,0,0,1,50.26,296.41Z"/><path class="cls-7" d="M74.53,296.46h0a2.63,2.63,0,0,1-2.59-2.55L65.71,91.83a2.62,2.62,0,0,1,2.66-2.71h0A2.64,2.64,0,0,1,71,91.67L77.2,293.75A2.63,2.63,0,0,1,74.53,296.46Z"/><path class="cls-8" d="M140.69,296.46h0a2.63,2.63,0,0,0,2.59-2.55l6.23-202.08a2.62,2.62,0,0,0-2.66-2.71h0a2.64,2.64,0,0,0-2.6,2.55L138,293.75A2.63,2.63,0,0,0,140.69,296.46Z"/><rect class="cls-9" x="103.94" y="92.1" width="3.51" height="204.3" rx="1.52"/><path class="cls-10" d="M143.15,94.14l.11.12Z"/><path class="cls-10" d="M143.15,94.14l.11.23Z"/></g></g></svg>