<svg xmlns="http://www.w3.org/2000/svg" viewBox="0 0 450.37 1288.66"><defs><style>.cls-1{fill:#f48c7f;}.cls-2{fill:#f7a491;}.cls-3{fill:#231f20;}.cls-4{fill:#063567;}.cls-5{fill:#f47458;}.cls-6{fill:#13375b;}</style></defs><g id="Ebene_2" data-name="Ebene 2"><g id="Layer_1" data-name="Layer 1"><path class="cls-1" d="M35.51,584.55c19.85-5.72,20.39-2.18,22.91-3,3-1,27-33.48,27-33.48s71.47-95.34,75.13-100.64l22.54-123.37,67.72-.53s-28.29,133.23-31.06,139.82-116,123-125.63,133.65c0,0-6.2,17.21-10.48,27.85s-13.42,18.44-15.12,21.21A91.86,91.86,0,0,1,51.1,664c-9.4,7.43-4.43-4.14-4.43-4.14s14.54-17.07,12.84-18.08c-1.31-.79-8.64,9-18.94,17.38-2.65,2.15-5.27,4.25-7.7,6.17-6.37,5-11.76,2.35-6.07-4a72.52,72.52,0,0,1,8.32-8.14c3.1-2.41,5.05-5.67,7.3-8.11,4.46-4.85,7.78-8.33,7.45-8.42s-.3-1.75-3.19.43c-3.48,2.63-9.43,9.92-14.89,13.37-3.1,2-9.28,6.45-9.28,6.45s-10.82,5-11.4,4.42c-3.11-3,3.08-8.48,7.71-10.56,2.08-2.87,8.74-7.41,8.74-7.41s11-12.31,9.1-14c-.83-.74-8.61,5.94-17.42,11.22-8.18,4.89-17.4,8.46-18.81,6.94-2.39-2.58,6-9,6-9s6.16-4.18,8.08-5.74c2.25-1.81,8.5-7.8,8.5-7.8S43.68,603,41.72,601.48s-8.37-3.49-10.18-2.61-4.08,4.27-5.9,5.15A5.69,5.69,0,0,1,19,602.27c-1.51-2.19,5.23-9.87,5.23-9.87S29.78,586.2,35.51,584.55Z"/><path class="cls-2" d="M147.94,1203.45s2.41,42.56,2.43,42.65c.88,5.4,4.37,18.76,4.37,23.67,0,18.45-82.12-15.67-63.71-23.85,1.66-.74,10.39-6.34,10.94-12.62.84-9.68,3-29.26,3-29.26Z"/><path class="cls-3" d="M91.23,1245.75s19.28,5.64,29.15,7,22.9-10.47,29.88-7.26c7.69,3.54,6.91,38.33,6.91,38.33s-102.91,6.06-132-3.3C13.67,1276.86,51.82,1258.9,91.23,1245.75Z"/><path class="cls-2" d="M328.86,1207.53s2.41,42.57,2.42,42.66c.89,5.4,4.37,18.75,4.37,23.66,0,18.46-82.11-15.66-63.71-23.84,1.67-.74,13-10.52,13.53-16.8.84-9.68.4-25.08.4-25.08Z"/><path class="cls-3" d="M272.15,1249.83s19.27,5.65,29.15,7.06,22.89-10.47,29.87-7.26c7.69,3.53,8,35.33,8,35.33s-110,8-135.89.49C191.66,1282.09,232.73,1263,272.15,1249.83Z"/><path class="cls-3" d="M198.73,593.09l-34.72,15L91,956.82l3,261.44,58.55,1.36s27.22-228.7,27.22-246.42S305.84,663,305.84,663Z"/><path class="cls-3" d="M225.52,612.28s25.58,268.7,25.58,314,20.74,298.8,20.74,298.8l58.68-.34s4.23-77.27,10.52-191c1-17.8-1.26-53.72,0-72.15,9.13-132.56,27.19-257.35,18.56-306.82-1.38-8-4-28.78-9.07-34C312.1,581,225.52,612.28,225.52,612.28Z"/><path class="cls-4" d="M153.94,400.23l71-4.76s3.51-63.47,3.51-93.75c0-36.73,11.19-90.89,6.81-89.87C223,214.71,201.78,226,191.94,239.73,157.86,287.19,153.94,400.23,153.94,400.23Z"/><path class="cls-4" d="M322.17,210.45s40.5,5.63,51.15,13.45c12,8.82,25.33,28.54,25.33,28.54s-49.72,235-49.81,274.54c-.06,30.6,10.77,105.72,10.77,105.72s-150.23,9.48-207.13-13c0,0,18-89.34,18-112.8s21.5-236.78,26.39-251.68c4.44-13.52,12.55-37.81,40-43.8S322.17,210.45,322.17,210.45Z"/><path class="cls-2" d="M311.12,147.18l10,65.62s-36.6,78.13-58.45,71.36c-18.34-5.69-7.06-74.82-7.06-74.82s10-37.13,7-55.71S311.12,147.18,311.12,147.18Z"/><path class="cls-5" d="M262.63,153.63c-3-18.58,48.49-6.45,48.49-6.45l.83,5.44a30.24,30.24,0,0,1-5.58,9.14c-11.5,12.3-29.48,19.68-45,20.24C262.9,172,263.86,161.25,262.63,153.63Z"/><path class="cls-2" d="M319.57,54.34c1.45-.53,11.66,74.74-7.71,95.45S254.74,177.27,241.2,161c-15-18-14.22-98.93,15.9-120.23S319.57,54.34,319.57,54.34Z"/><path class="cls-3" d="M268.56.47c23.28,4.71,38.36,18.84,43.9,24.87,10.58,1.24,25,7,39.78,31.44,18.25,30,4.77,63.25-16.46,79.56s-21,35.25-21,35.25l-3.3-9.84a54.06,54.06,0,0,1-2.66-22.95,44.54,44.54,0,0,1,3.43-13.8c5.11-10.9-11-18.13-15.48-27.2-3.47-7-3.64-22.94-9.11-34.47l-6.53-8.81s-15.07-11.65-29.82-8.36S238.69-5.59,268.56.47Z"/><path class="cls-2" d="M297.76,111.2c-.15,9.18,4.05,16.7,9.39,16.79s9.79-7.28,9.94-16.46-4-16.7-9.39-16.8S297.91,102,297.76,111.2Z"/><path class="cls-6" d="M218.92,449.49l-1,5.6a5.29,5.29,0,0,1-6.12,4.32L95.7,439.29a5.29,5.29,0,0,1-4.32-6.12l1-5.6a5.31,5.31,0,0,1,6.13-4.32L214.6,443.36A5.3,5.3,0,0,1,218.92,449.49Z"/><path class="cls-2" d="M383.53,240.71c-13.62-.4-25.67,89.47-17,98.33s10.28,119.55,10.28,119.55L248.25,455.4v0c-2.51-1.68-29.43-19.77-33.28-23.72-4-4.14-23.67-2.07-28.86,3.63s11.54,1,16.16,4.15-3.46,10.88-3.46,10.88-32.58,4.73-38.92-2S136.57,430.23,134.26,437c-1.19,3.48,7.55,14,12.48,18.44-6.15-4.61-13.51-9.5-16-8.65-4.61,1.56-2.69,7.43-.19,9.16s28.36,21.47,32.4,22.85,64.09,2.84,74.48,5.14c0,0,169.49,38.59,179.12,36.18,8.45-2.11,16.91-56.36,16.91-97.91S426.11,241.94,383.53,240.71Z"/><path class="cls-4" d="M365.86,220.2s23.71,5.46,48.2,33c22.28,25,36.31,165.18,36.31,165.18l-76.91,12.44L367.32,363l-20.55-31Z"/></g></g></svg>