<svg xmlns="http://www.w3.org/2000/svg" viewBox="0 0 357.12 452.07"><defs><style>.cls-1{fill:#063567;}.cls-2{fill:#0c4a8a;}.cls-3{fill:#fff;}.cls-4{fill:#f18b7f;}.cls-5{fill:#f4a392;}.cls-6{fill:#231f20;}.cls-7{fill:#f7a491;}.cls-8{fill:#ee745a;}.cls-9{fill:#13375b;}</style></defs><g id="Ebene_2" data-name="Ebene 2"><g id="Ebene_1-2" data-name="Ebene 1"><ellipse class="cls-1" cx="160.36" cy="445.28" rx="160.08" ry="6.79"/><path id="Rechteck_122" data-name="Rechteck 122" class="cls-2" d="M30,0,327.39.77c16.45,0,29.76,10.25,29.73,22.81l-.18,68.19c0,12.55-13.39,22.69-29.85,22.65l-297.35-.77C13.28,113.61,0,103.4,0,90.85l.18-68.2C.21,10.1,13.57,0,30,0Z"/><path id="Polygon_4" data-name="Polygon 4" class="cls-2" d="M84.67,146.43l-31.26-34.7L72,101.47Z"/><path class="cls-3" d="M30.31,27.88l0-8.39-4.1,7.09h-.35l-4.1-7.06v8.36H21v-9.8h.6L26,25.65l4.38-7.57H31l0,9.8Z"/><path class="cls-3" d="M34.14,18.63a.56.56,0,0,1,0-.8.53.53,0,0,1,.41-.17.54.54,0,0,1,.4.16.56.56,0,0,1,0,.8.51.51,0,0,1-.4.17A.56.56,0,0,1,34.14,18.63Zm.06,1.94h.7v7.31h-.7Z"/><path class="cls-3" d="M41.48,27.42a1.89,1.89,0,0,1-.67.38,2.53,2.53,0,0,1-.83.13,2,2,0,0,1-1.47-.52A2,2,0,0,1,38,26V21.17H36.65v-.6H38V19h.7v1.6H41v.6H38.69v4.71A1.59,1.59,0,0,0,39,27a1.32,1.32,0,0,0,1,.37,1.61,1.61,0,0,0,1.13-.4Z"/><path class="cls-3" d="M56.28,22.11a3,3,0,0,1,1.22,1.07,2.88,2.88,0,0,1,.45,1.6,3,3,0,0,1-.49,1.73,3.25,3.25,0,0,1-1.34,1.14,4.43,4.43,0,0,1-1.88.4A4.16,4.16,0,0,1,51,26.79a5.1,5.1,0,0,1-1.16-3.6,6.07,6.07,0,0,1,.63-2.86,4.28,4.28,0,0,1,1.75-1.8,5.42,5.42,0,0,1,2.62-.62,6.16,6.16,0,0,1,1.5.18,4.05,4.05,0,0,1,1.23.49l-.84,1.67a3.21,3.21,0,0,0-1.84-.49,2.63,2.63,0,0,0-2,.73,3,3,0,0,0-.79,2.11,3.28,3.28,0,0,1,2.43-.87A3.82,3.82,0,0,1,56.28,22.11ZM55.3,26a1.49,1.49,0,0,0,0-2.13,2,2,0,0,0-2.43,0,1.33,1.33,0,0,0-.48,1.06A1.36,1.36,0,0,0,52.85,26a1.85,1.85,0,0,0,1.26.4A1.78,1.78,0,0,0,55.3,26Z"/><path class="cls-3" d="M66.1,26v1.85H58.69V26.41l3.78-3.57a3.9,3.9,0,0,0,.81-1,1.78,1.78,0,0,0,.21-.82,1.07,1.07,0,0,0-.4-.9,1.82,1.82,0,0,0-1.16-.32,2.79,2.79,0,0,0-1.17.25,2.23,2.23,0,0,0-.86.73l-1.66-1.06a4,4,0,0,1,1.59-1.34,5.3,5.3,0,0,1,2.31-.48,4.75,4.75,0,0,1,1.91.36,2.92,2.92,0,0,1,1.27,1,2.61,2.61,0,0,1,.45,1.53,3.5,3.5,0,0,1-.33,1.5,5.88,5.88,0,0,1-1.3,1.59L61.88,26Z"/><path class="cls-3" d="M75.67,22.64a2.78,2.78,0,0,1-.68-2,2.76,2.76,0,0,1,.68-2,2.46,2.46,0,0,1,3.5,0,2.8,2.8,0,0,1,.67,2,2.82,2.82,0,0,1-.67,2,2.46,2.46,0,0,1-3.5,0Zm2.5-.81a2,2,0,0,0,.27-1.16,2,2,0,0,0-.27-1.16.89.89,0,0,0-1.49,0,2,2,0,0,0-.28,1.16,2,2,0,0,0,.28,1.15.9.9,0,0,0,1.49,0Zm5.09-3.75h1.67l-6.7,9.8H76.57Zm-.44,9.58a2.18,2.18,0,0,1-.86-.94,3.45,3.45,0,0,1,0-2.86,2.18,2.18,0,0,1,.86-.94,2.41,2.41,0,0,1,1.25-.33,2.28,2.28,0,0,1,1.76.73,2.81,2.81,0,0,1,.68,2,2.82,2.82,0,0,1-.68,2,2.28,2.28,0,0,1-1.76.73A2.41,2.41,0,0,1,82.82,27.66Zm2-1.22a2,2,0,0,0,.27-1.15,2.07,2.07,0,0,0-.27-1.16.87.87,0,0,0-.75-.4.86.86,0,0,0-.74.4,2,2,0,0,0-.28,1.16,2,2,0,0,0,.28,1.16.87.87,0,0,0,.74.39A.85.85,0,0,0,84.82,26.44Z"/><path class="cls-3" d="M95.91,27.67A3.58,3.58,0,0,1,94.66,27l.33-.56a3.67,3.67,0,0,0,1.15.63,4.6,4.6,0,0,0,1.48.25A2.83,2.83,0,0,0,99.25,27a1.14,1.14,0,0,0,.52-1,1,1,0,0,0-.28-.73,1.69,1.69,0,0,0-.71-.39,9.78,9.78,0,0,0-1.16-.27,8.2,8.2,0,0,1-1.4-.34,2.13,2.13,0,0,1-.91-.58,1.6,1.6,0,0,1-.38-1.12,1.76,1.76,0,0,1,.72-1.44,3.25,3.25,0,0,1,2-.57,5.08,5.08,0,0,1,1.39.2,3.33,3.33,0,0,1,1.12.52l-.32.56a3.17,3.17,0,0,0-1-.49,4.19,4.19,0,0,0-1.17-.17,2.61,2.61,0,0,0-1.54.38,1.16,1.16,0,0,0-.52,1,1,1,0,0,0,.29.76,1.8,1.8,0,0,0,.73.41,11,11,0,0,0,1.19.29,9.4,9.4,0,0,1,1.38.33,2,2,0,0,1,.89.56,1.55,1.55,0,0,1,.36,1.08,1.72,1.72,0,0,1-.75,1.46,3.63,3.63,0,0,1-2.13.54A5.18,5.18,0,0,1,95.91,27.67Z"/><path class="cls-3" d="M102.38,18.63a.56.56,0,0,1,0-.8.52.52,0,0,1,.4-.17.56.56,0,0,1,.41.16.56.56,0,0,1,0,.8.53.53,0,0,1-.41.17A.55.55,0,0,1,102.38,18.63Zm.05,1.94h.7v7.31h-.7Z"/><path class="cls-3" d="M111.83,21.31a3.12,3.12,0,0,1,.8,2.3v4.27h-.7V23.66a2.56,2.56,0,0,0-.63-1.87,2.29,2.29,0,0,0-1.74-.65,2.69,2.69,0,0,0-2,.77,2.91,2.91,0,0,0-.74,2.08v3.89h-.7V20.57h.67v1.58a2.78,2.78,0,0,1,1.13-1.2,3.47,3.47,0,0,1,1.77-.44A3,3,0,0,1,111.83,21.31Z"/><path class="cls-3" d="M122,17.49V27.88h-.69V26.16a3.13,3.13,0,0,1-1.21,1.31,3.45,3.45,0,0,1-1.78.46,3.61,3.61,0,0,1-1.85-.47,3.51,3.51,0,0,1-1.3-1.32,4.24,4.24,0,0,1,0-3.84,3.44,3.44,0,0,1,1.3-1.32,3.71,3.71,0,0,1,1.85-.47,3.38,3.38,0,0,1,1.76.47,3.27,3.27,0,0,1,1.22,1.28V17.49Zm-2.13,9.42a2.82,2.82,0,0,0,1-1.09,3.54,3.54,0,0,0,0-3.19,2.82,2.82,0,0,0-1-1.09,3.05,3.05,0,0,0-3,0,2.82,2.82,0,0,0-1.05,1.09,3.54,3.54,0,0,0,0,3.19,2.82,2.82,0,0,0,1.05,1.09,3.12,3.12,0,0,0,3,0Z"/><path class="cls-3" d="M134,27.39a4.8,4.8,0,0,1-1.91-1.8,5.28,5.28,0,0,1,0-5.22A4.9,4.9,0,0,1,134,18.56a6.06,6.06,0,0,1,5-.2,4.63,4.63,0,0,1,1.73,1.29L139.3,21a3.11,3.11,0,0,0-2.46-1.15,3.19,3.19,0,0,0-1.62.4,2.91,2.91,0,0,0-1.12,1.11,3.36,3.36,0,0,0-.4,1.63,3.3,3.3,0,0,0,.4,1.62,2.87,2.87,0,0,0,1.12,1.12,3.29,3.29,0,0,0,1.62.39A3.09,3.09,0,0,0,139.3,25l1.46,1.35A4.58,4.58,0,0,1,139,27.6a5.73,5.73,0,0,1-2.31.45A5.54,5.54,0,0,1,134,27.39Z"/><path class="cls-3" d="M142.29,18.08h4.45a6.22,6.22,0,0,1,2.82.61,4.51,4.51,0,0,1,1.9,1.71,4.78,4.78,0,0,1,.68,2.58,4.72,4.72,0,0,1-.68,2.57,4.53,4.53,0,0,1-1.9,1.72,6.22,6.22,0,0,1-2.82.61h-4.45ZM146.63,26A3.3,3.3,0,0,0,149,25.2a2.92,2.92,0,0,0,.88-2.22,2.91,2.91,0,0,0-.88-2.22,3.26,3.26,0,0,0-2.34-.82h-2.08V26Z"/><path class="cls-3" d="M154.4,27.76a5,5,0,0,1-1.43-.58l.73-1.57a4.5,4.5,0,0,0,1.21.53,5.38,5.38,0,0,0,1.4.2c.93,0,1.39-.23,1.39-.69a.49.49,0,0,0-.38-.46,6.14,6.14,0,0,0-1.16-.24,10.85,10.85,0,0,1-1.53-.32,2.4,2.4,0,0,1-1-.64,1.86,1.86,0,0,1-.44-1.32,2.1,2.1,0,0,1,.41-1.27,2.71,2.71,0,0,1,1.21-.86,5.23,5.23,0,0,1,1.87-.31,7.18,7.18,0,0,1,1.59.18,4.66,4.66,0,0,1,1.3.48l-.72,1.56a4.31,4.31,0,0,0-2.17-.56,2.21,2.21,0,0,0-1,.19.57.57,0,0,0-.35.51.5.5,0,0,0,.37.49,7,7,0,0,0,1.21.26,11.86,11.86,0,0,1,1.51.33,2.3,2.3,0,0,1,1,.64,1.82,1.82,0,0,1,.44,1.29,2,2,0,0,1-.42,1.24,2.64,2.64,0,0,1-1.23.85,5.47,5.47,0,0,1-1.91.3A7.4,7.4,0,0,1,154.4,27.76Z"/><path class="cls-3" d="M162.94,25.64a1.33,1.33,0,0,1,.37,1,2.2,2.2,0,0,1-.07.56,7,7,0,0,1-.3.84l-.8,2h-1.39l.62-2.22a1.15,1.15,0,0,1-.56-.46,1.35,1.35,0,0,1-.2-.73,1.3,1.3,0,0,1,.39-1,1.36,1.36,0,0,1,1-.37A1.38,1.38,0,0,1,162.94,25.64Z"/><path class="cls-3" d="M173.07,18.08h4.45a6.16,6.16,0,0,1,2.82.61,4.54,4.54,0,0,1,1.91,1.71,4.87,4.87,0,0,1,.68,2.58,4.81,4.81,0,0,1-.68,2.57,4.56,4.56,0,0,1-1.91,1.72,6.16,6.16,0,0,1-2.82.61h-4.45ZM177.41,26a3.34,3.34,0,0,0,2.35-.82,2.91,2.91,0,0,0,.87-2.22,2.9,2.9,0,0,0-.87-2.22,3.3,3.3,0,0,0-2.35-.82h-2.07V26Z"/><path class="cls-3" d="M193.73,18.08l-4.24,9.8h-2.24L183,18.08h2.46l3,7,3-7Z"/><path class="cls-3" d="M194.55,18.08H199a6.22,6.22,0,0,1,2.82.61,4.51,4.51,0,0,1,1.9,1.71A4.78,4.78,0,0,1,204.4,23a4.72,4.72,0,0,1-.68,2.57,4.53,4.53,0,0,1-1.9,1.72,6.22,6.22,0,0,1-2.82.61h-4.45ZM198.89,26a3.3,3.3,0,0,0,2.34-.82,2.92,2.92,0,0,0,.88-2.22,2.91,2.91,0,0,0-.88-2.22,3.26,3.26,0,0,0-2.34-.82h-2.08V26Z"/><path class="cls-3" d="M206.66,27.76a5,5,0,0,1-1.43-.58l.73-1.57a4.44,4.44,0,0,0,1.22.53,5.25,5.25,0,0,0,1.39.2c.93,0,1.39-.23,1.39-.69a.48.48,0,0,0-.38-.46,6.14,6.14,0,0,0-1.16-.24,11,11,0,0,1-1.52-.32,2.43,2.43,0,0,1-1.05-.64,1.86,1.86,0,0,1-.44-1.32,2.1,2.1,0,0,1,.41-1.27,2.71,2.71,0,0,1,1.21-.86,5.27,5.27,0,0,1,1.87-.31,7.18,7.18,0,0,1,1.59.18,4.86,4.86,0,0,1,1.31.48l-.73,1.56a4.31,4.31,0,0,0-2.17-.56,2.21,2.21,0,0,0-1.05.19.57.57,0,0,0-.35.51.5.5,0,0,0,.37.49,7,7,0,0,0,1.21.26,11.86,11.86,0,0,1,1.51.33,2.3,2.3,0,0,1,1,.64,1.82,1.82,0,0,1,.44,1.29,2,2,0,0,1-.42,1.24,2.64,2.64,0,0,1-1.23.85,5.47,5.47,0,0,1-1.91.3A7.46,7.46,0,0,1,206.66,27.76Z"/><path class="cls-3" d="M229.1,20.35v7.53H227V27a2.86,2.86,0,0,1-1,.75,3.32,3.32,0,0,1-1.3.26,3.18,3.18,0,0,1-2.35-.85,3.42,3.42,0,0,1-.87-2.54V20.35h2.18v3.93c0,1.21.51,1.82,1.53,1.82a1.65,1.65,0,0,0,1.26-.51,2.15,2.15,0,0,0,.47-1.52V20.35Z"/><path class="cls-3" d="M238,21.07a3.37,3.37,0,0,1,.86,2.5v4.31h-2.19v-4a2,2,0,0,0-.39-1.34,1.45,1.45,0,0,0-1.13-.44,1.73,1.73,0,0,0-1.32.52,2.12,2.12,0,0,0-.49,1.51v3.73h-2.18V20.35h2.08v.88a3,3,0,0,1,1.08-.74,3.82,3.82,0,0,1,1.42-.26A3.11,3.11,0,0,1,238,21.07Z"/><path class="cls-3" d="M248.56,17.49V27.88h-2.09V27a2.88,2.88,0,0,1-2.35,1,3.92,3.92,0,0,1-1.93-.48,3.44,3.44,0,0,1-1.35-1.35,4.51,4.51,0,0,1,0-4.09,3.46,3.46,0,0,1,1.35-1.36,3.92,3.92,0,0,1,1.93-.48,2.88,2.88,0,0,1,2.25.91V17.49Zm-2.69,8.14a2.38,2.38,0,0,0,0-3A1.84,1.84,0,0,0,244.5,22a1.88,1.88,0,0,0-1.39.56,2.41,2.41,0,0,0,0,3,1.85,1.85,0,0,0,1.39.57A1.81,1.81,0,0,0,245.87,25.63Z"/><path class="cls-3" d="M267.36,23.67a2.44,2.44,0,0,1,.47,1.53,2.25,2.25,0,0,1-1,2,5,5,0,0,1-2.92.7h-5.06v-9.8h4.79a4.75,4.75,0,0,1,2.75.68,2.2,2.2,0,0,1,1,1.87A2.38,2.38,0,0,1,267,21.9a2.4,2.4,0,0,1-1,.88A2.66,2.66,0,0,1,267.36,23.67Zm-6.26-3.88V22.1h2.26a2.25,2.25,0,0,0,1.27-.3,1.09,1.09,0,0,0,0-1.73,2.35,2.35,0,0,0-1.27-.28Zm4,6.09a1,1,0,0,0,.45-.91c0-.82-.6-1.22-1.8-1.22H261.1v2.42h2.65A2.6,2.6,0,0,0,265.1,25.88Z"/><path class="cls-3" d="M277,20.35v7.53h-2.07V27a2.86,2.86,0,0,1-1,.75,3.28,3.28,0,0,1-1.3.26,3.2,3.2,0,0,1-2.35-.85,3.42,3.42,0,0,1-.87-2.54V20.35h2.18v3.93c0,1.21.51,1.82,1.53,1.82a1.65,1.65,0,0,0,1.26-.51,2.15,2.15,0,0,0,.48-1.52V20.35ZM271.06,19a1,1,0,0,1-.29-.7.91.91,0,0,1,.29-.69,1,1,0,0,1,1.39,0,.93.93,0,0,1,.27.69,1,1,0,0,1-.27.7,1,1,0,0,1-1.39,0Zm2.83,0a1,1,0,0,1-.27-.7.92.92,0,0,1,1-1,1,1,0,0,1,.7.27.9.9,0,0,1,.28.69.94.94,0,0,1-.28.7,1,1,0,0,1-.7.27A.93.93,0,0,1,273.89,19Z"/><path class="cls-3" d="M280.5,27.49a3.7,3.7,0,0,1-2-3.38,3.77,3.77,0,0,1,.54-2,3.71,3.71,0,0,1,1.5-1.38,4.65,4.65,0,0,1,2.16-.5,4.21,4.21,0,0,1,2.08.5A3,3,0,0,1,286,22.15l-1.69.91a1.85,1.85,0,0,0-1.69-1,1.91,1.91,0,0,0-1.42.56,2.06,2.06,0,0,0-.56,1.52,2.09,2.09,0,0,0,.56,1.53,2,2,0,0,0,1.42.56,1.84,1.84,0,0,0,1.69-1l1.69.93a3.06,3.06,0,0,1-1.29,1.4,4.21,4.21,0,0,1-2.08.5A4.65,4.65,0,0,1,280.5,27.49Z"/><path class="cls-3" d="M294.08,21.07a3.37,3.37,0,0,1,.86,2.5v4.31h-2.19v-4a2,2,0,0,0-.39-1.34,1.45,1.45,0,0,0-1.13-.44,1.73,1.73,0,0,0-1.32.52,2.12,2.12,0,0,0-.49,1.51v3.73h-2.18V17.49h2.18v3.64a2.84,2.84,0,0,1,1.05-.66,3.68,3.68,0,0,1,1.35-.24A3.11,3.11,0,0,1,294.08,21.07Z"/><path class="cls-3" d="M304.33,24.73h-5.7a1.82,1.82,0,0,0,.73,1.1,2.44,2.44,0,0,0,1.43.41,2.8,2.8,0,0,0,1-.18,2.39,2.39,0,0,0,.85-.55l1.16,1.26A3.91,3.91,0,0,1,300.73,28a4.94,4.94,0,0,1-2.25-.5A3.61,3.61,0,0,1,297,26.11a3.72,3.72,0,0,1-.53-2,3.84,3.84,0,0,1,.52-2,3.63,3.63,0,0,1,1.44-1.39,4.29,4.29,0,0,1,2.05-.5,4.2,4.2,0,0,1,2,.48,3.48,3.48,0,0,1,1.4,1.37,4.06,4.06,0,0,1,.51,2.06S304.36,24.36,304.33,24.73Zm-5.11-2.42a1.78,1.78,0,0,0-.61,1.14h3.71a1.84,1.84,0,0,0-.62-1.14,2,2,0,0,0-2.48,0Z"/><path class="cls-3" d="M309,20.51a4.11,4.11,0,0,1,1.54-.28v2l-.49,0a2,2,0,0,0-1.47.53,2.09,2.09,0,0,0-.54,1.57v3.56h-2.18V20.35h2.09v1A2.48,2.48,0,0,1,309,20.51Z"/><path class="cls-3" d="M327,17.49V27.88h-.69V26.16a3.16,3.16,0,0,1-1.22,1.31,3.4,3.4,0,0,1-1.78.46,3.58,3.58,0,0,1-1.84-.47,3.37,3.37,0,0,1-1.3-1.32,4.16,4.16,0,0,1,0-3.84,3.3,3.3,0,0,1,1.3-1.32,3.68,3.68,0,0,1,1.84-.47A3.36,3.36,0,0,1,325,21a3.23,3.23,0,0,1,1.23,1.28V17.49Zm-2.14,9.42a2.82,2.82,0,0,0,1.05-1.09,3.46,3.46,0,0,0,0-3.19,2.92,2.92,0,0,0-5.11,0,3.54,3.54,0,0,0,0,3.19,2.82,2.82,0,0,0,1.05,1.09,3.1,3.1,0,0,0,3,0Z"/><path class="cls-3" d="M329.85,18.63a.58.58,0,0,1,0-.8.54.54,0,0,1,.41-.17.57.57,0,0,1,.41.16.58.58,0,0,1,0,.8.54.54,0,0,1-.41.17A.57.57,0,0,1,329.85,18.63Zm.06,1.94h.7v7.31h-.7Z"/><path class="cls-3" d="M339.74,24.39h-6.29a3,3,0,0,0,.44,1.52,2.77,2.77,0,0,0,1.09,1,3.61,3.61,0,0,0,2.89.11,2.65,2.65,0,0,0,1-.77l.41.46a3.15,3.15,0,0,1-1.2.89,4,4,0,0,1-1.56.3,3.85,3.85,0,0,1-1.94-.47,3.47,3.47,0,0,1-1.34-1.32,3.8,3.8,0,0,1-.48-1.92,4,4,0,0,1,.45-1.91A3.38,3.38,0,0,1,334.47,21a3.45,3.45,0,0,1,4.83,1.3,4,4,0,0,1,.45,1.91Zm-4.86-2.92a2.63,2.63,0,0,0-1,1,3.11,3.11,0,0,0-.42,1.41h5.6a3,3,0,0,0-.42-1.4,2.81,2.81,0,0,0-1-1,3,3,0,0,0-2.77,0Z"/><path class="cls-3" d="M26.55,38.11a3.08,3.08,0,0,1,.8,2.3v4.27h-.7V40.46A2.6,2.6,0,0,0,26,38.59a2.32,2.32,0,0,0-1.74-.65,2.69,2.69,0,0,0-2,.77,2.87,2.87,0,0,0-.75,2.08v3.89h-.7V34.29h.7V38.9a2.7,2.7,0,0,1,1.12-1.17,3.51,3.51,0,0,1,1.75-.42A2.93,2.93,0,0,1,26.55,38.11Z"/><path class="cls-3" d="M34.79,38a2.69,2.69,0,0,1,.72,2v4.64h-.67v-1.3a2.46,2.46,0,0,1-1,1,3.51,3.51,0,0,1-1.61.35,3,3,0,0,1-1.93-.57,2,2,0,0,1-.05-3,3.12,3.12,0,0,1,2.08-.57h2.5V40a2.08,2.08,0,0,0-.55-1.56,2.27,2.27,0,0,0-1.62-.53,3.85,3.85,0,0,0-1.39.25,3.6,3.6,0,0,0-1.13.67l-.35-.5a3.91,3.91,0,0,1,1.32-.76,4.58,4.58,0,0,1,1.61-.28A3,3,0,0,1,34.79,38Zm-.94,5.73a2.51,2.51,0,0,0,1-1.22V41.15H32.32a2.48,2.48,0,0,0-1.56.39,1.31,1.31,0,0,0-.48,1.08,1.34,1.34,0,0,0,.53,1.13,2.41,2.41,0,0,0,1.5.41A2.73,2.73,0,0,0,33.85,43.74Zm-2.74-8.09A.45.45,0,0,1,31,35.3a.5.5,0,0,1,.15-.37.52.52,0,0,1,.36-.14.45.45,0,0,1,.35.15.49.49,0,0,1,.15.36.45.45,0,0,1-.15.35.5.5,0,0,1-.35.15A.49.49,0,0,1,31.11,35.65Zm2.41,0a.45.45,0,0,1-.15-.35.49.49,0,0,1,.15-.36.48.48,0,0,1,.36-.15.5.5,0,0,1,.5.51.45.45,0,0,1-.15.35.47.47,0,0,1-.35.15A.51.51,0,0,1,33.52,35.65Z"/><path class="cls-3" d="M44.8,37.37v7.31h-.68V43.11a2.77,2.77,0,0,1-1.07,1.2,3.27,3.27,0,0,1-1.68.42,2.8,2.8,0,0,1-3.06-3.09V37.37H39v4.21a2.57,2.57,0,0,0,.63,1.88,2.38,2.38,0,0,0,1.78.64,2.52,2.52,0,0,0,1.95-.77,2.86,2.86,0,0,0,.73-2.07V37.37Z"/><path class="cls-3" d="M48.59,36.31v1.06h2.34V38H48.6v6.71h-.7V38H46.56v-.6H47.9V36.25a1.88,1.88,0,0,1,2-2,2.74,2.74,0,0,1,.81.12,1.67,1.67,0,0,1,.64.36l-.28.53a1.64,1.64,0,0,0-1.14-.4C49.05,34.84,48.59,35.33,48.59,36.31Zm4.83-.88a.56.56,0,0,1,0-.8.52.52,0,0,1,.4-.17.56.56,0,0,1,.41.16.56.56,0,0,1,0,.8.53.53,0,0,1-.41.17A.55.55,0,0,1,53.42,35.43Zm.06,1.94h.7v7.31h-.7Z"/><path class="cls-3" d="M63.71,37.37v6.52a3.11,3.11,0,0,1-3.54,3.56,5.71,5.71,0,0,1-1.91-.31,3.77,3.77,0,0,1-1.44-.85l.38-.53a3.91,3.91,0,0,0,1.32.78,4.62,4.62,0,0,0,1.63.28,3,3,0,0,0,2.16-.69A2.94,2.94,0,0,0,63,44V42.75A3.15,3.15,0,0,1,61.76,44a3.67,3.67,0,0,1-1.79.43A3.81,3.81,0,0,1,58.12,44a3.34,3.34,0,0,1-1.31-1.27,3.52,3.52,0,0,1-.48-1.83A3.56,3.56,0,0,1,56.81,39a3.25,3.25,0,0,1,1.31-1.26A3.81,3.81,0,0,1,60,37.31a3.69,3.69,0,0,1,1.82.45A3.1,3.1,0,0,1,63,39V37.37Zm-2.14,6a2.79,2.79,0,0,0,1.07-1,3.23,3.23,0,0,0,0-3,2.86,2.86,0,0,0-1.07-1,3.39,3.39,0,0,0-3.08,0,2.83,2.83,0,0,0-1.06,1,3.16,3.16,0,0,0,0,3,2.76,2.76,0,0,0,1.06,1,3.39,3.39,0,0,0,3.08,0Z"/><path class="cls-3" d="M66.84,44.47a3.52,3.52,0,0,1-1.24-.67l.32-.56a3.73,3.73,0,0,0,1.16.63,4.54,4.54,0,0,0,1.47.25,2.83,2.83,0,0,0,1.63-.37,1.15,1.15,0,0,0,.53-1,1,1,0,0,0-.29-.73,1.69,1.69,0,0,0-.71-.39,8.9,8.9,0,0,0-1.16-.27,8.45,8.45,0,0,1-1.4-.34,2.19,2.19,0,0,1-.91-.58,1.6,1.6,0,0,1-.38-1.12,1.77,1.77,0,0,1,.73-1.44,3.23,3.23,0,0,1,2-.57,5.06,5.06,0,0,1,1.38.2,3.33,3.33,0,0,1,1.12.52l-.32.56a3.21,3.21,0,0,0-1-.49,4.26,4.26,0,0,0-1.18-.17,2.63,2.63,0,0,0-1.54.38,1.18,1.18,0,0,0-.52,1,1,1,0,0,0,.3.76,1.7,1.7,0,0,0,.72.41,10.67,10.67,0,0,0,1.2.29,9.4,9.4,0,0,1,1.38.33,2,2,0,0,1,.88.56,1.51,1.51,0,0,1,.37,1.08,1.71,1.71,0,0,1-.76,1.46,3.6,3.6,0,0,1-2.13.54A5.27,5.27,0,0,1,66.84,44.47Z"/><path class="cls-3" d="M77,44.22a1.76,1.76,0,0,1-.66.38,2.57,2.57,0,0,1-.83.13A2,2,0,0,1,74,44.21a2,2,0,0,1-.52-1.46V38H72.16v-.6h1.35v-1.6h.7v1.6h2.32V38H74.21v4.71a1.54,1.54,0,0,0,.34,1.08,1.32,1.32,0,0,0,1,.37,1.63,1.63,0,0,0,1.13-.4Z"/><path class="cls-3" d="M84.85,41.19H78.56A3.07,3.07,0,0,0,79,42.71a2.73,2.73,0,0,0,1.1,1,3.32,3.32,0,0,0,1.56.36A3.41,3.41,0,0,0,83,43.85a2.57,2.57,0,0,0,1-.77l.41.46a3.15,3.15,0,0,1-1.2.89,4,4,0,0,1-1.56.3,3.87,3.87,0,0,1-1.94-.47,3.47,3.47,0,0,1-1.34-1.32A3.8,3.8,0,0,1,77.88,41a4,4,0,0,1,.45-1.91,3.38,3.38,0,0,1,1.25-1.32,3.45,3.45,0,0,1,4.83,1.3A4,4,0,0,1,84.86,41ZM80,38.27a2.63,2.63,0,0,0-1,1,3.11,3.11,0,0,0-.42,1.41h5.6a3,3,0,0,0-.42-1.4,2.81,2.81,0,0,0-1-1,3,3,0,0,0-2.77,0Z"/><path class="cls-3" d="M92.77,38.11a3.12,3.12,0,0,1,.8,2.3v4.27h-.7V40.46a2.6,2.6,0,0,0-.62-1.87,2.33,2.33,0,0,0-1.75-.65,2.72,2.72,0,0,0-2,.77,2.91,2.91,0,0,0-.74,2.08v3.89H87V37.37h.67V39a2.84,2.84,0,0,1,1.13-1.2,3.47,3.47,0,0,1,1.77-.44A2.93,2.93,0,0,1,92.77,38.11Z"/><path class="cls-3" d="M115.67,35.75a3.33,3.33,0,0,1,0,4.85,4.42,4.42,0,0,1-2.9.87H110v3.21h-.72v-9.8h3.52A4.42,4.42,0,0,1,115.67,35.75Zm-.51,4.39a2.73,2.73,0,0,0,0-3.92,3.59,3.59,0,0,0-2.39-.7H110v5.31h2.8A3.64,3.64,0,0,0,115.16,40.14Z"/><path class="cls-3" d="M120.4,37.74a3.34,3.34,0,0,1,1.73-.43V38H122a2.43,2.43,0,0,0-1.91.76,3.1,3.1,0,0,0-.68,2.12v3.81h-.7V37.37h.67V39A2.49,2.49,0,0,1,120.4,37.74Z"/><path class="cls-3" d="M125,44.26a3.39,3.39,0,0,1-1.3-1.33,4,4,0,0,1,0-3.82,3.43,3.43,0,0,1,1.3-1.32,3.88,3.88,0,0,1,3.74,0A3.46,3.46,0,0,1,130,39.11a4,4,0,0,1,0,3.82,3.42,3.42,0,0,1-1.31,1.33,4,4,0,0,1-3.74,0Zm3.38-.55a2.82,2.82,0,0,0,1-1.09,3.35,3.35,0,0,0,.38-1.6,3.31,3.31,0,0,0-.38-1.59,2.82,2.82,0,0,0-1-1.09,2.87,2.87,0,0,0-1.51-.4,2.81,2.81,0,0,0-1.5.4,2.69,2.69,0,0,0-1,1.09,3.2,3.2,0,0,0-.39,1.59,3.24,3.24,0,0,0,.39,1.6,2.69,2.69,0,0,0,1,1.09,2.89,2.89,0,0,0,1.5.39A3,3,0,0,0,128.36,43.71Z"/><path class="cls-3" d="M139.17,34.29V44.68h-.68V43a3.16,3.16,0,0,1-1.22,1.31,3.42,3.42,0,0,1-1.78.46,3.61,3.61,0,0,1-1.85-.47,3.41,3.41,0,0,1-1.29-1.32,4.16,4.16,0,0,1,0-3.84,3.34,3.34,0,0,1,1.29-1.32,3.71,3.71,0,0,1,1.85-.47,3.38,3.38,0,0,1,1.76.47,3.2,3.2,0,0,1,1.22,1.28V34.29ZM137,43.71a2.82,2.82,0,0,0,1.05-1.09,3.35,3.35,0,0,0,.38-1.6,3.31,3.31,0,0,0-.38-1.59A2.82,2.82,0,0,0,137,38.34a2.87,2.87,0,0,0-1.51-.4,2.81,2.81,0,0,0-1.5.4A2.69,2.69,0,0,0,133,39.43a3.2,3.2,0,0,0-.39,1.59,3.24,3.24,0,0,0,.39,1.6A2.69,2.69,0,0,0,134,43.71a2.89,2.89,0,0,0,1.5.39A3,3,0,0,0,137,43.71Z"/><path class="cls-3" d="M148.52,37.37v7.31h-.67V43.11a2.73,2.73,0,0,1-1.08,1.2,3.21,3.21,0,0,1-1.67.42A2.8,2.8,0,0,1,142,41.64V37.37h.7v4.21a2.57,2.57,0,0,0,.63,1.88,2.38,2.38,0,0,0,1.78.64,2.52,2.52,0,0,0,1.95-.77,2.9,2.9,0,0,0,.72-2.07V37.37Z"/><path class="cls-3" d="M154.1,40.77l-1.91,1.74v2.17h-.7V34.29h.7v7.35l4.68-4.27h.89l-3.15,3,3.46,4.36h-.87Z"/><path class="cls-3" d="M163.35,44.22a1.94,1.94,0,0,1-.66.38,2.63,2.63,0,0,1-.84.13,2,2,0,0,1-1.47-.52,2,2,0,0,1-.52-1.46V38h-1.34v-.6h1.34v-1.6h.7v1.6h2.33V38h-2.33v4.71a1.54,1.54,0,0,0,.35,1.08,1.29,1.29,0,0,0,1,.37,1.64,1.64,0,0,0,1.14-.4Z"/><path class="cls-3" d="M171.2,41.19h-6.28a3.06,3.06,0,0,0,.43,1.52,2.8,2.8,0,0,0,1.1,1,3.32,3.32,0,0,0,1.56.36,3.42,3.42,0,0,0,1.33-.25,2.65,2.65,0,0,0,1-.77l.41.46a3.15,3.15,0,0,1-1.2.89,4,4,0,0,1-1.56.3,3.91,3.91,0,0,1-1.95-.47,3.44,3.44,0,0,1-1.33-1.32,3.71,3.71,0,0,1-.49-1.92,3.91,3.91,0,0,1,.46-1.91,3.38,3.38,0,0,1,3-1.8,3.47,3.47,0,0,1,1.79.47,3.4,3.4,0,0,1,1.24,1.31,3.88,3.88,0,0,1,.46,1.91Zm-4.85-2.92a2.63,2.63,0,0,0-1,1,3.11,3.11,0,0,0-.43,1.41h5.6a3,3,0,0,0-.42-1.4,2.71,2.71,0,0,0-1-1,3,3,0,0,0-2.77,0Z"/><path class="cls-3" d="M173.72,43.72a.54.54,0,0,1,.17.41,1.6,1.6,0,0,1,0,.3c0,.1-.06.22-.09.35l-.55,1.9h-.5l.46-2a.7.7,0,0,1-.34-.21.63.63,0,0,1,0-.79.61.61,0,0,1,.42-.17A.54.54,0,0,1,173.72,43.72Z"/><path class="cls-3" d="M195.26,34.29V44.68h-.69V43a3.13,3.13,0,0,1-1.21,1.31,3.45,3.45,0,0,1-1.78.46,3.61,3.61,0,0,1-1.85-.47,3.41,3.41,0,0,1-1.29-1.32,4.16,4.16,0,0,1,0-3.84,3.34,3.34,0,0,1,1.29-1.32,3.71,3.71,0,0,1,1.85-.47,3.38,3.38,0,0,1,1.76.47,3.27,3.27,0,0,1,1.22,1.28V34.29Zm-2.13,9.42a2.82,2.82,0,0,0,1.05-1.09,3.35,3.35,0,0,0,.38-1.6,3.31,3.31,0,0,0-.38-1.59,2.82,2.82,0,0,0-1.05-1.09,2.87,2.87,0,0,0-1.51-.4,2.81,2.81,0,0,0-1.5.4,2.69,2.69,0,0,0-1.05,1.09,3.2,3.2,0,0,0-.39,1.59,3.24,3.24,0,0,0,.39,1.6,2.69,2.69,0,0,0,1.05,1.09,2.89,2.89,0,0,0,1.5.39A3,3,0,0,0,193.13,43.71Z"/><path class="cls-3" d="M198.16,35.43a.56.56,0,0,1,0-.8.52.52,0,0,1,.4-.17.56.56,0,0,1,.41.16.56.56,0,0,1,0,.8.53.53,0,0,1-.41.17A.55.55,0,0,1,198.16,35.43Zm.05,1.94h.7v7.31h-.7Z"/><path class="cls-3" d="M208,41.19h-6.28a3,3,0,0,0,.43,1.52,2.8,2.8,0,0,0,1.1,1,3.58,3.58,0,0,0,2.88.11,2.61,2.61,0,0,0,1-.77l.4.46a3,3,0,0,1-1.19.89,4,4,0,0,1-1.56.3,3.91,3.91,0,0,1-2-.47,3.54,3.54,0,0,1-1.34-1.32,3.8,3.8,0,0,1-.48-1.92,4,4,0,0,1,.45-1.91,3.48,3.48,0,0,1,1.26-1.32,3.4,3.4,0,0,1,1.79-.48,3.49,3.49,0,0,1,1.79.47,3.4,3.4,0,0,1,1.24,1.31,4,4,0,0,1,.46,1.91Zm-4.86-2.92a2.54,2.54,0,0,0-1,1,3.11,3.11,0,0,0-.43,1.41h5.6a3,3,0,0,0-.42-1.4,2.71,2.71,0,0,0-1-1,3,3,0,0,0-2.78,0Z"/><path class="cls-3" d="M223,44.47a3.58,3.58,0,0,1-1.25-.67l.33-.56a3.79,3.79,0,0,0,1.15.63,4.6,4.6,0,0,0,1.48.25,2.83,2.83,0,0,0,1.63-.37,1.14,1.14,0,0,0,.52-1,1,1,0,0,0-.28-.73,1.69,1.69,0,0,0-.71-.39,9.78,9.78,0,0,0-1.16-.27,8.2,8.2,0,0,1-1.4-.34,2.13,2.13,0,0,1-.91-.58,1.6,1.6,0,0,1-.38-1.12,1.76,1.76,0,0,1,.72-1.44,3.25,3.25,0,0,1,2-.57,5.08,5.08,0,0,1,1.39.2,3.33,3.33,0,0,1,1.12.52l-.32.56a3.17,3.17,0,0,0-1-.49,4.19,4.19,0,0,0-1.17-.17,2.61,2.61,0,0,0-1.54.38,1.16,1.16,0,0,0-.52,1,1,1,0,0,0,.29.76,1.8,1.8,0,0,0,.73.41,11,11,0,0,0,1.19.29,9.4,9.4,0,0,1,1.38.33,2,2,0,0,1,.89.56,1.55,1.55,0,0,1,.36,1.08,1.72,1.72,0,0,1-.75,1.46,3.65,3.65,0,0,1-2.13.54A5.18,5.18,0,0,1,223,44.47Z"/><path class="cls-3" d="M235.67,41.19h-6.29a3.07,3.07,0,0,0,.44,1.52,2.73,2.73,0,0,0,1.1,1,3.32,3.32,0,0,0,1.56.36,3.41,3.41,0,0,0,1.32-.25,2.57,2.57,0,0,0,1-.77l.41.46a3.15,3.15,0,0,1-1.2.89,4,4,0,0,1-1.56.3,3.87,3.87,0,0,1-1.94-.47,3.47,3.47,0,0,1-1.34-1.32A3.8,3.8,0,0,1,228.7,41a4,4,0,0,1,.45-1.91,3.38,3.38,0,0,1,1.25-1.32,3.45,3.45,0,0,1,4.83,1.3,4,4,0,0,1,.45,1.91Zm-4.86-2.92a2.63,2.63,0,0,0-1,1,3.11,3.11,0,0,0-.42,1.41H235a3,3,0,0,0-.42-1.4,2.81,2.81,0,0,0-1-1,3,3,0,0,0-2.77,0Z"/><path class="cls-3" d="M237.8,35.43a.57.57,0,0,1,.4-1,.56.56,0,0,1,.41.16.56.56,0,0,1,0,.8.53.53,0,0,1-.41.17A.54.54,0,0,1,237.8,35.43Zm0,1.94h.7v7.31h-.7Z"/><path class="cls-3" d="M245.13,44.22a1.94,1.94,0,0,1-.66.38,2.63,2.63,0,0,1-.84.13,2,2,0,0,1-1.47-.52,2,2,0,0,1-.51-1.46V38H240.3v-.6h1.35v-1.6h.7v1.6h2.32V38h-2.32v4.71a1.54,1.54,0,0,0,.34,1.08,1.31,1.31,0,0,0,1,.37,1.64,1.64,0,0,0,1.14-.4Z"/><path class="cls-3" d="M270.89,38.11a3.16,3.16,0,0,1,.78,2.3v4.27H271V40.46a2.6,2.6,0,0,0-.61-1.87,2.18,2.18,0,0,0-1.67-.65,2.56,2.56,0,0,0-2,.77,2.94,2.94,0,0,0-.72,2.08v3.89h-.7V40.46a2.64,2.64,0,0,0-.6-1.87,2.18,2.18,0,0,0-1.68-.65,2.55,2.55,0,0,0-1.95.77,2.94,2.94,0,0,0-.72,2.08v3.89h-.71V37.37h.68v1.57a2.73,2.73,0,0,1,1.08-1.2,3.35,3.35,0,0,1,1.72-.43,3,3,0,0,1,1.68.45,2.39,2.39,0,0,1,1,1.32,2.85,2.85,0,0,1,1.14-1.29,3.37,3.37,0,0,1,1.81-.48A2.86,2.86,0,0,1,270.89,38.11Z"/><path class="cls-3" d="M274.49,35.43a.58.58,0,0,1,0-.8.54.54,0,0,1,.41-.17.57.57,0,0,1,.41.16.57.57,0,0,1-.41,1A.57.57,0,0,1,274.49,35.43Zm.06,1.94h.7v7.31h-.7Z"/><path class="cls-3" d="M283.94,38.11a3.08,3.08,0,0,1,.8,2.3v4.27H284V40.46a2.6,2.6,0,0,0-.62-1.87,2.32,2.32,0,0,0-1.74-.65,2.69,2.69,0,0,0-2,.77,2.87,2.87,0,0,0-.75,2.08v3.89h-.7V37.37h.68V39a2.76,2.76,0,0,1,1.12-1.2,3.47,3.47,0,0,1,1.77-.44A2.93,2.93,0,0,1,283.94,38.11Z"/><path class="cls-3" d="M294.14,34.29V44.68h-.69V43a3.09,3.09,0,0,1-1.22,1.31,3.4,3.4,0,0,1-1.78.46,3.58,3.58,0,0,1-1.84-.47,3.43,3.43,0,0,1-1.3-1.32,4.16,4.16,0,0,1,0-3.84,3.37,3.37,0,0,1,1.3-1.32,3.68,3.68,0,0,1,1.84-.47,3.36,3.36,0,0,1,1.76.47,3.23,3.23,0,0,1,1.23,1.28V34.29ZM292,43.71a2.82,2.82,0,0,0,1.05-1.09,3.24,3.24,0,0,0,.39-1.6,3.2,3.2,0,0,0-.39-1.59,2.86,2.86,0,0,0-2.55-1.49,2.87,2.87,0,0,0-1.51.4,2.82,2.82,0,0,0-1.05,1.09,3.31,3.31,0,0,0-.38,1.59,3.35,3.35,0,0,0,.38,1.6A2.82,2.82,0,0,0,289,43.71a3,3,0,0,0,1.51.39A2.89,2.89,0,0,0,292,43.71Z"/><path class="cls-3" d="M303.26,41.19H297a3.06,3.06,0,0,0,.43,1.52,2.8,2.8,0,0,0,1.1,1,3.32,3.32,0,0,0,1.56.36,3.42,3.42,0,0,0,1.33-.25,2.65,2.65,0,0,0,1-.77l.41.46a3.15,3.15,0,0,1-1.2.89,4,4,0,0,1-1.56.3,3.91,3.91,0,0,1-1.95-.47,3.54,3.54,0,0,1-1.34-1.32,3.8,3.8,0,0,1-.48-1.92,3.91,3.91,0,0,1,.46-1.91,3.38,3.38,0,0,1,3-1.8,3.49,3.49,0,0,1,1.79.47,3.4,3.4,0,0,1,1.24,1.31,3.88,3.88,0,0,1,.46,1.91Zm-4.85-2.92a2.63,2.63,0,0,0-1,1,3.11,3.11,0,0,0-.43,1.41h5.6a3,3,0,0,0-.42-1.4,2.71,2.71,0,0,0-1-1,3,3,0,0,0-2.77,0Z"/><path class="cls-3" d="M305.62,44.47a3.49,3.49,0,0,1-1.25-.67l.32-.56a3.85,3.85,0,0,0,1.16.63,4.54,4.54,0,0,0,1.47.25,2.86,2.86,0,0,0,1.64-.37,1.14,1.14,0,0,0,.52-1,1,1,0,0,0-.29-.73,1.66,1.66,0,0,0-.7-.39,9.55,9.55,0,0,0-1.17-.27,8.71,8.71,0,0,1-1.4-.34,2.25,2.25,0,0,1-.91-.58,1.59,1.59,0,0,1-.37-1.12,1.76,1.76,0,0,1,.72-1.44,3.23,3.23,0,0,1,2.05-.57,5,5,0,0,1,1.38.2,3.33,3.33,0,0,1,1.12.52l-.32.56a3.21,3.21,0,0,0-1-.49,4.21,4.21,0,0,0-1.18-.17,2.63,2.63,0,0,0-1.54.38,1.17,1.17,0,0,0-.51,1,1,1,0,0,0,.29.76,1.83,1.83,0,0,0,.72.41,11.26,11.26,0,0,0,1.2.29,9.4,9.4,0,0,1,1.38.33,2.08,2.08,0,0,1,.89.56,1.55,1.55,0,0,1,.36,1.08,1.71,1.71,0,0,1-.76,1.46,3.59,3.59,0,0,1-2.12.54A5.18,5.18,0,0,1,305.62,44.47Z"/><path class="cls-3" d="M315.77,44.22a1.89,1.89,0,0,1-.67.38,2.57,2.57,0,0,1-.83.13,2,2,0,0,1-1.47-.52,2,2,0,0,1-.52-1.46V38h-1.34v-.6h1.34v-1.6h.7v1.6h2.32V38H313v4.71a1.54,1.54,0,0,0,.34,1.08,1.32,1.32,0,0,0,1,.37,1.61,1.61,0,0,0,1.13-.4Z"/><path class="cls-3" d="M323.62,41.19h-6.29a3.07,3.07,0,0,0,.44,1.52,2.73,2.73,0,0,0,1.1,1,3.32,3.32,0,0,0,1.56.36,3.41,3.41,0,0,0,1.32-.25,2.68,2.68,0,0,0,1-.77l.4.46a3.15,3.15,0,0,1-1.2.89,4,4,0,0,1-1.56.3,3.9,3.9,0,0,1-1.94-.47,3.47,3.47,0,0,1-1.34-1.32,3.8,3.8,0,0,1-.48-1.92,4,4,0,0,1,.45-1.91,3.41,3.41,0,0,1,3-1.8,3.45,3.45,0,0,1,1.78.47,3.35,3.35,0,0,1,1.25,1.31,4,4,0,0,1,.45,1.91Zm-4.86-2.92a2.63,2.63,0,0,0-1,1,3.11,3.11,0,0,0-.42,1.41H323a3,3,0,0,0-.42-1.4,2.73,2.73,0,0,0-1-1,3,3,0,0,0-2.77,0Z"/><path class="cls-3" d="M331.54,38.11a3.12,3.12,0,0,1,.8,2.3v4.27h-.7V40.46a2.6,2.6,0,0,0-.62-1.87,2.33,2.33,0,0,0-1.75-.65,2.72,2.72,0,0,0-2,.77,2.91,2.91,0,0,0-.74,2.08v3.89h-.7V37.37h.68V39a2.76,2.76,0,0,1,1.12-1.2,3.47,3.47,0,0,1,1.77-.44A2.93,2.93,0,0,1,331.54,38.11Z"/><path class="cls-3" d="M335.39,44.47a3.52,3.52,0,0,1-1.24-.67l.32-.56a3.79,3.79,0,0,0,1.15.63,4.64,4.64,0,0,0,1.48.25,2.83,2.83,0,0,0,1.63-.37,1.15,1.15,0,0,0,.53-1A1,1,0,0,0,339,42a1.69,1.69,0,0,0-.71-.39,9.32,9.32,0,0,0-1.16-.27,8.45,8.45,0,0,1-1.4-.34,2.19,2.19,0,0,1-.91-.58,1.6,1.6,0,0,1-.38-1.12,1.76,1.76,0,0,1,.72-1.44,3.26,3.26,0,0,1,2.06-.57,5.06,5.06,0,0,1,1.38.2,3.33,3.33,0,0,1,1.12.52l-.32.56a3.21,3.21,0,0,0-1-.49,4.32,4.32,0,0,0-1.18-.17,2.63,2.63,0,0,0-1.54.38,1.18,1.18,0,0,0-.52,1,1,1,0,0,0,.3.76,1.7,1.7,0,0,0,.72.41,11,11,0,0,0,1.19.29,9.4,9.4,0,0,1,1.38.33,2,2,0,0,1,.89.56,1.51,1.51,0,0,1,.37,1.08,1.73,1.73,0,0,1-.76,1.46,3.6,3.6,0,0,1-2.13.54A5.18,5.18,0,0,1,335.39,44.47Z"/><path class="cls-3" d="M22.56,51.68v9.8h-.71V52.32H19.46v-.64Z"/><path class="cls-3" d="M31.58,60.84v.64H24.85V61L29,56.86a5.89,5.89,0,0,0,1.1-1.39,2.72,2.72,0,0,0,.29-1.2,1.81,1.81,0,0,0-.64-1.47,2.78,2.78,0,0,0-1.84-.53,4.23,4.23,0,0,0-1.62.28,3.14,3.14,0,0,0-1.2.85l-.5-.45A3.64,3.64,0,0,1,26,52,5.21,5.21,0,0,1,28,51.61a3.51,3.51,0,0,1,2.3.7,2.32,2.32,0,0,1,.85,1.89,3.3,3.3,0,0,1-.33,1.44,6.65,6.65,0,0,1-1.26,1.6l-3.61,3.6Z"/><path class="cls-3" d="M50,61.48l0-8.39-4.1,7.09H45.5l-4.1-7.06v8.36h-.7v-9.8h.6l4.38,7.57,4.38-7.57h.59l0,9.8Z"/><path class="cls-3" d="M54.85,61.06a3.39,3.39,0,0,1-1.31-1.32,4.06,4.06,0,0,1,0-3.83,3.39,3.39,0,0,1,1.31-1.32,3.63,3.63,0,0,1,1.86-.48,3.67,3.67,0,0,1,1.87.48,3.46,3.46,0,0,1,1.31,1.32,4.06,4.06,0,0,1,0,3.83,3.46,3.46,0,0,1-1.31,1.32,3.66,3.66,0,0,1-1.87.47A3.62,3.62,0,0,1,54.85,61.06Zm3.37-.55a2.82,2.82,0,0,0,1.05-1.09,3.54,3.54,0,0,0,0-3.19,2.82,2.82,0,0,0-1.05-1.09,2.93,2.93,0,0,0-1.51-.4,2.9,2.9,0,0,0-1.5.4,2.82,2.82,0,0,0-1.05,1.09,3.46,3.46,0,0,0,0,3.19,2.82,2.82,0,0,0,1.05,1.09,2.89,2.89,0,0,0,1.5.39A2.93,2.93,0,0,0,58.22,60.51Z"/><path class="cls-3" d="M68.28,54.91a3.12,3.12,0,0,1,.8,2.3v4.27h-.7V57.26a2.56,2.56,0,0,0-.63-1.87A2.29,2.29,0,0,0,66,54.74a2.69,2.69,0,0,0-2,.77,2.86,2.86,0,0,0-.74,2.08v3.89h-.7V54.17h.67v1.58a2.78,2.78,0,0,1,1.13-1.2,3.47,3.47,0,0,1,1.77-.44A3,3,0,0,1,68.28,54.91Z"/><path class="cls-3" d="M76.51,54.81a2.7,2.7,0,0,1,.73,2v4.63h-.67v-1.3a2.48,2.48,0,0,1-1,1,3.33,3.33,0,0,1-1.61.35A3,3,0,0,1,72,61a1.86,1.86,0,0,1-.71-1.51A1.88,1.88,0,0,1,72,58,3.13,3.13,0,0,1,74,57.4h2.51v-.58A2.08,2.08,0,0,0,76,55.26a2.23,2.23,0,0,0-1.61-.53A3.81,3.81,0,0,0,73,55a3.68,3.68,0,0,0-1.13.67l-.35-.5a3.77,3.77,0,0,1,1.31-.76,4.87,4.87,0,0,1,1.61-.28A2.93,2.93,0,0,1,76.51,54.81Zm-.93,5.73a2.63,2.63,0,0,0,1-1.22V58H74.05a2.53,2.53,0,0,0-1.57.39A1.31,1.31,0,0,0,72,59.42a1.37,1.37,0,0,0,.53,1.13A2.45,2.45,0,0,0,74,61,2.76,2.76,0,0,0,75.58,60.54Z"/><path class="cls-3" d="M83.75,61a1.89,1.89,0,0,1-.67.38,2.53,2.53,0,0,1-.83.13,1.81,1.81,0,0,1-2-2V54.77H78.92v-.6h1.34v-1.6H81v1.6h2.33v.6H81v4.71a1.54,1.54,0,0,0,.35,1.08,1.28,1.28,0,0,0,1,.37,1.61,1.61,0,0,0,1.13-.4Z"/><path class="cls-3" d="M91.6,58H85.32a3,3,0,0,0,.43,1.52,2.73,2.73,0,0,0,1.1,1,3.58,3.58,0,0,0,2.88.11,2.61,2.61,0,0,0,1-.77l.4.47a3.11,3.11,0,0,1-1.19.88,4,4,0,0,1-1.56.3,3.91,3.91,0,0,1-2-.47,3.54,3.54,0,0,1-1.34-1.32,3.8,3.8,0,0,1-.48-1.92,4,4,0,0,1,.45-1.91,3.48,3.48,0,0,1,1.26-1.32,3.59,3.59,0,0,1,3.57,0,3.35,3.35,0,0,1,1.25,1.31,4,4,0,0,1,.46,1.91Zm-4.86-2.92a2.54,2.54,0,0,0-1,1,3.15,3.15,0,0,0-.43,1.41h5.6a3,3,0,0,0-.42-1.4,2.71,2.71,0,0,0-1-1,2.81,2.81,0,0,0-1.39-.35A2.92,2.92,0,0,0,86.74,55.07Z"/><path class="cls-3" d="M99.53,54.91a3.12,3.12,0,0,1,.79,2.3v4.27h-.7V57.26A2.56,2.56,0,0,0,99,55.39a2.31,2.31,0,0,0-1.74-.65,2.69,2.69,0,0,0-2,.77,2.86,2.86,0,0,0-.74,2.08v3.89h-.7V54.17h.67v1.58a2.82,2.82,0,0,1,1.12-1.2,3.48,3.48,0,0,1,1.78-.44A3,3,0,0,1,99.53,54.91Z"/><path class="cls-3" d="M115.78,54.91a3.08,3.08,0,0,1,.8,2.3v4.27h-.7V57.26a2.56,2.56,0,0,0-.62-1.87,2.32,2.32,0,0,0-1.74-.65,2.69,2.69,0,0,0-2,.77,2.87,2.87,0,0,0-.75,2.08v3.89H110V54.17h.68v1.58a2.76,2.76,0,0,1,1.12-1.2,3.47,3.47,0,0,1,1.77-.44A2.93,2.93,0,0,1,115.78,54.91Z"/><path class="cls-3" d="M119.41,52.23a.56.56,0,0,1,0-.8.53.53,0,0,1,.41-.17.54.54,0,0,1,.4.16.56.56,0,0,1,0,.8.51.51,0,0,1-.4.17A.56.56,0,0,1,119.41,52.23Zm.06,1.94h.7v7.31h-.7Z"/><path class="cls-3" d="M124.11,61.06a3.46,3.46,0,0,1-1.31-1.32,4.08,4.08,0,0,1,0-3.84,3.46,3.46,0,0,1,1.31-1.32,3.89,3.89,0,0,1,1.91-.47,3.65,3.65,0,0,1,1.6.35,2.91,2.91,0,0,1,1.17,1l-.52.38a2.39,2.39,0,0,0-1-.82,3,3,0,0,0-1.28-.28,3,3,0,0,0-1.53.39,2.74,2.74,0,0,0-1.07,1.09,3.58,3.58,0,0,0,0,3.21,2.74,2.74,0,0,0,1.07,1.09,3,3,0,0,0,1.53.38,3,3,0,0,0,1.28-.27,2.39,2.39,0,0,0,1-.82l.52.38a2.91,2.91,0,0,1-1.17,1,3.64,3.64,0,0,1-1.6.34A3.78,3.78,0,0,1,124.11,61.06Z"/><path class="cls-3" d="M136.51,54.91a3.12,3.12,0,0,1,.79,2.3v4.27h-.7V57.26a2.56,2.56,0,0,0-.62-1.87,2.32,2.32,0,0,0-1.74-.65,2.69,2.69,0,0,0-2,.77,2.86,2.86,0,0,0-.74,2.08v3.89h-.7V51.09h.7V55.7a2.59,2.59,0,0,1,1.12-1.17,3.46,3.46,0,0,1,1.75-.42A3,3,0,0,1,136.51,54.91Z"/><path class="cls-3" d="M143.81,61a1.85,1.85,0,0,1-.66.38,2.63,2.63,0,0,1-.84.13,2,2,0,0,1-1.46-.52,2,2,0,0,1-.52-1.46V54.77H139v-.6h1.35v-1.6h.7v1.6h2.32v.6H141v4.71a1.54,1.54,0,0,0,.34,1.08,1.32,1.32,0,0,0,1,.37,1.63,1.63,0,0,0,1.13-.4Z"/><path class="cls-3" d="M163.83,54.91a3.16,3.16,0,0,1,.78,2.3v4.27h-.7V57.26a2.64,2.64,0,0,0-.6-1.87,2.21,2.21,0,0,0-1.68-.65,2.56,2.56,0,0,0-2,.77,2.94,2.94,0,0,0-.72,2.08v3.89h-.7V57.26a2.64,2.64,0,0,0-.6-1.87,2.18,2.18,0,0,0-1.68-.65,2.55,2.55,0,0,0-1.95.77,2.94,2.94,0,0,0-.72,2.08v3.89h-.7V54.17h.67v1.57a2.73,2.73,0,0,1,1.08-1.2,3.35,3.35,0,0,1,1.72-.43,3.07,3.07,0,0,1,1.69.45,2.42,2.42,0,0,1,1,1.32,2.85,2.85,0,0,1,1.14-1.29,3.41,3.41,0,0,1,1.82-.48A2.85,2.85,0,0,1,163.83,54.91Z"/><path class="cls-3" d="M173.68,58h-6.29a3.07,3.07,0,0,0,.44,1.52,2.66,2.66,0,0,0,1.1,1,3.32,3.32,0,0,0,1.56.36,3.41,3.41,0,0,0,1.32-.25,2.61,2.61,0,0,0,1-.77l.4.47a3.15,3.15,0,0,1-1.2.88,4,4,0,0,1-1.56.3,3.9,3.9,0,0,1-1.94-.47,3.47,3.47,0,0,1-1.34-1.32,3.8,3.8,0,0,1-.48-1.92,4,4,0,0,1,.45-1.91A3.52,3.52,0,0,1,172,54.58a3.35,3.35,0,0,1,1.25,1.31,4,4,0,0,1,.45,1.91Zm-4.86-2.92a2.63,2.63,0,0,0-1,1,3.14,3.14,0,0,0-.42,1.41H173a3,3,0,0,0-.42-1.4,2.73,2.73,0,0,0-1-1,2.77,2.77,0,0,0-1.38-.35A2.89,2.89,0,0,0,168.82,55.07Z"/><path class="cls-3" d="M181.6,54.91a3.08,3.08,0,0,1,.8,2.3v4.27h-.7V57.26a2.6,2.6,0,0,0-.62-1.87,2.32,2.32,0,0,0-1.74-.65,2.69,2.69,0,0,0-2,.77,2.87,2.87,0,0,0-.75,2.08v3.89h-.7V51.09h.7V55.7a2.7,2.7,0,0,1,1.12-1.17,3.51,3.51,0,0,1,1.75-.42A2.93,2.93,0,0,1,181.6,54.91Z"/><path class="cls-3" d="M187,54.54a3.34,3.34,0,0,1,1.73-.43v.69h-.16a2.43,2.43,0,0,0-1.91.76,3.05,3.05,0,0,0-.68,2.12v3.81h-.7V54.17H186v1.6A2.49,2.49,0,0,1,187,54.54Z"/><path class="cls-3" d="M203.15,54.58a3.37,3.37,0,0,1,1.3,1.32,4.16,4.16,0,0,1,0,3.84,3.37,3.37,0,0,1-1.3,1.32,3.58,3.58,0,0,1-1.84.47,3.39,3.39,0,0,1-1.77-.46,3.24,3.24,0,0,1-1.23-1.31v1.72h-.67V51.09h.7v4.75a3.11,3.11,0,0,1,1.22-1.27,3.44,3.44,0,0,1,1.75-.46A3.68,3.68,0,0,1,203.15,54.58Zm-.37,5.93a2.69,2.69,0,0,0,1.05-1.09,3.46,3.46,0,0,0,0-3.19,2.69,2.69,0,0,0-1.05-1.09,3,3,0,0,0-1.51-.4,2.91,2.91,0,0,0-1.51.4,2.82,2.82,0,0,0-1,1.09,3.46,3.46,0,0,0,0,3.19,2.82,2.82,0,0,0,1,1.09,2.9,2.9,0,0,0,1.51.39A3,3,0,0,0,202.78,60.51Z"/><path class="cls-3" d="M213.26,58H207a3.06,3.06,0,0,0,.43,1.52,2.73,2.73,0,0,0,1.1,1,3.58,3.58,0,0,0,2.88.11,2.61,2.61,0,0,0,1-.77l.4.47a3.11,3.11,0,0,1-1.19.88,4,4,0,0,1-1.56.3,3.91,3.91,0,0,1-1.95-.47,3.54,3.54,0,0,1-1.34-1.32,3.8,3.8,0,0,1-.48-1.92,3.94,3.94,0,0,1,.46-1.91,3.38,3.38,0,0,1,3-1.8,3.49,3.49,0,0,1,1.79.47,3.4,3.4,0,0,1,1.24,1.31,4,4,0,0,1,.46,1.91Zm-4.86-2.92a2.54,2.54,0,0,0-1,1,3.15,3.15,0,0,0-.43,1.41h5.6a3,3,0,0,0-.42-1.4,2.71,2.71,0,0,0-1-1,2.81,2.81,0,0,0-1.39-.35A2.92,2.92,0,0,0,208.4,55.07Z"/><path class="cls-3" d="M221.19,54.91a3.12,3.12,0,0,1,.79,2.3v4.27h-.7V57.26a2.56,2.56,0,0,0-.62-1.87,2.29,2.29,0,0,0-1.74-.65,2.69,2.69,0,0,0-2,.77,2.86,2.86,0,0,0-.74,2.08v3.89h-.7V54.17h.67v1.58a2.78,2.78,0,0,1,1.13-1.2,3.44,3.44,0,0,1,1.77-.44A3,3,0,0,1,221.19,54.91Z"/><path class="cls-3" d="M231.27,54.17v7.31h-.68V59.91a2.77,2.77,0,0,1-1.07,1.2,3.27,3.27,0,0,1-1.68.42,3,3,0,0,1-2.24-.79,3.1,3.1,0,0,1-.82-2.3V54.17h.7v4.22a2.56,2.56,0,0,0,.63,1.87,2.38,2.38,0,0,0,1.78.64,2.58,2.58,0,0,0,2-.76,2.94,2.94,0,0,0,.72-2.08V54.17Z"/><path class="cls-3" d="M237.86,61a1.89,1.89,0,0,1-.67.38,2.53,2.53,0,0,1-.83.13,2,2,0,0,1-1.47-.52,2,2,0,0,1-.52-1.46V54.77H233v-.6h1.34v-1.6h.7v1.6h2.33v.6h-2.33v4.71a1.54,1.54,0,0,0,.35,1.08,1.29,1.29,0,0,0,1,.37,1.64,1.64,0,0,0,1.14-.4Z"/><path class="cls-3" d="M244.75,60.88v.6h-5.81V61l4.81-6.23H239v-.6h5.65v.48l-4.83,6.23Z"/><path class="cls-3" d="M250.49,61a1.89,1.89,0,0,1-.67.38,2.53,2.53,0,0,1-.83.13,1.81,1.81,0,0,1-2-2V54.77h-1.34v-.6H247v-1.6h.7v1.6H250v.6H247.7v4.71a1.59,1.59,0,0,0,.34,1.08,1.32,1.32,0,0,0,1,.37,1.59,1.59,0,0,0,1.13-.4Z"/><path class="cls-3" d="M269.72,54.17l-2.78,7.31h-.65l-2.47-6.34-2.48,6.34h-.64l-2.77-7.31h.67L261,60.69l2.49-6.52h.6l2.48,6.51,2.46-6.51Z"/><path class="cls-3" d="M277.74,54.17v7.31h-.68V59.91a2.77,2.77,0,0,1-1.07,1.2,3.27,3.27,0,0,1-1.68.42,3.06,3.06,0,0,1-2.24-.79,3.1,3.1,0,0,1-.81-2.3V54.17h.7v4.22a2.56,2.56,0,0,0,.63,1.87,2.36,2.36,0,0,0,1.77.64,2.57,2.57,0,0,0,2-.76,2.94,2.94,0,0,0,.72-2.08V54.17Z"/><path class="cls-3" d="M282.43,54.54a3.34,3.34,0,0,1,1.73-.43v.69H284a2.43,2.43,0,0,0-1.91.76,3.05,3.05,0,0,0-.68,2.12v3.81h-.7V54.17h.67v1.6A2.49,2.49,0,0,1,282.43,54.54Z"/><path class="cls-3" d="M292.52,51.09V61.48h-.68V59.76a3.16,3.16,0,0,1-1.22,1.31,3.45,3.45,0,0,1-1.78.46,3.61,3.61,0,0,1-1.85-.47,3.41,3.41,0,0,1-1.29-1.32,4.16,4.16,0,0,1,0-3.84A3.41,3.41,0,0,1,287,54.58a3.71,3.71,0,0,1,1.85-.47,3.38,3.38,0,0,1,1.76.47,3.34,3.34,0,0,1,1.22,1.28V51.09Zm-2.13,9.42a2.82,2.82,0,0,0,1.05-1.09,3.54,3.54,0,0,0,0-3.19,2.82,2.82,0,0,0-1.05-1.09,3,3,0,0,0-1.51-.4,2.9,2.9,0,0,0-1.5.4,2.69,2.69,0,0,0-1.05,1.09,3.46,3.46,0,0,0,0,3.19,2.69,2.69,0,0,0,1.05,1.09,2.89,2.89,0,0,0,1.5.39A3,3,0,0,0,290.39,60.51Z"/><path class="cls-3" d="M301.65,58h-6.29a3.07,3.07,0,0,0,.44,1.52,2.66,2.66,0,0,0,1.1,1,3.32,3.32,0,0,0,1.56.36,3.41,3.41,0,0,0,1.32-.25,2.68,2.68,0,0,0,1-.77l.4.47a3.23,3.23,0,0,1-1.2.88,4,4,0,0,1-1.56.3,3.9,3.9,0,0,1-1.94-.47,3.47,3.47,0,0,1-1.34-1.32,3.8,3.8,0,0,1-.48-1.92,4,4,0,0,1,.45-1.91,3.41,3.41,0,0,1,3.05-1.8,3.36,3.36,0,0,1,3,1.78,4,4,0,0,1,.45,1.91Zm-4.86-2.92a2.63,2.63,0,0,0-1,1,3.14,3.14,0,0,0-.42,1.41H301a3,3,0,0,0-.42-1.4,2.73,2.73,0,0,0-1-1,2.77,2.77,0,0,0-1.38-.35A2.89,2.89,0,0,0,296.79,55.07Z"/><path class="cls-3" d="M309.57,54.91a3.08,3.08,0,0,1,.8,2.3v4.27h-.7V57.26a2.6,2.6,0,0,0-.62-1.87,2.32,2.32,0,0,0-1.74-.65,2.73,2.73,0,0,0-2,.77,2.91,2.91,0,0,0-.74,2.08v3.89h-.7V54.17h.67v1.58a2.84,2.84,0,0,1,1.13-1.2,3.47,3.47,0,0,1,1.77-.44A2.93,2.93,0,0,1,309.57,54.91Z"/><path class="cls-3" d="M312.76,61.36a.58.58,0,0,1-.18-.43.59.59,0,0,1,1.18,0,.58.58,0,0,1-.18.43.58.58,0,0,1-.82,0Z"/><path class="cls-3" d="M323.12,51.68h.71v9.8h-.71Z"/><path class="cls-3" d="M338.26,54.91a3.2,3.2,0,0,1,.77,2.3v4.27h-.7V57.26a2.64,2.64,0,0,0-.6-1.87,2.18,2.18,0,0,0-1.68-.65,2.55,2.55,0,0,0-1.95.77,2.94,2.94,0,0,0-.72,2.08v3.89h-.7V57.26a2.64,2.64,0,0,0-.6-1.87,2.21,2.21,0,0,0-1.68-.65,2.56,2.56,0,0,0-2,.77,2.94,2.94,0,0,0-.72,2.08v3.89H327V54.17h.67v1.57a2.81,2.81,0,0,1,1.09-1.2,3.34,3.34,0,0,1,1.71-.43,3,3,0,0,1,1.69.45,2.48,2.48,0,0,1,1,1.32,2.85,2.85,0,0,1,1.14-1.29,3.37,3.37,0,0,1,1.81-.48A2.86,2.86,0,0,1,338.26,54.91Z"/><path class="cls-3" d="M28,73.42h.68v3.67a4.37,4.37,0,0,1-1.56.94,5.94,5.94,0,0,1-1.94.32,5.33,5.33,0,0,1-2.62-.65,4.74,4.74,0,0,1-1.84-1.77,5.26,5.26,0,0,1,0-5.1,4.77,4.77,0,0,1,1.84-1.78,5.37,5.37,0,0,1,2.64-.64,5.49,5.49,0,0,1,2,.34,4.27,4.27,0,0,1,1.55,1l-.45.48a3.68,3.68,0,0,0-1.38-.89,5,5,0,0,0-1.69-.27,4.52,4.52,0,0,0-2.27.56,4.06,4.06,0,0,0-1.59,1.54,4.27,4.27,0,0,0-.58,2.21,4.32,4.32,0,0,0,.58,2.19A4.15,4.15,0,0,0,23,77.12a4.56,4.56,0,0,0,2.27.57,4.29,4.29,0,0,0,2.79-.9Z"/><path class="cls-3" d="M37.81,74.79H31.52A3.07,3.07,0,0,0,32,76.31a2.66,2.66,0,0,0,1.1,1,3.32,3.32,0,0,0,1.56.36,3.41,3.41,0,0,0,1.32-.25,2.68,2.68,0,0,0,1-.77l.4.46a3.07,3.07,0,0,1-1.2.89,4,4,0,0,1-1.56.3,3.9,3.9,0,0,1-1.94-.47,3.47,3.47,0,0,1-1.34-1.32,3.8,3.8,0,0,1-.48-1.92,4,4,0,0,1,.45-1.91,3.41,3.41,0,0,1,3.05-1.8,3.36,3.36,0,0,1,3,1.78,4,4,0,0,1,.45,1.91ZM33,71.87a2.63,2.63,0,0,0-1,1,3.14,3.14,0,0,0-.42,1.41h5.6a3,3,0,0,0-.42-1.4,2.73,2.73,0,0,0-1-1,3,3,0,0,0-2.77,0Z"/><path class="cls-3" d="M46.57,71v6.52A3.11,3.11,0,0,1,43,81.05a5.65,5.65,0,0,1-1.9-.31,3.63,3.63,0,0,1-1.44-.85l.37-.53a4.12,4.12,0,0,0,1.32.78,4.67,4.67,0,0,0,1.64.28,2.94,2.94,0,0,0,2.15-.69,2.9,2.9,0,0,0,.7-2.15V76.35a3.12,3.12,0,0,1-1.24,1.23,3.67,3.67,0,0,1-1.79.43A3.85,3.85,0,0,1,41,77.56a3.4,3.4,0,0,1-1.31-1.27,3.52,3.52,0,0,1-.48-1.83,3.56,3.56,0,0,1,.48-1.84A3.31,3.31,0,0,1,41,71.36a3.85,3.85,0,0,1,1.86-.45,3.65,3.65,0,0,1,1.81.45,3,3,0,0,1,1.25,1.26V71Zm-2.14,6a2.66,2.66,0,0,0,1.07-1,3.16,3.16,0,0,0,0-3,2.63,2.63,0,0,0-1.07-1,3.17,3.17,0,0,0-1.54-.38,3.1,3.1,0,0,0-1.53.38,2.7,2.7,0,0,0-1.07,1,3.23,3.23,0,0,0,0,3,2.72,2.72,0,0,0,1.07,1,3.09,3.09,0,0,0,1.53.37A3.16,3.16,0,0,0,44.43,77Z"/><path class="cls-3" d="M55.72,74.79H49.43a3.06,3.06,0,0,0,.43,1.52,2.73,2.73,0,0,0,1.1,1,3.32,3.32,0,0,0,1.56.36,3.42,3.42,0,0,0,1.33-.25,2.65,2.65,0,0,0,1-.77l.41.46a3.15,3.15,0,0,1-1.2.89,4,4,0,0,1-1.56.3,3.91,3.91,0,0,1-1.95-.47,3.44,3.44,0,0,1-1.33-1.32,3.71,3.71,0,0,1-.49-1.92,3.94,3.94,0,0,1,.46-1.91,3.38,3.38,0,0,1,3-1.8,3.47,3.47,0,0,1,1.79.47,3.33,3.33,0,0,1,1.24,1.31,3.88,3.88,0,0,1,.46,1.91Zm-4.86-2.92a2.63,2.63,0,0,0-1,1,3.15,3.15,0,0,0-.43,1.41H55a2.84,2.84,0,0,0-.42-1.4,2.71,2.71,0,0,0-1-1,3,3,0,0,0-2.77,0Z"/><path class="cls-3" d="M63.64,71.71a3.12,3.12,0,0,1,.8,2.3v4.27h-.7V74.06a2.56,2.56,0,0,0-.63-1.87,2.29,2.29,0,0,0-1.74-.65,2.71,2.71,0,0,0-2,.77,2.91,2.91,0,0,0-.74,2.08v3.89h-.7V71h.67v1.58a2.78,2.78,0,0,1,1.13-1.2,3.47,3.47,0,0,1,1.77-.44A3,3,0,0,1,63.64,71.71Z"/><path class="cls-3" d="M67.49,78.07a3.58,3.58,0,0,1-1.25-.67l.32-.56a3.85,3.85,0,0,0,1.16.63,4.3,4.3,0,0,0,1.48.25,2.85,2.85,0,0,0,1.63-.37,1.14,1.14,0,0,0,.52-1,1,1,0,0,0-.28-.73,1.76,1.76,0,0,0-.71-.39A9.78,9.78,0,0,0,69.2,75a8.2,8.2,0,0,1-1.4-.34,2.13,2.13,0,0,1-.91-.58,1.55,1.55,0,0,1-.38-1.12,1.76,1.76,0,0,1,.72-1.44,3.23,3.23,0,0,1,2-.57,5.08,5.08,0,0,1,1.39.2,3.42,3.42,0,0,1,1.12.52l-.33.56a3,3,0,0,0-1-.49,4.19,4.19,0,0,0-1.17-.17,2.61,2.61,0,0,0-1.54.38,1.16,1.16,0,0,0-.52,1,1,1,0,0,0,.29.77,2,2,0,0,0,.72.4,11.91,11.91,0,0,0,1.2.29,9.4,9.4,0,0,1,1.38.33,2,2,0,0,1,.89.56,1.57,1.57,0,0,1,.36,1.08,1.71,1.71,0,0,1-.75,1.46,3.65,3.65,0,0,1-2.13.54A5.18,5.18,0,0,1,67.49,78.07Z"/><path class="cls-3" d="M78.56,71.61a2.65,2.65,0,0,1,.73,2v4.64h-.67V77a2.46,2.46,0,0,1-1,1,3.39,3.39,0,0,1-1.61.35,3,3,0,0,1-1.93-.57,2,2,0,0,1,0-3,3.08,3.08,0,0,1,2.07-.57h2.51v-.58A2.08,2.08,0,0,0,78,72.06a2.27,2.27,0,0,0-1.62-.53,3.85,3.85,0,0,0-1.39.25,3.68,3.68,0,0,0-1.13.67l-.35-.5a3.72,3.72,0,0,1,1.32-.76,4.82,4.82,0,0,1,1.61-.28A2.9,2.9,0,0,1,78.56,71.61Zm-.93,5.73a2.51,2.51,0,0,0,1-1.22V74.75H76.1a2.48,2.48,0,0,0-1.56.39,1.32,1.32,0,0,0-.49,1.08,1.35,1.35,0,0,0,.54,1.13,2.4,2.4,0,0,0,1.49.41A2.74,2.74,0,0,0,77.63,77.34Z"/><path class="cls-3" d="M85.8,77.82a1.94,1.94,0,0,1-.66.38,2.63,2.63,0,0,1-.84.13,2,2,0,0,1-1.47-.52,2,2,0,0,1-.52-1.46V71.57H81V71h1.34v-1.6H83V71h2.32v.6H83v4.71a1.54,1.54,0,0,0,.34,1.08,1.29,1.29,0,0,0,1,.37,1.64,1.64,0,0,0,1.14-.4Z"/><path class="cls-3" d="M92.69,77.68v.6H86.88V77.8l4.81-6.23H87V71H92.6v.48l-4.83,6.23Z"/><path class="cls-3" d="M105.34,67.89V78.28h-.69V76.56a3.13,3.13,0,0,1-1.21,1.31,3.45,3.45,0,0,1-1.78.46,3.61,3.61,0,0,1-1.85-.47,3.41,3.41,0,0,1-1.29-1.32,4.16,4.16,0,0,1,0-3.84,3.41,3.41,0,0,1,1.29-1.32,3.71,3.71,0,0,1,1.85-.47,3.38,3.38,0,0,1,1.76.47,3.27,3.27,0,0,1,1.22,1.28V67.89Zm-2.13,9.42a2.82,2.82,0,0,0,1.05-1.09,3.54,3.54,0,0,0,0-3.19,2.82,2.82,0,0,0-1.05-1.09,3.05,3.05,0,0,0-3,0,2.73,2.73,0,0,0-1,1.09,3.46,3.46,0,0,0,0,3.19,2.73,2.73,0,0,0,1,1.09,3.12,3.12,0,0,0,3,0Z"/><path class="cls-3" d="M112.84,71.61a2.65,2.65,0,0,1,.73,2v4.64h-.67V77a2.4,2.4,0,0,1-1,1,3.39,3.39,0,0,1-1.61.35,3,3,0,0,1-1.93-.57,2,2,0,0,1,0-3,3.1,3.1,0,0,1,2.08-.57h2.5v-.58a2.08,2.08,0,0,0-.55-1.56,2.27,2.27,0,0,0-1.62-.53,3.85,3.85,0,0,0-1.39.25,3.8,3.8,0,0,0-1.13.67l-.35-.5a3.81,3.81,0,0,1,1.32-.76,4.82,4.82,0,0,1,1.61-.28A2.9,2.9,0,0,1,112.84,71.61Zm-.93,5.73a2.51,2.51,0,0,0,1-1.22V74.75h-2.49a2.48,2.48,0,0,0-1.56.39,1.31,1.31,0,0,0-.48,1.08,1.34,1.34,0,0,0,.53,1.13,2.41,2.41,0,0,0,1.5.41A2.73,2.73,0,0,0,111.91,77.34Z"/><path class="cls-3" d="M121.4,77.68v.6h-5.81V77.8l4.81-6.23h-4.74V71h5.65v.48l-4.83,6.23Z"/><path class="cls-3" d="M129.9,71v7.31h-.68V76.71a2.77,2.77,0,0,1-1.07,1.2,3.27,3.27,0,0,1-1.68.42,2.8,2.8,0,0,1-3.06-3.09V71h.7v4.21a2.57,2.57,0,0,0,.63,1.88,2.38,2.38,0,0,0,1.78.64,2.55,2.55,0,0,0,2-.77,2.9,2.9,0,0,0,.72-2.07V71Z"/><path class="cls-3" d="M143.5,71v6.52A3.11,3.11,0,0,1,140,81.05a5.71,5.71,0,0,1-1.91-.31,3.77,3.77,0,0,1-1.44-.85l.38-.53a3.91,3.91,0,0,0,1.32.78,4.62,4.62,0,0,0,1.63.28,3,3,0,0,0,2.16-.69,2.94,2.94,0,0,0,.7-2.15V76.35a3.15,3.15,0,0,1-1.25,1.23,3.67,3.67,0,0,1-1.79.43,3.81,3.81,0,0,1-1.85-.45,3.34,3.34,0,0,1-1.31-1.27,3.52,3.52,0,0,1-.48-1.83,3.56,3.56,0,0,1,.48-1.84,3.25,3.25,0,0,1,1.31-1.26,3.81,3.81,0,0,1,1.85-.45,3.69,3.69,0,0,1,1.82.45,3.1,3.1,0,0,1,1.25,1.26V71Zm-2.14,6a2.79,2.79,0,0,0,1.07-1,3.23,3.23,0,0,0,0-3,2.76,2.76,0,0,0-1.07-1,3.31,3.31,0,0,0-3.08,0,2.74,2.74,0,0,0-1.06,1,3.16,3.16,0,0,0,0,3,2.76,2.76,0,0,0,1.06,1,3.39,3.39,0,0,0,3.08,0Z"/><path class="cls-3" d="M152.64,74.79h-6.28a3,3,0,0,0,.43,1.52,2.73,2.73,0,0,0,1.1,1,3.32,3.32,0,0,0,1.56.36,3.37,3.37,0,0,0,1.32-.25,2.61,2.61,0,0,0,1-.77l.4.46A3,3,0,0,1,151,78a4.05,4.05,0,0,1-1.56.3,3.91,3.91,0,0,1-1.95-.47,3.47,3.47,0,0,1-1.34-1.32,3.8,3.8,0,0,1-.48-1.92,4,4,0,0,1,.45-1.91A3.52,3.52,0,0,1,151,71.38a3.35,3.35,0,0,1,1.25,1.31,4,4,0,0,1,.45,1.91Zm-4.86-2.92a2.54,2.54,0,0,0-1,1,3.15,3.15,0,0,0-.43,1.41H152a3,3,0,0,0-.42-1.4,2.66,2.66,0,0,0-1-1,3,3,0,0,0-2.77,0Z"/><path class="cls-3" d="M160.34,71.38a3.51,3.51,0,0,1,1.3,1.32,4.16,4.16,0,0,1,0,3.84,3.51,3.51,0,0,1-1.3,1.32,3.61,3.61,0,0,1-1.85.47,3.44,3.44,0,0,1-1.77-.46,3.21,3.21,0,0,1-1.22-1.31v1.72h-.68V67.89h.7v4.75a3.17,3.17,0,0,1,1.22-1.27,3.49,3.49,0,0,1,1.75-.46A3.71,3.71,0,0,1,160.34,71.38ZM160,77.31A2.78,2.78,0,0,0,161,76.22,3.54,3.54,0,0,0,161,73,2.78,2.78,0,0,0,160,71.94a3,3,0,0,0-1.51-.4,2.9,2.9,0,0,0-1.5.4,2.69,2.69,0,0,0-1,1.09,3.46,3.46,0,0,0,0,3.19,2.69,2.69,0,0,0,1,1.09,2.89,2.89,0,0,0,1.5.39A3,3,0,0,0,160,77.31Z"/><path class="cls-3" d="M170.45,74.79h-6.29a3.07,3.07,0,0,0,.44,1.52,2.7,2.7,0,0,0,1.09,1,3.61,3.61,0,0,0,2.89.11,2.65,2.65,0,0,0,1-.77l.41.46a3.15,3.15,0,0,1-1.2.89,4,4,0,0,1-1.56.3,3.87,3.87,0,0,1-1.94-.47A3.47,3.47,0,0,1,164,76.54a3.8,3.8,0,0,1-.48-1.92,4,4,0,0,1,.45-1.91,3.38,3.38,0,0,1,1.25-1.32,3.45,3.45,0,0,1,4.83,1.3,4,4,0,0,1,.45,1.91Zm-4.86-2.92a2.63,2.63,0,0,0-1,1,3.14,3.14,0,0,0-.42,1.41h5.6a3,3,0,0,0-.42-1.4,2.81,2.81,0,0,0-1-1,3,3,0,0,0-2.77,0Z"/><path class="cls-3" d="M178.37,71.71a3.12,3.12,0,0,1,.8,2.3v4.27h-.7V74.06a2.6,2.6,0,0,0-.62-1.87,2.33,2.33,0,0,0-1.75-.65,2.72,2.72,0,0,0-2,.77,2.91,2.91,0,0,0-.74,2.08v3.89h-.7V71h.67v1.58a2.84,2.84,0,0,1,1.13-1.2,3.47,3.47,0,0,1,1.77-.44A2.93,2.93,0,0,1,178.37,71.71Z"/><path class="cls-3" d="M189,68.48v9.8h-2.27v-8h-2V68.48Z"/><path class="cls-3" d="M192.69,77.85a4.15,4.15,0,0,1-1.49-1.75,7.12,7.12,0,0,1,0-5.44,4,4,0,0,1,1.49-1.75,4.22,4.22,0,0,1,4.34,0,4,4,0,0,1,1.49,1.75,7.12,7.12,0,0,1,0,5.44A4.15,4.15,0,0,1,197,77.85a4.22,4.22,0,0,1-4.34,0Zm3.58-2.09a5.81,5.81,0,0,0,0-4.76,1.61,1.61,0,0,0-1.41-.77,1.59,1.59,0,0,0-1.39.77,5.81,5.81,0,0,0,0,4.76,1.59,1.59,0,0,0,1.39.77A1.61,1.61,0,0,0,196.27,75.76Z"/><path class="cls-3" d="M205.14,73a3.19,3.19,0,0,1,0-3.94,2.29,2.29,0,0,1,1.76-.73,2.26,2.26,0,0,1,1.75.73,3.23,3.23,0,0,1,0,3.94,2.26,2.26,0,0,1-1.75.73A2.29,2.29,0,0,1,205.14,73Zm2.51-.81a2,2,0,0,0,.27-1.16,2,2,0,0,0-.27-1.16.89.89,0,0,0-1.49,0,2,2,0,0,0-.28,1.16,2,2,0,0,0,.28,1.15.84.84,0,0,0,.74.4A.86.86,0,0,0,207.65,72.23Zm5.09-3.75h1.66l-6.69,9.8h-1.66Zm-.44,9.58a2.18,2.18,0,0,1-.86-.94,3.45,3.45,0,0,1,0-2.86,2.18,2.18,0,0,1,.86-.94,2.38,2.38,0,0,1,1.25-.33,2.29,2.29,0,0,1,1.76.73,3.19,3.19,0,0,1,0,3.94,2.29,2.29,0,0,1-1.76.73A2.38,2.38,0,0,1,212.3,78.06Zm2-1.22a2,2,0,0,0,.27-1.15,2.07,2.07,0,0,0-.27-1.16.86.86,0,0,0-.75-.39.83.83,0,0,0-.74.39,2.54,2.54,0,0,0,0,2.32.9.9,0,0,0,1.49,0Z"/><path class="cls-3" d="M226.86,71.61a2.65,2.65,0,0,1,.73,2v4.64h-.67V77a2.4,2.4,0,0,1-1,1,3.39,3.39,0,0,1-1.61.35,3,3,0,0,1-1.93-.57,2,2,0,0,1-.05-3,3.1,3.1,0,0,1,2.08-.57h2.5v-.58a2.08,2.08,0,0,0-.55-1.56,2.27,2.27,0,0,0-1.62-.53,3.85,3.85,0,0,0-1.39.25,3.8,3.8,0,0,0-1.13.67l-.35-.5a3.81,3.81,0,0,1,1.32-.76,4.82,4.82,0,0,1,1.61-.28A2.9,2.9,0,0,1,226.86,71.61Zm-.93,5.73a2.51,2.51,0,0,0,1-1.22V74.75H224.4a2.48,2.48,0,0,0-1.56.39,1.31,1.31,0,0,0-.48,1.08,1.34,1.34,0,0,0,.53,1.13,2.41,2.41,0,0,0,1.5.41A2.73,2.73,0,0,0,225.93,77.34Z"/><path class="cls-3" d="M236.22,71.71A3.12,3.12,0,0,1,237,74v4.27h-.7V74.06a2.56,2.56,0,0,0-.62-1.87,2.32,2.32,0,0,0-1.74-.65,2.69,2.69,0,0,0-2,.77,2.86,2.86,0,0,0-.74,2.08v3.89h-.7V71h.67v1.58a2.76,2.76,0,0,1,1.12-1.2,3.48,3.48,0,0,1,1.78-.44A3,3,0,0,1,236.22,71.71Z"/><path class="cls-3" d="M240.23,77.32a.54.54,0,0,1,.17.41,1.6,1.6,0,0,1,0,.3l-.1.35-.54,1.9h-.5l.46-2a.7.7,0,0,1-.34-.21.55.55,0,0,1-.12-.37.58.58,0,0,1,.16-.42.61.61,0,0,1,.42-.17A.54.54,0,0,1,240.23,77.32Z"/><path class="cls-3" d="M246.7,69a.57.57,0,0,1,.4-1,.56.56,0,0,1,.41.16.56.56,0,0,1,0,.8.53.53,0,0,1-.41.17A.54.54,0,0,1,246.7,69Zm.05,1.94h.7v7.31h-.7Z"/><path class="cls-3" d="M256.15,71.71a3.12,3.12,0,0,1,.79,2.3v4.27h-.7V74.06a2.56,2.56,0,0,0-.62-1.87,2.29,2.29,0,0,0-1.74-.65,2.69,2.69,0,0,0-2,.77,2.86,2.86,0,0,0-.74,2.08v3.89h-.7V67.89h.7V72.5a2.59,2.59,0,0,1,1.12-1.17,3.46,3.46,0,0,1,1.75-.42A3,3,0,0,1,256.15,71.71Z"/><path class="cls-3" d="M261.55,71.34a3.4,3.4,0,0,1,1.74-.43v.69h-.17a2.44,2.44,0,0,0-1.91.76,3.1,3.1,0,0,0-.68,2.12v3.81h-.7V71h.67v1.6A2.49,2.49,0,0,1,261.55,71.34Z"/><path class="cls-3" d="M271.32,74.79H265a3.06,3.06,0,0,0,.43,1.52,2.73,2.73,0,0,0,1.1,1,3.58,3.58,0,0,0,2.88.11,2.61,2.61,0,0,0,1-.77l.4.46a3,3,0,0,1-1.19.89,4,4,0,0,1-1.56.3,3.91,3.91,0,0,1-1.95-.47,3.54,3.54,0,0,1-1.34-1.32,3.8,3.8,0,0,1-.48-1.92,3.94,3.94,0,0,1,.46-1.91,3.38,3.38,0,0,1,3-1.8,3.49,3.49,0,0,1,1.79.47,3.4,3.4,0,0,1,1.24,1.31,3.88,3.88,0,0,1,.46,1.91Zm-4.86-2.92a2.61,2.61,0,0,0-1,1,3.15,3.15,0,0,0-.43,1.41h5.6a3,3,0,0,0-.42-1.4,2.71,2.71,0,0,0-1-1,3,3,0,0,0-2.78,0Z"/><path class="cls-3" d="M284.2,69.35a3.33,3.33,0,0,1,0,4.85,4.42,4.42,0,0,1-2.9.87h-2.8v3.21h-.71v-9.8h3.51A4.42,4.42,0,0,1,284.2,69.35Zm-.51,4.39a2.73,2.73,0,0,0,0-3.92,3.57,3.57,0,0,0-2.39-.7h-2.8v5.31h2.8A3.62,3.62,0,0,0,283.69,73.74Z"/><path class="cls-3" d="M288.93,71.34a3.37,3.37,0,0,1,1.74-.43v.69h-.17a2.44,2.44,0,0,0-1.91.76,3.1,3.1,0,0,0-.68,2.12v3.81h-.7V71h.67v1.6A2.49,2.49,0,0,1,288.93,71.34Z"/><path class="cls-3" d="M293.52,77.86a3.39,3.39,0,0,1-1.31-1.32,4.06,4.06,0,0,1,0-3.83,3.39,3.39,0,0,1,1.31-1.32,3.63,3.63,0,0,1,1.86-.48,3.67,3.67,0,0,1,1.87.48,3.46,3.46,0,0,1,1.31,1.32,4.06,4.06,0,0,1,0,3.83,3.46,3.46,0,0,1-1.31,1.32,3.66,3.66,0,0,1-1.87.47A3.62,3.62,0,0,1,293.52,77.86Zm3.37-.55a2.82,2.82,0,0,0,1.05-1.09,3.54,3.54,0,0,0,0-3.19,2.82,2.82,0,0,0-1.05-1.09,2.93,2.93,0,0,0-1.51-.4,2.9,2.9,0,0,0-1.5.4A2.82,2.82,0,0,0,292.83,73a3.46,3.46,0,0,0,0,3.19,2.82,2.82,0,0,0,1.05,1.09,2.89,2.89,0,0,0,1.5.39A2.93,2.93,0,0,0,296.89,77.31Z"/><path class="cls-3" d="M307.7,67.89V78.28H307V76.56a3.16,3.16,0,0,1-1.22,1.31,3.4,3.4,0,0,1-1.78.46,3.64,3.64,0,0,1-1.85-.47,3.41,3.41,0,0,1-1.29-1.32,4.16,4.16,0,0,1,0-3.84,3.41,3.41,0,0,1,1.29-1.32,3.74,3.74,0,0,1,1.85-.47,3.36,3.36,0,0,1,1.76.47A3.14,3.14,0,0,1,307,72.66V67.89Zm-2.13,9.42a2.82,2.82,0,0,0,1.05-1.09,3.54,3.54,0,0,0,0-3.19,2.82,2.82,0,0,0-1.05-1.09,2.93,2.93,0,0,0-1.51-.4,2.9,2.9,0,0,0-1.5.4A2.82,2.82,0,0,0,301.51,73a3.46,3.46,0,0,0,0,3.19,2.82,2.82,0,0,0,1.05,1.09,2.89,2.89,0,0,0,1.5.39A2.93,2.93,0,0,0,305.57,77.31Z"/><path class="cls-3" d="M317.06,71v7.31h-.68V76.71a2.77,2.77,0,0,1-1.07,1.2,3.27,3.27,0,0,1-1.68.42,2.8,2.8,0,0,1-3.06-3.09V71h.7v4.21a2.57,2.57,0,0,0,.63,1.88,2.38,2.38,0,0,0,1.78.64,2.52,2.52,0,0,0,1.95-.77,2.9,2.9,0,0,0,.73-2.07V71Z"/><path class="cls-3" d="M322.63,74.37l-1.91,1.74v2.17H320V67.89h.7v7.35L325.4,71h.9l-3.15,3,3.45,4.35h-.86Z"/><path class="cls-3" d="M331.88,77.82a1.94,1.94,0,0,1-.66.38,2.63,2.63,0,0,1-.84.13,2,2,0,0,1-1.47-.52,2,2,0,0,1-.51-1.46V71.57h-1.35V71h1.35v-1.6h.7V71h2.32v.6H329.1v4.71a1.54,1.54,0,0,0,.34,1.08,1.31,1.31,0,0,0,1,.37,1.64,1.64,0,0,0,1.14-.4Z"/><path class="cls-3" d="M339.74,74.79h-6.29a3.06,3.06,0,0,0,.43,1.52,2.73,2.73,0,0,0,1.1,1,3.38,3.38,0,0,0,1.56.36,3.42,3.42,0,0,0,1.33-.25,2.65,2.65,0,0,0,1-.77l.41.46a3.15,3.15,0,0,1-1.2.89,4,4,0,0,1-1.56.3,3.91,3.91,0,0,1-1.95-.47,3.51,3.51,0,0,1-1.33-1.32,3.81,3.81,0,0,1-.49-1.92,4.05,4.05,0,0,1,.46-1.91,3.38,3.38,0,0,1,3-1.8,3.47,3.47,0,0,1,1.79.47,3.42,3.42,0,0,1,1.25,1.31,4,4,0,0,1,.45,1.91Zm-4.86-2.92a2.63,2.63,0,0,0-1,1,3.15,3.15,0,0,0-.43,1.41h5.6a2.8,2.8,0,0,0-1.41-2.37,3,3,0,0,0-2.77,0Z"/><path class="cls-3" d="M25.36,88.41a2.65,2.65,0,0,1,.73,2v4.64h-.67v-1.3a2.4,2.4,0,0,1-1,1,3.51,3.51,0,0,1-1.61.35,3,3,0,0,1-1.93-.57,2,2,0,0,1-.05-3A3.1,3.1,0,0,1,22.89,91h2.5v-.58a2.08,2.08,0,0,0-.55-1.56,2.27,2.27,0,0,0-1.62-.53,3.85,3.85,0,0,0-1.39.25,3.6,3.6,0,0,0-1.13.67l-.35-.5A3.81,3.81,0,0,1,21.67,88a4.58,4.58,0,0,1,1.61-.28A2.9,2.9,0,0,1,25.36,88.41Zm-.93,5.73a2.51,2.51,0,0,0,1-1.22V91.55H22.9a2.48,2.48,0,0,0-1.56.39A1.31,1.31,0,0,0,20.86,93a1.34,1.34,0,0,0,.53,1.13,2.41,2.41,0,0,0,1.5.41A2.73,2.73,0,0,0,24.43,94.14Z"/><path class="cls-3" d="M29,84.69h.7V95.08H29Z"/><path class="cls-3" d="M32.63,84.69h.7V95.08h-.7Z"/><path class="cls-3" d="M42.46,91.59H36.17a3,3,0,0,0,.44,1.52,2.77,2.77,0,0,0,1.09,1,3.61,3.61,0,0,0,2.89.11,2.65,2.65,0,0,0,1-.77l.41.46a3.15,3.15,0,0,1-1.2.89,4,4,0,0,1-1.56.3,3.85,3.85,0,0,1-1.94-.47A3.47,3.47,0,0,1,36,93.34a3.81,3.81,0,0,1-.49-1.92,4.05,4.05,0,0,1,.46-1.91,3.38,3.38,0,0,1,1.25-1.32A3.43,3.43,0,0,1,39,87.71a3.47,3.47,0,0,1,1.79.47A3.42,3.42,0,0,1,42,89.49a4,4,0,0,1,.45,1.91ZM37.6,88.67a2.63,2.63,0,0,0-1,1,3,3,0,0,0-.42,1.41h5.59a2.74,2.74,0,0,0-.42-1.4,2.71,2.71,0,0,0-1-1,3,3,0,0,0-2.77,0Z"/><path class="cls-3" d="M53.18,94.48v.6H47.37V94.6l4.82-6.23H47.44v-.6H53.1v.48l-4.83,6.23Z"/><path class="cls-3" d="M61.68,87.77v7.31H61V93.51a2.85,2.85,0,0,1-1.08,1.2,3.27,3.27,0,0,1-1.68.42A3.06,3.06,0,0,1,56,94.34,3.1,3.1,0,0,1,55.2,92V87.77h.7V92a2.57,2.57,0,0,0,.63,1.88,2.36,2.36,0,0,0,1.77.64,2.53,2.53,0,0,0,2-.77A2.9,2.9,0,0,0,61,91.66V87.77Z"/><path class="cls-3" d="M74,88.51a3.08,3.08,0,0,1,.8,2.3v4.27h-.7V90.86A2.6,2.6,0,0,0,73.46,89a2.32,2.32,0,0,0-1.74-.65,2.69,2.69,0,0,0-2,.77,2.87,2.87,0,0,0-.75,2.08v3.89h-.7V87.77h.68v1.58A2.76,2.76,0,0,1,70,88.15a3.47,3.47,0,0,1,1.77-.44A2.93,2.93,0,0,1,74,88.51Z"/><path class="cls-3" d="M84.06,87.77v7.31h-.67V93.51a2.73,2.73,0,0,1-1.08,1.2,3.22,3.22,0,0,1-1.68.42,2.79,2.79,0,0,1-3-3.09V87.77h.7V92a2.57,2.57,0,0,0,.63,1.88,2.37,2.37,0,0,0,1.78.64,2.52,2.52,0,0,0,2-.77,2.9,2.9,0,0,0,.72-2.07V87.77Z"/><path class="cls-3" d="M90.66,94.62A1.89,1.89,0,0,1,90,95a2.53,2.53,0,0,1-.83.13,2,2,0,0,1-1.47-.52,2,2,0,0,1-.52-1.46V88.37H85.83v-.6h1.34v-1.6h.7v1.6H90.2v.6H87.87v4.71a1.59,1.59,0,0,0,.34,1.08,1.32,1.32,0,0,0,1,.37,1.61,1.61,0,0,0,1.13-.4Z"/><path class="cls-3" d="M97.55,94.48v.6H91.74V94.6l4.81-6.23H91.81v-.6h5.65v.48l-4.83,6.23Z"/><path class="cls-3" d="M105.69,91.59H99.41a3.06,3.06,0,0,0,.43,1.52,2.8,2.8,0,0,0,1.1,1,3.58,3.58,0,0,0,2.88.11,2.61,2.61,0,0,0,1-.77l.41.46a3.15,3.15,0,0,1-1.2.89,4,4,0,0,1-1.56.3,3.91,3.91,0,0,1-1.95-.47,3.54,3.54,0,0,1-1.34-1.32,3.8,3.8,0,0,1-.48-1.92,3.94,3.94,0,0,1,.46-1.91,3.38,3.38,0,0,1,3-1.8,3.49,3.49,0,0,1,1.79.47,3.4,3.4,0,0,1,1.24,1.31,3.88,3.88,0,0,1,.46,1.91Zm-4.85-2.92a2.56,2.56,0,0,0-1,1,3.11,3.11,0,0,0-.43,1.41H105a3,3,0,0,0-.42-1.4,2.71,2.71,0,0,0-1-1,2.81,2.81,0,0,0-1.39-.35A2.77,2.77,0,0,0,100.84,88.67Z"/><path class="cls-3" d="M113.62,88.51a3.12,3.12,0,0,1,.8,2.3v4.27h-.7V90.86a2.56,2.56,0,0,0-.63-1.87,2.29,2.29,0,0,0-1.74-.65,2.69,2.69,0,0,0-2,.77,2.86,2.86,0,0,0-.74,2.08v3.89h-.7V87.77h.67v1.58a2.78,2.78,0,0,1,1.13-1.2,3.47,3.47,0,0,1,1.77-.44A3,3,0,0,1,113.62,88.51Z"/><path class="cls-3" d="M116.8,95a.61.61,0,0,1-.17-.43.57.57,0,0,1,.17-.42.59.59,0,0,1,.83,0,.57.57,0,0,1,.17.42.61.61,0,0,1-.17.43.56.56,0,0,1-.41.17A.57.57,0,0,1,116.8,95Z"/><path class="cls-4" d="M59.56,270.58c4.93-1.42,5.07-.55,5.69-.74s6.7-8.32,6.7-8.32,17.76-23.68,18.67-25l5.6-30.64,16.81-.13s-7,33.09-7.71,34.73S76.5,271,74.12,273.67c0,0-1.54,4.28-2.61,6.92s-3.33,4.58-3.75,5.27a23.25,23.25,0,0,1-4.33,4.44c-2.33,1.85-1.1-1-1.1-1S66,285,65.52,284.79s-2.14,2.24-4.7,4.31l-1.91,1.54c-1.59,1.24-2.93.58-1.51-1a17.34,17.34,0,0,1,2.07-2,15,15,0,0,0,1.81-2,20.5,20.5,0,0,0,1.85-2.09c-.11,0-.08-.44-.79.11-.87.65-2.35,2.46-3.7,3.32-.77.48-2.31,1.6-2.31,1.6a17.53,17.53,0,0,1-2.83,1.1c-.77-.74.77-2.11,1.92-2.63a12.15,12.15,0,0,1,2.17-1.84s2.74-3.05,2.26-3.48c-.21-.18-2.14,1.48-4.33,2.79-2,1.21-4.32,2.1-4.67,1.72-.6-.64,1.49-2.24,1.49-2.24s1.53-1,2-1.42,2.12-1.94,2.12-1.94,5.13-5.45,4.64-5.82a4.1,4.1,0,0,0-2.52-.65c-.45.22-1,1.06-1.47,1.28a1.41,1.41,0,0,1-1.64-.43c-.38-.55,1.29-2.45,1.29-2.45A7.5,7.5,0,0,1,59.56,270.58Z"/><path class="cls-5" d="M87.49,424.3s.6,10.57.6,10.59c.22,1.34,1.09,4.66,1.09,5.88,0,4.58-20.4-3.89-15.83-5.92.41-.19,2.58-1.58,2.72-3.14.21-2.4.74-7.26.74-7.26Z"/><path class="cls-6" d="M73.4,434.8a72.83,72.83,0,0,0,7.24,1.76c2.45.35,5.69-2.6,7.42-1.81,1.91.88,1.72,9.52,1.72,9.52s-25.56,1.51-32.78-.82C54.14,442.53,63.61,438.07,73.4,434.8Z"/><path class="cls-5" d="M132.42,425.31s.6,10.57.6,10.6c.22,1.34,1.09,4.66,1.09,5.88,0,4.58-20.39-3.9-15.82-5.93.41-.18,3.22-2.61,3.36-4.17.21-2.4.1-6.23.1-6.23Z"/><path class="cls-6" d="M118.34,435.82a73.77,73.77,0,0,0,7.24,1.75c2.45.35,5.68-2.6,7.42-1.8,1.91.88,2,8.77,2,8.77s-27.32,2-33.75.13C98.35,443.83,108.55,439.09,118.34,435.82Z"/><path class="cls-6" d="M100.1,272.7l-8.62,3.72L73.34,363,74.08,428l14.54.34s6.76-56.81,6.76-61.21,31.32-77,31.32-77Z"/><path class="cls-6" d="M106.76,277.46s6.35,66.74,6.35,78,5.15,74.22,5.15,74.22l14.58-.09s1-19.19,2.61-47.42c.24-4.42-.32-13.35,0-17.92,2.27-32.93,6.75-63.93,4.61-76.21-.34-2-1-7.15-2.25-8.46C128.26,269.7,106.76,277.46,106.76,277.46Z"/><path class="cls-1" d="M89,224.79l17.64-1.18s.87-15.76.87-23.28c0-9.13,2.78-22.58,1.69-22.32-3.05.71-8.32,3.51-10.77,6.92C90,196.72,89,224.79,89,224.79Z"/><path class="cls-1" d="M130.76,177.66s10.06,1.39,12.71,3.34c3,2.19,6.29,7.09,6.29,7.09s-12.35,58.37-12.37,68.19c0,7.6,2.67,26.25,2.67,26.25s-37.31,2.36-51.45-3.22c0,0,4.47-22.19,4.47-28s5.33-58.81,6.55-62.51c1.1-3.35,3.12-9.39,9.93-10.88S130.76,177.66,130.76,177.66Z"/><path class="cls-7" d="M128,161.94l2.49,16.3S121.42,197.65,116,196c-4.56-1.41-1.75-18.58-1.75-18.58s2.48-9.22,1.73-13.84S128,161.94,128,161.94Z"/><path class="cls-8" d="M116,163.54c-.74-4.61,12.05-1.6,12.05-1.6l.2,1.35a7.57,7.57,0,0,1-1.38,2.28,16.91,16.91,0,0,1-11.18,5A25,25,0,0,0,116,163.54Z"/><path class="cls-7" d="M130.12,138.88c.36-.13,2.89,18.57-1.92,23.71s-14.19,6.83-17.55,2.78c-3.72-4.49-3.53-24.58,3.95-29.87S130.12,138.88,130.12,138.88Z"/><path class="cls-6" d="M117.45,125.5a20.74,20.74,0,0,1,10.9,6.18c2.63.31,6.2,1.75,9.88,7.81,4.53,7.45,1.19,15.71-4.09,19.76s-5.21,8.76-5.21,8.76l-.82-2.45a13.3,13.3,0,0,1-.66-5.7,11.07,11.07,0,0,1,.85-3.43c1.27-2.7-2.73-4.5-3.85-6.75-.86-1.73-.9-5.7-2.26-8.56l-1.62-2.19s-3.75-2.9-7.41-2.08S110,124,117.45,125.5Z"/><path class="cls-7" d="M124.7,153c0,2.28,1,4.14,2.33,4.17s2.43-1.81,2.47-4.09-1-4.15-2.33-4.17S124.74,150.72,124.7,153Z"/><rect class="cls-9" x="87.26" y="219.05" width="4.04" height="31.9" rx="1.32" transform="translate(-157.52 282.84) rotate(-80.17)"/><path class="cls-5" d="M146,185.17c-3.38-.1-6.37,22.22-4.23,24.43s2.56,29.69,2.56,29.69l-31.93-.79h0c-.62-.42-7.31-4.91-8.27-5.89s-5.87-.52-7.16.9,2.86.26,4,1-.86,2.7-.86,2.7-8.09,1.18-9.67-.5-5.79-4.5-6.36-2.83c-.3.86,1.88,3.48,3.1,4.58-1.53-1.15-3.36-2.36-4-2.15-1.15.39-.67,1.85,0,2.27s7,5.34,8,5.68,15.92.7,18.5,1.28c0,0,42.1,9.58,44.49,9,2.1-.52,4.2-14,4.2-24.32S156.58,185.48,146,185.17Z"/><path class="cls-1" d="M141.61,180.08s5.89,1.36,12,8.19c5.53,6.22,9,41,9,41l-19.1,3.09L142,215.55l-5.11-7.7Z"/></g></g></svg>