<svg xmlns="http://www.w3.org/2000/svg" viewBox="0 0 370.56 479.35"><defs><style>.cls-1{fill:#063567;}.cls-2{fill:#f18b7f;}.cls-3{fill:#f4a392;}.cls-4{fill:#184655;}.cls-5{fill:#221e20;}.cls-6{fill:#fbbf09;}.cls-7{fill:#f3a290;}.cls-8{fill:#ee745a;}.cls-9{fill:#0c4a8a;}.cls-10{fill:#fff;}</style></defs><g id="Ebene_2" data-name="Ebene 2"><g id="Ebene_1-2" data-name="Ebene 1"><ellipse class="cls-1" cx="160.08" cy="472.56" rx="160.08" ry="6.79"/><path class="cls-2" d="M118.7,220.16l-1.61-7.31a31.22,31.22,0,0,0-8.32,8.1c-3.06,4.77-4.52,17.47-5.4,18S92.79,224.43,91.1,222.07c-2.1-2.91-2.88-6.25-4.2-8.8s-5.94-3.4-7.69-3.08,2.41,7.75,2.41,7.75,10.51,18.26,14,28.26,14.46,14.77,16.21,13.34S118.7,220.16,118.7,220.16Z"/><path class="cls-3" d="M86.79,214.67s-.44-1.92-1.62-2.31a8,8,0,0,0-3.36,0,24.62,24.62,0,0,1-2.41-1.18l1.88,3.49s3.67,4.33,4.9,2.71S86.79,214.67,86.79,214.67Z"/><path class="cls-2" d="M78.75,211.34s-1.33,6.74-1,8.15,1.18.66,1.34.35c.65-1.26,1.1-5.59,1.1-5.59Z"/><path class="cls-2" d="M81.6,217s-.63,4.18-1.28,4.67c-.42.32-1,.13-1.14-.71s.85-6,.85-6Z"/><path class="cls-4" d="M85.46,228.81l2.2-1.07-9.34-19.17h0a2.45,2.45,0,0,0-1.13,3.27Z"/><path class="cls-5" d="M108.94,190.12c-1.31-6-2.61-12,.87-18.61a16.92,16.92,0,0,1,13.31-9.07c15.95-1.89,12.54,13,34.83,16.22,6.93,1,13.36,2,19.14,5.41,10.45,6.22,14.39,16.2,7.46,32.46-17,39.8-58.58,6-63.72-1.83C117,208.87,109.79,194,108.94,190.12Z"/><path class="cls-3" d="M172.73,441.56s1.14,11.53,4.06,13.65,6.81,10,4.86,14.19a4.91,4.91,0,0,1-3.21,2.51,8.51,8.51,0,0,1-10.21-4.78,24.13,24.13,0,0,1-2-8.8c-.44-9.36-3.36-14.13-3.36-14.13Z"/><path class="cls-3" d="M127.86,446.28s-.92,11.64-.17,15.42c.4,2,2.63,6.19,1.61,8.1a5.14,5.14,0,0,1-2.19,2.38l-26.49.42c-1.44,0-.49-.9.68-1.75,1.9-1.4,3.44-2.32,9.52-5.26.4-.19,1.84-1.11,2.36-1.42a18.7,18.7,0,0,0,3.79-3.34c1.9-2.12,2.07-12.36,2.07-12.36Z"/><path class="cls-5" d="M107.17,291.62s-3.34,18.89-1.15,31.27,12.7,127.19,12.7,127.19l11.68.66s2.45-48,2-54.63-3.9-17.83-3.9-17.83l1.16-38.71L114.93,288.7Z"/><path class="cls-5" d="M141.49,287.64s9.2,13.82,11.39,25.25-1.61,46.57,2.6,61.55c2.28,8.11,10.93,20.63,12.24,31.11s6.47,37.93,6.47,37.93l-11.68,2.31-27.13-68.55-21.28-62-5.45-31.91Z"/><path class="cls-6" d="M134.05,209s8,.92,12.87,6.16-7.79,47.36-8.66,54,7.17,22.22,7.17,22.22-30.09,5.57-38.26.17c0,0-.88-48,0-52.72s8.17-24.14,9.92-26.05S134.05,209,134.05,209Z"/><path class="cls-3" d="M145.44,219.15a4.22,4.22,0,0,0-5.71-2.49c-3.11,1.34-7.4,3.89-9.5,8.26-3.5,7.31-15.77,32.4-19.56,33.35s-19.27-26-19.27-26,.44-4.77-.88-7.47-5.25-5.55-5.84-4.6,2.19,3.33,2.19,3.81-1.16.79-2.77-.16a7.19,7.19,0,0,1-2.48-2.88s-2.63,4.79.14,9.07,3.95,6,3.95,6,18,39.86,24.52,40.33C116.35,276.82,151.58,237.74,145.44,219.15Z"/><path class="cls-7" d="M130,192.81s.07.35.18,1c.54,2.92,2.63,12.62,4.05,15.28,1.7,3.22-5.85,13.49-13.11,12.24-2.17-.38,1.82-9.44,1.63-10.4-.36-1.84-.86-4.34-1.37-6.91-.29-1.45-.58-2.92-.85-4.31l-1.42-7.14Z"/><path class="cls-8" d="M130.17,193.77c-.11-.61-.18-1-.18-1l-10.89-.28,1.42,7.14c.27,1.38.56,2.84.84,4.28a10.22,10.22,0,0,0,5.2-2.6,13.7,13.7,0,0,0,3.94-5.85C130.37,194.82,130.25,194.23,130.17,193.77Z"/><path class="cls-7" d="M123.44,166.93a12.84,12.84,0,0,1,7.66,4.76c3.22,4.16,6.69,17-1.31,24s-15.88-.92-17-9.3S111.8,166.62,123.44,166.93Z"/><path class="cls-7" d="M110.18,183.51c.95,1.85,2.55,2.87,3.57,2.29s1.08-2.57.13-4.42-2.56-2.87-3.58-2.29S109.22,181.66,110.18,183.51Z"/><path class="cls-5" d="M122.09,166.73s6.86,12.21,11.76,12.78,5.55,7.05,5.55,7.05-1.75-14.95-6.61-17.83S122.09,166.73,122.09,166.73Z"/><path class="cls-7" d="M132.25,182.42c-.4,2.17.4,4.15,1.79,4.44s2.84-1.24,3.24-3.41-.41-4.16-1.79-4.44S132.65,180.25,132.25,182.42Z"/><path class="cls-5" d="M167.43,465.06c6.37,1.16,10.6-2.55,12.8-5.33,1.62,3.15,2.61,7.08,1.42,9.67-1.05,2.28-3.9,2.9-6.31,3a6.86,6.86,0,0,1-6.2-3.46A21,21,0,0,1,167.43,465.06Z"/><path class="cls-5" d="M113.18,464.16c7,1.8,12.19.58,15.08-.59.75,2.12,1.74,4.77,1.21,6.29-.64,1.88-1.55,2.3-2.36,2.32-6.4.17-23.44.39-28.31.46a.8.8,0,0,1-.62-1.31C99.39,469.89,112.66,464.48,113.18,464.16Z"/><path id="Rechteck_122" data-name="Rechteck 122" class="cls-9" d="M31.57,0,339.76.8c17.05,0,30.84,13.56,30.8,30.19l-.24,90.33c0,16.63-13.9,30.08-30.95,30l-308.19-.79c-17-.05-30.84-13.57-30.8-30.2L.61,30C.66,13.4,14.52,0,31.57,0Z"/><path id="Polygon_4" data-name="Polygon 4" class="cls-9" d="M85,183.33l-31.25-34.7L72.4,138.36Z"/><path class="cls-10" d="M28.83,24.55a2.44,2.44,0,0,1,.55,1.64,2.24,2.24,0,0,1-.91,1.92,4.59,4.59,0,0,1-2.7.67H21.4V19h4.09a4.09,4.09,0,0,1,2.48.65,2.16,2.16,0,0,1,.89,1.85,2.31,2.31,0,0,1-.44,1.42,2.36,2.36,0,0,1-1.2.82A2.74,2.74,0,0,1,28.83,24.55Zm-6.72-5V23.5h3.35a3.36,3.36,0,0,0,2-.5,1.69,1.69,0,0,0,.69-1.46,1.67,1.67,0,0,0-.69-1.45,3.36,3.36,0,0,0-2-.5Zm5.82,8.07a1.71,1.71,0,0,0,.73-1.53,1.68,1.68,0,0,0-.73-1.52,3.88,3.88,0,0,0-2.16-.49H22.11v4h3.66A3.79,3.79,0,0,0,27.93,27.66Z"/><path class="cls-10" d="M37.88,25.29H31.59A3.06,3.06,0,0,0,32,26.81a2.86,2.86,0,0,0,1.1,1,3.38,3.38,0,0,0,1.56.36A3.25,3.25,0,0,0,36,27.94a2.53,2.53,0,0,0,1-.76l.41.46a3.15,3.15,0,0,1-1.2.89,4.25,4.25,0,0,1-3.51-.17A3.51,3.51,0,0,1,31.39,27a3.81,3.81,0,0,1-.49-1.92,4,4,0,0,1,.46-1.91,3.38,3.38,0,0,1,3-1.8,3.47,3.47,0,0,1,1.79.47,3.42,3.42,0,0,1,1.25,1.31,4,4,0,0,1,.45,1.91ZM33,22.37a2.63,2.63,0,0,0-1,1,3.11,3.11,0,0,0-.43,1.41h5.6a2.74,2.74,0,0,0-.42-1.4,2.63,2.63,0,0,0-1-1,3,3,0,0,0-2.77,0Z"/><path class="cls-10" d="M44.93,28.18v.6H39.12V28.3l4.82-6.23H39.19v-.6h5.66V22L40,28.18Z"/><path class="cls-10" d="M53.43,21.47v7.31h-.67V27.21a2.73,2.73,0,0,1-1.08,1.2,3.27,3.27,0,0,1-1.68.42A3.06,3.06,0,0,1,47.76,28a3.1,3.1,0,0,1-.81-2.3V21.47h.7v4.21a2.57,2.57,0,0,0,.63,1.88,2.37,2.37,0,0,0,1.78.64A2.52,2.52,0,0,0,52,27.43a2.9,2.9,0,0,0,.72-2.07V21.47Zm-4.79-1.72a.45.45,0,0,1-.15-.35.5.5,0,0,1,.15-.37.48.48,0,0,1,.35-.14.51.51,0,0,1,.51.51.43.43,0,0,1-.16.35.49.49,0,0,1-.35.15A.45.45,0,0,1,48.64,19.75Zm2.41,0a.45.45,0,0,1-.15-.35A.52.52,0,0,1,51,19a.49.49,0,0,1,.36-.15.52.52,0,0,1,.36.14.49.49,0,0,1,.14.37.45.45,0,0,1-.14.35.49.49,0,0,1-.36.15A.49.49,0,0,1,51.05,19.75Z"/><path class="cls-10" d="M63,21.47V28a3.66,3.66,0,0,1-.88,2.69,3.66,3.66,0,0,1-2.66.87,5.71,5.71,0,0,1-1.91-.31,3.63,3.63,0,0,1-1.44-.85l.38-.53a4,4,0,0,0,1.31.78,4.71,4.71,0,0,0,1.64.28,3,3,0,0,0,2.16-.69,3,3,0,0,0,.7-2.15V26.85A3.15,3.15,0,0,1,61,28.08a3.67,3.67,0,0,1-1.79.43,3.81,3.81,0,0,1-1.85-.45,3.34,3.34,0,0,1-1.31-1.27,3.75,3.75,0,0,1,0-3.67,3.25,3.25,0,0,1,1.31-1.26,3.81,3.81,0,0,1,1.85-.45,3.69,3.69,0,0,1,1.82.45,3.1,3.1,0,0,1,1.25,1.26V21.47Zm-2.14,6a2.74,2.74,0,0,0,1.07-1,3.21,3.21,0,0,0,0-3,2.86,2.86,0,0,0-1.07-1,3.39,3.39,0,0,0-3.08,0,2.83,2.83,0,0,0-1.06,1,3.14,3.14,0,0,0,0,3,2.72,2.72,0,0,0,1.06,1,3.39,3.39,0,0,0,3.08,0Z"/><path class="cls-10" d="M66,18.39h.7V28.78H66Z"/><path class="cls-10" d="M69.54,19.53a.58.58,0,0,1,0-.8.54.54,0,0,1,.41-.17.57.57,0,0,1,.41.16.58.58,0,0,1,0,.8.54.54,0,0,1-.41.17A.57.57,0,0,1,69.54,19.53Zm.06,1.94h.7v7.31h-.7Z"/><path class="cls-10" d="M74.25,28.36A3.44,3.44,0,0,1,72.93,27a4.14,4.14,0,0,1,0-3.83,3.42,3.42,0,0,1,1.32-1.32,3.85,3.85,0,0,1,1.9-.47,3.65,3.65,0,0,1,1.6.35,2.84,2.84,0,0,1,1.17,1l-.51.38a2.48,2.48,0,0,0-1-.82A2.83,2.83,0,0,0,76.15,22a3,3,0,0,0-1.53.39,2.85,2.85,0,0,0-1.07,1.08,3.39,3.39,0,0,0-.38,1.61,3.33,3.33,0,0,0,.38,1.61,2.8,2.8,0,0,0,1.07,1.09,3,3,0,0,0,1.53.38,3,3,0,0,0,1.28-.27,2.48,2.48,0,0,0,1-.82l.51.38a2.84,2.84,0,0,1-1.17,1,3.64,3.64,0,0,1-1.6.34A3.85,3.85,0,0,1,74.25,28.36Z"/><path class="cls-10" d="M86.64,22.21a3.12,3.12,0,0,1,.8,2.3v4.27h-.7V24.56a2.56,2.56,0,0,0-.63-1.87A2.29,2.29,0,0,0,84.37,22a2.69,2.69,0,0,0-2,.77,2.91,2.91,0,0,0-.74,2.08v3.89h-.7V18.39h.7V23a2.59,2.59,0,0,1,1.12-1.17,3.49,3.49,0,0,1,1.75-.42A3,3,0,0,1,86.64,22.21Z"/><path class="cls-10" d="M103,18.39V28.78h-.69V27.06a3.16,3.16,0,0,1-1.22,1.31,3.4,3.4,0,0,1-1.78.46,3.68,3.68,0,0,1-1.84-.47A3.43,3.43,0,0,1,96.2,27a4.16,4.16,0,0,1,0-3.84,3.37,3.37,0,0,1,1.3-1.32,3.68,3.68,0,0,1,1.84-.47,3.36,3.36,0,0,1,1.76.47,3.23,3.23,0,0,1,1.23,1.28V18.39Zm-2.14,9.42a2.82,2.82,0,0,0,1-1.09,3.24,3.24,0,0,0,.39-1.6,3.2,3.2,0,0,0-.39-1.59,2.92,2.92,0,0,0-5.11,0,3.2,3.2,0,0,0-.38,1.59,3.24,3.24,0,0,0,.38,1.6,2.82,2.82,0,0,0,1,1.09,2.93,2.93,0,0,0,1.51.39A2.89,2.89,0,0,0,100.89,27.81Z"/><path class="cls-10" d="M112.15,25.29h-6.28a3.06,3.06,0,0,0,.43,1.52,2.8,2.8,0,0,0,1.1,1,3.32,3.32,0,0,0,1.56.36,3.18,3.18,0,0,0,1.32-.26,2.49,2.49,0,0,0,1-.76l.41.46a3.15,3.15,0,0,1-1.2.89,4.25,4.25,0,0,1-3.51-.17A3.54,3.54,0,0,1,105.66,27a3.8,3.8,0,0,1-.48-1.92,3.91,3.91,0,0,1,.46-1.91,3.38,3.38,0,0,1,3-1.8,3.49,3.49,0,0,1,1.79.47,3.4,3.4,0,0,1,1.24,1.31,3.88,3.88,0,0,1,.46,1.91Zm-4.85-2.92a2.56,2.56,0,0,0-1,1,3.11,3.11,0,0,0-.43,1.41h5.6a3,3,0,0,0-.42-1.4,2.63,2.63,0,0,0-1-1,2.81,2.81,0,0,0-1.39-.35A2.77,2.77,0,0,0,107.3,22.37Z"/><path class="cls-10" d="M116.06,21.84a3.37,3.37,0,0,1,1.74-.43v.69h-.17a2.44,2.44,0,0,0-1.91.76A3.08,3.08,0,0,0,115,25v3.81h-.7V21.47H115v1.6A2.49,2.49,0,0,1,116.06,21.84Z"/><path class="cls-10" d="M133.06,21.25l-3.17,7.53h-2.26l-3.16-7.53h2.25l2.09,5.12L131,21.25Z"/><path class="cls-10" d="M141.09,25.63h-5.7a1.74,1.74,0,0,0,.73,1.1,2.38,2.38,0,0,0,1.42.41,2.85,2.85,0,0,0,1.05-.18,2.44,2.44,0,0,0,.84-.55l1.17,1.26a3.92,3.92,0,0,1-3.11,1.22,5,5,0,0,1-2.26-.5A3.67,3.67,0,0,1,133.72,27a4.05,4.05,0,0,1,0-4,3.66,3.66,0,0,1,1.45-1.39,4.43,4.43,0,0,1,4.05,0A3.48,3.48,0,0,1,140.62,23a4.13,4.13,0,0,1,.51,2.07S141.11,25.26,141.09,25.63ZM136,23.21a1.75,1.75,0,0,0-.62,1.14h3.71a1.79,1.79,0,0,0-1.85-1.56A1.86,1.86,0,0,0,136,23.21Z"/><path class="cls-10" d="M145.73,21.41a4,4,0,0,1,1.53-.28v2l-.49,0a2,2,0,0,0-1.47.53,2.09,2.09,0,0,0-.53,1.57v3.56h-2.19V21.25h2.09v1A2.45,2.45,0,0,1,145.73,21.41Z"/><path class="cls-10" d="M151.8,25.82l-1.05,1v1.92h-2.19V18.39h2.19v5.88l3.19-3h2.6l-3.13,3.19,3.41,4.34h-2.64Z"/><path class="cls-10" d="M163.39,22a3.19,3.19,0,0,1,.94,2.51v4.3h-2.05v-.94A2.42,2.42,0,0,1,160,28.89a3.7,3.7,0,0,1-1.51-.29,2.25,2.25,0,0,1-1-.82,2,2,0,0,1-.34-1.17A2,2,0,0,1,158,25a4,4,0,0,1,2.45-.61h1.73a1.4,1.4,0,0,0-.43-1.1,2,2,0,0,0-1.3-.38,3.71,3.71,0,0,0-1.19.19,2.94,2.94,0,0,0-1,.51L157.45,22a4.69,4.69,0,0,1,1.48-.67,6.52,6.52,0,0,1,1.77-.24A3.91,3.91,0,0,1,163.39,22Zm-1.86,5.19a1.45,1.45,0,0,0,.61-.76v-.77h-1.5c-.89,0-1.34.29-1.34.88a.77.77,0,0,0,.33.66,1.44,1.44,0,0,0,.9.25A2,2,0,0,0,161.53,27.16Z"/><path class="cls-10" d="M173.89,21.25v7.53h-2.07v-.9a2.86,2.86,0,0,1-1,.75,3.32,3.32,0,0,1-1.3.26,3.22,3.22,0,0,1-2.35-.85,3.42,3.42,0,0,1-.87-2.54V21.25h2.18v3.93c0,1.21.51,1.82,1.53,1.82a1.65,1.65,0,0,0,1.26-.51A2.2,2.2,0,0,0,171.7,25V21.25Z"/><path class="cls-10" d="M178.31,21.41h1.93v1.68h-1.87v5.69h-2.19V23.09H175V21.41h1.16v-.33a2.77,2.77,0,0,1,.77-2,2.91,2.91,0,0,1,2.15-.75,4.08,4.08,0,0,1,.93.1,2.23,2.23,0,0,1,.73.3l-.57,1.59a1.48,1.48,0,0,0-.88-.27c-.67,0-1,.36-1,1.09Z"/><path class="cls-10" d="M186.19,28.41a2.14,2.14,0,0,1-.79.36,3.93,3.93,0,0,1-1,.12,2.92,2.92,0,0,1-2.08-.69,2.61,2.61,0,0,1-.74-2v-3.1h-1.16V21.41h1.16V19.58h2.19v1.83h1.87v1.68h-1.87v3.07a1,1,0,0,0,.24.73.87.87,0,0,0,.69.26,1.41,1.41,0,0,0,.89-.28Z"/><path class="cls-10" d="M194.52,25.63h-5.69a1.77,1.77,0,0,0,.72,1.1,2.44,2.44,0,0,0,1.43.41,2.8,2.8,0,0,0,1-.18,2.39,2.39,0,0,0,.85-.55L194,27.67a3.9,3.9,0,0,1-3.1,1.22,5,5,0,0,1-2.26-.5A3.61,3.61,0,0,1,187.16,27a3.72,3.72,0,0,1-.53-2,3.81,3.81,0,0,1,.52-2,3.63,3.63,0,0,1,1.44-1.39,4.29,4.29,0,0,1,2-.5,4.2,4.2,0,0,1,2,.48,3.52,3.52,0,0,1,1.4,1.36,4.13,4.13,0,0,1,.52,2.07S194.55,25.26,194.52,25.63Zm-5.11-2.42a1.78,1.78,0,0,0-.61,1.14h3.71a1.84,1.84,0,0,0-.62-1.14,2,2,0,0,0-2.48,0Z"/><path class="cls-10" d="M202.86,22a3.35,3.35,0,0,1,.86,2.5v4.31h-2.18v-4a1.93,1.93,0,0,0-.4-1.34A1.43,1.43,0,0,0,200,23a1.72,1.72,0,0,0-1.31.51,2.12,2.12,0,0,0-.5,1.52v3.73H196V21.25h2.09v.88a3,3,0,0,1,1.07-.74,3.86,3.86,0,0,1,1.42-.26A3.1,3.1,0,0,1,202.86,22Z"/><path class="cls-10" d="M219.19,19.41a3.4,3.4,0,0,1,1.48,1.23,3.69,3.69,0,0,1,0,3.78,3.4,3.4,0,0,1-1.48,1.23,5.59,5.59,0,0,1-2.26.43h-2v2.7h-2.27V19h4.24A5.43,5.43,0,0,1,219.19,19.41Zm-.83,4.38a1.76,1.76,0,0,0,0-2.52,2.38,2.38,0,0,0-1.56-.44H215v3.4h1.84A2.44,2.44,0,0,0,218.36,23.79Z"/><path class="cls-10" d="M225.78,21.41a4.11,4.11,0,0,1,1.54-.28v2l-.49,0a2,2,0,0,0-1.47.53,2.09,2.09,0,0,0-.53,1.57v3.56h-2.19V21.25h2.09v1A2.48,2.48,0,0,1,225.78,21.41Z"/><path class="cls-10" d="M230,28.39A3.72,3.72,0,0,1,228.52,27a4,4,0,0,1,0-4A3.72,3.72,0,0,1,230,21.63a4.52,4.52,0,0,1,2.13-.5,4.47,4.47,0,0,1,2.13.5A3.63,3.63,0,0,1,235.73,23a4,4,0,0,1,0,4,3.63,3.63,0,0,1-1.47,1.38,4.47,4.47,0,0,1-2.13.5A4.52,4.52,0,0,1,230,28.39Zm3.51-1.86a2.41,2.41,0,0,0,0-3,2,2,0,0,0-2.76,0,2.38,2.38,0,0,0,0,3,2,2,0,0,0,2.76,0Z"/><path class="cls-10" d="M245.39,18.39V28.78h-2.08v-.87a2.91,2.91,0,0,1-2.36,1,3.85,3.85,0,0,1-1.92-.48,3.37,3.37,0,0,1-1.35-1.35,4.51,4.51,0,0,1,0-4.09A3.4,3.4,0,0,1,239,21.61a3.85,3.85,0,0,1,1.92-.48,2.89,2.89,0,0,1,2.26.91V18.39Zm-2.69,8.14a2.38,2.38,0,0,0,0-3,2,2,0,0,0-2.75,0,2.38,2.38,0,0,0,0,3,1.94,1.94,0,0,0,2.75,0Z"/><path class="cls-10" d="M255,21.25v7.53h-2.08v-.9a2.82,2.82,0,0,1-1,.75,3.32,3.32,0,0,1-1.3.26,3.26,3.26,0,0,1-2.36-.85,3.45,3.45,0,0,1-.86-2.54V21.25h2.18v3.93c0,1.21.51,1.82,1.53,1.82a1.65,1.65,0,0,0,1.26-.51,2.2,2.2,0,0,0,.47-1.52V21.25Z"/><path class="cls-10" d="M260.26,25.82l-1.05,1v1.92H257V18.39h2.18v5.88l3.19-3H265l-3.14,3.19,3.42,4.34h-2.65Z"/><path class="cls-10" d="M271.12,28.41a2.14,2.14,0,0,1-.79.36,3.93,3.93,0,0,1-1,.12,2.92,2.92,0,0,1-2.08-.69,2.61,2.61,0,0,1-.74-2v-3.1h-1.16V21.41h1.16V19.58h2.19v1.83h1.87v1.68h-1.87v3.07a1,1,0,0,0,.24.73.88.88,0,0,0,.69.26,1.41,1.41,0,0,0,.89-.28Z"/><path class="cls-10" d="M275.59,25.82l-1,1v1.92h-2.18V18.39h2.18v5.88l3.19-3h2.61l-3.14,3.19,3.42,4.34H278Z"/><path class="cls-10" d="M287.18,22a3.16,3.16,0,0,1,.94,2.51v4.3h-2v-.94a2.44,2.44,0,0,1-2.3,1.05,3.62,3.62,0,0,1-1.5-.29,2.28,2.28,0,0,1-1-.82,2.11,2.11,0,0,1-.33-1.17,2,2,0,0,1,.79-1.65,4,4,0,0,1,2.44-.61h1.74a1.41,1.41,0,0,0-.44-1.1,1.94,1.94,0,0,0-1.3-.38,3.64,3.64,0,0,0-1.18.19,2.9,2.9,0,0,0-1,.51L281.25,22a4.74,4.74,0,0,1,1.47-.67,6.63,6.63,0,0,1,1.77-.24A3.89,3.89,0,0,1,287.18,22Zm-1.86,5.19a1.47,1.47,0,0,0,.62-.76v-.77h-1.5c-.9,0-1.35.29-1.35.88a.77.77,0,0,0,.33.66,1.45,1.45,0,0,0,.91.25A1.92,1.92,0,0,0,285.32,27.16Z"/><path class="cls-10" d="M295,28.41a2.21,2.21,0,0,1-.79.36,4,4,0,0,1-1,.12,2.93,2.93,0,0,1-2.08-.69,2.64,2.64,0,0,1-.73-2v-3.1H289.2V21.41h1.16V19.58h2.18v1.83h1.88v1.68h-1.88v3.07a1,1,0,0,0,.25.73.87.87,0,0,0,.69.26,1.36,1.36,0,0,0,.88-.28Z"/><path class="cls-10" d="M303.28,25.63h-5.7a1.82,1.82,0,0,0,.73,1.1,2.42,2.42,0,0,0,1.43.41,2.8,2.8,0,0,0,1-.18,2.39,2.39,0,0,0,.85-.55l1.16,1.26a3.91,3.91,0,0,1-3.11,1.22,4.91,4.91,0,0,1-2.25-.5A3.61,3.61,0,0,1,295.92,27a3.72,3.72,0,0,1-.53-2,3.81,3.81,0,0,1,.52-2,3.63,3.63,0,0,1,1.44-1.39,4.26,4.26,0,0,1,2-.5,4.2,4.2,0,0,1,2,.48,3.52,3.52,0,0,1,1.4,1.36,4.13,4.13,0,0,1,.51,2.07S303.31,25.26,303.28,25.63Zm-5.11-2.42a1.78,1.78,0,0,0-.61,1.14h3.71a1.84,1.84,0,0,0-.62-1.14,2,2,0,0,0-2.48,0Z"/><path class="cls-10" d="M312.55,21.25v6.27a4,4,0,0,1-1.08,3.08,4.46,4.46,0,0,1-3.15,1,7.72,7.72,0,0,1-2.07-.27,4.57,4.57,0,0,1-1.63-.77l.87-1.57a3.53,3.53,0,0,0,1.21.62,4.59,4.59,0,0,0,1.45.24,2.38,2.38,0,0,0,1.68-.52,2,2,0,0,0,.54-1.54v-.32a3.08,3.08,0,0,1-2.38.93,4,4,0,0,1-1.9-.45,3.45,3.45,0,0,1-1.37-1.28,3.88,3.88,0,0,1,0-3.81,3.45,3.45,0,0,1,1.37-1.28,4,4,0,0,1,1.9-.46,3,3,0,0,1,2.49,1.08v-1Zm-2.71,4.86a1.74,1.74,0,0,0,.55-1.34,1.71,1.71,0,0,0-.55-1.33,2,2,0,0,0-1.42-.51,2.05,2.05,0,0,0-1.43.51,1.72,1.72,0,0,0-.56,1.33,1.74,1.74,0,0,0,.56,1.34,2.05,2.05,0,0,0,1.43.51A2,2,0,0,0,309.84,26.11Z"/><path class="cls-10" d="M316,28.39A3.72,3.72,0,0,1,314.55,27a4,4,0,0,1,0-4A3.72,3.72,0,0,1,316,21.63a4.52,4.52,0,0,1,2.13-.5,4.47,4.47,0,0,1,2.13.5A3.63,3.63,0,0,1,321.76,23a4,4,0,0,1,0,4,3.63,3.63,0,0,1-1.47,1.38,4.47,4.47,0,0,1-2.13.5A4.52,4.52,0,0,1,316,28.39Zm3.51-1.86a2.41,2.41,0,0,0,0-3,2,2,0,0,0-2.76,0,2.38,2.38,0,0,0,0,3,2,2,0,0,0,2.76,0Z"/><path class="cls-10" d="M326.89,21.41a4.11,4.11,0,0,1,1.54-.28v2l-.49,0a2,2,0,0,0-1.47.53,2.09,2.09,0,0,0-.54,1.57v3.56h-2.18V21.25h2.09v1A2.48,2.48,0,0,1,326.89,21.41Z"/><path class="cls-10" d="M329.84,19.85a1.17,1.17,0,0,1-.38-.87,1.14,1.14,0,0,1,.38-.87,1.56,1.56,0,0,1,2,0,1.07,1.07,0,0,1,.38.84,1.2,1.2,0,0,1-.38.9,1.36,1.36,0,0,1-1,.36A1.4,1.4,0,0,1,329.84,19.85Zm-.11,1.4h2.18v7.53h-2.18Z"/><path class="cls-10" d="M341.28,25.63h-5.7a1.74,1.74,0,0,0,.73,1.1,2.42,2.42,0,0,0,1.43.41,2.8,2.8,0,0,0,1-.18,2.57,2.57,0,0,0,.85-.55l1.16,1.26a3.92,3.92,0,0,1-3.11,1.22,4.91,4.91,0,0,1-2.25-.5A3.64,3.64,0,0,1,333.91,27a4,4,0,0,1,0-4,3.63,3.63,0,0,1,1.44-1.39,4.23,4.23,0,0,1,2-.5,4.16,4.16,0,0,1,2,.48A3.48,3.48,0,0,1,340.81,23a4.13,4.13,0,0,1,.51,2.07S341.31,25.26,341.28,25.63Zm-5.11-2.42a1.79,1.79,0,0,0-.62,1.14h3.71a1.83,1.83,0,0,0-.61-1.14,2,2,0,0,0-2.48,0Z"/><path class="cls-10" d="M349.61,22a3.32,3.32,0,0,1,.87,2.5v4.31h-2.19v-4a2,2,0,0,0-.39-1.34,1.45,1.45,0,0,0-1.13-.44,1.74,1.74,0,0,0-1.32.51,2.12,2.12,0,0,0-.49,1.52v3.73h-2.18V21.25h2.08v.88a3,3,0,0,1,1.08-.74,3.8,3.8,0,0,1,1.41-.26A3.08,3.08,0,0,1,349.61,22Z"/><path class="cls-10" d="M27.67,35.19V45.58H27V43.86a3.13,3.13,0,0,1-1.21,1.31,3.45,3.45,0,0,1-1.78.46,3.71,3.71,0,0,1-1.85-.47,3.41,3.41,0,0,1-1.29-1.32,4.16,4.16,0,0,1,0-3.84,3.34,3.34,0,0,1,1.29-1.32A3.71,3.71,0,0,1,24,38.21a3.47,3.47,0,0,1,1.76.46A3.37,3.37,0,0,1,27,40V35.19Zm-2.13,9.42a2.82,2.82,0,0,0,1.05-1.09,3.35,3.35,0,0,0,.38-1.6,3.31,3.31,0,0,0-.38-1.59,2.82,2.82,0,0,0-1.05-1.09,2.87,2.87,0,0,0-1.51-.4,2.81,2.81,0,0,0-1.5.4,2.69,2.69,0,0,0-1.05,1.09,3.2,3.2,0,0,0-.39,1.59,3.24,3.24,0,0,0,.39,1.6,2.69,2.69,0,0,0,1.05,1.09A2.89,2.89,0,0,0,24,45,3,3,0,0,0,25.54,44.61Z"/><path class="cls-10" d="M36.8,42.09H30.51A3.07,3.07,0,0,0,31,43.61a2.73,2.73,0,0,0,1.1,1,3.32,3.32,0,0,0,1.56.36,3.24,3.24,0,0,0,1.32-.26,2.46,2.46,0,0,0,1-.76l.41.46a3.15,3.15,0,0,1-1.2.89,4.22,4.22,0,0,1-3.5-.17,3.47,3.47,0,0,1-1.34-1.32,3.8,3.8,0,0,1-.48-1.92A4,4,0,0,1,30.28,40a3.38,3.38,0,0,1,1.25-1.32A3.45,3.45,0,0,1,36.36,40a4,4,0,0,1,.45,1.91Zm-4.86-2.92a2.63,2.63,0,0,0-1,1,3.11,3.11,0,0,0-.42,1.41h5.6a3,3,0,0,0-.42-1.4,2.73,2.73,0,0,0-1-1,3,3,0,0,0-2.77,0Z"/><path class="cls-10" d="M40.7,38.64a3.4,3.4,0,0,1,1.74-.43v.69l-.17,0a2.43,2.43,0,0,0-1.9.77,3,3,0,0,0-.69,2.12v3.81H39V38.27h.67v1.6A2.55,2.55,0,0,1,40.7,38.64Z"/><path class="cls-10" d="M49.71,35.19h.7V45.58h-.7Z"/><path class="cls-10" d="M59.54,42.09H53.25a3.06,3.06,0,0,0,.43,1.52,2.8,2.8,0,0,0,1.1,1,3.32,3.32,0,0,0,1.56.36,3.25,3.25,0,0,0,1.33-.26,2.53,2.53,0,0,0,1-.76l.41.46a3.15,3.15,0,0,1-1.2.89,4.25,4.25,0,0,1-3.51-.17,3.44,3.44,0,0,1-1.33-1.32,3.71,3.71,0,0,1-.49-1.92A3.91,3.91,0,0,1,53,40a3.38,3.38,0,0,1,3-1.8,3.47,3.47,0,0,1,1.79.47A3.33,3.33,0,0,1,59.09,40a3.88,3.88,0,0,1,.46,1.91Zm-4.86-2.92a2.63,2.63,0,0,0-1,1,3.11,3.11,0,0,0-.43,1.41h5.6a2.74,2.74,0,0,0-.42-1.4,2.63,2.63,0,0,0-1-1,3,3,0,0,0-2.77,0Z"/><path class="cls-10" d="M65.35,45.12a1.89,1.89,0,0,1-.67.38,2.57,2.57,0,0,1-.83.13,2,2,0,0,1-1.47-.52,2,2,0,0,1-.52-1.46V38.87H60.51v-.6h1.35v-1.6h.7v1.6h2.32v.6H62.56v4.71a1.54,1.54,0,0,0,.34,1.08,1.32,1.32,0,0,0,1,.37,1.63,1.63,0,0,0,1.13-.4Z"/><path class="cls-10" d="M72.23,45v.6H66.42V45.1l4.82-6.23H66.49v-.6h5.66v.48L67.32,45Z"/><path class="cls-10" d="M78,45.12a1.85,1.85,0,0,1-.66.38,2.63,2.63,0,0,1-.84.13A2,2,0,0,1,75,45.11a2,2,0,0,1-.51-1.46V38.87H73.14v-.6h1.35v-1.6h.7v1.6h2.32v.6H75.19v4.71a1.54,1.54,0,0,0,.34,1.08,1.31,1.31,0,0,0,1,.37,1.64,1.64,0,0,0,1.14-.4Z"/><path class="cls-10" d="M85.83,42.09H79.54A3.06,3.06,0,0,0,80,43.61a2.86,2.86,0,0,0,1.1,1,3.38,3.38,0,0,0,1.56.36A3.25,3.25,0,0,0,84,44.74,2.53,2.53,0,0,0,85,44l.41.46a3.15,3.15,0,0,1-1.2.89,4.25,4.25,0,0,1-3.51-.17,3.51,3.51,0,0,1-1.33-1.32,3.81,3.81,0,0,1-.49-1.92A4,4,0,0,1,79.31,40a3.38,3.38,0,0,1,3-1.8,3.47,3.47,0,0,1,1.79.47A3.42,3.42,0,0,1,85.39,40a4,4,0,0,1,.45,1.91ZM81,39.17a2.63,2.63,0,0,0-1,1,3.11,3.11,0,0,0-.43,1.41h5.6a2.74,2.74,0,0,0-.42-1.4,2.63,2.63,0,0,0-1-1,3,3,0,0,0-2.77,0Z"/><path class="cls-10" d="M93.75,39a3.12,3.12,0,0,1,.8,2.3v4.27h-.7V41.36a2.6,2.6,0,0,0-.62-1.87,2.33,2.33,0,0,0-1.75-.65,2.71,2.71,0,0,0-2,.77,2.91,2.91,0,0,0-.74,2.08v3.89H88V38.27h.67v1.58a2.78,2.78,0,0,1,1.13-1.2,3.47,3.47,0,0,1,1.77-.44A2.93,2.93,0,0,1,93.75,39Z"/><path class="cls-10" d="M104.39,35.78v9.8h-.71V36.42h-2.4v-.64Z"/><path class="cls-10" d="M113.41,44.93v.65h-6.74v-.51L110.82,41a6,6,0,0,0,1.1-1.4,2.63,2.63,0,0,0,.28-1.19,1.81,1.81,0,0,0-.63-1.47,2.78,2.78,0,0,0-1.84-.53,4.23,4.23,0,0,0-1.62.28,3.14,3.14,0,0,0-1.2.85l-.5-.45a3.57,3.57,0,0,1,1.42-1,5,5,0,0,1,2-.35,3.51,3.51,0,0,1,2.3.7,2.29,2.29,0,0,1,.85,1.89,3.3,3.3,0,0,1-.33,1.44,6.65,6.65,0,0,1-1.26,1.6l-3.62,3.59Z"/><path class="cls-10" d="M130.17,45.58l0-8.39-4.1,7.09h-.35l-4.1-7.06v8.36h-.7v-9.8h.6l4.38,7.57,4.38-7.57h.59l0,9.8Z"/><path class="cls-10" d="M135.05,45.16a3.35,3.35,0,0,1-1.31-1.33,4,4,0,0,1,0-3.82,3.39,3.39,0,0,1,1.31-1.32,3.63,3.63,0,0,1,1.86-.48,3.67,3.67,0,0,1,1.87.48A3.46,3.46,0,0,1,140.09,40a4,4,0,0,1,0,3.82,3.42,3.42,0,0,1-1.31,1.33,3.76,3.76,0,0,1-1.87.47A3.72,3.72,0,0,1,135.05,45.16Zm3.37-.55a2.82,2.82,0,0,0,1.05-1.09,3.24,3.24,0,0,0,.38-1.6,3.2,3.2,0,0,0-.38-1.59,2.92,2.92,0,0,0-5.11,0,3.2,3.2,0,0,0-.39,1.59,3.24,3.24,0,0,0,.39,1.6,2.82,2.82,0,0,0,1,1.09,2.89,2.89,0,0,0,1.5.39A2.93,2.93,0,0,0,138.42,44.61Z"/><path class="cls-10" d="M148.48,39a3.12,3.12,0,0,1,.8,2.3v4.27h-.7V41.36a2.56,2.56,0,0,0-.63-1.87,2.29,2.29,0,0,0-1.74-.65,2.69,2.69,0,0,0-2,.77,2.86,2.86,0,0,0-.74,2.08v3.89h-.7V38.27h.67v1.58a2.78,2.78,0,0,1,1.13-1.2,3.47,3.47,0,0,1,1.77-.44A3,3,0,0,1,148.48,39Z"/><path class="cls-10" d="M156.71,38.91a2.69,2.69,0,0,1,.73,2v4.64h-.67v-1.3a2.55,2.55,0,0,1-1,1,3.45,3.45,0,0,1-1.61.35,3,3,0,0,1-1.92-.57,1.86,1.86,0,0,1-.71-1.51,1.88,1.88,0,0,1,.65-1.48,3.13,3.13,0,0,1,2.08-.57h2.51v-.58a2.07,2.07,0,0,0-.56-1.56,2.23,2.23,0,0,0-1.61-.53,3.9,3.9,0,0,0-1.4.25,3.55,3.55,0,0,0-1.12.67l-.35-.5a3.77,3.77,0,0,1,1.31-.76,4.62,4.62,0,0,1,1.61-.28A2.89,2.89,0,0,1,156.71,38.91Zm-.93,5.73a2.63,2.63,0,0,0,1-1.22V42.05h-2.49a2.53,2.53,0,0,0-1.57.39,1.31,1.31,0,0,0-.48,1.08,1.37,1.37,0,0,0,.53,1.13,2.45,2.45,0,0,0,1.5.41A2.76,2.76,0,0,0,155.78,44.64Z"/><path class="cls-10" d="M164,45.12a1.89,1.89,0,0,1-.67.38,2.53,2.53,0,0,1-.83.13,1.81,1.81,0,0,1-2-2V38.87h-1.34v-.6h1.34v-1.6h.7v1.6h2.33v.6h-2.33v4.71a1.59,1.59,0,0,0,.34,1.08,1.32,1.32,0,0,0,1,.37,1.61,1.61,0,0,0,1.13-.4Z"/><path class="cls-10" d="M171.8,42.09h-6.28a3,3,0,0,0,.43,1.52,2.8,2.8,0,0,0,1.1,1,3.32,3.32,0,0,0,1.56.36,3.18,3.18,0,0,0,1.32-.26,2.49,2.49,0,0,0,1-.76l.4.46a3,3,0,0,1-1.19.89,4.25,4.25,0,0,1-3.51-.17,3.47,3.47,0,0,1-1.34-1.32,3.8,3.8,0,0,1-.48-1.92,4,4,0,0,1,.45-1.91,3.48,3.48,0,0,1,1.26-1.32,3.59,3.59,0,0,1,3.57,0A3.35,3.35,0,0,1,171.36,40a4,4,0,0,1,.46,1.91Zm-4.86-2.92a2.54,2.54,0,0,0-1,1,3.11,3.11,0,0,0-.43,1.41h5.6a3,3,0,0,0-.42-1.4,2.63,2.63,0,0,0-1-1,2.84,2.84,0,0,0-1.39-.35A2.81,2.81,0,0,0,166.94,39.17Z"/><path class="cls-10" d="M184.93,39a3.08,3.08,0,0,1,.8,2.3v4.27H185V41.36a2.6,2.6,0,0,0-.62-1.87,2.32,2.32,0,0,0-1.74-.65,2.69,2.69,0,0,0-2,.77,2.87,2.87,0,0,0-.75,2.08v3.89h-.7V35.19h.7V39.8A2.7,2.7,0,0,1,181,38.63a3.51,3.51,0,0,1,1.75-.42A2.93,2.93,0,0,1,184.93,39Z"/><path class="cls-10" d="M193.17,38.91a2.69,2.69,0,0,1,.72,2v4.64h-.67v-1.3a2.46,2.46,0,0,1-1,1,3.48,3.48,0,0,1-1.61.35,3,3,0,0,1-1.92-.57,1.83,1.83,0,0,1-.71-1.51,1.88,1.88,0,0,1,.65-1.48,3.12,3.12,0,0,1,2.08-.57h2.5v-.58a2.06,2.06,0,0,0-.55-1.56,2.27,2.27,0,0,0-1.62-.53,3.85,3.85,0,0,0-1.39.25,3.6,3.6,0,0,0-1.13.67l-.35-.5a3.91,3.91,0,0,1,1.32-.76,4.58,4.58,0,0,1,1.61-.28A2.89,2.89,0,0,1,193.17,38.91Zm-.93,5.73a2.55,2.55,0,0,0,.95-1.22V42.05H190.7a2.48,2.48,0,0,0-1.56.39,1.31,1.31,0,0,0-.48,1.08,1.37,1.37,0,0,0,.53,1.13,2.41,2.41,0,0,0,1.5.41A2.79,2.79,0,0,0,192.24,44.64Z"/><path class="cls-10" d="M202.52,39a3.12,3.12,0,0,1,.8,2.3v4.27h-.7V41.36a2.56,2.56,0,0,0-.63-1.87,2.29,2.29,0,0,0-1.74-.65,2.69,2.69,0,0,0-2,.77,2.91,2.91,0,0,0-.74,2.08v3.89h-.7V38.27h.67v1.58a2.78,2.78,0,0,1,1.13-1.2,3.47,3.47,0,0,1,1.77-.44A3,3,0,0,1,202.52,39Z"/><path class="cls-10" d="M212.71,35.19V45.58H212V43.86a3.19,3.19,0,0,1-1.21,1.31,3.45,3.45,0,0,1-1.78.46,3.71,3.71,0,0,1-1.85-.47,3.41,3.41,0,0,1-1.29-1.32,4.16,4.16,0,0,1,0-3.84,3.34,3.34,0,0,1,1.29-1.32,3.71,3.71,0,0,1,1.85-.47,3.47,3.47,0,0,1,1.76.46A3.37,3.37,0,0,1,212,40V35.19Zm-2.13,9.42a2.82,2.82,0,0,0,1-1.09,3.35,3.35,0,0,0,.38-1.6,3.31,3.31,0,0,0-.38-1.59,2.82,2.82,0,0,0-1-1.09,2.87,2.87,0,0,0-1.51-.4,2.81,2.81,0,0,0-1.5.4,2.69,2.69,0,0,0-1,1.09,3.2,3.2,0,0,0-.39,1.59,3.24,3.24,0,0,0,.39,1.6,2.69,2.69,0,0,0,1,1.09,2.89,2.89,0,0,0,1.5.39A3,3,0,0,0,210.58,44.61Z"/><path class="cls-10" d="M221.84,42.09h-6.29a3,3,0,0,0,.44,1.52,2.77,2.77,0,0,0,1.09,1,3.39,3.39,0,0,0,1.57.36,3.24,3.24,0,0,0,1.32-.26,2.53,2.53,0,0,0,1-.76l.41.46a3.15,3.15,0,0,1-1.2.89,4,4,0,0,1-1.56.3,4,4,0,0,1-1.94-.47,3.47,3.47,0,0,1-1.34-1.32,3.8,3.8,0,0,1-.48-1.92,4,4,0,0,1,.45-1.91,3.38,3.38,0,0,1,1.25-1.32A3.45,3.45,0,0,1,221.4,40a4,4,0,0,1,.45,1.91ZM217,39.17a2.63,2.63,0,0,0-1,1,3,3,0,0,0-.42,1.41h5.6a3,3,0,0,0-.42-1.4,2.73,2.73,0,0,0-1-1,3,3,0,0,0-2.77,0Z"/><path class="cls-10" d="M224,35.19h.7V45.58H224Z"/><path class="cls-10" d="M231.2,45.12a1.85,1.85,0,0,1-.66.38,2.62,2.62,0,0,1-.83.13,2,2,0,0,1-1.47-.52,2,2,0,0,1-.52-1.46V38.87h-1.35v-.6h1.35v-1.6h.7v1.6h2.32v.6h-2.32v4.71a1.54,1.54,0,0,0,.34,1.08,1.32,1.32,0,0,0,1,.37,1.63,1.63,0,0,0,1.13-.4Z"/><path class="cls-10" d="M244.53,42.09h-6.28a3,3,0,0,0,.43,1.52,2.8,2.8,0,0,0,1.1,1,3.32,3.32,0,0,0,1.56.36,3.18,3.18,0,0,0,1.32-.26,2.49,2.49,0,0,0,1-.76l.4.46a3,3,0,0,1-1.19.89,4.25,4.25,0,0,1-3.51-.17A3.54,3.54,0,0,1,238,43.84a3.8,3.8,0,0,1-.48-1.92A3.91,3.91,0,0,1,238,40a3.38,3.38,0,0,1,3-1.8,3.49,3.49,0,0,1,1.79.47A3.4,3.4,0,0,1,244.09,40a4,4,0,0,1,.46,1.91Zm-4.86-2.92a2.54,2.54,0,0,0-1,1,3.11,3.11,0,0,0-.43,1.41h5.6a3,3,0,0,0-.42-1.4,2.63,2.63,0,0,0-1-1,3,3,0,0,0-2.78,0Z"/><path class="cls-10" d="M246.88,45.37a3.52,3.52,0,0,1-1.24-.67l.32-.57a3.55,3.55,0,0,0,1.16.64,4.54,4.54,0,0,0,1.47.25,2.83,2.83,0,0,0,1.63-.37,1.16,1.16,0,0,0,.53-1,.94.94,0,0,0-.29-.73,1.69,1.69,0,0,0-.71-.39,9.32,9.32,0,0,0-1.16-.27,8.45,8.45,0,0,1-1.4-.34,2.19,2.19,0,0,1-.91-.58,1.62,1.62,0,0,1-.38-1.13,1.76,1.76,0,0,1,.72-1.43,3.28,3.28,0,0,1,2.06-.57,5,5,0,0,1,1.38.2,3.33,3.33,0,0,1,1.12.52l-.32.56a3.21,3.21,0,0,0-1-.49,4,4,0,0,0-1.18-.17,2.63,2.63,0,0,0-1.54.38,1.18,1.18,0,0,0-.52,1,1,1,0,0,0,.3.76,1.7,1.7,0,0,0,.72.41c.28.09.68.18,1.2.29a9.4,9.4,0,0,1,1.38.33,2,2,0,0,1,.88.56,1.49,1.49,0,0,1,.37,1.08,1.71,1.71,0,0,1-.76,1.46,3.6,3.6,0,0,1-2.13.54A5.27,5.27,0,0,1,246.88,45.37Z"/><path class="cls-10" d="M258.78,45.37a3.52,3.52,0,0,1-1.24-.67l.32-.57a3.55,3.55,0,0,0,1.16.64,4.54,4.54,0,0,0,1.47.25,2.83,2.83,0,0,0,1.63-.37,1.16,1.16,0,0,0,.53-1,.94.94,0,0,0-.29-.73,1.66,1.66,0,0,0-.7-.39,10,10,0,0,0-1.17-.27,8.45,8.45,0,0,1-1.4-.34,2.25,2.25,0,0,1-.91-.58,1.62,1.62,0,0,1-.38-1.13,1.74,1.74,0,0,1,.73-1.43,3.23,3.23,0,0,1,2.05-.57,5,5,0,0,1,1.38.2,3.33,3.33,0,0,1,1.12.52l-.32.56a3.21,3.21,0,0,0-1-.49,3.92,3.92,0,0,0-1.18-.17,2.63,2.63,0,0,0-1.54.38,1.17,1.17,0,0,0-.51,1,1,1,0,0,0,.29.76,1.76,1.76,0,0,0,.72.41c.28.09.68.18,1.2.29a9.4,9.4,0,0,1,1.38.33,2.08,2.08,0,0,1,.89.56,1.53,1.53,0,0,1,.36,1.08,1.71,1.71,0,0,1-.76,1.46,3.6,3.6,0,0,1-2.13.54A5.27,5.27,0,0,1,258.78,45.37Z"/><path class="cls-10" d="M265.25,36.33a.57.57,0,0,1,.41-1,.57.57,0,0,1,.41.16.58.58,0,0,1,0,.8.54.54,0,0,1-.41.17A.57.57,0,0,1,265.25,36.33Zm.06,1.94h.7v7.31h-.7Z"/><path class="cls-10" d="M270,45.16a3.44,3.44,0,0,1-1.32-1.33,4.06,4.06,0,0,1,0-3.83A3.42,3.42,0,0,1,270,38.68a3.85,3.85,0,0,1,1.9-.47,3.65,3.65,0,0,1,1.6.35,2.84,2.84,0,0,1,1.17,1l-.51.38a2.48,2.48,0,0,0-1-.82,2.86,2.86,0,0,0-1.28-.28,3,3,0,0,0-1.53.39,2.78,2.78,0,0,0-1.07,1.08,3.39,3.39,0,0,0-.38,1.61,3.33,3.33,0,0,0,.38,1.61,2.74,2.74,0,0,0,1.07,1.09,3.22,3.22,0,0,0,2.81.11,2.48,2.48,0,0,0,1-.82l.51.38a2.84,2.84,0,0,1-1.17,1,3.64,3.64,0,0,1-1.6.34A3.85,3.85,0,0,1,270,45.16Z"/><path class="cls-10" d="M282.35,39a3.12,3.12,0,0,1,.79,2.3v4.27h-.69V41.36a2.56,2.56,0,0,0-.63-1.87,2.29,2.29,0,0,0-1.74-.65,2.69,2.69,0,0,0-2,.77,2.86,2.86,0,0,0-.74,2.08v3.89h-.7V35.19h.7V39.8a2.59,2.59,0,0,1,1.12-1.17,3.46,3.46,0,0,1,1.75-.42A3,3,0,0,1,282.35,39Z"/><path class="cls-10" d="M296.75,38.68a3.37,3.37,0,0,1,1.3,1.32,4.16,4.16,0,0,1,0,3.84,3.43,3.43,0,0,1-1.3,1.32,3.68,3.68,0,0,1-1.84.47,3.36,3.36,0,0,1-1.78-.47,3.19,3.19,0,0,1-1.22-1.3v1.72h-.67V35.19h.7v4.75a3.05,3.05,0,0,1,1.22-1.27,3.44,3.44,0,0,1,1.75-.46A3.68,3.68,0,0,1,296.75,38.68Zm-.37,5.93a2.76,2.76,0,0,0,1.05-1.09,3.24,3.24,0,0,0,.39-1.6,3.2,3.2,0,0,0-.39-1.59,2.76,2.76,0,0,0-1.05-1.09,2.9,2.9,0,0,0-1.52-.4,2.86,2.86,0,0,0-2.55,1.49,3.2,3.2,0,0,0-.39,1.59,3.24,3.24,0,0,0,.39,1.6,2.82,2.82,0,0,0,1.05,1.09,2.89,2.89,0,0,0,1.5.39A3,3,0,0,0,296.38,44.61Z"/><path class="cls-10" d="M306.86,42.09h-6.28a3,3,0,0,0,.43,1.52,2.8,2.8,0,0,0,1.1,1,3.32,3.32,0,0,0,1.56.36,3.18,3.18,0,0,0,1.32-.26,2.49,2.49,0,0,0,1-.76l.4.46a3,3,0,0,1-1.19.89,4.25,4.25,0,0,1-3.51-.17,3.54,3.54,0,0,1-1.34-1.32,3.8,3.8,0,0,1-.48-1.92,4,4,0,0,1,.45-1.91,3.48,3.48,0,0,1,1.26-1.32,3.59,3.59,0,0,1,3.57,0A3.35,3.35,0,0,1,306.42,40a4,4,0,0,1,.45,1.91ZM302,39.17a2.54,2.54,0,0,0-1,1,3.11,3.11,0,0,0-.43,1.41h5.6a3,3,0,0,0-.42-1.4,2.63,2.63,0,0,0-1-1,3,3,0,0,0-2.78,0Z"/><path class="cls-10" d="M309,36.33a.56.56,0,0,1,0-.8.53.53,0,0,1,.41-.17.55.55,0,0,1,.4.16.56.56,0,0,1,0,.8.52.52,0,0,1-.4.17A.56.56,0,0,1,309,36.33Zm.05,1.94h.71v7.31H309Z"/><path class="cls-10" d="M325.37,42.86h-2.06v2.72h-.7V42.86H317v-.52l5.32-6.56h.79l-5.22,6.45h4.71V39.84h.68v2.39h2.06Z"/><path class="cls-10" d="M328.19,45a4,4,0,0,1-1.36-1.73,7.45,7.45,0,0,1,0-5.26,4,4,0,0,1,1.36-1.73,3.57,3.57,0,0,1,4,0,3.84,3.84,0,0,1,1.36,1.73,7.45,7.45,0,0,1,0,5.26A3.9,3.9,0,0,1,332.18,45a3.57,3.57,0,0,1-4,0Zm3.63-.56a3.3,3.3,0,0,0,1.1-1.49,7.07,7.07,0,0,0,0-4.63,3.27,3.27,0,0,0-1.1-1.48,2.86,2.86,0,0,0-3.26,0,3.2,3.2,0,0,0-1.1,1.48,7.07,7.07,0,0,0,0,4.63,3.23,3.23,0,0,0,1.1,1.49,2.86,2.86,0,0,0,3.26,0Z"/><path class="cls-10" d="M341.23,40.29a2.94,2.94,0,0,1-.6-1.92,2.9,2.9,0,0,1,.6-1.92,1.89,1.89,0,0,1,1.56-.73,2,2,0,0,1,1.57.73,2.9,2.9,0,0,1,.6,1.92,2.94,2.94,0,0,1-.6,1.92,2,2,0,0,1-1.57.72A1.91,1.91,0,0,1,341.23,40.29ZM344,40a3,3,0,0,0,0-3.18,1.43,1.43,0,0,0-1.19-.58,1.39,1.39,0,0,0-1.18.59,3,3,0,0,0,0,3.16,1.42,1.42,0,0,0,1.18.59A1.45,1.45,0,0,0,344,40Zm4.79-4.18h.6l-6.69,9.8h-.61Zm-1.68,9.13a2.89,2.89,0,0,1-.61-1.92,2.85,2.85,0,0,1,.61-1.92,1.91,1.91,0,0,1,1.56-.73,1.89,1.89,0,0,1,1.56.73,2.9,2.9,0,0,1,.6,1.92,2.94,2.94,0,0,1-.6,1.92,1.91,1.91,0,0,1-1.56.72A1.93,1.93,0,0,1,347.09,44.91Zm2.74-.34a3,3,0,0,0,0-3.16,1.39,1.39,0,0,0-1.18-.59,1.43,1.43,0,0,0-1.19.58,3.09,3.09,0,0,0,0,3.18,1.45,1.45,0,0,0,1.19.58A1.42,1.42,0,0,0,349.83,44.57Z"/><path class="cls-10" d="M27.67,52V62.38H27V60.66A3.07,3.07,0,0,1,25.77,62a3.45,3.45,0,0,1-1.78.46A3.61,3.61,0,0,1,22.14,62a3.41,3.41,0,0,1-1.29-1.32,4.16,4.16,0,0,1,0-3.84,3.34,3.34,0,0,1,1.29-1.32A3.71,3.71,0,0,1,24,55a3.38,3.38,0,0,1,1.76.47A3.27,3.27,0,0,1,27,56.76V52Zm-2.13,9.42a2.82,2.82,0,0,0,1.05-1.09,3.35,3.35,0,0,0,.38-1.6,3.31,3.31,0,0,0-.38-1.59A2.82,2.82,0,0,0,25.54,56a2.87,2.87,0,0,0-1.51-.4,2.81,2.81,0,0,0-1.5.4,2.69,2.69,0,0,0-1.05,1.09,3.2,3.2,0,0,0-.39,1.59,3.24,3.24,0,0,0,.39,1.6,2.69,2.69,0,0,0,1.05,1.09,2.89,2.89,0,0,0,1.5.39A3,3,0,0,0,25.54,61.41Z"/><path class="cls-10" d="M36.8,58.89H30.51A3.07,3.07,0,0,0,31,60.41a2.73,2.73,0,0,0,1.1,1,3.32,3.32,0,0,0,1.56.36,3.41,3.41,0,0,0,1.32-.25,2.57,2.57,0,0,0,1-.77l.41.46a3.15,3.15,0,0,1-1.2.89,4,4,0,0,1-1.56.3A3.87,3.87,0,0,1,31.65,62a3.47,3.47,0,0,1-1.34-1.32,3.8,3.8,0,0,1-.48-1.92,4,4,0,0,1,.45-1.91,3.38,3.38,0,0,1,1.25-1.32,3.45,3.45,0,0,1,4.83,1.3,4,4,0,0,1,.45,1.91ZM31.94,56a2.63,2.63,0,0,0-1,1,3.11,3.11,0,0,0-.42,1.41h5.6a3,3,0,0,0-.42-1.4,2.81,2.81,0,0,0-1-1,3,3,0,0,0-2.77,0Z"/><path class="cls-10" d="M40.7,55.44A3.4,3.4,0,0,1,42.44,55v.69h-.17a2.42,2.42,0,0,0-1.9.76,3.06,3.06,0,0,0-.69,2.12v3.81H39V55.07h.67v1.6A2.59,2.59,0,0,1,40.7,55.44Z"/><path class="cls-10" d="M54.7,55.07l-3.3,7.31h-.72l-3.29-7.31h.75l2.91,6.54L54,55.07Z"/><path class="cls-10" d="M62.19,58.89H55.91a3,3,0,0,0,.43,1.52,2.8,2.8,0,0,0,1.1,1,3.58,3.58,0,0,0,2.88.11,2.61,2.61,0,0,0,1-.77l.4.46a3,3,0,0,1-1.19.89,4,4,0,0,1-1.56.3A3.91,3.91,0,0,1,57,62a3.54,3.54,0,0,1-1.34-1.32,3.8,3.8,0,0,1-.48-1.92,3.91,3.91,0,0,1,.46-1.91,3.38,3.38,0,0,1,3-1.8,3.49,3.49,0,0,1,1.79.47,3.4,3.4,0,0,1,1.24,1.31,4,4,0,0,1,.46,1.91ZM57.33,56a2.54,2.54,0,0,0-1,1,3.11,3.11,0,0,0-.43,1.41h5.6A3,3,0,0,0,61.1,57a2.71,2.71,0,0,0-1-1,3,3,0,0,0-2.78,0Z"/><path class="cls-10" d="M66.1,55.44A3.34,3.34,0,0,1,67.83,55v.69h-.16a2.43,2.43,0,0,0-1.91.76,3.05,3.05,0,0,0-.68,2.12v3.81h-.7V55.07h.67v1.6A2.49,2.49,0,0,1,66.1,55.44Z"/><path class="cls-10" d="M72.37,58.47l-1.9,1.74v2.17h-.7V52h.7v7.35l4.67-4.27H76l-3.15,3,3.46,4.36h-.87Z"/><path class="cls-10" d="M82.41,55.71a2.69,2.69,0,0,1,.73,2v4.64h-.68v-1.3a2.4,2.4,0,0,1-1,1,3.48,3.48,0,0,1-1.61.35,3,3,0,0,1-1.92-.57,1.86,1.86,0,0,1-.71-1.51,1.88,1.88,0,0,1,.65-1.48,3.13,3.13,0,0,1,2.08-.57h2.51v-.58a2.08,2.08,0,0,0-.56-1.56,2.25,2.25,0,0,0-1.61-.53,3.9,3.9,0,0,0-1.4.25,3.44,3.44,0,0,0-1.12.67l-.35-.5a3.77,3.77,0,0,1,1.31-.76A4.62,4.62,0,0,1,80.32,55,2.93,2.93,0,0,1,82.41,55.71Zm-.93,5.73a2.63,2.63,0,0,0,1-1.22V58.85h-2.5a2.52,2.52,0,0,0-1.56.39,1.31,1.31,0,0,0-.48,1.08,1.37,1.37,0,0,0,.53,1.13,2.45,2.45,0,0,0,1.5.41A2.76,2.76,0,0,0,81.48,61.44Z"/><path class="cls-10" d="M92.42,55.07v7.31h-.67V60.81A2.85,2.85,0,0,1,90.67,62a3.27,3.27,0,0,1-1.68.42,3.06,3.06,0,0,1-2.24-.79,3.1,3.1,0,0,1-.81-2.3V55.07h.7v4.21a2.57,2.57,0,0,0,.63,1.88A2.36,2.36,0,0,0,89,61.8,2.53,2.53,0,0,0,91,61,2.9,2.9,0,0,0,91.72,59V55.07Z"/><path class="cls-10" d="M96.21,54v1.06h2.34v.6H96.23v6.71h-.7V55.67H94.18v-.6h1.35V54a2,2,0,0,1,.53-1.47,2,2,0,0,1,1.5-.55,2.67,2.67,0,0,1,.8.12,1.6,1.6,0,0,1,.64.36l-.28.53a1.64,1.64,0,0,0-1.14-.4C96.67,52.54,96.21,53,96.21,54Z"/><path class="cls-10" d="M103.6,61.92a1.85,1.85,0,0,1-.66.38,2.57,2.57,0,0,1-.83.13,2,2,0,0,1-1.47-.52,2,2,0,0,1-.52-1.46V55.67H98.77v-.6h1.35v-1.6h.7v1.6h2.32v.6h-2.32v4.71a1.54,1.54,0,0,0,.34,1.08,1.32,1.32,0,0,0,1,.37,1.63,1.63,0,0,0,1.13-.4Z"/><path class="cls-10" d="M111.46,58.89h-6.29a3,3,0,0,0,.44,1.52,2.77,2.77,0,0,0,1.09,1,3.61,3.61,0,0,0,2.89.11,2.65,2.65,0,0,0,1-.77l.41.46a3.15,3.15,0,0,1-1.2.89,4,4,0,0,1-1.56.3,3.85,3.85,0,0,1-1.94-.47A3.47,3.47,0,0,1,105,60.64a3.8,3.8,0,0,1-.48-1.92,4,4,0,0,1,.45-1.91,3.38,3.38,0,0,1,1.25-1.32,3.45,3.45,0,0,1,4.83,1.3,4,4,0,0,1,.45,1.91ZM106.6,56a2.63,2.63,0,0,0-1,1,3.11,3.11,0,0,0-.42,1.41h5.6a3,3,0,0,0-.42-1.4,2.81,2.81,0,0,0-1-1,3,3,0,0,0-2.77,0Z"/><path class="cls-10" d="M119.38,55.81a3.12,3.12,0,0,1,.8,2.3v4.27h-.7V58.16a2.6,2.6,0,0,0-.62-1.87,2.33,2.33,0,0,0-1.75-.65,2.71,2.71,0,0,0-2,.77,2.91,2.91,0,0,0-.74,2.08v3.89h-.7V55.07h.67v1.58a2.84,2.84,0,0,1,1.13-1.2,3.47,3.47,0,0,1,1.77-.44A2.93,2.93,0,0,1,119.38,55.81Z"/><path class="cls-10" d="M140.73,52.58l-3.32,9.8h-.76l-3-8.79-3.06,8.79h-.75l-3.33-9.8h.75l3,8.82,3.07-8.82H134L137,61.41l3-8.83Z"/><path class="cls-10" d="M146.55,55.71a2.65,2.65,0,0,1,.73,2v4.64h-.67v-1.3a2.46,2.46,0,0,1-1,1,3.51,3.51,0,0,1-1.61.35,3,3,0,0,1-1.93-.57,2,2,0,0,1-.05-3,3.1,3.1,0,0,1,2.08-.57h2.5v-.58a2.08,2.08,0,0,0-.55-1.56,2.27,2.27,0,0,0-1.62-.53,3.85,3.85,0,0,0-1.39.25,3.49,3.49,0,0,0-1.13.67l-.35-.5a3.81,3.81,0,0,1,1.32-.76,4.58,4.58,0,0,1,1.61-.28A2.9,2.9,0,0,1,146.55,55.71Zm-.93,5.73a2.51,2.51,0,0,0,1-1.22V58.85h-2.49a2.48,2.48,0,0,0-1.56.39,1.32,1.32,0,0,0-.49,1.08,1.35,1.35,0,0,0,.54,1.13,2.41,2.41,0,0,0,1.5.41A2.73,2.73,0,0,0,145.62,61.44Z"/><path class="cls-10" d="M151.89,55.44a3.34,3.34,0,0,1,1.73-.43v.69h-.17a2.42,2.42,0,0,0-1.9.76,3.05,3.05,0,0,0-.68,2.12v3.81h-.71V55.07h.68v1.6A2.49,2.49,0,0,1,151.89,55.44Z"/><path class="cls-10" d="M161.66,58.89h-6.29a3.07,3.07,0,0,0,.44,1.52,2.73,2.73,0,0,0,1.1,1,3.32,3.32,0,0,0,1.56.36,3.41,3.41,0,0,0,1.32-.25,2.68,2.68,0,0,0,1-.77l.4.46a3.15,3.15,0,0,1-1.2.89,4,4,0,0,1-1.56.3,3.9,3.9,0,0,1-1.94-.47,3.47,3.47,0,0,1-1.34-1.32,3.8,3.8,0,0,1-.48-1.92,4,4,0,0,1,.45-1.91,3.41,3.41,0,0,1,3.05-1.8,3.36,3.36,0,0,1,3,1.78,4,4,0,0,1,.45,1.91ZM156.8,56a2.63,2.63,0,0,0-1,1,3.11,3.11,0,0,0-.42,1.41H161a3,3,0,0,0-.42-1.4,2.73,2.73,0,0,0-1-1,3,3,0,0,0-2.77,0Z"/><path class="cls-10" d="M169.58,55.81a3.08,3.08,0,0,1,.8,2.3v4.27h-.7V58.16a2.6,2.6,0,0,0-.62-1.87,2.32,2.32,0,0,0-1.74-.65,2.73,2.73,0,0,0-2,.77,2.91,2.91,0,0,0-.74,2.08v3.89h-.7V55.07h.67v1.58a2.84,2.84,0,0,1,1.13-1.2,3.47,3.47,0,0,1,1.77-.44A2.93,2.93,0,0,1,169.58,55.81Z"/><path class="cls-10" d="M184,55.07v7.31h-.67V60.81a2.73,2.73,0,0,1-1.08,1.2,3.25,3.25,0,0,1-1.68.42,3.06,3.06,0,0,1-2.24-.79,3.1,3.1,0,0,1-.81-2.3V55.07h.7v4.21a2.57,2.57,0,0,0,.63,1.88,2.37,2.37,0,0,0,1.78.64,2.52,2.52,0,0,0,2-.77A2.9,2.9,0,0,0,183.3,59V55.07Z"/><path class="cls-10" d="M198.2,55.81a3.16,3.16,0,0,1,.78,2.3v4.27h-.7V58.16a2.64,2.64,0,0,0-.6-1.87,2.18,2.18,0,0,0-1.68-.65,2.55,2.55,0,0,0-1.95.77,2.9,2.9,0,0,0-.73,2.08v3.89h-.7V58.16a2.64,2.64,0,0,0-.6-1.87,2.18,2.18,0,0,0-1.68-.65,2.55,2.55,0,0,0-2,.77,2.94,2.94,0,0,0-.72,2.08v3.89H187V55.07h.67v1.57a2.69,2.69,0,0,1,1.09-1.2,3.34,3.34,0,0,1,1.71-.43,3,3,0,0,1,1.69.45,2.42,2.42,0,0,1,1,1.32,2.93,2.93,0,0,1,1.15-1.29,3.35,3.35,0,0,1,1.81-.48A2.83,2.83,0,0,1,198.2,55.81Z"/><path class="cls-10" d="M214.39,58.17a2.45,2.45,0,0,1,.48,1.53,2.28,2.28,0,0,1-1,2,5.06,5.06,0,0,1-2.92.7h-5.07v-9.8h4.79a4.75,4.75,0,0,1,2.75.68,2.18,2.18,0,0,1,1,1.87A2.38,2.38,0,0,1,214,56.4a2.31,2.31,0,0,1-.95.88A2.63,2.63,0,0,1,214.39,58.17Zm-6.26-3.88V56.6h2.26a2.23,2.23,0,0,0,1.27-.3,1.07,1.07,0,0,0,0-1.73,2.32,2.32,0,0,0-1.27-.28Zm4,6.09a1,1,0,0,0,.46-.91c0-.82-.61-1.22-1.81-1.22h-2.65v2.42h2.65A2.55,2.55,0,0,0,212.13,60.38Z"/><path class="cls-10" d="M224,54.85v7.53H222v-.9a2.82,2.82,0,0,1-1,.75,3.37,3.37,0,0,1-1.31.26,3.2,3.2,0,0,1-2.35-.85,3.42,3.42,0,0,1-.87-2.54V54.85h2.19v3.93c0,1.21.51,1.82,1.52,1.82a1.62,1.62,0,0,0,1.26-.51,2.15,2.15,0,0,0,.48-1.52V54.85Zm-5.93-1.31a.94.94,0,0,1-.28-.7.9.9,0,0,1,.28-.69,1,1,0,0,1,.7-.27.92.92,0,0,1,1,1,1,1,0,0,1-.27.7.93.93,0,0,1-.69.27A1,1,0,0,1,218.09,53.54Zm2.83,0a1,1,0,0,1-.27-.7.93.93,0,0,1,.27-.69,1,1,0,0,1,.7-.27,1,1,0,0,1,.7.27.94.94,0,0,1,.28.69.94.94,0,0,1-1,1A1,1,0,0,1,220.92,53.54Z"/><path class="cls-10" d="M227.53,62a3.7,3.7,0,0,1-2-3.38,3.77,3.77,0,0,1,.54-2,3.71,3.71,0,0,1,1.5-1.38,4.65,4.65,0,0,1,2.16-.5,4.18,4.18,0,0,1,2.08.5,2.94,2.94,0,0,1,1.3,1.42l-1.7.91a1.84,1.84,0,0,0-1.69-1,1.88,1.88,0,0,0-1.41.56,2,2,0,0,0-.56,1.52,2,2,0,0,0,.56,1.53,1.91,1.91,0,0,0,1.41.56,1.83,1.83,0,0,0,1.69-1l1.7.93a3,3,0,0,1-1.3,1.4,4.18,4.18,0,0,1-2.08.5A4.65,4.65,0,0,1,227.53,62Z"/><path class="cls-10" d="M241.11,55.57a3.35,3.35,0,0,1,.86,2.5v4.31h-2.18v-4a2,2,0,0,0-.39-1.34,1.47,1.47,0,0,0-1.14-.44,1.72,1.72,0,0,0-1.31.51,2.12,2.12,0,0,0-.49,1.52v3.73h-2.19V52h2.19v3.64a2.91,2.91,0,0,1,1-.67,3.85,3.85,0,0,1,1.34-.23A3.1,3.1,0,0,1,241.11,55.57Z"/><path class="cls-10" d="M251.37,59.23h-5.7a1.74,1.74,0,0,0,.73,1.1,2.38,2.38,0,0,0,1.42.41,2.85,2.85,0,0,0,1.05-.18,2.44,2.44,0,0,0,.84-.55l1.17,1.26a3.92,3.92,0,0,1-3.11,1.22,5,5,0,0,1-2.26-.5A3.67,3.67,0,0,1,244,60.61a4.05,4.05,0,0,1,0-4,3.72,3.72,0,0,1,1.45-1.39,4.43,4.43,0,0,1,4.05,0,3.44,3.44,0,0,1,1.41,1.37,4.06,4.06,0,0,1,.51,2.06S251.39,58.86,251.37,59.23Zm-5.11-2.42a1.75,1.75,0,0,0-.62,1.14h3.71a1.8,1.8,0,0,0-.62-1.14,1.84,1.84,0,0,0-1.23-.42A1.86,1.86,0,0,0,246.26,56.81Z"/><path class="cls-10" d="M256,55a4,4,0,0,1,1.53-.28v2l-.49,0a2,2,0,0,0-1.47.53,2.09,2.09,0,0,0-.53,1.57v3.56h-2.19V54.85H255v1A2.45,2.45,0,0,1,256,55Z"/><path class="cls-10" d="M259.71,61.42a.58.58,0,0,1,.17.41,1.08,1.08,0,0,1,0,.3c0,.1,0,.22-.09.35l-.54,1.9h-.51l.46-2a.63.63,0,0,1-.33-.21.52.52,0,0,1-.13-.37.58.58,0,0,1,.59-.59A.54.54,0,0,1,259.71,61.42Z"/><path class="cls-10" d="M272,55.48a3.34,3.34,0,0,1,1.29,1.32,4.16,4.16,0,0,1,0,3.84A3.41,3.41,0,0,1,272,62a3.61,3.61,0,0,1-1.85.47,3.35,3.35,0,0,1-1.77-.47,3.15,3.15,0,0,1-1.23-1.3v1.72h-.67V52h.7v4.75a3.11,3.11,0,0,1,1.22-1.27,3.44,3.44,0,0,1,1.75-.46A3.71,3.71,0,0,1,272,55.48Zm-.38,5.93a2.78,2.78,0,0,0,1.06-1.09,3.35,3.35,0,0,0,.38-1.6,3.31,3.31,0,0,0-.38-1.59A2.78,2.78,0,0,0,271.65,56a3.05,3.05,0,0,0-3,0,2.82,2.82,0,0,0-1.05,1.09,3.31,3.31,0,0,0-.38,1.59,3.35,3.35,0,0,0,.38,1.6,2.82,2.82,0,0,0,1.05,1.09,3.12,3.12,0,0,0,3,0Z"/><path class="cls-10" d="M282.13,58.89h-6.28a3.06,3.06,0,0,0,.43,1.52,2.8,2.8,0,0,0,1.1,1,3.32,3.32,0,0,0,1.56.36,3.42,3.42,0,0,0,1.33-.25,2.65,2.65,0,0,0,1-.77l.41.46a3.15,3.15,0,0,1-1.2.89,4,4,0,0,1-1.56.3A3.91,3.91,0,0,1,277,62a3.44,3.44,0,0,1-1.33-1.32,3.71,3.71,0,0,1-.49-1.92,3.91,3.91,0,0,1,.46-1.91,3.38,3.38,0,0,1,3-1.8,3.47,3.47,0,0,1,1.79.47,3.4,3.4,0,0,1,1.24,1.31,3.88,3.88,0,0,1,.46,1.91ZM277.28,56a2.63,2.63,0,0,0-1,1,3.11,3.11,0,0,0-.43,1.41h5.6A2.84,2.84,0,0,0,281,57a2.71,2.71,0,0,0-1-1,3,3,0,0,0-2.77,0Z"/><path class="cls-10" d="M284.26,53.13a.56.56,0,0,1,0-.8.53.53,0,0,1,.41-.17.57.57,0,0,1,.41.16.58.58,0,0,1,0,.8.54.54,0,0,1-.41.17A.56.56,0,0,1,284.26,53.13Zm.06,1.94h.7v7.31h-.7Z"/><path class="cls-10" d="M297.05,57.64a2.53,2.53,0,0,1,.85,2,2.65,2.65,0,0,1-.4,1.46,2.58,2.58,0,0,1-1.17,1,4.23,4.23,0,0,1-1.86.37,5.6,5.6,0,0,1-2-.36,3.54,3.54,0,0,1-1.45-1l.36-.54a3.47,3.47,0,0,0,1.3.86,4.55,4.55,0,0,0,1.8.34,3.06,3.06,0,0,0,2-.58,2,2,0,0,0,.7-1.59,2,2,0,0,0-.72-1.6,3.37,3.37,0,0,0-2.14-.57h-.61v-.52l2.89-3.71h-5.22v-.64h6.15v.5l-2.94,3.77A3.8,3.8,0,0,1,297.05,57.64Z"/><path class="cls-10" d="M305,56.94a2.69,2.69,0,0,1,1.16,1,3.12,3.12,0,0,1,0,3.09,2.7,2.7,0,0,1-1.16,1,3.64,3.64,0,0,1-1.68.37,3.48,3.48,0,0,1-2.92-1.3,5.77,5.77,0,0,1-1-3.62,6.33,6.33,0,0,1,.54-2.75,3.77,3.77,0,0,1,1.52-1.7,4.45,4.45,0,0,1,2.29-.57A4.36,4.36,0,0,1,306,53l-.3.58a3.53,3.53,0,0,0-1.93-.45,3.33,3.33,0,0,0-2.66,1.1,4.64,4.64,0,0,0-1,3.18,7.17,7.17,0,0,0,.09,1.18,2.57,2.57,0,0,1,1.14-1.49,3.66,3.66,0,0,1,2-.53A3.9,3.9,0,0,1,305,56.94Zm.14,4.26a2.18,2.18,0,0,0,.71-1.69,2.15,2.15,0,0,0-.71-1.68,2.86,2.86,0,0,0-1.95-.63,3.11,3.11,0,0,0-1.41.31,2.31,2.31,0,0,0-1,.84,2.13,2.13,0,0,0,0,2.31,2.35,2.35,0,0,0,1,.85,3.36,3.36,0,0,0,1.51.32A2.73,2.73,0,0,0,305.18,61.2Z"/><path class="cls-10" d="M312.63,57.09a3.37,3.37,0,0,1,0-3.84,1.9,1.9,0,0,1,1.56-.73,1.93,1.93,0,0,1,1.57.73,3.37,3.37,0,0,1,0,3.84,2,2,0,0,1-1.57.72A1.92,1.92,0,0,1,312.63,57.09Zm2.75-.33a3,3,0,0,0,0-3.18,1.43,1.43,0,0,0-1.19-.58,1.39,1.39,0,0,0-1.18.59,3.06,3.06,0,0,0,0,3.16,1.42,1.42,0,0,0,1.18.59A1.45,1.45,0,0,0,315.38,56.76Zm4.79-4.18h.6l-6.69,9.8h-.6Zm-1.68,9.13a3.37,3.37,0,0,1,0-3.84,2,2,0,0,1,3.13,0,3.42,3.42,0,0,1,0,3.84,2.06,2.06,0,0,1-3.13,0Zm2.74-.34a3,3,0,0,0,0-3.16,1.39,1.39,0,0,0-1.17-.59,1.4,1.4,0,0,0-1.19.58,3,3,0,0,0,0,3.18,1.43,1.43,0,0,0,1.19.58A1.41,1.41,0,0,0,321.23,61.37Z"/><path class="cls-10" d="M335.06,55.07v7.31h-.67V60.81a2.73,2.73,0,0,1-1.08,1.2,3.27,3.27,0,0,1-1.68.42,3.06,3.06,0,0,1-2.24-.79,3.1,3.1,0,0,1-.81-2.3V55.07h.7v4.21a2.57,2.57,0,0,0,.63,1.88,2.37,2.37,0,0,0,1.78.64,2.52,2.52,0,0,0,1.95-.77,2.9,2.9,0,0,0,.72-2.07V55.07Z"/><path class="cls-10" d="M349.26,55.81a3.16,3.16,0,0,1,.78,2.3v4.27h-.7V58.16a2.64,2.64,0,0,0-.6-1.87,2.18,2.18,0,0,0-1.68-.65,2.55,2.55,0,0,0-1.95.77,2.9,2.9,0,0,0-.73,2.08v3.89h-.7V58.16a2.64,2.64,0,0,0-.6-1.87,2.18,2.18,0,0,0-1.68-.65,2.55,2.55,0,0,0-1.95.77,2.94,2.94,0,0,0-.72,2.08v3.89H338V55.07h.67v1.57a2.69,2.69,0,0,1,1.09-1.2A3.34,3.34,0,0,1,341.5,55a3,3,0,0,1,1.69.45,2.42,2.42,0,0,1,1,1.32,2.93,2.93,0,0,1,1.15-1.29,3.35,3.35,0,0,1,1.81-.48A2.83,2.83,0,0,1,349.26,55.81Z"/><path class="cls-10" d="M24.42,75.33,23.11,76.7v2.48H20.85v-9.8h2.26V74l4.34-4.58H30l-4.06,4.37,4.29,5.43H27.56Z"/><path class="cls-10" d="M31.06,68.79h2.18V79.18H31.06Z"/><path class="cls-10" d="M42.61,76h-5.7a1.78,1.78,0,0,0,.73,1.1,2.42,2.42,0,0,0,1.43.41,2.8,2.8,0,0,0,1-.18,2.48,2.48,0,0,0,.85-.55l1.16,1.26A3.92,3.92,0,0,1,39,79.29a4.91,4.91,0,0,1-2.25-.5,3.64,3.64,0,0,1-1.52-1.38,4,4,0,0,1,0-4A3.63,3.63,0,0,1,36.68,72a4.23,4.23,0,0,1,2-.5,4.14,4.14,0,0,1,2,.48,3.44,3.44,0,0,1,1.41,1.37,4.06,4.06,0,0,1,.51,2.06S42.64,75.66,42.61,76ZM37.5,73.61a1.79,1.79,0,0,0-.62,1.14h3.71A1.83,1.83,0,0,0,40,73.61a2,2,0,0,0-2.48,0Z"/><path class="cls-10" d="M44.22,70.25a1.17,1.17,0,0,1-.38-.87,1.14,1.14,0,0,1,.38-.87,1.56,1.56,0,0,1,2,0,1.07,1.07,0,0,1,.38.84,1.2,1.2,0,0,1-.38.9,1.36,1.36,0,0,1-1,.36A1.4,1.4,0,0,1,44.22,70.25Zm-.11,1.4h2.18v7.53H44.11Z"/><path class="cls-10" d="M56,68.79V79.18H53.91v-.87a2.9,2.9,0,0,1-2.36,1,3.88,3.88,0,0,1-1.92-.48,3.37,3.37,0,0,1-1.35-1.35,4.51,4.51,0,0,1,0-4.09A3.4,3.4,0,0,1,49.63,72a3.88,3.88,0,0,1,1.92-.48,2.89,2.89,0,0,1,2.26.91V68.79ZM53.3,76.93a2.38,2.38,0,0,0,0-3,2,2,0,0,0-2.75,0,2.38,2.38,0,0,0,0,3,1.94,1.94,0,0,0,2.75,0Z"/><path class="cls-10" d="M65.6,71.65v7.53H63.52v-.9a2.82,2.82,0,0,1-1,.75,3.32,3.32,0,0,1-1.3.26,3.22,3.22,0,0,1-2.36-.85A3.45,3.45,0,0,1,58,75.9V71.65h2.18v3.93c0,1.21.51,1.82,1.53,1.82a1.65,1.65,0,0,0,1.26-.51,2.2,2.2,0,0,0,.47-1.52V71.65Z"/><path class="cls-10" d="M74.47,72.37a3.35,3.35,0,0,1,.86,2.5v4.31H73.14v-4a2,2,0,0,0-.39-1.34,1.45,1.45,0,0,0-1.13-.44,1.76,1.76,0,0,0-1.32.51,2.12,2.12,0,0,0-.49,1.52v3.73H67.63V71.65h2.08v.88a3,3,0,0,1,1.08-.74,3.8,3.8,0,0,1,1.41-.26A3.12,3.12,0,0,1,74.47,72.37Z"/><path class="cls-10" d="M85.15,71.65v6.27A4.05,4.05,0,0,1,84.08,81a4.46,4.46,0,0,1-3.15,1,7.85,7.85,0,0,1-2.08-.27A4.52,4.52,0,0,1,77.23,81l.87-1.57a3.58,3.58,0,0,0,1.2.62,4.65,4.65,0,0,0,1.46.24,2.37,2.37,0,0,0,1.67-.51A2.06,2.06,0,0,0,83,78.2v-.32a3.07,3.07,0,0,1-2.38.93,4.06,4.06,0,0,1-1.9-.45,3.42,3.42,0,0,1-1.36-1.28,3.81,3.81,0,0,1,0-3.81A3.42,3.42,0,0,1,78.69,72a4.07,4.07,0,0,1,1.9-.46,3,3,0,0,1,2.49,1.08v-1Zm-2.7,4.86A1.77,1.77,0,0,0,83,75.17a1.75,1.75,0,0,0-.55-1.33,2.25,2.25,0,0,0-2.85,0A1.69,1.69,0,0,0,79,75.17a1.71,1.71,0,0,0,.56,1.34,2.25,2.25,0,0,0,2.85,0Z"/><path class="cls-10" d="M89,76.94a1.33,1.33,0,0,1,.38,1,2.77,2.77,0,0,1-.07.56,7.6,7.6,0,0,1-.31.84l-.8,2H86.81l.61-2.22a1.18,1.18,0,0,1-.55-.46,1.27,1.27,0,0,1-.2-.73,1.3,1.3,0,0,1,.38-1,1.38,1.38,0,0,1,1-.37A1.34,1.34,0,0,1,89,76.94Z"/><path class="cls-10" d="M100.6,79a5.22,5.22,0,0,1-1.74-.82l.77-1.71a5.27,5.27,0,0,0,1.5.75,5.74,5.74,0,0,0,1.73.28,2.78,2.78,0,0,0,1.43-.29.86.86,0,0,0,.46-.76.75.75,0,0,0-.27-.59,2.31,2.31,0,0,0-.7-.37c-.29-.09-.67-.19-1.16-.3a15.73,15.73,0,0,1-1.83-.54,2.91,2.91,0,0,1-1.23-.85,2.3,2.3,0,0,1-.51-1.57,2.82,2.82,0,0,1,.46-1.55,3.14,3.14,0,0,1,1.4-1.09,5.52,5.52,0,0,1,2.27-.41,7.53,7.53,0,0,1,1.84.22,5.57,5.57,0,0,1,1.57.65l-.7,1.72a5.54,5.54,0,0,0-2.72-.77,2.52,2.52,0,0,0-1.41.31.93.93,0,0,0-.45.81.78.78,0,0,0,.52.75,8.7,8.7,0,0,0,1.61.48c.74.18,1.35.36,1.83.53a3.11,3.11,0,0,1,1.22.84,2.28,2.28,0,0,1,.52,1.56,2.68,2.68,0,0,1-.47,1.53,3.24,3.24,0,0,1-1.41,1.1,5.77,5.77,0,0,1-2.28.41A8,8,0,0,1,100.6,79Z"/><path class="cls-10" d="M109.88,78.79a3.66,3.66,0,0,1-2-3.38,3.76,3.76,0,0,1,.53-2,3.71,3.71,0,0,1,1.5-1.38,4.65,4.65,0,0,1,2.16-.5,4.18,4.18,0,0,1,2.08.5,2.94,2.94,0,0,1,1.3,1.42l-1.7.91a1.84,1.84,0,0,0-1.69-1,1.88,1.88,0,0,0-1.41.56,2,2,0,0,0-.56,1.52,2,2,0,0,0,.56,1.53,1.91,1.91,0,0,0,1.41.56,1.83,1.83,0,0,0,1.69-1l1.7.93a3,3,0,0,1-1.3,1.4,4.18,4.18,0,0,1-2.08.5A4.65,4.65,0,0,1,109.88,78.79Z"/><path class="cls-10" d="M123.46,72.37a3.31,3.31,0,0,1,.86,2.5v4.31h-2.18v-4a2,2,0,0,0-.39-1.34,1.45,1.45,0,0,0-1.14-.44,1.72,1.72,0,0,0-1.31.51,2.12,2.12,0,0,0-.49,1.52v3.73h-2.19V68.79h2.19v3.64a3,3,0,0,1,1-.67,3.89,3.89,0,0,1,1.34-.23A3.1,3.1,0,0,1,123.46,72.37Z"/><path class="cls-10" d="M133.88,71.65v7.53h-2.07v-.9a2.82,2.82,0,0,1-1,.75,3.37,3.37,0,0,1-1.31.26,3.21,3.21,0,0,1-2.35-.85,3.42,3.42,0,0,1-.87-2.54V71.65h2.19v3.93c0,1.21.51,1.82,1.52,1.82a1.62,1.62,0,0,0,1.26-.51,2.15,2.15,0,0,0,.48-1.52V71.65Z"/><path class="cls-10" d="M142.75,72.37a3.31,3.31,0,0,1,.86,2.5v4.31h-2.18v-4a2,2,0,0,0-.39-1.34,1.45,1.45,0,0,0-1.14-.44,1.73,1.73,0,0,0-1.31.51,2.12,2.12,0,0,0-.49,1.52v3.73h-2.19V68.79h2.19v3.64a3,3,0,0,1,1.05-.67,3.89,3.89,0,0,1,1.34-.23A3.08,3.08,0,0,1,142.75,72.37Z"/><path class="cls-10" d="M153,76h-5.7a1.78,1.78,0,0,0,.73,1.1,2.42,2.42,0,0,0,1.43.41,2.8,2.8,0,0,0,1-.18,2.48,2.48,0,0,0,.85-.55l1.16,1.26a3.92,3.92,0,0,1-3.11,1.22,4.91,4.91,0,0,1-2.25-.5,3.64,3.64,0,0,1-1.52-1.38,4,4,0,0,1,0-4A3.63,3.63,0,0,1,147.08,72a4.23,4.23,0,0,1,2-.5,4.16,4.16,0,0,1,2,.48,3.44,3.44,0,0,1,1.41,1.37,4.06,4.06,0,0,1,.51,2.06S153,75.66,153,76Zm-5.11-2.42a1.79,1.79,0,0,0-.62,1.14H151a1.83,1.83,0,0,0-.61-1.14,2,2,0,0,0-2.48,0Z"/><path class="cls-10" d="M170.72,71.65v7.53h-2.08v-.9a2.82,2.82,0,0,1-1,.75,3.33,3.33,0,0,1-1.31.26,3.21,3.21,0,0,1-2.35-.85,3.42,3.42,0,0,1-.87-2.54V71.65h2.19v3.93c0,1.21.51,1.82,1.52,1.82a1.62,1.62,0,0,0,1.26-.51,2.15,2.15,0,0,0,.48-1.52V71.65Z"/><path class="cls-10" d="M179.58,72.37a3.32,3.32,0,0,1,.87,2.5v4.31h-2.19v-4a2,2,0,0,0-.39-1.34,1.45,1.45,0,0,0-1.13-.44,1.74,1.74,0,0,0-1.32.51,2.12,2.12,0,0,0-.49,1.52v3.73h-2.19V71.65h2.09v.88a3,3,0,0,1,1.08-.74,3.8,3.8,0,0,1,1.41-.26A3.08,3.08,0,0,1,179.58,72.37Z"/><path class="cls-10" d="M190.18,68.79V79.18h-2.09v-.87a2.89,2.89,0,0,1-2.35,1,3.92,3.92,0,0,1-1.93-.48,3.44,3.44,0,0,1-1.35-1.35,4.51,4.51,0,0,1,0-4.09A3.46,3.46,0,0,1,183.81,72a3.92,3.92,0,0,1,1.93-.48,2.88,2.88,0,0,1,2.25.91V68.79Zm-2.69,8.14a2.41,2.41,0,0,0,0-3,2,2,0,0,0-2.76,0,2.38,2.38,0,0,0,0,3,2,2,0,0,0,2.76,0Z"/><path class="cls-10" d="M207.42,77.08h-4.55l-.87,2.1h-2.32l4.37-9.8h2.24l4.38,9.8h-2.38Zm-.71-1.72-1.56-3.76-1.55,3.76Z"/><path class="cls-10" d="M212.94,78.79a3.62,3.62,0,0,1-1.49-1.38,3.72,3.72,0,0,1-.54-2,3.77,3.77,0,0,1,.54-2A3.62,3.62,0,0,1,212.94,72a4.66,4.66,0,0,1,2.17-.5,4.24,4.24,0,0,1,2.08.5,3,3,0,0,1,1.29,1.42l-1.69.91a2,2,0,0,0-3.11-.47,2,2,0,0,0-.56,1.52,2,2,0,0,0,.56,1.53,1.91,1.91,0,0,0,1.41.56,1.85,1.85,0,0,0,1.7-1l1.69.93a3.06,3.06,0,0,1-1.29,1.4,4.24,4.24,0,0,1-2.08.5A4.66,4.66,0,0,1,212.94,78.79Z"/><path class="cls-10" d="M221.12,78.79a3.7,3.7,0,0,1-2-3.38,3.77,3.77,0,0,1,.54-2,3.71,3.71,0,0,1,1.5-1.38,4.65,4.65,0,0,1,2.16-.5,4.18,4.18,0,0,1,2.08.5,3,3,0,0,1,1.3,1.42l-1.7.91a1.84,1.84,0,0,0-1.69-1,1.91,1.91,0,0,0-1.42.56,2.06,2.06,0,0,0-.56,1.52,2.09,2.09,0,0,0,.56,1.53,2,2,0,0,0,1.42.56,1.84,1.84,0,0,0,1.69-1l1.7.93a3.08,3.08,0,0,1-1.3,1.4,4.18,4.18,0,0,1-2.08.5A4.65,4.65,0,0,1,221.12,78.79Z"/><path class="cls-10" d="M235.15,76h-5.69a1.77,1.77,0,0,0,.72,1.1,2.44,2.44,0,0,0,1.43.41,2.89,2.89,0,0,0,1-.18,2.44,2.44,0,0,0,.84-.55l1.16,1.26a3.9,3.9,0,0,1-3.1,1.22,5,5,0,0,1-2.26-.5,3.61,3.61,0,0,1-1.51-1.38,4.05,4.05,0,0,1,0-4A3.59,3.59,0,0,1,229.23,72a4.43,4.43,0,0,1,4.05,0,3.51,3.51,0,0,1,1.41,1.37,4.06,4.06,0,0,1,.51,2.06S235.18,75.66,235.15,76ZM230,73.61a1.78,1.78,0,0,0-.61,1.14h3.71a1.79,1.79,0,0,0-1.85-1.56A1.91,1.91,0,0,0,230,73.61Z"/><path class="cls-10" d="M237.35,79.06a5.1,5.1,0,0,1-1.43-.58l.73-1.57a4.27,4.27,0,0,0,1.22.52,5,5,0,0,0,1.4.21c.92,0,1.39-.23,1.39-.69a.49.49,0,0,0-.38-.46,6.14,6.14,0,0,0-1.16-.24,10.85,10.85,0,0,1-1.53-.32,2.4,2.4,0,0,1-1-.64,1.82,1.82,0,0,1-.44-1.32,2,2,0,0,1,.41-1.27,2.68,2.68,0,0,1,1.2-.86,5.27,5.27,0,0,1,1.87-.31,7.18,7.18,0,0,1,1.59.18,4.73,4.73,0,0,1,1.31.48l-.73,1.56a4.26,4.26,0,0,0-2.17-.56,2.26,2.26,0,0,0-1.05.19.58.58,0,0,0-.35.51.51.51,0,0,0,.38.49,6.65,6.65,0,0,0,1.2.26,12.06,12.06,0,0,1,1.52.33,2.3,2.3,0,0,1,1,.64,1.8,1.8,0,0,1,.43,1.29,2,2,0,0,1-.42,1.24,2.66,2.66,0,0,1-1.22.85,5.51,5.51,0,0,1-1.91.3A7.54,7.54,0,0,1,237.35,79.06Z"/><path class="cls-10" d="M244.79,79.06a5,5,0,0,1-1.43-.58l.73-1.57a4.2,4.2,0,0,0,1.21.52,5,5,0,0,0,1.4.21c.93,0,1.39-.23,1.39-.69a.49.49,0,0,0-.38-.46,6.14,6.14,0,0,0-1.16-.24,11.17,11.17,0,0,1-1.53-.32,2.45,2.45,0,0,1-1-.64,1.86,1.86,0,0,1-.44-1.32A2.1,2.1,0,0,1,244,72.7a2.71,2.71,0,0,1,1.21-.86,5.23,5.23,0,0,1,1.87-.31,7.18,7.18,0,0,1,1.59.18,4.66,4.66,0,0,1,1.3.48l-.72,1.56a4.31,4.31,0,0,0-2.17-.56,2.21,2.21,0,0,0-1.05.19.57.57,0,0,0-.35.51.5.5,0,0,0,.37.49,7,7,0,0,0,1.21.26,11.86,11.86,0,0,1,1.51.33,2.3,2.3,0,0,1,1,.64,1.8,1.8,0,0,1,.44,1.29,2,2,0,0,1-.42,1.24,2.64,2.64,0,0,1-1.23.85,5.47,5.47,0,0,1-1.91.3A7.4,7.4,0,0,1,244.79,79.06Z"/><path class="cls-10" d="M253,78.79a3.72,3.72,0,0,1-1.48-1.38,3.81,3.81,0,0,1-.53-2,3.86,3.86,0,0,1,.53-2A3.72,3.72,0,0,1,253,72a4.52,4.52,0,0,1,2.13-.5,4.47,4.47,0,0,1,2.13.5,3.63,3.63,0,0,1,1.47,1.38,3.76,3.76,0,0,1,.53,2,3.72,3.72,0,0,1-.53,2,3.63,3.63,0,0,1-1.47,1.38,4.47,4.47,0,0,1-2.13.5A4.52,4.52,0,0,1,253,78.79Zm3.51-1.86a2.41,2.41,0,0,0,0-3,2,2,0,0,0-2.76,0,2.38,2.38,0,0,0,0,3,2,2,0,0,0,2.76,0Z"/><path class="cls-10" d="M260.8,70.25a1.17,1.17,0,0,1-.38-.87,1.14,1.14,0,0,1,.38-.87,1.56,1.56,0,0,1,2,0,1.07,1.07,0,0,1,.38.84,1.2,1.2,0,0,1-.38.9,1.36,1.36,0,0,1-1,.36A1.4,1.4,0,0,1,260.8,70.25Zm-.11,1.4h2.18v7.53h-2.18Z"/><path class="cls-10" d="M268.05,71.81a4,4,0,0,1,1.53-.28v2l-.49,0a2,2,0,0,0-1.47.53,2.13,2.13,0,0,0-.53,1.57v3.56H264.9V71.65H267v1A2.45,2.45,0,0,1,268.05,71.81Z"/><path class="cls-10" d="M278.15,76h-5.7a1.78,1.78,0,0,0,.73,1.1,2.42,2.42,0,0,0,1.43.41,2.8,2.8,0,0,0,1-.18,2.48,2.48,0,0,0,.85-.55l1.16,1.26a3.92,3.92,0,0,1-3.11,1.22,4.91,4.91,0,0,1-2.25-.5,3.64,3.64,0,0,1-1.52-1.38,4,4,0,0,1,0-4A3.63,3.63,0,0,1,272.22,72a4.26,4.26,0,0,1,2-.5,4.14,4.14,0,0,1,2,.48,3.44,3.44,0,0,1,1.41,1.37,4.06,4.06,0,0,1,.51,2.06S278.18,75.66,278.15,76ZM273,73.61a1.79,1.79,0,0,0-.62,1.14h3.71a1.83,1.83,0,0,0-.61-1.14,2,2,0,0,0-2.48,0Z"/><path class="cls-10" d="M280.35,79.06a5,5,0,0,1-1.43-.58l.73-1.57a4.15,4.15,0,0,0,1.22.52,4.9,4.9,0,0,0,1.4.21q1.38,0,1.38-.69a.48.48,0,0,0-.38-.46,6.14,6.14,0,0,0-1.16-.24,11.17,11.17,0,0,1-1.53-.32,2.45,2.45,0,0,1-1-.64A1.86,1.86,0,0,1,279.1,74a2.1,2.1,0,0,1,.41-1.27,2.71,2.71,0,0,1,1.21-.86,5.23,5.23,0,0,1,1.87-.31,7.18,7.18,0,0,1,1.59.18,4.86,4.86,0,0,1,1.31.48l-.73,1.56a4.31,4.31,0,0,0-2.17-.56,2.21,2.21,0,0,0-1,.19.57.57,0,0,0-.35.51.5.5,0,0,0,.37.49,7,7,0,0,0,1.21.26,11.86,11.86,0,0,1,1.51.33,2.3,2.3,0,0,1,1,.64,1.8,1.8,0,0,1,.44,1.29,2,2,0,0,1-.42,1.24,2.64,2.64,0,0,1-1.23.85,5.47,5.47,0,0,1-1.91.3A7.46,7.46,0,0,1,280.35,79.06Z"/><path class="cls-10" d="M301.78,71.87v7.31h-.67V77.61a2.73,2.73,0,0,1-1.08,1.2,3.22,3.22,0,0,1-1.68.42,3.06,3.06,0,0,1-2.24-.79,3.1,3.1,0,0,1-.81-2.3V71.87h.7v4.21a2.57,2.57,0,0,0,.63,1.88,2.37,2.37,0,0,0,1.78.64,2.52,2.52,0,0,0,1.95-.77,2.9,2.9,0,0,0,.72-2.07V71.87Z"/><path class="cls-10" d="M310.49,72.61a3.12,3.12,0,0,1,.8,2.3v4.27h-.7V75a2.6,2.6,0,0,0-.62-1.87,2.33,2.33,0,0,0-1.75-.65,2.71,2.71,0,0,0-2,.77,2.91,2.91,0,0,0-.74,2.08v3.89h-.7V71.87h.67v1.58a2.84,2.84,0,0,1,1.13-1.2,3.47,3.47,0,0,1,1.77-.44A2.93,2.93,0,0,1,310.49,72.61Z"/><path class="cls-10" d="M320.68,68.79V79.18H320V77.46a3.16,3.16,0,0,1-1.22,1.31,3.42,3.42,0,0,1-1.78.46,3.61,3.61,0,0,1-1.85-.47,3.41,3.41,0,0,1-1.29-1.32,4.16,4.16,0,0,1,0-3.84,3.34,3.34,0,0,1,1.29-1.32,3.71,3.71,0,0,1,1.85-.47,3.38,3.38,0,0,1,1.76.47A3.2,3.2,0,0,1,320,73.56V68.79Zm-2.13,9.42a2.82,2.82,0,0,0,1.05-1.09,3.35,3.35,0,0,0,.38-1.6,3.31,3.31,0,0,0-.38-1.59,2.82,2.82,0,0,0-1.05-1.09,2.87,2.87,0,0,0-1.51-.4,2.81,2.81,0,0,0-1.5.4,2.69,2.69,0,0,0-1.05,1.09,3.2,3.2,0,0,0-.39,1.59,3.24,3.24,0,0,0,.39,1.6,2.69,2.69,0,0,0,1.05,1.09,2.89,2.89,0,0,0,1.5.39A3,3,0,0,0,318.55,78.21Z"/><path class="cls-10" d="M337,72.28a3.44,3.44,0,0,1,1.3,1.32,4.24,4.24,0,0,1,0,3.84,3.51,3.51,0,0,1-1.3,1.32,3.61,3.61,0,0,1-1.85.47,3.35,3.35,0,0,1-1.77-.47,3.13,3.13,0,0,1-1.22-1.3v1.72h-.68V68.79h.7v4.75a3.11,3.11,0,0,1,1.22-1.27,3.49,3.49,0,0,1,1.75-.46A3.71,3.71,0,0,1,337,72.28Zm-.38,5.93a2.78,2.78,0,0,0,1.06-1.09,3.24,3.24,0,0,0,.38-1.6,3.2,3.2,0,0,0-.38-1.59,2.78,2.78,0,0,0-1.06-1.09,2.87,2.87,0,0,0-1.51-.4,2.89,2.89,0,0,0-2.56,1.49,3.31,3.31,0,0,0-.38,1.59,3.35,3.35,0,0,0,.38,1.6,2.78,2.78,0,0,0,1.06,1.09,2.89,2.89,0,0,0,1.5.39A3,3,0,0,0,336.6,78.21Z"/><path class="cls-10" d="M347.09,75.69H340.8a3.07,3.07,0,0,0,.44,1.52,2.73,2.73,0,0,0,1.1,1,3.32,3.32,0,0,0,1.56.36,3.24,3.24,0,0,0,1.32-.26,2.46,2.46,0,0,0,1-.76l.41.46a3.15,3.15,0,0,1-1.2.89,4,4,0,0,1-1.56.3,3.87,3.87,0,0,1-1.94-.47,3.47,3.47,0,0,1-1.34-1.32,3.8,3.8,0,0,1-.48-1.92,4,4,0,0,1,.45-1.91,3.38,3.38,0,0,1,1.25-1.32,3.45,3.45,0,0,1,4.83,1.3,4,4,0,0,1,.45,1.91Zm-4.86-2.92a2.63,2.63,0,0,0-1,1,3.11,3.11,0,0,0-.42,1.41h5.6a3,3,0,0,0-.42-1.4,2.81,2.81,0,0,0-1-1,3,3,0,0,0-2.77,0Z"/><path class="cls-10" d="M349.22,69.93a.57.57,0,0,1,.4-1,.56.56,0,0,1,.41.16.56.56,0,0,1,0,.8.53.53,0,0,1-.41.17A.54.54,0,0,1,349.22,69.93Zm0,1.94h.7v7.31h-.7Z"/><path class="cls-10" d="M25.91,91.24a2.5,2.5,0,0,1,.85,2,2.72,2.72,0,0,1-.39,1.46,2.58,2.58,0,0,1-1.17,1,4.27,4.27,0,0,1-1.87.37,5.5,5.5,0,0,1-2-.36,3.58,3.58,0,0,1-1.46-1l.37-.54a3.43,3.43,0,0,0,1.29.86,4.62,4.62,0,0,0,1.8.34,3,3,0,0,0,2-.58,2.16,2.16,0,0,0,0-3.19,3.39,3.39,0,0,0-2.14-.57h-.62v-.52l2.9-3.71H20.24v-.64h6.14v.5l-2.94,3.77A3.76,3.76,0,0,1,25.91,91.24Z"/><path class="cls-10" d="M30.11,95.44a4,4,0,0,1-1.35-1.73,7.3,7.3,0,0,1,0-5.26,3.89,3.89,0,0,1,1.35-1.73,3.4,3.4,0,0,1,2-.61,3.35,3.35,0,0,1,2,.61,3.84,3.84,0,0,1,1.36,1.73,7.45,7.45,0,0,1,0,5.26,3.9,3.9,0,0,1-1.36,1.73,3.42,3.42,0,0,1-2,.61A3.47,3.47,0,0,1,30.11,95.44Zm3.63-.56a3.3,3.3,0,0,0,1.1-1.49,7.07,7.07,0,0,0,0-4.63,3.27,3.27,0,0,0-1.1-1.48,2.86,2.86,0,0,0-3.26,0,3.27,3.27,0,0,0-1.1,1.48,7.07,7.07,0,0,0,0,4.63,3.3,3.3,0,0,0,1.1,1.49,2.86,2.86,0,0,0,3.26,0Z"/><path class="cls-10" d="M47.11,90.69a3.37,3.37,0,0,1,0-3.84,2,2,0,0,1,3.13,0,3.37,3.37,0,0,1,0,3.84,2,2,0,0,1-1.57.72A1.93,1.93,0,0,1,47.11,90.69Zm2.75-.33a3,3,0,0,0,0-3.18,1.43,1.43,0,0,0-1.19-.58,1.39,1.39,0,0,0-1.18.59,3.06,3.06,0,0,0,0,3.16,1.42,1.42,0,0,0,1.18.59A1.45,1.45,0,0,0,49.86,90.36Zm4.79-4.18h.6L48.56,96H48ZM53,95.31a3.37,3.37,0,0,1,0-3.84,2,2,0,0,1,3.13,0,3.42,3.42,0,0,1,0,3.84,2.06,2.06,0,0,1-3.13,0ZM55.71,95a3,3,0,0,0,0-3.16,1.39,1.39,0,0,0-1.17-.59,1.4,1.4,0,0,0-1.19.58,3,3,0,0,0,0,3.18,1.43,1.43,0,0,0,1.19.58A1.41,1.41,0,0,0,55.71,95Z"/><path class="cls-10" d="M74.37,88.67V96H73.7V94.41a2.73,2.73,0,0,1-1.08,1.2,3.22,3.22,0,0,1-1.68.42,3.06,3.06,0,0,1-2.24-.79,3.1,3.1,0,0,1-.81-2.3V88.67h.7v4.21a2.57,2.57,0,0,0,.63,1.88A2.37,2.37,0,0,0,71,95.4a2.52,2.52,0,0,0,2-.77,2.9,2.9,0,0,0,.72-2.07V88.67Z"/><path class="cls-10" d="M88.58,89.41a3.2,3.2,0,0,1,.77,2.3V96h-.7V91.76a2.64,2.64,0,0,0-.6-1.87,2.18,2.18,0,0,0-1.68-.65,2.55,2.55,0,0,0-2,.77,2.94,2.94,0,0,0-.72,2.08V96H83V91.76a2.64,2.64,0,0,0-.6-1.87,2.21,2.21,0,0,0-1.68-.65,2.56,2.56,0,0,0-2,.77A2.94,2.94,0,0,0,78,92.09V96h-.7V88.67H78v1.57A2.76,2.76,0,0,1,79.1,89a3.34,3.34,0,0,1,1.71-.43,3,3,0,0,1,1.69.45,2.48,2.48,0,0,1,1,1.32,2.85,2.85,0,0,1,1.14-1.29,3.37,3.37,0,0,1,1.81-.48A2.86,2.86,0,0,1,88.58,89.41Z"/><path class="cls-10" d="M103.07,95.49a4.8,4.8,0,0,1-1.91-1.8,5.28,5.28,0,0,1,0-5.22,4.83,4.83,0,0,1,1.91-1.81,6.06,6.06,0,0,1,5-.2,4.63,4.63,0,0,1,1.73,1.29l-1.46,1.34a3.11,3.11,0,0,0-2.46-1.15,3.19,3.19,0,0,0-1.62.4,2.91,2.91,0,0,0-1.12,1.11,3.36,3.36,0,0,0-.4,1.63,3.32,3.32,0,0,0,.4,1.62,2.78,2.78,0,0,0,1.12,1.11,3.19,3.19,0,0,0,1.62.4,3.09,3.09,0,0,0,2.46-1.16l1.46,1.35a4.69,4.69,0,0,1-1.74,1.3,5.73,5.73,0,0,1-2.31.45A5.54,5.54,0,0,1,103.07,95.49Z"/><path class="cls-10" d="M111.35,86.18h4.45a6.22,6.22,0,0,1,2.82.61,4.45,4.45,0,0,1,1.9,1.71,4.78,4.78,0,0,1,.68,2.58,4.72,4.72,0,0,1-.68,2.57,4.53,4.53,0,0,1-1.9,1.72,6.36,6.36,0,0,1-2.82.61h-4.45Zm4.34,7.94A3.3,3.3,0,0,0,118,93.3a2.92,2.92,0,0,0,.88-2.22,2.89,2.89,0,0,0-.88-2.22,3.26,3.26,0,0,0-2.34-.82h-2.08v6.08Z"/><path class="cls-10" d="M123.46,95.86a5,5,0,0,1-1.43-.58l.73-1.57a4.5,4.5,0,0,0,1.21.52,5,5,0,0,0,1.4.21c.93,0,1.39-.23,1.39-.69a.49.49,0,0,0-.38-.46,6.14,6.14,0,0,0-1.16-.24,11.17,11.17,0,0,1-1.53-.32,2.4,2.4,0,0,1-1-.64,1.86,1.86,0,0,1-.44-1.32,2.1,2.1,0,0,1,.41-1.27,2.71,2.71,0,0,1,1.21-.86,5.23,5.23,0,0,1,1.87-.31,7,7,0,0,1,1.58.18,4.61,4.61,0,0,1,1.31.48l-.72,1.56A4.31,4.31,0,0,0,125.7,90a2.21,2.21,0,0,0-1,.19.57.57,0,0,0-.35.51.5.5,0,0,0,.37.49,7,7,0,0,0,1.21.26,11.86,11.86,0,0,1,1.51.33,2.3,2.3,0,0,1,1,.64,1.8,1.8,0,0,1,.44,1.29,2,2,0,0,1-.42,1.24,2.64,2.64,0,0,1-1.23.85,5.47,5.47,0,0,1-1.91.3A7.4,7.4,0,0,1,123.46,95.86Z"/><path class="cls-10" d="M132,93.74a1.33,1.33,0,0,1,.37,1,2.2,2.2,0,0,1-.07.56,7,7,0,0,1-.3.84l-.8,2h-1.39l.62-2.22a1.21,1.21,0,0,1-.56-.46,1.35,1.35,0,0,1-.2-.73,1.3,1.3,0,0,1,.39-1,1.36,1.36,0,0,1,1-.37A1.38,1.38,0,0,1,132,93.74Z"/><path class="cls-10" d="M144.11,86.18h4.45a6.16,6.16,0,0,1,2.82.61,4.53,4.53,0,0,1,1.91,1.71,4.87,4.87,0,0,1,.68,2.58,4.81,4.81,0,0,1-.68,2.57,4.62,4.62,0,0,1-1.91,1.72,6.29,6.29,0,0,1-2.82.61h-4.45Zm4.34,7.94a3.3,3.3,0,0,0,2.34-.82,2.89,2.89,0,0,0,.88-2.22,2.86,2.86,0,0,0-.88-2.22,3.26,3.26,0,0,0-2.34-.82h-2.07v6.08Z"/><path class="cls-10" d="M164.77,86.18,160.53,96h-2.24l-4.23-9.8h2.45l3,7,3-7Z"/><path class="cls-10" d="M165.59,86.18H170a6.22,6.22,0,0,1,2.82.61,4.45,4.45,0,0,1,1.9,1.71,4.78,4.78,0,0,1,.68,2.58,4.72,4.72,0,0,1-.68,2.57,4.53,4.53,0,0,1-1.9,1.72A6.36,6.36,0,0,1,170,96h-4.45Zm4.34,7.94a3.3,3.3,0,0,0,2.34-.82,2.92,2.92,0,0,0,.88-2.22,2.89,2.89,0,0,0-.88-2.22,3.26,3.26,0,0,0-2.34-.82h-2.08v6.08Z"/><path class="cls-10" d="M177.7,95.86a5,5,0,0,1-1.43-.58l.73-1.57a4.5,4.5,0,0,0,1.21.52,5,5,0,0,0,1.4.21c.93,0,1.39-.23,1.39-.69a.49.49,0,0,0-.38-.46,6.14,6.14,0,0,0-1.16-.24,10.85,10.85,0,0,1-1.53-.32,2.4,2.4,0,0,1-1-.64,1.86,1.86,0,0,1-.44-1.32,2.1,2.1,0,0,1,.41-1.27,2.71,2.71,0,0,1,1.21-.86,5.23,5.23,0,0,1,1.87-.31,7,7,0,0,1,1.58.18,4.61,4.61,0,0,1,1.31.48l-.72,1.56a4.31,4.31,0,0,0-2.17-.56,2.21,2.21,0,0,0-1.05.19.57.57,0,0,0-.35.51.5.5,0,0,0,.37.49,7,7,0,0,0,1.21.26,11.86,11.86,0,0,1,1.51.33,2.3,2.3,0,0,1,1,.64,1.8,1.8,0,0,1,.44,1.29,2,2,0,0,1-.42,1.24,2.64,2.64,0,0,1-1.23.85,5.47,5.47,0,0,1-1.91.3A7.4,7.4,0,0,1,177.7,95.86Z"/><path class="cls-10" d="M202.12,88.45V96H200v-.9a2.82,2.82,0,0,1-1,.75,3.32,3.32,0,0,1-1.3.26,3.26,3.26,0,0,1-2.36-.85,3.41,3.41,0,0,1-.86-2.54V88.45h2.18v3.93c0,1.21.51,1.82,1.53,1.82a1.65,1.65,0,0,0,1.26-.51,2.2,2.2,0,0,0,.47-1.52V88.45Z"/><path class="cls-10" d="M211,89.17a3.32,3.32,0,0,1,.87,2.5V96h-2.19V92a2,2,0,0,0-.39-1.34,1.45,1.45,0,0,0-1.13-.44,1.74,1.74,0,0,0-1.32.51,2.12,2.12,0,0,0-.49,1.52V96h-2.18V88.45h2.08v.88a3,3,0,0,1,1.08-.74,3.8,3.8,0,0,1,1.41-.26A3.08,3.08,0,0,1,211,89.17Z"/><path class="cls-10" d="M221.58,85.59V96h-2.09v-.87a2.89,2.89,0,0,1-2.35,1,3.92,3.92,0,0,1-1.93-.48,3.44,3.44,0,0,1-1.35-1.35,4.51,4.51,0,0,1,0-4.09,3.46,3.46,0,0,1,1.35-1.36,3.92,3.92,0,0,1,1.93-.48,2.88,2.88,0,0,1,2.25.91V85.59Zm-2.69,8.14a2.41,2.41,0,0,0,0-3,2,2,0,0,0-2.76,0,2.38,2.38,0,0,0,0,3,2,2,0,0,0,2.76,0Z"/><path class="cls-10" d="M242.35,91.77a2.45,2.45,0,0,1,.48,1.53,2.25,2.25,0,0,1-1,2,5.06,5.06,0,0,1-2.92.7h-5.07v-9.8h4.79a4.73,4.73,0,0,1,2.75.68,2.18,2.18,0,0,1,1,1.87A2.37,2.37,0,0,1,242,90a2.4,2.4,0,0,1-1,.88A2.59,2.59,0,0,1,242.35,91.77Zm-6.25-3.88V90.2h2.25a2.2,2.2,0,0,0,1.27-.3,1.07,1.07,0,0,0,0-1.73,2.3,2.3,0,0,0-1.27-.28Zm4,6.09a1,1,0,0,0,.46-.91c0-.82-.6-1.22-1.81-1.22H236.1v2.42h2.64A2.55,2.55,0,0,0,240.09,94Z"/><path class="cls-10" d="M244.4,85.59h2.18V96H244.4Z"/><path class="cls-10" d="M256.2,88.45V96h-2.07v-.9a2.86,2.86,0,0,1-1,.75,3.28,3.28,0,0,1-1.3.26,3.24,3.24,0,0,1-2.35-.85,3.42,3.42,0,0,1-.87-2.54V88.45h2.18v3.93c0,1.21.51,1.82,1.53,1.82a1.65,1.65,0,0,0,1.26-.51,2.15,2.15,0,0,0,.48-1.52V88.45Z"/><path class="cls-10" d="M265.57,92.83h-5.7a1.74,1.74,0,0,0,.73,1.1,2.4,2.4,0,0,0,1.43.41,2.84,2.84,0,0,0,1-.18,2.44,2.44,0,0,0,.84-.55l1.17,1.26A3.92,3.92,0,0,1,262,96.09a5,5,0,0,1-2.26-.5,3.67,3.67,0,0,1-1.51-1.38,4,4,0,0,1,0-4,3.63,3.63,0,0,1,1.44-1.39,4.23,4.23,0,0,1,2.05-.5,4.16,4.16,0,0,1,2,.48,3.48,3.48,0,0,1,1.41,1.36,4.13,4.13,0,0,1,.51,2.07S265.6,92.46,265.57,92.83Zm-5.11-2.42a1.79,1.79,0,0,0-.62,1.14h3.71a1.83,1.83,0,0,0-.61-1.14,2,2,0,0,0-2.48,0Z"/><path class="cls-10" d="M273.46,96l-1.89-2.73h-2.08V96h-2.27v-9.8h4.24a5.43,5.43,0,0,1,2.26.43,3.4,3.4,0,0,1,1.48,1.23,3.48,3.48,0,0,1,.52,1.89,3.21,3.21,0,0,1-2,3.1L275.9,96Zm-.57-7.51a2.36,2.36,0,0,0-1.56-.44h-1.84v3.41h1.84a2.36,2.36,0,0,0,1.56-.45,1.76,1.76,0,0,0,0-2.52Z"/><path class="cls-10" d="M283,89.17a3.16,3.16,0,0,1,.94,2.51V96h-2V95a2.45,2.45,0,0,1-2.3,1,3.7,3.7,0,0,1-1.51-.29,2.31,2.31,0,0,1-1-.82,2.11,2.11,0,0,1-.34-1.17,2,2,0,0,1,.8-1.65,4,4,0,0,1,2.44-.61h1.74a1.41,1.41,0,0,0-.44-1.1,1.94,1.94,0,0,0-1.3-.38,3.64,3.64,0,0,0-1.18.19,2.9,2.9,0,0,0-1,.51l-.78-1.53a4.74,4.74,0,0,1,1.47-.67,6.63,6.63,0,0,1,1.77-.24A3.89,3.89,0,0,1,283,89.17Zm-1.86,5.19a1.47,1.47,0,0,0,.62-.76v-.77h-1.5c-.9,0-1.35.29-1.35.88a.8.8,0,0,0,.33.67,1.51,1.51,0,0,0,.91.24A1.92,1.92,0,0,0,281.15,94.36Z"/><path class="cls-10" d="M293.26,88.45l-3.4,8a4,4,0,0,1-1.28,1.83,3.13,3.13,0,0,1-1.85.54,3.57,3.57,0,0,1-1.16-.19,2.71,2.71,0,0,1-.94-.5l.8-1.55a2.24,2.24,0,0,0,.58.35,1.91,1.91,0,0,0,.65.12,1.12,1.12,0,0,0,.73-.22,1.75,1.75,0,0,0,.51-.72l0-.07-3.26-7.58h2.26L289,93.56l2.13-5.11Z"/><path class="cls-10" d="M294.74,95.86a5.23,5.23,0,0,1-1.43-.58l.73-1.57a4.57,4.57,0,0,0,1.22.52,5,5,0,0,0,1.4.21c.92,0,1.39-.23,1.39-.69a.49.49,0,0,0-.38-.46,6.14,6.14,0,0,0-1.16-.24,10.85,10.85,0,0,1-1.53-.32,2.4,2.4,0,0,1-1-.64,1.82,1.82,0,0,1-.44-1.32,2,2,0,0,1,.41-1.27,2.74,2.74,0,0,1,1.2-.86,5.27,5.27,0,0,1,1.87-.31,7.11,7.11,0,0,1,1.59.18,4.73,4.73,0,0,1,1.31.48l-.73,1.56A4.26,4.26,0,0,0,297,90a2.26,2.26,0,0,0-1.05.19.58.58,0,0,0-.35.51.51.51,0,0,0,.38.49,6.65,6.65,0,0,0,1.2.26,12.06,12.06,0,0,1,1.52.33,2.3,2.3,0,0,1,1,.64,1.8,1.8,0,0,1,.43,1.29,2,2,0,0,1-.42,1.24,2.6,2.6,0,0,1-1.22.85,5.51,5.51,0,0,1-1.91.3A7.54,7.54,0,0,1,294.74,95.86Z"/><path class="cls-10" d="M301.39,95.79a1,1,0,0,1,0-1.37.91.91,0,0,1,.68-.28.86.86,0,0,1,.65.27,1,1,0,0,1,0,1.38.91.91,0,0,1-.65.27A.94.94,0,0,1,301.39,95.79Z"/><path class="cls-10" d="M314.52,86.18h3.88a5.68,5.68,0,0,1,2.71.63A4.61,4.61,0,0,1,323,88.55a5.16,5.16,0,0,1,0,5,4.56,4.56,0,0,1-1.84,1.75,5.68,5.68,0,0,1-2.71.63h-3.88Zm3.83,9.15a5.22,5.22,0,0,0,2.39-.53,4,4,0,0,0,1.6-1.51,4.64,4.64,0,0,0,0-4.42,3.89,3.89,0,0,0-1.6-1.51,5.1,5.1,0,0,0-2.39-.54h-3.11v8.51Z"/><path class="cls-10" d="M325.81,86.73a.56.56,0,0,1,0-.8.51.51,0,0,1,.4-.17.56.56,0,0,1,.41.16.56.56,0,0,1,0,.8.53.53,0,0,1-.41.17A.54.54,0,0,1,325.81,86.73Zm.05,1.94h.7V96h-.7Z"/><path class="cls-10" d="M335.69,92.49h-6.28a3,3,0,0,0,.43,1.52,2.8,2.8,0,0,0,1.1,1,3.32,3.32,0,0,0,1.56.36,3.18,3.18,0,0,0,1.32-.26,2.49,2.49,0,0,0,1-.76l.4.46a3,3,0,0,1-1.19.89,4,4,0,0,1-1.56.3,3.91,3.91,0,0,1-1.95-.47,3.54,3.54,0,0,1-1.34-1.32,3.8,3.8,0,0,1-.48-1.92,4,4,0,0,1,.45-1.91,3.48,3.48,0,0,1,1.26-1.32,3.59,3.59,0,0,1,3.57,0,3.35,3.35,0,0,1,1.25,1.31,4,4,0,0,1,.46,1.91Zm-4.86-2.92a2.54,2.54,0,0,0-1,1,3.11,3.11,0,0,0-.43,1.41H335a3,3,0,0,0-.42-1.4,2.63,2.63,0,0,0-1-1,3,3,0,0,0-2.78,0Z"/><path class="cls-10" d="M338,95.77a3.52,3.52,0,0,1-1.24-.67l.32-.56a3.79,3.79,0,0,0,1.15.63,4.64,4.64,0,0,0,1.48.25,2.83,2.83,0,0,0,1.63-.37,1.16,1.16,0,0,0,.53-1,1,1,0,0,0-.29-.73,1.69,1.69,0,0,0-.71-.39,9.32,9.32,0,0,0-1.16-.27,8.45,8.45,0,0,1-1.4-.34,2.19,2.19,0,0,1-.91-.58,1.62,1.62,0,0,1-.38-1.12,1.76,1.76,0,0,1,.72-1.44,3.28,3.28,0,0,1,2.06-.57,5.06,5.06,0,0,1,1.38.2,3.33,3.33,0,0,1,1.12.52l-.32.56a3.21,3.21,0,0,0-1-.49,4.26,4.26,0,0,0-1.18-.17,2.63,2.63,0,0,0-1.54.38,1.18,1.18,0,0,0-.52,1,1,1,0,0,0,.3.76,1.7,1.7,0,0,0,.72.41,10.67,10.67,0,0,0,1.2.29,9.55,9.55,0,0,1,1.37.33,2,2,0,0,1,.89.56,1.49,1.49,0,0,1,.37,1.08,1.71,1.71,0,0,1-.76,1.46,3.6,3.6,0,0,1-2.13.54A5.27,5.27,0,0,1,338,95.77Z"/><path class="cls-10" d="M350.74,92.49h-6.28a3,3,0,0,0,.43,1.52,2.8,2.8,0,0,0,1.1,1,3.32,3.32,0,0,0,1.56.36,3.18,3.18,0,0,0,1.32-.26,2.49,2.49,0,0,0,1-.76l.4.46a3,3,0,0,1-1.19.89,4,4,0,0,1-1.56.3,3.91,3.91,0,0,1-2-.47,3.54,3.54,0,0,1-1.34-1.32,3.8,3.8,0,0,1-.48-1.92,4,4,0,0,1,.45-1.91,3.48,3.48,0,0,1,1.26-1.32,3.59,3.59,0,0,1,3.57,0,3.35,3.35,0,0,1,1.25,1.31,4,4,0,0,1,.46,1.91Zm-4.86-2.92a2.54,2.54,0,0,0-1,1,3.11,3.11,0,0,0-.43,1.41h5.6a3,3,0,0,0-.42-1.4,2.63,2.63,0,0,0-1-1,2.84,2.84,0,0,0-1.39-.35A2.81,2.81,0,0,0,345.88,89.57Z"/><path class="cls-10" d="M27.67,102.39v10.39H27v-1.72a3.07,3.07,0,0,1-1.21,1.31,3.45,3.45,0,0,1-1.78.46,3.71,3.71,0,0,1-1.85-.47A3.41,3.41,0,0,1,20.85,111a4.16,4.16,0,0,1,0-3.84,3.34,3.34,0,0,1,1.29-1.32,3.71,3.71,0,0,1,1.85-.47,3.38,3.38,0,0,1,1.76.47A3.27,3.27,0,0,1,27,107.16v-4.77Zm-2.13,9.42a2.82,2.82,0,0,0,1.05-1.09,3.35,3.35,0,0,0,.38-1.6,3.31,3.31,0,0,0-.38-1.59,2.82,2.82,0,0,0-1.05-1.09A2.87,2.87,0,0,0,24,106a2.81,2.81,0,0,0-1.5.4,2.69,2.69,0,0,0-1.05,1.09,3.2,3.2,0,0,0-.39,1.59,3.24,3.24,0,0,0,.39,1.6,2.69,2.69,0,0,0,1.05,1.09,2.89,2.89,0,0,0,1.5.39A3,3,0,0,0,25.54,111.81Z"/><path class="cls-10" d="M36.8,109.29H30.51a3.07,3.07,0,0,0,.44,1.52,2.73,2.73,0,0,0,1.1,1,3.32,3.32,0,0,0,1.56.36,3.24,3.24,0,0,0,1.32-.26,2.46,2.46,0,0,0,1-.76l.41.46a3.15,3.15,0,0,1-1.2.89,4.22,4.22,0,0,1-3.5-.17A3.47,3.47,0,0,1,30.31,111a3.8,3.8,0,0,1-.48-1.92,4,4,0,0,1,.45-1.91,3.38,3.38,0,0,1,1.25-1.32,3.45,3.45,0,0,1,4.83,1.3,4,4,0,0,1,.45,1.91Zm-4.86-2.92a2.63,2.63,0,0,0-1,1,3.11,3.11,0,0,0-.42,1.41h5.6a3,3,0,0,0-.42-1.4,2.73,2.73,0,0,0-1-1,3,3,0,0,0-2.77,0Z"/><path class="cls-10" d="M40,112.36A3.44,3.44,0,0,1,38.66,111a4.06,4.06,0,0,1,0-3.83A3.42,3.42,0,0,1,40,105.88a3.85,3.85,0,0,1,1.9-.47,3.65,3.65,0,0,1,1.6.35,2.91,2.91,0,0,1,1.17,1l-.52.38a2.39,2.39,0,0,0-1-.82,2.86,2.86,0,0,0-1.28-.28,3,3,0,0,0-1.53.39,2.78,2.78,0,0,0-1.07,1.08,3.39,3.39,0,0,0-.38,1.61,3.33,3.33,0,0,0,.38,1.61,2.74,2.74,0,0,0,1.07,1.09,3.22,3.22,0,0,0,2.81.11,2.39,2.39,0,0,0,1-.82l.52.38a2.91,2.91,0,0,1-1.17,1,3.64,3.64,0,0,1-1.6.34A3.85,3.85,0,0,1,40,112.36Z"/><path class="cls-10" d="M49.23,108.87l-1.9,1.74v2.17h-.7V102.39h.7v7.35L52,105.47h.9l-3.15,3,3.46,4.36h-.87Z"/><path class="cls-10" d="M60.74,109.29H54.45a3.07,3.07,0,0,0,.44,1.52,2.73,2.73,0,0,0,1.1,1,3.32,3.32,0,0,0,1.56.36,3.24,3.24,0,0,0,1.32-.26,2.46,2.46,0,0,0,1-.76l.41.46a3.15,3.15,0,0,1-1.2.89,4.22,4.22,0,0,1-3.5-.17A3.47,3.47,0,0,1,54.25,111a3.8,3.8,0,0,1-.48-1.92,4,4,0,0,1,.45-1.91,3.38,3.38,0,0,1,1.25-1.32,3.45,3.45,0,0,1,4.83,1.3,4,4,0,0,1,.45,1.91Zm-4.86-2.92a2.63,2.63,0,0,0-1,1,3.11,3.11,0,0,0-.42,1.41h5.6a3,3,0,0,0-.42-1.4,2.73,2.73,0,0,0-1-1,3,3,0,0,0-2.77,0Z"/><path class="cls-10" d="M68.66,106.21a3.12,3.12,0,0,1,.8,2.3v4.27h-.7v-4.22a2.6,2.6,0,0,0-.62-1.87,2.33,2.33,0,0,0-1.75-.65,2.72,2.72,0,0,0-2,.77,2.91,2.91,0,0,0-.74,2.08v3.89h-.7v-7.31h.67v1.58a2.84,2.84,0,0,1,1.13-1.2,3.47,3.47,0,0,1,1.77-.44A2.93,2.93,0,0,1,68.66,106.21Z"/><path class="cls-10" d="M80.24,112.57A3.44,3.44,0,0,1,79,111.9l.32-.56a3.79,3.79,0,0,0,1.15.63,4.6,4.6,0,0,0,1.48.25,2.83,2.83,0,0,0,1.63-.37,1.16,1.16,0,0,0,.53-1,1,1,0,0,0-.29-.73,1.69,1.69,0,0,0-.71-.39,9.78,9.78,0,0,0-1.16-.27,8.2,8.2,0,0,1-1.4-.34,2.13,2.13,0,0,1-.91-.58,1.62,1.62,0,0,1-.38-1.12A1.76,1.76,0,0,1,80,106a3.25,3.25,0,0,1,2-.57,5.08,5.08,0,0,1,1.39.2,3.33,3.33,0,0,1,1.12.52l-.32.56a3.21,3.21,0,0,0-1-.49A4.32,4.32,0,0,0,82,106a2.63,2.63,0,0,0-1.54.38,1.16,1.16,0,0,0-.52,1,1,1,0,0,0,.3.76,1.7,1.7,0,0,0,.72.41,11,11,0,0,0,1.19.29,9.4,9.4,0,0,1,1.38.33,2,2,0,0,1,.89.56,1.54,1.54,0,0,1,.37,1.08,1.73,1.73,0,0,1-.76,1.46,3.6,3.6,0,0,1-2.13.54A5.18,5.18,0,0,1,80.24,112.57Z"/><path class="cls-10" d="M86.71,103.53a.56.56,0,0,1,0-.8.53.53,0,0,1,.41-.17.55.55,0,0,1,.4.16.56.56,0,0,1,0,.8.52.52,0,0,1-.4.17A.56.56,0,0,1,86.71,103.53Zm.06,1.94h.7v7.31h-.7Z"/><path class="cls-10" d="M91.41,112.36A3.35,3.35,0,0,1,90.1,111a4.06,4.06,0,0,1,0-3.83,3.33,3.33,0,0,1,1.31-1.32,3.89,3.89,0,0,1,1.91-.47,3.65,3.65,0,0,1,1.6.35,2.91,2.91,0,0,1,1.17,1l-.52.38a2.39,2.39,0,0,0-1-.82,2.89,2.89,0,0,0-1.28-.28,3.07,3.07,0,0,0-1.54.39,2.82,2.82,0,0,0-1.06,1.08,3.27,3.27,0,0,0-.38,1.61,3.22,3.22,0,0,0,.38,1.61,2.78,2.78,0,0,0,1.06,1.09,3.06,3.06,0,0,0,1.54.38,3,3,0,0,0,1.28-.27,2.39,2.39,0,0,0,1-.82l.52.38a2.91,2.91,0,0,1-1.17,1,3.64,3.64,0,0,1-1.6.34A3.89,3.89,0,0,1,91.41,112.36Z"/><path class="cls-10" d="M103.8,106.21a3.08,3.08,0,0,1,.8,2.3v4.27h-.7v-4.22a2.6,2.6,0,0,0-.62-1.87,2.32,2.32,0,0,0-1.74-.65,2.69,2.69,0,0,0-2,.77,2.87,2.87,0,0,0-.75,2.08v3.89h-.7V102.39h.7V107a2.7,2.7,0,0,1,1.12-1.17,3.51,3.51,0,0,1,1.75-.42A2.93,2.93,0,0,1,103.8,106.21Z"/><path class="cls-10" d="M118.84,112.32a1.94,1.94,0,0,1-.66.38,2.63,2.63,0,0,1-.84.13,2,2,0,0,1-1.47-.52,2,2,0,0,1-.51-1.46v-4.78H114v-.6h1.35v-1.6h.7v1.6h2.32v.6h-2.32v4.71a1.54,1.54,0,0,0,.34,1.08,1.31,1.31,0,0,0,1,.37,1.64,1.64,0,0,0,1.14-.4Z"/><path class="cls-10" d="M126.7,109.29h-6.29a3.06,3.06,0,0,0,.43,1.52,2.8,2.8,0,0,0,1.1,1,3.32,3.32,0,0,0,1.56.36,3.25,3.25,0,0,0,1.33-.26,2.53,2.53,0,0,0,1-.76l.41.46a3.15,3.15,0,0,1-1.2.89,4.25,4.25,0,0,1-3.51-.17,3.44,3.44,0,0,1-1.33-1.32,3.71,3.71,0,0,1-.49-1.92,3.91,3.91,0,0,1,.46-1.91,3.38,3.38,0,0,1,3-1.8,3.47,3.47,0,0,1,1.79.47,3.4,3.4,0,0,1,1.24,1.31,3.88,3.88,0,0,1,.46,1.91Zm-4.86-2.92a2.63,2.63,0,0,0-1,1,3.11,3.11,0,0,0-.43,1.41H126a3,3,0,0,0-.42-1.4,2.63,2.63,0,0,0-1-1,3,3,0,0,0-2.77,0Z"/><path class="cls-10" d="M128.82,103.53a.56.56,0,0,1,0-.8.53.53,0,0,1,.41-.17.57.57,0,0,1,.41.16.58.58,0,0,1,0,.8.54.54,0,0,1-.41.17A.56.56,0,0,1,128.82,103.53Zm.06,1.94h.7v7.31h-.7Z"/><path class="cls-10" d="M132.53,102.39h.7v10.39h-.7Z"/><path class="cls-10" d="M146.63,105.47l-2.77,7.31h-.66l-2.46-6.34-2.48,6.34h-.65l-2.77-7.31h.67L138,112l2.49-6.52h.6l2.48,6.51,2.47-6.51Z"/><path class="cls-10" d="M154.22,109.29h-6.29a3.07,3.07,0,0,0,.44,1.52,2.73,2.73,0,0,0,1.1,1,3.32,3.32,0,0,0,1.56.36,3.24,3.24,0,0,0,1.32-.26,2.46,2.46,0,0,0,1-.76l.41.46a3.15,3.15,0,0,1-1.2.89,4.22,4.22,0,0,1-3.5-.17,3.47,3.47,0,0,1-1.34-1.32,3.8,3.8,0,0,1-.48-1.92,4,4,0,0,1,.45-1.91,3.38,3.38,0,0,1,1.25-1.32,3.45,3.45,0,0,1,4.83,1.3,4,4,0,0,1,.45,1.91Zm-4.86-2.92a2.63,2.63,0,0,0-1,1,3.11,3.11,0,0,0-.42,1.41h5.6a3,3,0,0,0-.42-1.4,2.73,2.73,0,0,0-1-1,3,3,0,0,0-2.77,0Z"/><path class="cls-10" d="M156.35,103.53a.57.57,0,0,1,.4-1,.56.56,0,0,1,.41.16.56.56,0,0,1,0,.8.53.53,0,0,1-.41.17A.54.54,0,0,1,156.35,103.53Zm.05,1.94h.7v7.31h-.7Z"/><path class="cls-10" d="M160.22,112.57a3.52,3.52,0,0,1-1.24-.67l.32-.56a3.79,3.79,0,0,0,1.15.63,4.64,4.64,0,0,0,1.48.25,2.83,2.83,0,0,0,1.63-.37,1.16,1.16,0,0,0,.53-1,1,1,0,0,0-.29-.73,1.69,1.69,0,0,0-.71-.39,9.32,9.32,0,0,0-1.16-.27,8.45,8.45,0,0,1-1.4-.34,2.19,2.19,0,0,1-.91-.58,1.62,1.62,0,0,1-.38-1.12A1.75,1.75,0,0,1,160,106a3.23,3.23,0,0,1,2.05-.57,5.06,5.06,0,0,1,1.38.2,3.33,3.33,0,0,1,1.12.52l-.32.56a3.21,3.21,0,0,0-1-.49A4.26,4.26,0,0,0,162,106a2.63,2.63,0,0,0-1.54.38,1.18,1.18,0,0,0-.52,1,1,1,0,0,0,.3.76,1.7,1.7,0,0,0,.72.41,10.67,10.67,0,0,0,1.2.29,9.23,9.23,0,0,1,1.37.33,2,2,0,0,1,.89.56,1.49,1.49,0,0,1,.37,1.08,1.71,1.71,0,0,1-.76,1.46,3.6,3.6,0,0,1-2.13.54A5.27,5.27,0,0,1,160.22,112.57Z"/><path class="cls-10" d="M172.92,109.29h-6.28a3,3,0,0,0,.43,1.52,2.8,2.8,0,0,0,1.1,1,3.32,3.32,0,0,0,1.56.36,3.18,3.18,0,0,0,1.32-.26,2.49,2.49,0,0,0,1-.76l.4.46a3,3,0,0,1-1.19.89,4.25,4.25,0,0,1-3.51-.17,3.54,3.54,0,0,1-1.34-1.32,3.8,3.8,0,0,1-.48-1.92,3.91,3.91,0,0,1,.46-1.91,3.38,3.38,0,0,1,3-1.8,3.49,3.49,0,0,1,1.79.47,3.4,3.4,0,0,1,1.24,1.31,4,4,0,0,1,.46,1.91Zm-4.86-2.92a2.54,2.54,0,0,0-1,1,3.11,3.11,0,0,0-.43,1.41h5.6a3,3,0,0,0-.42-1.4,2.63,2.63,0,0,0-1-1,3,3,0,0,0-2.78,0Z"/><path class="cls-10" d="M194.07,106.21a3.16,3.16,0,0,1,.78,2.3v4.27h-.7v-4.22a2.64,2.64,0,0,0-.6-1.87,2.21,2.21,0,0,0-1.68-.65,2.56,2.56,0,0,0-2,.77,2.94,2.94,0,0,0-.72,2.08v3.89h-.7v-4.22a2.64,2.64,0,0,0-.6-1.87,2.18,2.18,0,0,0-1.68-.65,2.55,2.55,0,0,0-2,.77,2.94,2.94,0,0,0-.72,2.08v3.89h-.7v-7.31h.67V107a2.68,2.68,0,0,1,1.08-1.2,3.35,3.35,0,0,1,1.72-.43,3,3,0,0,1,1.68.45,2.39,2.39,0,0,1,1,1.32,2.85,2.85,0,0,1,1.14-1.29,3.39,3.39,0,0,1,1.82-.48A2.85,2.85,0,0,1,194.07,106.21Z"/><path class="cls-10" d="M197.68,103.53a.57.57,0,0,1,.4-1,.56.56,0,0,1,.41.16.56.56,0,0,1,0,.8.53.53,0,0,1-.41.17A.54.54,0,0,1,197.68,103.53Zm0,1.94h.7v7.31h-.7Z"/><path class="cls-10" d="M205,112.32a1.94,1.94,0,0,1-.66.38,2.63,2.63,0,0,1-.84.13,2,2,0,0,1-1.47-.52,2,2,0,0,1-.51-1.46v-4.78h-1.35v-.6h1.35v-1.6h.7v1.6h2.32v.6h-2.32v4.71a1.54,1.54,0,0,0,.34,1.08,1.31,1.31,0,0,0,1,.37,1.64,1.64,0,0,0,1.14-.4Z"/><path class="cls-10" d="M221.18,102.39v10.39h-.68v-1.72a3.16,3.16,0,0,1-1.22,1.31,3.42,3.42,0,0,1-1.78.46,3.71,3.71,0,0,1-1.85-.47,3.41,3.41,0,0,1-1.29-1.32,4.16,4.16,0,0,1,0-3.84,3.34,3.34,0,0,1,1.29-1.32,3.71,3.71,0,0,1,1.85-.47,3.38,3.38,0,0,1,1.76.47,3.2,3.2,0,0,1,1.22,1.28v-4.77Zm-2.13,9.42a2.82,2.82,0,0,0,1-1.09,3.35,3.35,0,0,0,.38-1.6,3.31,3.31,0,0,0-.38-1.59,2.82,2.82,0,0,0-1-1.09,2.87,2.87,0,0,0-1.51-.4,2.81,2.81,0,0,0-1.5.4,2.69,2.69,0,0,0-1,1.09,3.2,3.2,0,0,0-.39,1.59,3.24,3.24,0,0,0,.39,1.6,2.69,2.69,0,0,0,1,1.09,2.89,2.89,0,0,0,1.5.39A3,3,0,0,0,219.05,111.81Z"/><path class="cls-10" d="M230.31,109.29H224a3.07,3.07,0,0,0,.44,1.52,2.8,2.8,0,0,0,1.1,1,3.32,3.32,0,0,0,1.56.36,3.24,3.24,0,0,0,1.32-.26,2.49,2.49,0,0,0,1-.76l.4.46a3.11,3.11,0,0,1-1.19.89,4.1,4.1,0,0,1-1.57.3,4,4,0,0,1-1.94-.47,3.47,3.47,0,0,1-1.34-1.32,3.8,3.8,0,0,1-.48-1.92,4,4,0,0,1,.45-1.91,3.52,3.52,0,0,1,4.83-1.33,3.35,3.35,0,0,1,1.25,1.31,4,4,0,0,1,.45,1.91Zm-4.86-2.92a2.54,2.54,0,0,0-1,1,3.11,3.11,0,0,0-.43,1.41h5.6a3,3,0,0,0-.42-1.4,2.66,2.66,0,0,0-1-1,3,3,0,0,0-2.77,0Z"/><path class="cls-10" d="M238.23,106.21a3.08,3.08,0,0,1,.8,2.3v4.27h-.7v-4.22a2.6,2.6,0,0,0-.62-1.87A2.32,2.32,0,0,0,236,106a2.69,2.69,0,0,0-2,.77,2.87,2.87,0,0,0-.75,2.08v3.89h-.7v-7.31h.68v1.58a2.76,2.76,0,0,1,1.12-1.2,3.47,3.47,0,0,1,1.77-.44A2.93,2.93,0,0,1,238.23,106.21Z"/><path class="cls-10" d="M255.93,110h-5.68L249,112.78h-.77l4.51-9.8h.71l4.51,9.8h-.77Zm-.26-.6-2.58-5.66-2.56,5.66Z"/><path class="cls-10" d="M265.26,106.21a3.12,3.12,0,0,1,.79,2.3v4.27h-.7v-4.22a2.56,2.56,0,0,0-.62-1.87A2.32,2.32,0,0,0,263,106a2.69,2.69,0,0,0-2,.77,2.87,2.87,0,0,0-.75,2.08v3.89h-.69v-7.31h.67v1.58a2.76,2.76,0,0,1,1.12-1.2,3.48,3.48,0,0,1,1.78-.44A3,3,0,0,1,265.26,106.21Z"/><path class="cls-10" d="M275.53,105.47V112a3.62,3.62,0,0,1-.88,2.69,3.66,3.66,0,0,1-2.66.87,5.75,5.75,0,0,1-1.91-.31,3.77,3.77,0,0,1-1.44-.85l.38-.53a3.91,3.91,0,0,0,1.32.78,4.65,4.65,0,0,0,1.63.28,3,3,0,0,0,2.16-.69,2.91,2.91,0,0,0,.7-2.15v-1.23a3.08,3.08,0,0,1-1.25,1.23,3.67,3.67,0,0,1-1.79.43,3.81,3.81,0,0,1-1.85-.45,3.4,3.4,0,0,1-1.31-1.27,3.75,3.75,0,0,1,0-3.67,3.31,3.31,0,0,1,1.31-1.26,3.81,3.81,0,0,1,1.85-.45,3.69,3.69,0,0,1,1.82.45,3.1,3.1,0,0,1,1.25,1.26v-1.65Zm-2.14,6a2.68,2.68,0,0,0,1.07-1,3.21,3.21,0,0,0,0-3,2.79,2.79,0,0,0-1.07-1,3.27,3.27,0,0,0-1.54-.37,3.21,3.21,0,0,0-1.53.37,2.79,2.79,0,0,0-1.07,1,3.21,3.21,0,0,0,0,3,2.68,2.68,0,0,0,1.07,1,3.09,3.09,0,0,0,1.53.37A3.16,3.16,0,0,0,273.39,111.51Z"/><path class="cls-10" d="M283.05,106.11a2.69,2.69,0,0,1,.73,2v4.64h-.68v-1.3a2.46,2.46,0,0,1-1,1,3.48,3.48,0,0,1-1.61.35,3,3,0,0,1-1.92-.57,1.86,1.86,0,0,1-.71-1.51,1.88,1.88,0,0,1,.65-1.48,3.13,3.13,0,0,1,2.08-.57h2.51v-.58a2.07,2.07,0,0,0-.56-1.56,2.25,2.25,0,0,0-1.61-.53,3.9,3.9,0,0,0-1.4.25,3.55,3.55,0,0,0-1.12.67l-.35-.5a3.77,3.77,0,0,1,1.31-.76,4.62,4.62,0,0,1,1.61-.28A2.89,2.89,0,0,1,283.05,106.11Zm-.93,5.73a2.63,2.63,0,0,0,1-1.22v-1.37h-2.5a2.52,2.52,0,0,0-1.56.39,1.31,1.31,0,0,0-.48,1.08,1.37,1.37,0,0,0,.53,1.13,2.45,2.45,0,0,0,1.5.41A2.76,2.76,0,0,0,282.12,111.84Z"/><path class="cls-10" d="M292.18,105.88a3.34,3.34,0,0,1,1.29,1.32,4.16,4.16,0,0,1,0,3.84,3.41,3.41,0,0,1-1.29,1.32,3.71,3.71,0,0,1-1.85.47,3.33,3.33,0,0,1-1.77-.47,3.15,3.15,0,0,1-1.23-1.3v1.72h-.67V102.39h.7v4.75a3.11,3.11,0,0,1,1.22-1.27,3.44,3.44,0,0,1,1.75-.46A3.71,3.71,0,0,1,292.18,105.88Zm-.38,5.93a2.78,2.78,0,0,0,1.06-1.09,3.35,3.35,0,0,0,.38-1.6,3.31,3.31,0,0,0-.38-1.59,2.78,2.78,0,0,0-1.06-1.09,3.05,3.05,0,0,0-3,0,2.82,2.82,0,0,0-1,1.09,3.2,3.2,0,0,0-.38,1.59,3.24,3.24,0,0,0,.38,1.6,2.82,2.82,0,0,0,1,1.09,3.12,3.12,0,0,0,3,0Z"/><path class="cls-10" d="M302.28,109.29H296a3.06,3.06,0,0,0,.43,1.52,2.8,2.8,0,0,0,1.1,1,3.32,3.32,0,0,0,1.56.36,3.25,3.25,0,0,0,1.33-.26,2.53,2.53,0,0,0,1-.76l.41.46a3.15,3.15,0,0,1-1.2.89,4.25,4.25,0,0,1-3.51-.17,3.54,3.54,0,0,1-1.34-1.32,3.8,3.8,0,0,1-.48-1.92,3.91,3.91,0,0,1,.46-1.91,3.38,3.38,0,0,1,3-1.8,3.49,3.49,0,0,1,1.79.47,3.4,3.4,0,0,1,1.24,1.31,3.88,3.88,0,0,1,.46,1.91Zm-4.85-2.92a2.63,2.63,0,0,0-1,1,3.11,3.11,0,0,0-.43,1.41h5.6a3,3,0,0,0-.42-1.4,2.63,2.63,0,0,0-1-1,3,3,0,0,0-2.77,0Z"/><path class="cls-10" d="M310.21,106.21a3.12,3.12,0,0,1,.8,2.3v4.27h-.7v-4.22a2.56,2.56,0,0,0-.63-1.87,2.29,2.29,0,0,0-1.74-.65,2.69,2.69,0,0,0-2,.77,2.91,2.91,0,0,0-.74,2.08v3.89h-.7v-7.31h.67v1.58a2.78,2.78,0,0,1,1.13-1.2,3.47,3.47,0,0,1,1.77-.44A3,3,0,0,1,310.21,106.21Z"/><path class="cls-10" d="M326.56,112.18v.6h-5.81v-.48l4.82-6.23h-4.75v-.6h5.66V106l-4.83,6.23Z"/><path class="cls-10" d="M335.06,105.47v7.31h-.67v-1.57a2.79,2.79,0,0,1-1.08,1.2,3.27,3.27,0,0,1-1.68.42,3.06,3.06,0,0,1-2.24-.79,3.1,3.1,0,0,1-.81-2.3v-4.27h.7v4.21a2.57,2.57,0,0,0,.63,1.88,2.37,2.37,0,0,0,1.78.64,2.52,2.52,0,0,0,1.95-.77,2.9,2.9,0,0,0,.72-2.07v-3.89Z"/><path class="cls-10" d="M349.26,106.21a3.16,3.16,0,0,1,.78,2.3v4.27h-.7v-4.22a2.64,2.64,0,0,0-.6-1.87,2.18,2.18,0,0,0-1.68-.65,2.59,2.59,0,0,0-2,.77,2.94,2.94,0,0,0-.72,2.08v3.89h-.7v-4.22a2.64,2.64,0,0,0-.6-1.87,2.18,2.18,0,0,0-1.68-.65,2.55,2.55,0,0,0-1.95.77,2.94,2.94,0,0,0-.72,2.08v3.89H338v-7.31h.67V107a2.68,2.68,0,0,1,1.08-1.2,3.4,3.4,0,0,1,1.72-.43,3.07,3.07,0,0,1,1.69.45,2.42,2.42,0,0,1,1,1.32,2.93,2.93,0,0,1,1.15-1.29,3.35,3.35,0,0,1,1.81-.48A2.85,2.85,0,0,1,349.26,106.21Z"/><path class="cls-10" d="M24.31,124.75,22.11,127v2.58H21.4v-9.8h.71v6.3l6.12-6.3h.87l-4.31,4.45,4.6,5.35h-.87Z"/><path class="cls-10" d="M35.37,122.91a2.65,2.65,0,0,1,.73,2v4.64h-.67v-1.3a2.55,2.55,0,0,1-1,1,3.45,3.45,0,0,1-1.61.35,3,3,0,0,1-1.92-.57,1.86,1.86,0,0,1-.71-1.51,1.88,1.88,0,0,1,.65-1.48,3.13,3.13,0,0,1,2.08-.57H35.4v-.58a2.1,2.1,0,0,0-.55-1.56,2.27,2.27,0,0,0-1.62-.53,3.81,3.81,0,0,0-1.39.25,3.49,3.49,0,0,0-1.13.67l-.35-.5a3.77,3.77,0,0,1,1.31-.76,4.62,4.62,0,0,1,1.61-.28A2.87,2.87,0,0,1,35.37,122.91Zm-.93,5.73a2.63,2.63,0,0,0,1-1.22v-1.37H32.91a2.48,2.48,0,0,0-1.56.39,1.29,1.29,0,0,0-.49,1.08,1.37,1.37,0,0,0,.53,1.13,2.45,2.45,0,0,0,1.5.41A2.76,2.76,0,0,0,34.44,128.64Z"/><path class="cls-10" d="M45.38,122.27v7.31h-.67V128a2.73,2.73,0,0,1-1.08,1.2,3.25,3.25,0,0,1-1.68.42,3.06,3.06,0,0,1-2.24-.79,3.1,3.1,0,0,1-.81-2.3v-4.27h.7v4.21a2.59,2.59,0,0,0,.63,1.88A2.37,2.37,0,0,0,42,129a2.52,2.52,0,0,0,2-.77,2.9,2.9,0,0,0,.72-2.07v-3.89Z"/><path class="cls-10" d="M49.17,121.21v1.06h2.34v.6H49.19v6.71h-.7v-6.71H47.14v-.6h1.35v-1.12a1.87,1.87,0,0,1,2-2,2.63,2.63,0,0,1,.8.12,1.6,1.6,0,0,1,.64.36l-.28.53a1.63,1.63,0,0,0-1.13-.4Q49.17,119.74,49.17,121.21Z"/><path class="cls-10" d="M63.12,122.27v6.52a3.11,3.11,0,0,1-3.54,3.56,5.71,5.71,0,0,1-1.91-.31,3.63,3.63,0,0,1-1.44-.85l.38-.53a4,4,0,0,0,1.31.78,4.71,4.71,0,0,0,1.64.28,2.48,2.48,0,0,0,2.86-2.84v-1.23a3.15,3.15,0,0,1-1.25,1.23,3.67,3.67,0,0,1-1.79.43,3.81,3.81,0,0,1-1.85-.45,3.34,3.34,0,0,1-1.31-1.27,3.75,3.75,0,0,1,0-3.67,3.25,3.25,0,0,1,1.31-1.26,3.81,3.81,0,0,1,1.85-.45,3.69,3.69,0,0,1,1.82.45,3.1,3.1,0,0,1,1.25,1.26v-1.65Zm-2.14,6a2.74,2.74,0,0,0,1.07-1,3.21,3.21,0,0,0,0-3,2.79,2.79,0,0,0-1.07-1,3.39,3.39,0,0,0-3.08,0,2.76,2.76,0,0,0-1.06,1,3.14,3.14,0,0,0,0,3,2.72,2.72,0,0,0,1.06,1,3.39,3.39,0,0,0,3.08,0Z"/><path class="cls-10" d="M72.26,126.09H66a3.07,3.07,0,0,0,.44,1.52,2.73,2.73,0,0,0,1.1,1,3.32,3.32,0,0,0,1.56.36,3.24,3.24,0,0,0,1.32-.26,2.49,2.49,0,0,0,1-.76l.4.46a3.11,3.11,0,0,1-1.19.89,4.1,4.1,0,0,1-1.57.3,4,4,0,0,1-1.94-.47,3.47,3.47,0,0,1-1.34-1.32,3.8,3.8,0,0,1-.48-1.92,4,4,0,0,1,.45-1.91,3.52,3.52,0,0,1,4.83-1.33A3.35,3.35,0,0,1,71.82,124a4,4,0,0,1,.45,1.91Zm-4.86-2.92a2.63,2.63,0,0,0-1,1,3.23,3.23,0,0,0-.42,1.41h5.6a3,3,0,0,0-.42-1.4,2.66,2.66,0,0,0-1-1,3,3,0,0,0-2.77,0Z"/><path class="cls-10" d="M80,122.68A3.34,3.34,0,0,1,81.25,124a4.16,4.16,0,0,1,0,3.84A3.41,3.41,0,0,1,80,129.16a3.71,3.71,0,0,1-1.85.47,3.35,3.35,0,0,1-1.77-.47,3.13,3.13,0,0,1-1.22-1.3v1.72h-.68V119.19h.7v4.75a3.11,3.11,0,0,1,1.22-1.27,3.46,3.46,0,0,1,1.75-.46A3.71,3.71,0,0,1,80,122.68Zm-.38,5.93a2.78,2.78,0,0,0,1.06-1.09,3.24,3.24,0,0,0,.38-1.6,3.2,3.2,0,0,0-.38-1.59,2.78,2.78,0,0,0-1.06-1.09,3.05,3.05,0,0,0-3,0,2.82,2.82,0,0,0-1,1.09,3.31,3.31,0,0,0-.38,1.59,3.35,3.35,0,0,0,.38,1.6,2.82,2.82,0,0,0,1,1.09,3.12,3.12,0,0,0,3,0Z"/><path class="cls-10" d="M85.62,122.64a3.34,3.34,0,0,1,1.73-.43v.69l-.17,0a2.43,2.43,0,0,0-1.9.77,3,3,0,0,0-.69,2.12v3.81h-.7v-7.31h.68v1.6A2.45,2.45,0,0,1,85.62,122.64Z"/><path class="cls-10" d="M93.83,122.91a2.65,2.65,0,0,1,.73,2v4.64h-.67v-1.3a2.46,2.46,0,0,1-1,1,3.51,3.51,0,0,1-1.61.35,3,3,0,0,1-1.93-.57,2,2,0,0,1,0-3,3.1,3.1,0,0,1,2.08-.57h2.5v-.58a2.06,2.06,0,0,0-.55-1.56,2.27,2.27,0,0,0-1.62-.53,3.85,3.85,0,0,0-1.39.25,3.6,3.6,0,0,0-1.13.67l-.35-.5a3.81,3.81,0,0,1,1.32-.76,4.58,4.58,0,0,1,1.61-.28A2.86,2.86,0,0,1,93.83,122.91Zm-.93,5.73a2.51,2.51,0,0,0,1-1.22v-1.37H91.37a2.48,2.48,0,0,0-1.56.39,1.31,1.31,0,0,0-.48,1.08,1.34,1.34,0,0,0,.53,1.13,2.41,2.41,0,0,0,1.5.41A2.73,2.73,0,0,0,92.9,128.64Z"/><path class="cls-10" d="M103.84,122.27v7.31h-.67V128a2.73,2.73,0,0,1-1.08,1.2,3.22,3.22,0,0,1-1.68.42,2.79,2.79,0,0,1-3-3.09v-4.27h.7v4.21a2.59,2.59,0,0,0,.63,1.88,2.37,2.37,0,0,0,1.78.64,2.52,2.52,0,0,0,2-.77,2.9,2.9,0,0,0,.72-2.07v-3.89Z"/><path class="cls-10" d="M107.81,129.16a3.44,3.44,0,0,1-1.32-1.33,4.06,4.06,0,0,1,0-3.83,3.42,3.42,0,0,1,1.32-1.32,3.85,3.85,0,0,1,1.9-.47,3.65,3.65,0,0,1,1.6.35,2.91,2.91,0,0,1,1.17,1l-.52.38a2.39,2.39,0,0,0-1-.82,2.86,2.86,0,0,0-1.28-.28,3,3,0,0,0-1.53.39,2.78,2.78,0,0,0-1.07,1.08,3.39,3.39,0,0,0-.38,1.61,3.33,3.33,0,0,0,.38,1.61,2.74,2.74,0,0,0,1.07,1.09,3.22,3.22,0,0,0,2.81.11,2.39,2.39,0,0,0,1-.82l.52.38a2.91,2.91,0,0,1-1.17,1,3.64,3.64,0,0,1-1.6.34A3.85,3.85,0,0,1,107.81,129.16Z"/><path class="cls-10" d="M120.2,123a3.12,3.12,0,0,1,.79,2.3v4.27h-.7v-4.22a2.56,2.56,0,0,0-.62-1.87,2.31,2.31,0,0,0-1.74-.65,2.69,2.69,0,0,0-2,.77,2.86,2.86,0,0,0-.74,2.08v3.89h-.7V119.19h.7v4.61a2.59,2.59,0,0,1,1.12-1.17,3.46,3.46,0,0,1,1.75-.42A3,3,0,0,1,120.2,123Z"/><path class="cls-10" d="M127.5,129.12a1.85,1.85,0,0,1-.66.38,2.62,2.62,0,0,1-.83.13,2,2,0,0,1-1.47-.52,2,2,0,0,1-.52-1.46v-4.78h-1.35v-.6H124v-1.6h.7v1.6H127v.6h-2.32v4.71a1.54,1.54,0,0,0,.34,1.08,1.32,1.32,0,0,0,1,.37,1.63,1.63,0,0,0,1.13-.4Z"/><path class="cls-10" d="M135.36,126.09h-6.29a3,3,0,0,0,.44,1.52,2.77,2.77,0,0,0,1.09,1,3.39,3.39,0,0,0,1.57.36,3.24,3.24,0,0,0,1.32-.26,2.53,2.53,0,0,0,1-.76l.41.46a3.15,3.15,0,0,1-1.2.89,4,4,0,0,1-1.56.3,4,4,0,0,1-1.94-.47,3.47,3.47,0,0,1-1.34-1.32,3.8,3.8,0,0,1-.48-1.92,4,4,0,0,1,.45-1.91,3.38,3.38,0,0,1,1.25-1.32,3.45,3.45,0,0,1,4.83,1.3,4,4,0,0,1,.45,1.91Zm-4.86-2.92a2.63,2.63,0,0,0-1,1,3,3,0,0,0-.42,1.41h5.6a3,3,0,0,0-.42-1.4,2.73,2.73,0,0,0-1-1,3,3,0,0,0-2.77,0Z"/><path class="cls-10" d="M139.26,122.64a3.4,3.4,0,0,1,1.74-.43v.69l-.17,0a2.41,2.41,0,0,0-1.9.77,3,3,0,0,0-.69,2.12v3.81h-.7v-7.31h.67v1.6A2.55,2.55,0,0,1,139.26,122.64Z"/><path class="cls-10" d="M153.29,120.65a3.33,3.33,0,0,1,0,4.85,4.4,4.4,0,0,1-2.9.87h-2.8v3.21h-.71v-9.8h3.51A4.4,4.4,0,0,1,153.29,120.65Zm-.5,4.39a2.4,2.4,0,0,0,.82-2,2.44,2.44,0,0,0-.82-2,3.65,3.65,0,0,0-2.4-.69h-2.8v5.31h2.8A3.65,3.65,0,0,0,152.79,125Z"/><path class="cls-10" d="M158,122.64a3.4,3.4,0,0,1,1.74-.43v.69l-.17,0a2.41,2.41,0,0,0-1.9.77,3,3,0,0,0-.69,2.12v3.81h-.7v-7.31H157v1.6A2.55,2.55,0,0,1,158,122.64Z"/><path class="cls-10" d="M162.61,129.16a3.42,3.42,0,0,1-1.31-1.33,4,4,0,0,1,0-3.82,3.46,3.46,0,0,1,1.31-1.32,3.88,3.88,0,0,1,3.74,0,3.53,3.53,0,0,1,1.31,1.32,4.12,4.12,0,0,1,0,3.82,3.49,3.49,0,0,1-1.31,1.33,4,4,0,0,1-3.74,0Zm3.37-.55a2.69,2.69,0,0,0,1.05-1.09,3.24,3.24,0,0,0,.39-1.6,3.2,3.2,0,0,0-.39-1.59,2.69,2.69,0,0,0-1.05-1.09,2.81,2.81,0,0,0-1.5-.4,2.87,2.87,0,0,0-1.51.4,2.82,2.82,0,0,0-1.05,1.09,3.31,3.31,0,0,0-.38,1.59,3.35,3.35,0,0,0,.38,1.6,2.82,2.82,0,0,0,1.05,1.09,3,3,0,0,0,1.51.39A2.89,2.89,0,0,0,166,128.61Z"/><path class="cls-10" d="M176.8,119.19v10.39h-.69v-1.72a3.15,3.15,0,0,1-1.22,1.31,3.39,3.39,0,0,1-1.77.46,3.69,3.69,0,0,1-1.85-.47,3.43,3.43,0,0,1-1.3-1.32,4.16,4.16,0,0,1,0-3.84,3.37,3.37,0,0,1,1.3-1.32,3.69,3.69,0,0,1,1.85-.47,3.44,3.44,0,0,1,1.75.46A3.32,3.32,0,0,1,176.1,124v-4.77Zm-2.14,9.42a2.69,2.69,0,0,0,1.05-1.09,3.24,3.24,0,0,0,.39-1.6,3.2,3.2,0,0,0-.39-1.59,2.69,2.69,0,0,0-1.05-1.09,2.81,2.81,0,0,0-1.5-.4,2.87,2.87,0,0,0-1.51.4,2.82,2.82,0,0,0-1.05,1.09,3.31,3.31,0,0,0-.38,1.59,3.35,3.35,0,0,0,.38,1.6,2.82,2.82,0,0,0,1.05,1.09,3,3,0,0,0,1.51.39A2.89,2.89,0,0,0,174.66,128.61Z"/><path class="cls-10" d="M186.15,122.27v7.31h-.67V128a2.79,2.79,0,0,1-1.08,1.2,3.27,3.27,0,0,1-1.68.42,3.06,3.06,0,0,1-2.24-.79,3.1,3.1,0,0,1-.81-2.3v-4.27h.7v4.21a2.59,2.59,0,0,0,.63,1.88,2.37,2.37,0,0,0,1.78.64,2.52,2.52,0,0,0,1.95-.77,2.9,2.9,0,0,0,.72-2.07v-3.89Z"/><path class="cls-10" d="M191.72,125.67l-1.9,1.74v2.17h-.7V119.19h.7v7.35l4.67-4.27h.9l-3.15,3,3.46,4.36h-.87Z"/><path class="cls-10" d="M201,129.12a1.76,1.76,0,0,1-.66.38,2.57,2.57,0,0,1-.83.13,2,2,0,0,1-1.47-.52,2,2,0,0,1-.52-1.46v-4.78h-1.35v-.6h1.35v-1.6h.7v1.6h2.32v.6h-2.32v4.71a1.54,1.54,0,0,0,.34,1.08,1.32,1.32,0,0,0,1,.37,1.63,1.63,0,0,0,1.13-.4Z"/><path class="cls-10" d="M208.83,126.09h-6.29a3.07,3.07,0,0,0,.44,1.52,2.73,2.73,0,0,0,1.1,1,3.32,3.32,0,0,0,1.56.36,3.24,3.24,0,0,0,1.32-.26,2.46,2.46,0,0,0,1-.76l.41.46a3.15,3.15,0,0,1-1.2.89,4.22,4.22,0,0,1-3.5-.17,3.47,3.47,0,0,1-1.34-1.32,3.8,3.8,0,0,1-.48-1.92,4,4,0,0,1,.45-1.91,3.45,3.45,0,0,1,6.08,0,4,4,0,0,1,.45,1.91ZM204,123.17a2.63,2.63,0,0,0-1,1,3.11,3.11,0,0,0-.42,1.41h5.6a3,3,0,0,0-.42-1.4,2.73,2.73,0,0,0-1-1,3,3,0,0,0-2.77,0Z"/><path class="cls-10" d="M210.52,129.46a.58.58,0,0,1-.18-.43.54.54,0,0,1,.18-.42.57.57,0,0,1,.41-.17.58.58,0,0,1,.41.17.54.54,0,0,1,.18.42.58.58,0,0,1-.18.43.54.54,0,0,1-.41.17A.53.53,0,0,1,210.52,129.46Z"/></g></g></svg>