<svg id="Ebene_1" data-name="Ebene 1" xmlns="http://www.w3.org/2000/svg" xmlns:xlink="http://www.w3.org/1999/xlink" viewBox="0 0 1516 700"><defs><style>.cls-1{fill:url(#Unbenannter_Verlauf_46);}.cls-2,.cls-3{fill:#063567;}.cls-2{opacity:0.46;}.cls-35,.cls-4,.cls-5{stroke-miterlimit:10;}.cls-4{opacity:0.05;stroke:url(#Unbenannter_Verlauf_243);}.cls-35,.cls-5{opacity:0.04;}.cls-5{stroke:url(#Unbenannter_Verlauf_243-2);}.cls-6{fill:#ffc100;}.cls-7{fill:url(#Unbenannter_Verlauf_156);}.cls-8{fill:url(#Unbenannter_Verlauf_156-2);}.cls-9{fill:url(#Unbenannter_Verlauf_156-3);}.cls-10{fill:url(#Unbenannter_Verlauf_203);}.cls-11{fill:url(#Unbenannter_Verlauf_62);}.cls-12{fill:url(#Unbenannter_Verlauf_209);}.cls-13{fill:url(#Unbenannter_Verlauf_209-2);}.cls-14{fill:url(#Unbenannter_Verlauf_40);}.cls-15{fill:url(#Unbenannter_Verlauf_173);}.cls-16{fill:url(#Unbenannter_Verlauf_173-2);}.cls-17{fill:url(#Unbenannter_Verlauf_173-3);}.cls-18{fill:url(#Unbenannter_Verlauf_167);}.cls-19{fill:url(#Unbenannter_Verlauf_182);}.cls-20{fill:#fff;}.cls-21{fill:url(#Unbenannter_Verlauf_6);}.cls-22{fill:#2b2b2b;}.cls-23{fill:url(#linear-gradient);}.cls-24{fill:url(#linear-gradient-2);}.cls-25{fill:url(#linear-gradient-3);}.cls-26{fill:#e0e0e0;}.cls-27{fill:url(#Unbenannter_Verlauf_3);}.cls-28{fill:url(#Unbenannter_Verlauf_3-2);}.cls-29{fill:url(#linear-gradient-4);}.cls-30{fill:url(#linear-gradient-5);}.cls-31{fill:url(#linear-gradient-6);}.cls-32{fill:url(#linear-gradient-7);}.cls-33{fill:url(#Unbenannter_Verlauf_3-3);}.cls-34{fill:url(#linear-gradient-8);}.cls-35{stroke:url(#Unbenannter_Verlauf_243-3);}</style><linearGradient id="Unbenannter_Verlauf_46" x1="1781.14" y1="276.08" x2="517.99" y2="276.08" gradientUnits="userSpaceOnUse"><stop offset="0.3" stop-color="#0e559c"/><stop offset="0.48" stop-color="#0d4f93"/><stop offset="0.77" stop-color="#094079"/><stop offset="0.94" stop-color="#063567"/></linearGradient><linearGradient id="Unbenannter_Verlauf_243" x1="459.57" y1="660.99" x2="533.96" y2="604.81" gradientUnits="userSpaceOnUse"><stop offset="0"/><stop offset="0.98"/></linearGradient><linearGradient id="Unbenannter_Verlauf_243-2" x1="223.01" y1="675.23" x2="526.11" y2="675.23" xlink:href="#Unbenannter_Verlauf_243"/><linearGradient id="Unbenannter_Verlauf_156" x1="1126.61" y1="257.35" x2="1216.36" y2="257.35" gradientUnits="userSpaceOnUse"><stop offset="0" stop-color="#ff9a00"/><stop offset="1" stop-color="#ffc100"/></linearGradient><linearGradient id="Unbenannter_Verlauf_156-2" x1="1041.72" y1="217.16" x2="1109.53" y2="217.16" xlink:href="#Unbenannter_Verlauf_156"/><linearGradient id="Unbenannter_Verlauf_156-3" x1="1112.75" y1="150.81" x2="1208.61" y2="150.81" xlink:href="#Unbenannter_Verlauf_156"/><linearGradient id="Unbenannter_Verlauf_203" x1="1067.78" y1="491.76" x2="1067.62" y2="501.43" gradientUnits="userSpaceOnUse"><stop offset="0" stop-color="#ffc100"/><stop offset="1" stop-color="#ffc100"/></linearGradient><linearGradient id="Unbenannter_Verlauf_62" x1="1010.96" y1="584.95" x2="1050.24" y2="514.37" gradientTransform="translate(51.36 -16.12) rotate(1.87)" gradientUnits="userSpaceOnUse"><stop offset="0" stop-color="#ffc100"/><stop offset="0.68" stop-color="#ff9000"/><stop offset="1" stop-color="#ffcb00"/></linearGradient><linearGradient id="Unbenannter_Verlauf_209" x1="1036.49" y1="469.43" x2="1034.03" y2="491.53" gradientTransform="translate(51.36 -16.12) rotate(1.87)" xlink:href="#Unbenannter_Verlauf_203"/><linearGradient id="Unbenannter_Verlauf_209-2" x1="1115.58" y1="661.83" x2="1126.17" y2="591.19" gradientTransform="translate(-32.83 -45.17) rotate(1.87)" xlink:href="#Unbenannter_Verlauf_203"/><linearGradient id="Unbenannter_Verlauf_40" x1="1028.32" y1="512.88" x2="1106.58" y2="512.88" gradientUnits="userSpaceOnUse"><stop offset="0" stop-color="#ffc100" stop-opacity="0.87"/><stop offset="1" stop-color="#ff8b00"/></linearGradient><linearGradient id="Unbenannter_Verlauf_173" x1="1054.13" y1="488.13" x2="1044.74" y2="572.66" gradientUnits="userSpaceOnUse"><stop offset="0" stop-color="#ffc100"/><stop offset="1" stop-color="#fff"/></linearGradient><linearGradient id="Unbenannter_Verlauf_173-2" x1="1048.69" y1="480.29" x2="1039.3" y2="564.82" gradientTransform="matrix(1, 0.01, -0.01, 1, 23.25, -6.97)" xlink:href="#Unbenannter_Verlauf_173"/><linearGradient id="Unbenannter_Verlauf_173-3" x1="-161.4" y1="488.13" x2="-170.8" y2="572.66" gradientTransform="matrix(-1, 0, 0, 1, 922.53, 0)" xlink:href="#Unbenannter_Verlauf_173"/><linearGradient id="Unbenannter_Verlauf_167" x1="-166.72" y1="497.67" x2="-176.11" y2="582.2" gradientTransform="matrix(-1, 0.01, 0.01, 1, 899.27, -6.97)" xlink:href="#Unbenannter_Verlauf_173"/><linearGradient id="Unbenannter_Verlauf_182" x1="1076.75" y1="489.37" x2="1067.45" y2="573.15" xlink:href="#Unbenannter_Verlauf_173"/><linearGradient id="Unbenannter_Verlauf_6" x1="1157.37" y1="463.59" x2="1129.98" y2="463.59" gradientUnits="userSpaceOnUse"><stop offset="0.84" stop-color="#f9b776"/><stop offset="1" stop-color="#f47960"/></linearGradient><linearGradient id="linear-gradient" x1="-981.8" y1="603.66" x2="-974.51" y2="603.66" gradientTransform="matrix(-1, 0, 0, 1, 184.3, 0)" gradientUnits="userSpaceOnUse"><stop offset="0" stop-color="#f9b776"/><stop offset="1" stop-color="#f47960"/></linearGradient><linearGradient id="linear-gradient-2" x1="-1008.09" y1="603.28" x2="-1001.8" y2="603.28" xlink:href="#linear-gradient"/><linearGradient id="linear-gradient-3" x1="-1031.77" y1="466.13" x2="-984.61" y2="466.13" xlink:href="#linear-gradient"/><linearGradient id="Unbenannter_Verlauf_3" x1="-954.1" y1="415.57" x2="-959.63" y2="439.82" gradientTransform="matrix(-1, 0, 0, 1, 184.3, 0)" gradientUnits="userSpaceOnUse"><stop offset="0" stop-color="#fff"/><stop offset="0"/></linearGradient><linearGradient id="Unbenannter_Verlauf_3-2" x1="-956.99" y1="425.74" x2="-959.63" y2="441.59" xlink:href="#Unbenannter_Verlauf_3"/><linearGradient id="linear-gradient-4" x1="-988.11" y1="461.19" x2="-973.42" y2="461.19" xlink:href="#linear-gradient"/><linearGradient id="linear-gradient-5" x1="948.45" y1="1023.07" x2="963.15" y2="1023.07" gradientTransform="translate(-221.02 90.42) rotate(-32.09)" xlink:href="#linear-gradient"/><linearGradient id="linear-gradient-6" x1="-994.77" y1="417.17" x2="-976.13" y2="417.17" xlink:href="#linear-gradient"/><linearGradient id="linear-gradient-7" x1="-6395.27" y1="-2719.58" x2="-6402.24" y2="-2742.57" gradientTransform="matrix(-0.75, -0.67, -0.67, 0.75, -5425.85, -1824.49)" xlink:href="#linear-gradient"/><linearGradient id="Unbenannter_Verlauf_3-3" x1="-6401.56" y1="-2759.63" x2="-6395.73" y2="-2726.38" gradientTransform="matrix(-0.75, -0.67, -0.67, 0.75, -5425.85, -1824.49)" xlink:href="#Unbenannter_Verlauf_3"/><linearGradient id="linear-gradient-8" x1="-6402.4" y1="-2719.69" x2="-6408.66" y2="-2740.37" gradientTransform="matrix(-0.75, -0.67, -0.67, 0.75, -5425.85, -1824.49)" xlink:href="#linear-gradient"/><linearGradient id="Unbenannter_Verlauf_243-3" x1="223.45" y1="544.13" x2="526.55" y2="544.13" gradientTransform="matrix(1, 0, 0, -1, 0, 1289.74)" xlink:href="#Unbenannter_Verlauf_243"/></defs><path class="cls-1" d="M1295,789c252.32-47.25,336.89-66.25,380-16,64.77,75.49-18.28,243.42-29,240.88-25.81-6.13,324.8-1054-11.84-1366.34-76.12-70.63-128.78-101.22-177.4-107.49C1296.58-480.59,1166.35-318.11,1146-292c-119.78,49.06-206.58,108.37-263,153C785.8-62.12,625.7,64.51,644,196c10,71.56,64.63,83.33,53,139-15.06,72.07-113.64,94.45-156,200-6.57,16.36-8.89,28.78-12,45-8.41,43.84-25.82,124.57,14.75,182.63A152.81,152.81,0,0,0,575,794C715.14,897.58,1295,789,1295,789Z"/><path class="cls-2" d="M584.49,468.49l35.57-.16v36.61l17.47.05V476.33l14-14.5h20.27V419.52h29.36v42.31h20.27v14.5h14v17.32h16.78V410.9h9.08V396H841V410.9H850v70.55l26.57-.34V436H952.1l3.39,84.85,11.29-.33V491.85h24.47V469.32h14.68V454.19h57.32v15.13h14.68v22.53h24.47v52.87l21-.34V492h23.37v70.93H584.49V468.49Z"/><ellipse class="cls-3" cx="1092.7" cy="615.49" rx="242.21" ry="10.27"/><path class="cls-4" d="M512.06,708.24c-7.06-35.24-5.33-62.84-2.19-82,3.83-23.44,10.47-38.75,1.46-50.54-8.37-11-27.25-14.91-41.74-8.79-15.12,6.39-20.25,21.53-22.37,27.78-5.36,15.79-2,29.69,0,37.36C458.18,674.67,501.42,701.86,512.06,708.24Z"/><path class="cls-5" d="M525.61,717.22c0-1.94-9-1.43-23.83-8.17a107.73,107.73,0,0,1-14.51-8.62c-15.51-11-23.61-24.67-30.87-33.94-4.85-6.2-25.66-32.81-57.7-38.71-25.26-4.66-49.52,5.05-51.25,5.72-9.6,3.71-14.55,7.63-41.71,34.71-27.32,27.24-33.59,34.51-49.46,40.84-18.63,7.44-32.84,6.52-32.77,8.17C223.84,724.82,525.36,727.43,525.61,717.22Z"/><path class="cls-2" d="M1147,468.89l35.59-.16v36.62l17.49,0V476.73l14-14.49h20.28V419.92h29.38v42.32H1284v14.49h14v17.32h16.79V411.3h9.1V396.42h79.75V411.3h9.09v70.55l26.59-.33V436.38h75.55l3.39,84.85,11.3-.34V492.25h24.49V469.72h14.69V454.59h57.36v15.13h14.69v22.53h24.49v52.87l21-.34V492.35h23.39v70.93H1147V468.89Z"/><path class="cls-6" d="M1164.49,198.64l32.4,59.64L1221.13,215a16.27,16.27,0,0,0,.22-15.5L1206.43,171a3.28,3.28,0,0,0-5.84.06l-10.35,20.81-21.59-.19A4.69,4.69,0,0,0,1164.49,198.64Z"/><path class="cls-7" d="M1216.36,223.53l-5,3.42a28.67,28.67,0,0,1-16.41,5l-45.08-.38.09-10.32a1.26,1.26,0,0,0-2.35-.64l-21,36.71,20.59,36.76a1.26,1.26,0,0,0,2.36-.55l.63-12.22,21,.18a22.72,22.72,0,0,0,20.16-11.87Z"/><path class="cls-6" d="M1112.77,178.37l35.45-57.88-49.58.63a16.27,16.27,0,0,0-13.53,7.56l-17.23,27.18a3.28,3.28,0,0,0,3,5l23.19-1.44,10.64,18.79A4.69,4.69,0,0,0,1112.77,178.37Z"/><path class="cls-6" d="M1120,232.27l-67.85-1.76,25.34,42.62a16.25,16.25,0,0,0,13.31,7.94l32.15,1.33a3.28,3.28,0,0,0,2.86-5.09L1112.91,258l11-18.61A4.7,4.7,0,0,0,1120,232.27Z"/><path class="cls-8" d="M1072.45,264.75l-.46-6a28.58,28.58,0,0,1,3.87-16.71l22.87-38.85,8.89,5.24a1.27,1.27,0,0,0,1.73-1.73l-21.28-36.55-42.12-.55a1.26,1.26,0,0,0-.71,2.32l10.26,6.66-10.63,18.06a22.71,22.71,0,0,0,.2,23.39Z"/><path class="cls-9" d="M1112.75,121l5.45,2.61a28.63,28.63,0,0,1,12.53,11.7l22.21,39.24-9,5.08a1.26,1.26,0,0,0,.63,2.36l42.3-.15,21.53-36.21a1.26,1.26,0,0,0-1.65-1.77l-10.9,5.55-10.33-18.24a22.69,22.69,0,0,0-20.35-11.52Z"/><path class="cls-10" d="M1055.24,501.94l-.4-5.35a3.71,3.71,0,0,1,3.29-4c4.54-.51,12.56-1.17,18.78-.29a4.17,4.17,0,0,1,3.58,4.14v5.47H1075l.19-2.8a4.18,4.18,0,0,0-3.78-4.44,39.12,39.12,0,0,0-9,.19,3.72,3.72,0,0,0-3.08,4.58l.61,2.47Z"/><polygon class="cls-11" points="1098.81 607.28 1039.31 606.01 1035.08 515.05 1101.94 511.13 1098.81 607.28"/><path class="cls-12" d="M1102,509.33l-66.83,2.84,7.34-9.19a8,8,0,0,1,6.16-2.83l40.35-.62a5.35,5.35,0,0,1,3.67,1.33Z"/><path class="cls-13" d="M1039.31,606l59.5,1.26-10.8,8.13a4.78,4.78,0,0,1-2.85,1l-34.26.1a4.75,4.75,0,0,1-3.56-1.59Z"/><path class="cls-14" d="M1104.68,518.6l-72.29.1c-2.59,0-4.55-1.71-4-3.47l1.6-4.78c.4-1.2,1.89-2.05,3.65-2.08l68.83-1.31c1.93,0,3.65.91,4.07,2.24"/><path class="cls-15" d="M1047.34,604h0a1,1,0,0,1-1-1l-3.45-76.4a1,1,0,0,1,1-1h0a1,1,0,0,1,1,1l3.45,76.4A1,1,0,0,1,1047.34,604Z"/><path class="cls-16" d="M1056.52,604.05h0a1,1,0,0,1-1-1l-2.36-76.44a1,1,0,0,1,1-1h0a1,1,0,0,1,1,1l2.36,76.44A1,1,0,0,1,1056.52,604.05Z"/><path class="cls-17" d="M1090.73,604h0a1,1,0,0,0,1-1l3.45-76.4a1,1,0,0,0-1-1h0a1,1,0,0,0-1,1l-3.45,76.4A1,1,0,0,0,1090.73,604Z"/><path class="cls-18" d="M1081.54,604.05h0a1,1,0,0,0,1-1l2.36-76.44a1,1,0,0,0-1-1h0a1,1,0,0,0-1,1L1080.53,603A1,1,0,0,0,1081.54,604.05Z"/><rect class="cls-19" x="1067.64" y="526.74" width="1.33" height="77.29" rx="0.49"/><path class="cls-20" d="M1082.47,527.51l0,0Z"/><path class="cls-20" d="M1082.47,527.51l0,.09Z"/><path class="cls-21" d="M1130,458s10.18,23.48,16.44,20.35,10.95-29,10.95-29S1137.81,444.68,1130,458Z"/><path class="cls-22" d="M1165.41,603.68s.85,4.81,1.26,9.58a3.28,3.28,0,0,1-3.14,3.56c-6.35.26-19.92.78-24.79.56a1.07,1.07,0,0,1-1-1.47h0a2.37,2.37,0,0,1,1.23-1.28l22.43-10.31Z"/><path class="cls-23" d="M1166.1,600.85l-.68,5.76s-3.93,1.83-6.61-.23l1.62-6.42Z"/><path class="cls-22" d="M1165.59,492.57c.29,1.51,1.58,75.06-6.28,108a1.12,1.12,0,0,0,.66,1.3,19.65,19.65,0,0,0,6.4,1.3,1.92,1.92,0,0,0,1.91-1.39c2.25-7.64,13-46,14.42-82.56,1.57-40.9,0-1.39,0-1.39l-.92-25.28Z"/><path class="cls-22" d="M1191.2,606.19s1.36,2.43,2.67,8.89a2,2,0,0,1-1.76,2.4c-2.1.2-5.33.47-7.91.45a2,2,0,0,1-2-2.23,16.94,16.94,0,0,1,3.93-9.24Z"/><path class="cls-24" d="M1192.39,598.78l-1.59,8.71s-1.58,1.18-4.71.32l.77-9.37Z"/><path class="cls-22" d="M1196.71,494.83c6.43,38.8-1.4,95.91-4,107.09a1.75,1.75,0,0,1-1.4,1.32,11.71,11.71,0,0,1-5-.2,1.59,1.59,0,0,1-1.15-1.47c-.36-9,.28-64.51-5.71-86.44a4.92,4.92,0,0,0-1.92-2.74l-11.63-8.27-.89-13.36Z"/><path class="cls-20" d="M1155,422.76a108.78,108.78,0,0,1,41.24,3.6c5.74,33.51,1,72.17,1,72.17-14.92,3.91-31.75-2.39-31.75-2.39-2.48-14-14-53.43-14-53.43C1142.06,441.54,1149.11,423.36,1155,422.76Z"/><path class="cls-20" d="M1188.87,445l7.4-18.66s18,12.23,21,27.73a42.53,42.53,0,0,0-15.64,4.2C1200.25,451,1188.87,445,1188.87,445Z"/><path class="cls-25" d="M1171.58,462.57s20.21,11.43,27,1.67a7.66,7.66,0,0,0,1.4-5.95,42.62,42.62,0,0,1,15.65-4.2,21.39,21.39,0,0,1-2.33,14.67c-11.94,21.85-44.42-1.2-44.42-1.2Z"/><path class="cls-26" d="M1174,477l-11-38.51a1.12,1.12,0,0,0-1-.81c-2-.23-7.79-.89-14.47-1.45-8.06-.69-17.41-1.24-23-.77a1.13,1.13,0,0,0-.92,1.62c3.18,6.43,16.25,32.58,22.8,41.15a1.11,1.11,0,0,0,.91.45l25.59-.24A1.13,1.13,0,0,0,1174,477Z"/><path class="cls-27" d="M1146.41,432.91l-8-1.34a.57.57,0,0,0-.64.75l.79,2.4a.57.57,0,0,0,.47.39l7.69,1a.58.58,0,0,0,.64-.7l-.49-2.1A.58.58,0,0,0,1146.41,432.91Z"/><path class="cls-28" d="M1152.4,439.68l-.66-3.44a.79.79,0,0,0-.7-.63L1134.89,434a.79.79,0,0,0-.85,1l1,4.28a.78.78,0,0,0,.73.6l15.78.8A.8.8,0,0,0,1152.4,439.68Z"/><path class="cls-29" d="M1171.34,467.72s1.54-6.32.92-8.56-1.82-5.12-5.82-4.48a59.18,59.18,0,0,0-8.73,2.32,2.29,2.29,0,0,0,3.28,2l-1.88,1.46s.27,2.34,2.84,1.09l-1.76,1.93a2.05,2.05,0,0,0,3,.69C1165.08,462.92,1166,468.48,1171.34,467.72Z"/><path class="cls-30" d="M1130.34,458.32s-4.66-4.54-5.33-6.77-1.17-5.3,2.56-6.89a58.84,58.84,0,0,1,8.62-2.66,2.29,2.29,0,0,1-1.73,3.42l2.38.23s1,2.13-1.83,2.43l2.52.71a2,2,0,0,1-2.18,2.17C1133.1,450.93,1135.28,456.12,1130.34,458.32Z"/><path class="cls-31" d="M1172.9,407.11l6.14,17.73a.64.64,0,0,1-.29.77c-1.68.93-7.7,3.6-15-1a3,3,0,0,1-1.39-2.15l-2-15.35Z"/><path class="cls-32" d="M1159.56,390.69s-6.73,12.68-5.87,17.8,9.21,4.75,16.5.59l5.09-13.68Z"/><path class="cls-33" d="M1169.87,402.36a.51.51,0,0,1-.23-.76,13.67,13.67,0,0,0,1.87-4s1.21-.78-3.08-1.8-10.69-2.63-12-6.28,2.13-12.51,7.63-5.38a.52.52,0,0,0,.82,0c.91-1.18,3.27-3.61,6.56-2.13,3.08,1.38,3.43,3.63,3.39,4.77a.51.51,0,0,0,.61.53c1.56-.3,5.29-.55,7,3.28,1.43,3.16.5,4.94-.35,5.82a.51.51,0,0,0,.22.86c1,.31,2.34,1.18,2.21,3.58-.18,3.31-3.88,3-4.94,2.87a.49.49,0,0,0-.46.16c-.91,1-5,5.25-9.39,5.76a.52.52,0,0,1-.55-.69l1.91-5.55a.53.53,0,0,0-.29-.65Z"/><path class="cls-34" d="M1169.1,403.15s4.79-3.29,5.14-.52-4.31,4-6.63,3Z"/><path class="cls-35" d="M526.05,703.62c.05,1.94-9,1.43-23.83,8.17a107.73,107.73,0,0,0-14.51,8.62c-15.52,11-23.62,24.67-30.87,33.94-4.85,6.2-25.67,32.81-57.71,38.71-25.25,4.65-49.52-5-51.24-5.72-9.6-3.71-14.55-7.63-41.71-34.71-27.32-27.24-33.59-34.51-49.46-40.84-18.64-7.44-32.84-6.52-32.77-8.17C224.28,696,525.8,693.41,526.05,703.62Z"/></svg>