<svg id="Ebene_1" data-name="Ebene 1" xmlns="http://www.w3.org/2000/svg" xmlns:xlink="http://www.w3.org/1999/xlink" viewBox="0 0 1516 700"><defs><style>.cls-1{fill:url(#Unbenannter_Verlauf_46);}.cls-2,.cls-3{fill:#063567;}.cls-2{opacity:0.46;}.cls-4,.cls-5{stroke-miterlimit:10;}.cls-4{opacity:0.05;stroke:url(#Unbenannter_Verlauf_243);}.cls-5{opacity:0.04;stroke:url(#Unbenannter_Verlauf_243-2);}.cls-6{fill:#f5ceb0;}.cls-7{fill:#233862;}.cls-8{fill:#efcdaf;}.cls-9{fill:#e2b99a;}.cls-10{fill:#fff3e9;}.cls-11{fill:#afcdfb;}.cls-12{fill:#e57970;}.cls-13{fill:#d3671e;}.cls-14{fill:#f1a34f;}.cls-15{fill:#d86713;opacity:0.4;}.cls-16{fill:#c95c12;}.cls-17{fill:#ffc100;}.cls-18{fill:url(#Unbenannter_Verlauf_156);}.cls-19{fill:url(#Unbenannter_Verlauf_156-2);}.cls-20{fill:url(#Unbenannter_Verlauf_156-3);}.cls-21{fill:url(#Unbenannter_Verlauf_203);}.cls-22{fill:url(#Unbenannter_Verlauf_62);}.cls-23{fill:url(#Unbenannter_Verlauf_209);}.cls-24{fill:url(#Unbenannter_Verlauf_209-2);}.cls-25{fill:url(#Unbenannter_Verlauf_40);}.cls-26{fill:url(#Unbenannter_Verlauf_173);}.cls-27{fill:url(#Unbenannter_Verlauf_173-2);}.cls-28{fill:url(#Unbenannter_Verlauf_173-3);}.cls-29{fill:url(#Unbenannter_Verlauf_167);}.cls-30{fill:url(#Unbenannter_Verlauf_182);}.cls-31{fill:#fff;}.cls-32{fill:url(#Unbenannter_Verlauf_6);}.cls-33{fill:#2b2b2b;}.cls-34{fill:url(#linear-gradient);}.cls-35{fill:url(#linear-gradient-2);}.cls-36{fill:url(#linear-gradient-3);}.cls-37{fill:#e0e0e0;}.cls-38{fill:url(#Unbenannter_Verlauf_3);}.cls-39{fill:url(#Unbenannter_Verlauf_3-2);}.cls-40{fill:url(#linear-gradient-4);}.cls-41{fill:url(#linear-gradient-5);}.cls-42{fill:url(#linear-gradient-6);}.cls-43{fill:url(#linear-gradient-7);}.cls-44{fill:url(#Unbenannter_Verlauf_3-3);}.cls-45{fill:url(#linear-gradient-8);}.cls-46{fill:#caddff;}.cls-47{fill:#2b478b;}.cls-48{fill:#4a75cb;}.cls-49{fill:#f9ddbf;}.cls-50{fill:#e5c1a1;}.cls-51{fill:#b64c41;}.cls-52{fill:#699ff0;}.cls-53{fill:#963333;}.cls-54{fill:#b7d2f9;}.cls-55{opacity:0.67;}.cls-56{fill:#f2f2f2;}.cls-57{fill:#42210b;}.cls-58{fill:#ed985f;}.cls-59{fill:#ffb27d;}.cls-60{fill:#f99746;}.cls-61{fill:#ed7d2b;}.cls-62{fill:#ccdfed;}</style><linearGradient id="Unbenannter_Verlauf_46" x1="1781.14" y1="277.08" x2="526.01" y2="277.08" gradientUnits="userSpaceOnUse"><stop offset="0.3" stop-color="#0e559c"/><stop offset="0.48" stop-color="#0d4f93"/><stop offset="0.77" stop-color="#094079"/><stop offset="0.94" stop-color="#063567"/></linearGradient><linearGradient id="Unbenannter_Verlauf_243" x1="459.57" y1="661.99" x2="533.96" y2="605.81" gradientUnits="userSpaceOnUse"><stop offset="0"/><stop offset="0.98"/></linearGradient><linearGradient id="Unbenannter_Verlauf_243-2" x1="223.01" y1="676.23" x2="526.11" y2="676.23" xlink:href="#Unbenannter_Verlauf_243"/><linearGradient id="Unbenannter_Verlauf_156" x1="1126.61" y1="257.35" x2="1216.36" y2="257.35" gradientUnits="userSpaceOnUse"><stop offset="0" stop-color="#ff9a00"/><stop offset="1" stop-color="#ffc100"/></linearGradient><linearGradient id="Unbenannter_Verlauf_156-2" x1="1041.72" y1="217.16" x2="1109.53" y2="217.16" xlink:href="#Unbenannter_Verlauf_156"/><linearGradient id="Unbenannter_Verlauf_156-3" x1="1112.75" y1="150.81" x2="1208.61" y2="150.81" xlink:href="#Unbenannter_Verlauf_156"/><linearGradient id="Unbenannter_Verlauf_203" x1="1262.9" y1="528.9" x2="1262.78" y2="535.7" gradientUnits="userSpaceOnUse"><stop offset="0" stop-color="#ffc100"/><stop offset="1" stop-color="#ffc100"/></linearGradient><linearGradient id="Unbenannter_Verlauf_62" x1="1205.59" y1="583.18" x2="1233.41" y2="533.18" gradientTransform="translate(59.19 -16) rotate(1.87)" gradientUnits="userSpaceOnUse"><stop offset="0" stop-color="#ffc100"/><stop offset="0.68" stop-color="#ff9000"/><stop offset="1" stop-color="#ffcb00"/></linearGradient><linearGradient id="Unbenannter_Verlauf_209" x1="1223.7" y1="501.67" x2="1221.96" y2="517.38" gradientTransform="translate(59.19 -16) rotate(1.87)" xlink:href="#Unbenannter_Verlauf_203"/><linearGradient id="Unbenannter_Verlauf_209-2" x1="1304.51" y1="645.19" x2="1312.07" y2="594.82" gradientTransform="translate(-25.01 -45.05) rotate(1.87)" xlink:href="#Unbenannter_Verlauf_203"/><linearGradient id="Unbenannter_Verlauf_40" x1="1234.32" y1="543.73" x2="1291" y2="543.73" gradientUnits="userSpaceOnUse"><stop offset="0" stop-color="#ffc100" stop-opacity="0.87"/><stop offset="1" stop-color="#ff8b00"/></linearGradient><linearGradient id="Unbenannter_Verlauf_173" x1="1252.83" y1="526.36" x2="1246.23" y2="585.71" gradientUnits="userSpaceOnUse"><stop offset="0" stop-color="#ffc100"/><stop offset="1" stop-color="#fff"/></linearGradient><linearGradient id="Unbenannter_Verlauf_173-2" x1="1241.46" y1="515.7" x2="1234.87" y2="575.05" gradientTransform="matrix(1, 0.01, -0.01, 1, 26.69, -6.95)" xlink:href="#Unbenannter_Verlauf_173"/><linearGradient id="Unbenannter_Verlauf_173-3" x1="-352.26" y1="526.36" x2="-358.85" y2="585.71" gradientTransform="matrix(-1, 0, 0, 1, 922.53, 0)" xlink:href="#Unbenannter_Verlauf_173"/><linearGradient id="Unbenannter_Verlauf_167" x1="-363.45" y1="538.65" x2="-370.05" y2="598" gradientTransform="matrix(-1, 0.01, 0.01, 1, 895.84, -6.95)" xlink:href="#Unbenannter_Verlauf_173"/><linearGradient id="Unbenannter_Verlauf_182" x1="1269.21" y1="527.25" x2="1262.68" y2="586.05" xlink:href="#Unbenannter_Verlauf_173"/><linearGradient id="Unbenannter_Verlauf_6" x1="1157.37" y1="463.59" x2="1129.98" y2="463.59" gradientUnits="userSpaceOnUse"><stop offset="0.84" stop-color="#f9b776"/><stop offset="1" stop-color="#f47960"/></linearGradient><linearGradient id="linear-gradient" x1="-981.8" y1="603.66" x2="-974.51" y2="603.66" gradientTransform="matrix(-1, 0, 0, 1, 184.3, 0)" gradientUnits="userSpaceOnUse"><stop offset="0" stop-color="#f9b776"/><stop offset="1" stop-color="#f47960"/></linearGradient><linearGradient id="linear-gradient-2" x1="-1008.09" y1="603.28" x2="-1001.8" y2="603.28" xlink:href="#linear-gradient"/><linearGradient id="linear-gradient-3" x1="-1031.77" y1="466.13" x2="-984.61" y2="466.13" xlink:href="#linear-gradient"/><linearGradient id="Unbenannter_Verlauf_3" x1="-954.1" y1="415.57" x2="-959.63" y2="439.82" gradientTransform="matrix(-1, 0, 0, 1, 184.3, 0)" gradientUnits="userSpaceOnUse"><stop offset="0" stop-color="#fff"/><stop offset="0"/></linearGradient><linearGradient id="Unbenannter_Verlauf_3-2" x1="-956.99" y1="425.74" x2="-959.63" y2="441.59" xlink:href="#Unbenannter_Verlauf_3"/><linearGradient id="linear-gradient-4" x1="-988.11" y1="461.19" x2="-973.42" y2="461.19" xlink:href="#linear-gradient"/><linearGradient id="linear-gradient-5" x1="1075.95" y1="1059.73" x2="1090.65" y2="1059.73" gradientTransform="translate(-348.51 127.09) rotate(-32.09)" xlink:href="#linear-gradient"/><linearGradient id="linear-gradient-6" x1="-994.77" y1="417.17" x2="-976.13" y2="417.17" xlink:href="#linear-gradient"/><linearGradient id="linear-gradient-7" x1="-6235.45" y1="-2658.64" x2="-6242.41" y2="-2681.62" gradientTransform="matrix(-0.75, -0.67, -0.67, 0.75, -5266.04, -1763.53)" xlink:href="#linear-gradient"/><linearGradient id="Unbenannter_Verlauf_3-3" x1="-6241.73" y1="-2698.68" x2="-6235.9" y2="-2665.43" gradientTransform="matrix(-0.75, -0.67, -0.67, 0.75, -5266.04, -1763.53)" xlink:href="#Unbenannter_Verlauf_3"/><linearGradient id="linear-gradient-8" x1="-6242.57" y1="-2658.74" x2="-6248.84" y2="-2679.42" gradientTransform="matrix(-0.75, -0.67, -0.67, 0.75, -5266.04, -1763.53)" xlink:href="#linear-gradient"/></defs><path class="cls-1" d="M1146-291c-119.78,49.06-206.58,108.37-263,153C785.8-61.12,625.7,65.51,644,197c10,71.56,64.63,83.33,53,139-15.06,72.07-113.64,94.45-156,200a177.73,177.73,0,0,0-12,45h0c-5.81,54-9.81,166.74,55.25,275.86C618.65,914.56,690,1000.28,736,986c46.58-14.46-6-133.92,69-206,85.85-82.47,214.29,37.89,490,10,242.41-24.52,331.92-69.73,380-16,64.8,72.41-18.19,243.44-29,240.88-25.81-6.13,324.8-1054-11.84-1366.34-76.12-70.63-128.78-101.22-177.4-107.49C1296.58-479.59,1166.35-317.11,1146-291Z"/><path class="cls-2" d="M584.49,468.49l35.57-.16v36.61l17.47.05V476.33l14-14.5h20.27V419.52h29.36v42.31h20.27v14.5h14v17.32h16.78V410.9h9.08V396H841V410.9H850v70.55l26.57-.34V436H952.1l3.39,84.85,11.29-.33V491.85h24.47V469.32h14.68V454.19h57.32v15.13h14.68v22.53h24.47v52.87l21-.34V492h23.37v70.93H584.49V468.49Z"/><ellipse class="cls-3" cx="1092.7" cy="615.49" rx="242.21" ry="10.27"/><path class="cls-4" d="M512.06,709.24c-7.06-35.24-5.33-62.84-2.19-82,3.83-23.44,10.47-38.75,1.46-50.54-8.37-11-27.25-14.91-41.74-8.79-15.12,6.39-20.25,21.53-22.37,27.78-5.36,15.79-2,29.69,0,37.36C458.18,675.67,501.42,702.86,512.06,709.24Z"/><path class="cls-5" d="M525.61,718.22c0-1.94-9-1.43-23.83-8.17a107.73,107.73,0,0,1-14.51-8.62c-15.51-11-23.61-24.67-30.87-33.94-4.85-6.2-25.66-32.81-57.7-38.71-25.26-4.66-49.52,5.05-51.25,5.72-9.6,3.71-14.55,7.63-41.71,34.71-27.32,27.24-33.59,34.51-49.46,40.84-18.63,7.44-32.84,6.52-32.77,8.17C223.84,725.82,525.36,728.43,525.61,718.22Z"/><path class="cls-2" d="M1147,468.89l35.59-.16v36.62l17.49,0V476.73l14-14.49h20.28V419.92h29.38v42.32H1284v14.49h14v17.32h16.79V411.3h9.1V396.42h79.75V411.3h9.09v70.55l26.59-.33V436.38h75.55l3.39,84.85,11.3-.34V492.25h24.49V469.72h14.69V454.59h57.36v15.13h14.69v22.53h24.49v52.87l21-.34V492.35h23.39v70.93H1147V468.89Z"/><polyline class="cls-6" points="970 476.99 966.66 477.75 966.87 476.96"/><path class="cls-7" d="M893,616H877.09a5.14,5.14,0,0,1,.45-3.24c.79-1.34,2-2,1.74-3.58a6.77,6.77,0,0,0,5,1.45,14.8,14.8,0,0,0,2.76,2.72C888,613.91,892.68,613.71,893,616Z"/><path class="cls-8" d="M869.87,528.18c-2.68-2.31-.47-7.75-1.5-8.83a10.48,10.48,0,0,0-1-.8,24.66,24.66,0,0,1-3.7,8c-6.11,8.75-16.42,12.45-23,8.25-6.44-4.08-7-14.13-1.41-22.72l.48-.72a25.53,25.53,0,0,1,6.22-6.3h0a6,6,0,0,0-.68-.34c-1.43-.48-5.84,3.57-9.11,2.09s-.28-7.42,6.18-8.12c3.94-.43,8.09,1.52,10.74,3.1a14.94,14.94,0,0,1,3.48-.4h.13a8.08,8.08,0,0,1,1.11-7.1,8.62,8.62,0,0,1,1.81-1.9v0a4.13,4.13,0,0,1,.22-4.41,4.63,4.63,0,0,1,6.23-1.19,4.21,4.21,0,0,1,2,4.19,9.49,9.49,0,0,1,2.07,1,8.83,8.83,0,0,1,1.56,1.27,4.65,4.65,0,0,1,4.75.13,4.17,4.17,0,0,1,1.26,5.94,4.58,4.58,0,0,1-3.93,1.91,8.56,8.56,0,0,1-1.18,2.46,8.88,8.88,0,0,1-6,3.67,13,13,0,0,1,1.23,3.78c2.58,1.66,6.44,4.7,7.62,8.56C877.16,525.56,872.56,530.48,869.87,528.18Z"/><path class="cls-9" d="M839.19,512l.48-.72a25.53,25.53,0,0,1,6.22-6.3c.69,0,1.38.09,1.63.76.56,1.48-4.65,6.14-4.21,8.79C843.65,516.53,840.65,513.7,839.19,512Z"/><path class="cls-9" d="M860.38,503.48a25.5,25.5,0,0,1-3.86-2.14h.13a8.08,8.08,0,0,1,1.11-7.1,8.62,8.62,0,0,1,1.81-1.9v0c.09,0,.13.15.09.39-.17.93-2.6,7.39,1.37,10.16C861,502.87,861.61,504,860.38,503.48Z"/><path class="cls-10" d="M872.62,494.89s2.31-.67,3.11.84-.74,3.31-2,3A9.34,9.34,0,0,0,872.62,494.89Z"/><path class="cls-10" d="M866.14,490.38s-.93-2.4-2.62-2.26-1.31,2.73-1.31,2.73A9.78,9.78,0,0,1,866.14,490.38Z"/><path class="cls-11" d="M814,514.09s-5.77-7.1-5.81-12.88.14-7.72,1.15-7.45a18.25,18.25,0,0,1,7.21,6.7c1.64,3.21,4.52,11.63,4.58,12.77S814,514.09,814,514.09Z"/><path class="cls-12" d="M814.3,511.82s-3.68-4.9-3.82-8.81-.07-5.21.56-5a12.81,12.81,0,0,1,4.56,4.67,58.55,58.55,0,0,1,3.07,8.71C818.73,512.15,814.3,511.82,814.3,511.82Z"/><path class="cls-11" d="M823.3,511.13s-2.77-9.61-1.68-12.23,6.76-.86,7.4,1,.25,9.63.25,9.63Z"/><path class="cls-12" d="M824,500.08s-.4,7.62,1,10.58l2.68-.73s.42-8.5.06-9.07S824,500.08,824,500.08Z"/><path class="cls-11" d="M821.47,499.45s9.3,5.87,10,5.25-2.08-6.58-3.17-7.11S821.4,496,821.47,499.45Z"/><rect class="cls-13" x="804.36" y="507.04" width="126.82" height="99.73" transform="translate(1735.53 1113.8) rotate(180)"/><rect class="cls-14" x="867.77" y="507.04" width="126.82" height="99.73"/><polygon class="cls-15" points="994.58 507.04 994.58 575.44 867.77 606.76 867.77 507.04 994.58 507.04"/><polygon class="cls-14" points="867.77 507.04 892.86 533.28 1018 533.28 994.58 507.04 867.77 507.04"/><polygon class="cls-14" points="804.43 581.47 824.53 581.47 822.76 576.08 824.53 572.23 804.43 572.23 804.43 581.47"/><polygon class="cls-15" points="994.61 598.58 974.52 598.58 976.29 593.18 974.52 589.33 994.61 589.33 994.61 598.58"/><polygon class="cls-16" points="867.77 518.31 841.03 543.81 804.43 543.81 804.43 507.04 867.77 507.04 867.77 518.31"/><polygon class="cls-14" points="804.36 507.04 775.85 533.28 839.29 533.28 867.77 507.04 804.36 507.04"/><path class="cls-17" d="M1164.49,198.64l32.4,59.64L1221.13,215a16.27,16.27,0,0,0,.22-15.5L1206.43,171a3.28,3.28,0,0,0-5.84.06l-10.35,20.81-21.59-.19A4.69,4.69,0,0,0,1164.49,198.64Z"/><path class="cls-18" d="M1216.36,223.53l-5,3.42a28.67,28.67,0,0,1-16.41,5l-45.08-.38.09-10.32a1.26,1.26,0,0,0-2.35-.64l-21,36.71,20.59,36.76a1.26,1.26,0,0,0,2.36-.55l.63-12.22,21,.18a22.72,22.72,0,0,0,20.16-11.87Z"/><path class="cls-17" d="M1112.77,178.37l35.45-57.88-49.58.63a16.27,16.27,0,0,0-13.53,7.56l-17.23,27.18a3.28,3.28,0,0,0,3,5l23.19-1.44,10.64,18.79A4.69,4.69,0,0,0,1112.77,178.37Z"/><path class="cls-17" d="M1120,232.27l-67.85-1.76,25.34,42.62a16.25,16.25,0,0,0,13.31,7.94l32.15,1.33a3.28,3.28,0,0,0,2.86-5.09L1112.91,258l11-18.61A4.7,4.7,0,0,0,1120,232.27Z"/><path class="cls-19" d="M1072.45,264.75l-.46-6a28.58,28.58,0,0,1,3.87-16.71l22.87-38.85,8.89,5.24a1.27,1.27,0,0,0,1.73-1.73l-21.28-36.55-42.12-.55a1.26,1.26,0,0,0-.71,2.32l10.26,6.66-10.63,18.06a22.71,22.71,0,0,0,.2,23.39Z"/><path class="cls-20" d="M1112.75,121l5.45,2.61a28.63,28.63,0,0,1,12.53,11.7l22.21,39.24-9,5.08a1.26,1.26,0,0,0,.63,2.36l42.3-.15,21.53-36.21a1.26,1.26,0,0,0-1.65-1.77l-10.9,5.55-10.33-18.24a22.69,22.69,0,0,0-20.35-11.52Z"/><path class="cls-21" d="M1253.82,536.05l-.29-3.76a2.62,2.62,0,0,1,2.38-2.78,61.66,61.66,0,0,1,13.6-.21,3,3,0,0,1,2.59,2.91v3.84h-4l.14-2a3,3,0,0,0-2.74-3.11,28.45,28.45,0,0,0-6.51.13,2.62,2.62,0,0,0-2.24,3.22l.45,1.73Z"/><polygon class="cls-22" points="1285.37 610.02 1242.28 609.13 1239.22 545.25 1287.64 542.5 1285.37 610.02"/><path class="cls-23" d="M1287.68,541.24l-48.39,2,5.31-6.45a5.9,5.9,0,0,1,4.46-2l29.22-.43a3.93,3.93,0,0,1,2.66.93Z"/><path class="cls-24" d="M1242.28,609.13l43.09.89-7.82,5.71a3.49,3.49,0,0,1-2.07.68l-24.8.07a3.49,3.49,0,0,1-2.58-1.11Z"/><path class="cls-25" d="M1289.62,547.75l-52.35.07c-1.88,0-3.3-1.2-2.87-2.44l1.16-3.35a2.75,2.75,0,0,1,2.65-1.47l49.84-.91a3,3,0,0,1,3,1.57"/><path class="cls-26" d="M1248.09,607.74h0a.72.72,0,0,1-.72-.67l-2.5-53.65a.71.71,0,0,1,.72-.73h0a.7.7,0,0,1,.72.67l2.5,53.65A.71.71,0,0,1,1248.09,607.74Z"/><path class="cls-27" d="M1254.74,607.75h0a.71.71,0,0,1-.71-.68l-1.7-53.68a.71.71,0,0,1,.73-.72h0a.73.73,0,0,1,.71.68l1.7,53.68A.7.7,0,0,1,1254.74,607.75Z"/><path class="cls-28" d="M1279.52,607.74h0a.72.72,0,0,0,.72-.67l2.5-53.65a.71.71,0,0,0-.72-.73h0a.71.71,0,0,0-.72.67L1278.8,607A.71.71,0,0,0,1279.52,607.74Z"/><path class="cls-29" d="M1272.87,607.75h0a.71.71,0,0,0,.71-.68l1.71-53.68a.72.72,0,0,0-.74-.72h0a.73.73,0,0,0-.71.68l-1.7,53.68A.7.7,0,0,0,1272.87,607.75Z"/><rect class="cls-30" x="1262.8" y="553.47" width="0.96" height="54.27" rx="0.48"/><path class="cls-31" d="M1273.54,554l0,0Z"/><path class="cls-31" d="M1273.54,554l0,.06Z"/><path class="cls-32" d="M1130,458s10.18,23.48,16.44,20.35,10.95-29,10.95-29S1137.81,444.68,1130,458Z"/><path class="cls-33" d="M1165.41,603.68s.85,4.81,1.26,9.58a3.28,3.28,0,0,1-3.14,3.56c-6.35.26-19.92.78-24.79.56a1.07,1.07,0,0,1-1-1.47h0a2.37,2.37,0,0,1,1.23-1.28l22.43-10.31Z"/><path class="cls-34" d="M1166.1,600.85l-.68,5.76s-3.93,1.83-6.61-.23l1.62-6.42Z"/><path class="cls-33" d="M1165.59,492.57c.29,1.51,1.58,75.06-6.28,108a1.12,1.12,0,0,0,.66,1.3,19.65,19.65,0,0,0,6.4,1.3,1.92,1.92,0,0,0,1.91-1.39c2.25-7.64,13-46,14.42-82.56,1.57-40.9,0-1.39,0-1.39l-.92-25.28Z"/><path class="cls-33" d="M1191.2,606.19s1.36,2.43,2.67,8.89a2,2,0,0,1-1.76,2.4c-2.1.2-5.33.47-7.91.45a2,2,0,0,1-2-2.23,16.94,16.94,0,0,1,3.93-9.24Z"/><path class="cls-35" d="M1192.39,598.78l-1.59,8.71s-1.58,1.18-4.71.32l.77-9.37Z"/><path class="cls-33" d="M1196.71,494.83c6.43,38.8-1.4,95.91-4,107.09a1.75,1.75,0,0,1-1.4,1.32,11.71,11.71,0,0,1-5-.2,1.59,1.59,0,0,1-1.15-1.47c-.36-9,.28-64.51-5.71-86.44a4.92,4.92,0,0,0-1.92-2.74l-11.63-8.27-.89-13.36Z"/><path class="cls-31" d="M1155,422.76a108.78,108.78,0,0,1,41.24,3.6c5.74,33.51,1,72.17,1,72.17-14.92,3.91-31.75-2.39-31.75-2.39-2.48-14-14-53.43-14-53.43C1142.06,441.54,1149.11,423.36,1155,422.76Z"/><path class="cls-31" d="M1188.87,445l7.4-18.66s18,12.23,21,27.73a42.53,42.53,0,0,0-15.64,4.2C1200.25,451,1188.87,445,1188.87,445Z"/><path class="cls-36" d="M1171.58,462.57s20.21,11.43,27,1.67a7.66,7.66,0,0,0,1.4-5.95,42.62,42.62,0,0,1,15.65-4.2,21.39,21.39,0,0,1-2.33,14.67c-11.94,21.85-44.42-1.2-44.42-1.2Z"/><path class="cls-37" d="M1174,477l-11-38.51a1.12,1.12,0,0,0-1-.81c-2-.23-7.79-.89-14.47-1.45-8.06-.69-17.41-1.24-23-.77a1.13,1.13,0,0,0-.92,1.62c3.18,6.43,16.25,32.58,22.8,41.15a1.11,1.11,0,0,0,.91.45l25.59-.24A1.13,1.13,0,0,0,1174,477Z"/><path class="cls-38" d="M1146.41,432.91l-8-1.34a.57.57,0,0,0-.64.75l.79,2.4a.57.57,0,0,0,.47.39l7.69,1a.58.58,0,0,0,.64-.7l-.49-2.1A.58.58,0,0,0,1146.41,432.91Z"/><path class="cls-39" d="M1152.4,439.68l-.66-3.44a.79.79,0,0,0-.7-.63L1134.89,434a.79.79,0,0,0-.85,1l1,4.28a.78.78,0,0,0,.73.6l15.78.8A.8.8,0,0,0,1152.4,439.68Z"/><path class="cls-40" d="M1171.34,467.72s1.54-6.32.92-8.56-1.82-5.12-5.82-4.48a59.18,59.18,0,0,0-8.73,2.32,2.29,2.29,0,0,0,3.28,2l-1.88,1.46s.27,2.34,2.84,1.09l-1.76,1.93a2.05,2.05,0,0,0,3,.69C1165.08,462.92,1166,468.48,1171.34,467.72Z"/><path class="cls-41" d="M1130.34,458.32s-4.66-4.54-5.33-6.77-1.17-5.3,2.56-6.89a58.84,58.84,0,0,1,8.62-2.66,2.29,2.29,0,0,1-1.73,3.42l2.38.23s1,2.13-1.83,2.43l2.52.71a2,2,0,0,1-2.18,2.17C1133.1,450.93,1135.28,456.12,1130.34,458.32Z"/><path class="cls-42" d="M1172.9,407.11l6.14,17.73a.64.64,0,0,1-.29.77c-1.68.93-7.7,3.6-15-1a3,3,0,0,1-1.39-2.15l-2-15.35Z"/><path class="cls-43" d="M1159.56,390.69s-6.73,12.68-5.87,17.8,9.21,4.75,16.5.59l5.09-13.68Z"/><path class="cls-44" d="M1169.87,402.36a.51.51,0,0,1-.23-.76,13.67,13.67,0,0,0,1.87-4s1.21-.78-3.08-1.8-10.69-2.63-12-6.28,2.13-12.51,7.63-5.38a.52.52,0,0,0,.82,0c.91-1.18,3.27-3.61,6.56-2.13,3.08,1.38,3.43,3.63,3.39,4.77a.51.51,0,0,0,.61.53c1.56-.3,5.29-.55,7,3.28,1.43,3.16.5,4.94-.35,5.82a.51.51,0,0,0,.22.86c1,.31,2.34,1.18,2.21,3.58-.18,3.31-3.88,3-4.94,2.87a.49.49,0,0,0-.46.16c-.91,1-5,5.25-9.39,5.76a.52.52,0,0,1-.55-.69l1.91-5.55a.53.53,0,0,0-.29-.65Z"/><path class="cls-45" d="M1169.1,403.15s4.79-3.29,5.14-.52-4.31,4-6.63,3Z"/><path class="cls-46" d="M993,585.12l-2.48.49a5.48,5.48,0,0,1-6.4-4.4L980.48,562A5.62,5.62,0,0,1,984,555.7a1.17,1.17,0,0,1,0-.2l-.22-1.13a1.46,1.46,0,0,1,1.13-1.7l1.1-.21a1.42,1.42,0,0,1,1.67,1.14l.21,1.13a.88.88,0,0,1,0,.16v0a5.49,5.49,0,0,1,5.78,4.48l3.65,19.19A5.58,5.58,0,0,1,993,585.12Z"/><polygon class="cls-47" points="993.88 560.5 996.39 573.68 983.2 576.3 980.69 563.11 993.88 560.5"/><path class="cls-48" d="M987.89,554.89l-3.86.81a1.17,1.17,0,0,1,0-.2l-.22-1.13a1.46,1.46,0,0,1,1.13-1.7l1.1-.21a1.42,1.42,0,0,1,1.67,1.14l.21,1.13A.88.88,0,0,1,987.89,554.89Z"/><path class="cls-49" d="M1059.88,550.05s-1.64,2.35-3.14,2.38a10.84,10.84,0,0,1-3.77-1.09s-1.38-3.13-.44-4.36a2,2,0,0,1,1.91.33,2.57,2.57,0,0,1,.51.49,1.61,1.61,0,0,0,.78.55c1.07.33,2.34-.45,2.81.3a5,5,0,0,0,.83,1A3.32,3.32,0,0,0,1059.88,550.05Z"/><path class="cls-49" d="M1038.57,567s5.78-14.29,16.18-14.56c0,0,9.59,1.09,10.12,14.56Z"/><path class="cls-14" d="M1051.9,552.86s4.16.95,5.45.39c0,0,.19-1.77-1.56-1.53a3.57,3.57,0,0,1-2.44-.65C1052.69,550.73,1051.72,552.12,1051.9,552.86Z"/><path class="cls-50" d="M1055.52,550.18c-.26.21-1.08-2.87-1.08-2.87a2.57,2.57,0,0,1,.51.49,1.61,1.61,0,0,0,.78.55C1055.73,548.44,1055.78,550,1055.52,550.18Z"/><path class="cls-50" d="M1059.37,549.65a17.94,17.94,0,0,1-2.25,1.21c-.26,0,1.42-2.21,1.42-2.21A5,5,0,0,0,1059.37,549.65Z"/><path class="cls-50" d="M1044.22,563c-.11-.1,4.08-6.31,5.24-6.35s3.75,1.36,5.63,1.54,3.7-.36,4.05.77,1.34,5.15.74,5.8S1046.52,565,1044.22,563Z"/><path class="cls-12" d="M995.54,572.66a1.88,1.88,0,0,1-.66.76,1.72,1.72,0,0,1-.49.24,2,2,0,0,1-1.51-.11L967,560.11a2.05,2.05,0,0,1-.87-2.72,2,2,0,0,1,1.16-1,1.9,1.9,0,0,1,1.51.11l25.89,13.44A2,2,0,0,1,995.54,572.66Z"/><polygon class="cls-51" points="975.57 564.57 973.94 559.18 969.77 557.02 972.28 562.86 975.57 564.57"/><polygon class="cls-51" points="981.89 567.85 978.61 566.14 976.09 560.3 980.26 562.46 981.89 567.85"/><polygon class="cls-51" points="988.21 571.13 984.92 569.42 982.41 563.57 986.58 565.74 988.21 571.13"/><path class="cls-51" d="M994.88,573.42a1.72,1.72,0,0,1-.49.24,2,2,0,0,1-1.51-.11l-1.52-.79-2.51-5.85,4.17,2.17Z"/><path class="cls-51" d="M966.11,557.39s-.52-2.87-2.81-3.73c0,0,.27.33-.83.69s-.78,1.14-1.17,1.49A4.88,4.88,0,0,0,966.11,557.39Z"/><path class="cls-48" d="M965.67,557.77l-.06,0a.36.36,0,0,1-.16-.49l.32-.65a.36.36,0,0,1,.48-.16l.07,0a.37.37,0,0,1,.15.49l-.32.65A.36.36,0,0,1,965.67,557.77Z"/><path class="cls-51" d="M995.44,572.6s2.58-1.26,4.6.12c0,0-.42,0,0,1.09s-.44,1.31-.48,1.84A4.92,4.92,0,0,1,995.44,572.6Z"/><path class="cls-48" d="M995.43,573.21h0A.39.39,0,0,0,996,573l.29-.58a.41.41,0,0,0-.18-.54h0a.39.39,0,0,0-.52.17l-.29.59A.41.41,0,0,0,995.43,573.21Z"/><path class="cls-14" d="M1029.07,572.87a2.15,2.15,0,0,1-1,.27,2,2,0,0,1-1.74-1l-14.55-25.67a2.06,2.06,0,0,1,.72-2.77,1.93,1.93,0,0,1,1.51-.2,2,2,0,0,1,1.2.94l14.55,25.67A2.06,2.06,0,0,1,1029.07,572.87Z"/><polygon class="cls-49" points="1016.63 554.97 1018.14 549.54 1015.8 545.41 1014.79 551.71 1016.63 554.97"/><polygon class="cls-49" points="1020.19 561.24 1018.34 557.98 1019.35 551.68 1021.69 555.81 1020.19 561.24"/><polygon class="cls-49" points="1023.74 567.5 1021.89 564.24 1022.9 557.94 1025.24 562.08 1023.74 567.5"/><path class="cls-49" d="M1028.1,573.14a2,2,0,0,1-1.74-1l-.86-1.51,1-6.3,2.35,4.13Z"/><path class="cls-14" d="M1012.53,543.69s1.1-2.7-.36-4.69c0,0,.05.43-1.07.12s-1.26.51-1.77.59A5,5,0,0,0,1012.53,543.69Z"/><path class="cls-13" d="M1012,543.76l0-.06a.37.37,0,0,1,.13-.5l.61-.36a.36.36,0,0,1,.49.13l0,.06a.37.37,0,0,1-.13.5l-.61.36A.36.36,0,0,1,1012,543.76Z"/><path class="cls-14" d="M1029,572.76s2.83.37,3.79,2.66c0,0-.33-.26-.62.89s-1.07.85-1.39,1.27A5.07,5.07,0,0,1,1029,572.76Z"/><path class="cls-13" d="M1028.66,573.23l0,.06a.34.34,0,0,0,.49.13l.62-.36a.37.37,0,0,0,.13-.5l0-.06a.35.35,0,0,0-.49-.13l-.61.36A.37.37,0,0,0,1028.66,573.23Z"/><path class="cls-48" d="M982,580.07a2,2,0,0,1-.74-.69,2.94,2.94,0,0,1-.23-.51,2.08,2.08,0,0,1,.14-1.54l13.58-26.22a2,2,0,0,1,2.67-.85,2.06,2.06,0,0,1,.83,2.74l-13.57,26.22A2,2,0,0,1,982,580.07Z"/><polygon class="cls-52" points="990.24 559.8 995.54 558.22 997.72 554 991.96 556.47 990.24 559.8"/><polygon class="cls-52" points="986.92 566.21 988.64 562.88 994.41 560.41 992.22 564.63 986.92 566.21"/><polygon class="cls-52" points="983.61 572.61 985.33 569.27 991.1 566.8 988.91 571.03 983.61 572.61"/><path class="cls-52" d="M981.25,579.38a2.94,2.94,0,0,1-.23-.51,2.08,2.08,0,0,1,.14-1.54l.8-1.54,5.76-2.47-2.18,4.22Z"/><path class="cls-52" d="M997.41,550.26s2.83-.48,3.7-2.8c0,0-.33.27-.66-.86s-1.1-.82-1.44-1.22A5.07,5.07,0,0,0,997.41,550.26Z"/><path class="cls-48" d="M997.07,549.78h0a.39.39,0,0,1,.53-.17l.56.31a.41.41,0,0,1,.17.54h0a.38.38,0,0,1-.53.16l-.57-.3A.41.41,0,0,1,997.07,549.78Z"/><path class="cls-48" d="M982.05,580s1.19,2.65-.19,4.7c0,0,0-.43-1.07-.08s-1.28-.46-1.8-.52A5,5,0,0,1,982.05,580Z"/><path class="cls-48" d="M981.47,579.91l0,.06a.36.36,0,0,0,.15.49l.63.34a.34.34,0,0,0,.48-.15l0-.06a.36.36,0,0,0-.15-.49l-.63-.34A.34.34,0,0,0,981.47,579.91Z"/><path class="cls-51" d="M1009.1,556.23s1.19,1.71,2.28,1.73a8,8,0,0,0,2.74-.79s1-2.27.32-3.16a1.45,1.45,0,0,0-1.39.23,3.07,3.07,0,0,0-.37.36,1.2,1.2,0,0,1-.57.4c-.77.24-1.69-.33-2,.22a3.34,3.34,0,0,1-.6.72A2.09,2.09,0,0,1,1009.1,556.23Z"/><path class="cls-51" d="M1024.56,568.53s-4.19-10.37-11.73-10.57c0,0-7,.79-7.35,10.57Z"/><path class="cls-53" d="M1014.9,558.28s-3,.68-4,.28c0,0-.14-1.29,1.13-1.11a2.6,2.6,0,0,0,1.77-.48C1014.32,556.73,1015,557.74,1014.9,558.28Z"/><path class="cls-53" d="M1012.26,556.33c.2.15.79-2.09.79-2.09a3.07,3.07,0,0,0-.37.36,1.2,1.2,0,0,1-.57.4C1012.11,555.06,1012.08,556.19,1012.26,556.33Z"/><path class="cls-53" d="M1009.47,555.94a11.7,11.7,0,0,0,1.63.88c.2,0-1-1.6-1-1.6A3.34,3.34,0,0,1,1009.47,555.94Z"/><path class="cls-53" d="M1020.47,565.63c.08-.07-3-4.57-3.81-4.61s-2.72,1-4.08,1.12-2.69-.26-2.94.56-1,3.74-.54,4.21S1018.8,567.09,1020.47,565.63Z"/><path class="cls-46" d="M1039.16,556.79h0c-1.25,0-1.88-1.91-1.88-1.91l-12.15,3.75a2.49,2.49,0,0,1-.34,2.41s-2.1,1.44-1.45,3.64l2.69,9.07a3,3,0,0,0,3.73,2l12.82-4a3.07,3.07,0,0,0,2-3.81l-2.69-9.07A3,3,0,0,0,1039.16,556.79Z"/><path class="cls-53" d="M1023.91,558.23l.73,2.46c.27.89,3.59.65,7.44-.53s6.74-2.88,6.48-3.77l-.73-2.46Z"/><path class="cls-51" d="M1037.83,553.93c.26.89-2.64,2.58-6.48,3.76s-7.17,1.43-7.44.54,2.64-2.57,6.48-3.76S1037.56,553,1037.83,553.93Z"/><path class="cls-54" d="M1006.54,561.71h0c-.87-.43-.65-2-.65-2l-9.72-1.7a1.86,1.86,0,0,1-1,1.55,2.65,2.65,0,0,0-2.24,2l-1.21,7.26a2.36,2.36,0,0,0,1.89,2.73l10.25,1.79a2.33,2.33,0,0,0,2.68-1.93l1.22-7.26A2.4,2.4,0,0,0,1006.54,561.71Z"/><path class="cls-16" d="M995.47,557.32l-.33,2c-.12.71,2.27,1.72,5.34,2.26s5.66.39,5.78-.32l.33-2Z"/><path class="cls-14" d="M1006.59,559.26c-.12.71-2.7.86-5.78.32s-5.46-1.55-5.34-2.26,2.7-.85,5.78-.32S1006.71,558.55,1006.59,559.26Z"/><rect class="cls-13" x="975.58" y="564.66" width="60.2" height="50.69" transform="translate(2011.36 1180) rotate(180)"/><rect class="cls-14" x="1005.68" y="564.66" width="60.2" height="50.69" transform="translate(2071.56 1180) rotate(180)"/><polygon class="cls-15" points="1005.68 564.66 1066.04 564.66 1066.04 599.38 1005.68 615.35 1005.68 564.66"/><polygon class="cls-14" points="1005.68 564.66 1017.59 578 1077 578 1065.88 564.66 1005.68 564.66"/><polygon class="cls-14" points="975.61 602.49 985.15 602.49 984.31 599.75 985.15 597.79 975.61 597.79 975.61 602.49"/><polygon class="cls-16" points="1005.68 570.39 992.99 583.35 975.61 583.35 975.61 564.66 1005.68 564.66 1005.68 570.39"/><polygon class="cls-14" points="975.58 564.66 962.04 578 992.16 578 1005.68 564.66 975.58 564.66"/><g class="cls-55"><path class="cls-56" d="M946.25,558.89,953.37,572l5.33-9.51a3.59,3.59,0,0,0,0-3.41l-3.28-6.26a.72.72,0,0,0-1.28,0l-2.28,4.58-4.74,0A1,1,0,0,0,946.25,558.89Z"/><path class="cls-56" d="M957.65,564.36l-1.09.75a6.27,6.27,0,0,1-3.61,1.1l-9.91-.08,0-2.27a.27.27,0,0,0-.51-.14l-4.62,8.07,4.52,8.08a.28.28,0,0,0,.52-.13l.14-2.68,4.61,0a5,5,0,0,0,4.43-2.61Z"/><path class="cls-56" d="M934.88,554.43l7.8-12.72-10.9.14a3.6,3.6,0,0,0-3,1.66l-3.78,6a.72.72,0,0,0,.65,1.1l5.1-.32,2.34,4.13A1,1,0,0,0,934.88,554.43Z"/><path class="cls-56" d="M936.46,566.28l-14.91-.39,5.57,9.37A3.58,3.58,0,0,0,930,577l7.07.29a.72.72,0,0,0,.63-1.12l-2.82-4.26,2.4-4.08A1,1,0,0,0,936.46,566.28Z"/><path class="cls-56" d="M926,573.42l-.1-1.32a6.31,6.31,0,0,1,.85-3.68l5-8.53,2,1.15a.28.28,0,0,0,.38-.38l-4.67-8-9.26-.12a.28.28,0,0,0-.16.51l2.26,1.46-2.34,4a5,5,0,0,0,0,5.14Z"/><path class="cls-56" d="M934.88,541.82l1.2.58a6.21,6.21,0,0,1,2.75,2.57l4.88,8.62-2,1.12a.28.28,0,0,0,.14.52l9.29,0,4.74-8a.28.28,0,0,0-.37-.39l-2.39,1.22-2.27-4a5,5,0,0,0-4.47-2.53Z"/></g><g class="cls-55"><path class="cls-56" d="M1039.19,593.42l3.65,6.73,2.74-4.88a1.84,1.84,0,0,0,0-1.75l-1.68-3.21a.37.37,0,0,0-.66,0l-1.17,2.34-2.43,0A.53.53,0,0,0,1039.19,593.42Z"/><path class="cls-56" d="M1045,596.23l-.56.38a3.23,3.23,0,0,1-1.85.57l-5.09,0V596a.14.14,0,0,0-.26-.07l-2.37,4.14,2.32,4.14a.14.14,0,0,0,.27-.06l.07-1.38,2.36,0a2.53,2.53,0,0,0,2.27-1.34Z"/><path class="cls-56" d="M1033.36,591.14l4-6.53-5.59.07a1.85,1.85,0,0,0-1.52.85l-1.94,3.07a.37.37,0,0,0,.33.57l2.62-.17,1.2,2.12A.53.53,0,0,0,1033.36,591.14Z"/><path class="cls-56" d="M1034.17,597.21l-7.65-.19,2.86,4.8a1.84,1.84,0,0,0,1.5.9l3.62.15a.37.37,0,0,0,.32-.58l-1.45-2.18,1.24-2.1A.53.53,0,0,0,1034.17,597.21Z"/><path class="cls-56" d="M1028.81,600.88l0-.68a3.21,3.21,0,0,1,.44-1.89l2.58-4.38,1,.59a.14.14,0,0,0,.19-.19l-2.4-4.12-4.75-.06a.14.14,0,0,0-.07.26l1.15.75-1.2,2a2.55,2.55,0,0,0,0,2.64Z"/><path class="cls-56" d="M1033.36,584.67l.61.29a3.22,3.22,0,0,1,1.41,1.32l2.51,4.43-1,.57a.14.14,0,0,0,.07.26h4.76l2.43-4.08a.14.14,0,0,0-.18-.2l-1.23.62-1.17-2a2.53,2.53,0,0,0-2.29-1.3Z"/></g><path class="cls-57" d="M937.93,413.4c0-.5-.41-6-8.72-6.24,0,0,4.08.48,4.79,2.28,0,0-2.78-2.22-5-1.5s-3.59,4.68-3.61,6,1.25,5.52,2.69,5.87a4.43,4.43,0,0,0,1.74,0,19.09,19.09,0,0,0-1.12,2c-3.31,6.8.11,13.45,2.91,12.72,1.8-.47,2.31,2.6,2.31,2.6L951.36,423S944.94,409.66,937.93,413.4Z"/><path class="cls-47" d="M944,613.88l-3.72,1.39s-16.13-22.38-18.12-42.07a30.19,30.19,0,0,1,.53-10.06s-.15-.9-.43-2.49c-.13-.75-.29-1.64-.46-2.67-.53-3-1.25-7.11-2.08-11.8-1.89-10.77-4.35-24.55-6.26-34.67l1-.32,10.83-3.5,2.23-7.1,8.07-2.13s1.8,3.53,3.41,20.17c.3,2.19.57,4.59.77,7.2A142.44,142.44,0,0,1,939,555q-.56,4.35-1.41,9a39.55,39.55,0,0,0-.31,8.84C938.11,588.87,944,613.88,944,613.88Z"/><path class="cls-7" d="M939.79,525.83l-17.51,34.82c-.13-.75-.29-1.64-.46-2.67-.53-3-1.25-7.11-2.08-11.8-1.89-10.77-4.35-24.55-6.26-34.67l1-.32,10.83-3.5,2.23-7.1,8.07-2.13s1.8,3.53,3.41,20.17C939.32,520.82,939.59,523.22,939.79,525.83Z"/><path class="cls-47" d="M932.09,502.93l-.41-3.48c-6.79,1.81-24.93-5-24.93-5s-6.58,5.79-5.72,19.65c.42,6.77,1.19,35.52,2,44,.29,3.09.54,5.28.65,6.16h0a1.2,1.2,0,0,1-.2.75,40.9,40.9,0,0,0-3,6.24c-7.89,21,1.22,47,1.22,47l2.36-1s5.19-28.83,9.4-41.56a25,25,0,0,1,2-4.88c1.83-2.95,3.53-7.78,5.07-13.53,2.92-10.86,5.26-25,6.83-35.89C927.63,521.38,932.09,502.93,932.09,502.93Z"/><path class="cls-58" d="M985.59,498.49c-1.47,1.29-5.34-3.15-5.88-3.74l-.05-.08,1.18-3.29s5.08-.2,5.93.64S987.19,497.11,985.59,498.49Z"/><path class="cls-58" d="M980.84,491.38l-.51,3.4s-.23,0-.62,0c-1.24-.08-4.24-.25-7.64-.62-5.12-.5-11.19-1.4-13.61-2.89-3.68-2.25-9.73-9.14-13.66-16a4.29,4.29,0,0,1-.28-.51c-2-3.65-3.49-7.28-3.6-10.18a14.56,14.56,0,0,1,.48-4.61,11.73,11.73,0,0,1,2.08-4.16,2.12,2.12,0,0,1,.39-.47,9.6,9.6,0,0,1,2.67-2.28c.68-.28,1.41.06,2.17.87v0a13,13,0,0,1,1.94,2.87s.05.05.05.08c.14.25.28.53.45.84a.5.5,0,0,1,.11.2c.31.65.62,1.32.93,2,3.46,7.54,7.14,18.95,10.21,22.35,1.32,1.46,7.36,4.33,12.17,6.47C978,490.25,980.84,491.38,980.84,491.38Z"/><path class="cls-59" d="M945.06,460.77a21.13,21.13,0,0,1-7.82,1.83c-11.68.64-14.33-9.59-14.81-16.39a9.69,9.69,0,0,1,4-.5c.82,0,1.69.13,2.4.22,1.43-.75,4-4.37,5.48-10.44l.5.24,8.43,4s-.9,2.74-1.56,5.36c-.52,2.06-.89,4-.58,4.59l1.07.44h0A58.89,58.89,0,0,1,945.06,460.77Z"/><path class="cls-60" d="M948,468.43c-.09.23-.19.46-.29.69-3,6.37-8.43,32.75-8.43,32.75.78,4.74-35.65-.93-35.74-5.25-1.28-4.58,4.55-11.93,7.84-15.62a11.53,11.53,0,0,0,1.11-1.49,10.49,10.49,0,0,0,1.49-4.35,150.93,150.93,0,0,0,.45-15.35h0l1.85-1.34a16.73,16.73,0,0,0,2.24-1.86,3.45,3.45,0,0,0,1.08-2.12,11.67,11.67,0,0,0-.05-1.77c0-.29-.06-.57-.1-.85a24.24,24.24,0,0,0-1.7-5.65c3.14-1.27,8.71-.51,8.71-.51s0,.31,0,.81c0,2,0,7.26.65,8.25.82,1.23,15.74,6.63,16.53,5s-1.35-9.35-1.43-9.64h0c5,2,6.78,3.61,6.78,3.61C946,455.64,950.31,462.25,948,468.43Z"/><path class="cls-58" d="M943.25,439.69s-.9,2.74-1.56,5.36c-4.92-1.37-6.42-6.55-6.87-9.32Z"/><path class="cls-59" d="M944.28,442.59s-11.78-2.73-10-10,1.51-12.58,9.11-11.15,8.36,4.58,8.35,7.17S947.39,443.11,944.28,442.59Z"/><path class="cls-57" d="M952.44,424.42c-1.27-2.65-2.76-2.51-3.69-2a8.46,8.46,0,0,0-11-.94,14.37,14.37,0,0,1-6.62,7.11s1.81,1.86,7.06,1.81a8.58,8.58,0,0,0,4.68-1.76,28.1,28.1,0,0,1-6.15,4.58c6.57-1.25,11-8.85,11.42-9.66a9.42,9.42,0,0,1,1.71,4.05c.13,2-.56,5.9.58,6.05C950.46,433.62,954.34,428.39,952.44,424.42Z"/><path class="cls-60" d="M949,453.69s2.84,4.95,3.26,6.22c0,0-3.68-.14-5.16,2.69C947.06,462.6,946.7,454.36,949,453.69Z"/><path class="cls-61" d="M929.45,493c-7.18-.08-13.27-7.54-17-13.5a10.49,10.49,0,0,0,1.49-4.35,150.93,150.93,0,0,0,.45-15.35h0l1.85-1.34a16.73,16.73,0,0,0,2.24-1.86C924.38,466.56,939.19,493.11,929.45,493Z"/><path class="cls-7" d="M915.47,620.12H896.76a10.4,10.4,0,0,1,.53-5c.94-2.07,2.41-3,2.05-5.53a6.72,6.72,0,0,0,5.84,2.23c.33.54,2.13,3.42,3.24,4.21S915.1,616.58,915.47,620.12Z"/><path class="cls-7" d="M955.64,620.12H936.93s-.7-3,.53-5c1.09-1.79.67-2.82-.13-4.3a7.32,7.32,0,0,0,3.15.59,6.55,6.55,0,0,0,2.78-1,65.11,65.11,0,0,0,5.33,5.6C949.81,616.89,955.26,616.58,955.64,620.12Z"/><polygon class="cls-7" points="971.82 482.06 953.62 505.74 955.1 506.77 973.53 483.09 971.82 482.06"/><polygon class="cls-47" points="973.53 483.09 992 483.09 972.66 506.77 955.1 506.77 973.53 483.09"/><polygon class="cls-62" points="971.82 482.06 990.17 482.06 991.21 483.09 973.53 483.09 971.82 482.06"/><polygon class="cls-47" points="972.31 482.35 990.51 482.35 990.8 482.06 971.82 482.06 972.31 482.35"/><path class="cls-59" d="M969.73,497.46c-.05-.94-1.3-.9-2.24-.9a17.94,17.94,0,0,1-5.4-.66s4.51-.06,3.55-1.49c-.18-.25-2.42-.06-4.92-.06a8.83,8.83,0,0,0-3.44,1.47c-1.81-.24-3.46-.59-4-.7h0c-1.24-.68-2.73-1.49-4.3-2.39a124.79,124.79,0,0,1-11.13-6.92,13.37,13.37,0,0,1-3.46-3.12,39,39,0,0,1-2.36-5.48c-.45-1.24-.93-2.58-1.41-4-.84-2.36-1.68-4.92-2.56-7.48-1.57-4.66-3.26-9.36-4.86-13a25.16,25.16,0,0,0-3-5.31c-.76-.93-1.49-1.41-2.19-1.3l-.28.09s-4.05,1.12-4.1,9.27a14.06,14.06,0,0,0,0,1.44,30.73,30.73,0,0,0,.76,5.08,77.08,77.08,0,0,0,3.21,10.69c.39,1,.78,2.05,1.21,3.09,3,7.53,6.94,14.56,10.23,17a4.73,4.73,0,0,0,.39.28,29.92,29.92,0,0,0,5.74,2.56c3.31,1.12,7.25,2.13,10.76,3h0c2,.45,3.94.87,5.51,1.18l.72.15.21,0a65,65,0,0,1,7.45,2.28,7.45,7.45,0,0,0,8.37-1.8A4.69,4.69,0,0,0,969.73,497.46Z"/><path class="cls-60" d="M923.2,452.74c-5.41-1.49-9.58,2.73-9.58,2.73.06-8.14,4.11-9.25,4.11-9.25C919.36,445.55,921.25,448.37,923.2,452.74Z"/></svg>