<svg xmlns="http://www.w3.org/2000/svg" xmlns:xlink="http://www.w3.org/1999/xlink" viewBox="0 0 1516 700"><defs><style>.cls-1{isolation:isolate;}.cls-2{fill:url(#Unbenannter_Verlauf_46);}.cls-3{fill:url(#Unbenannter_Verlauf_46-2);}.cls-4,.cls-5{stroke-miterlimit:10;}.cls-4{opacity:0.05;stroke:url(#Unbenannter_Verlauf_243);}.cls-5{opacity:0.04;stroke:url(#Unbenannter_Verlauf_243-2);}.cls-6{fill:url(#Unbenannter_Verlauf_46-3);}.cls-7{fill:url(#Unbenannter_Verlauf_46-4);}.cls-8{fill:#e6e6e6;}.cls-9{fill:#e9b0a9;}.cls-10{fill:#2f2e41;}.cls-11{fill:#ffc100;}.cls-12{fill:#582305;}.cls-13{fill:url(#Unbenannter_Verlauf_203);}.cls-14{fill:url(#Unbenannter_Verlauf_62);}.cls-15{fill:url(#Unbenannter_Verlauf_209);}.cls-16{fill:url(#Unbenannter_Verlauf_209-2);}.cls-17{fill:url(#Unbenannter_Verlauf_40);}.cls-18{fill:url(#Unbenannter_Verlauf_173);}.cls-19{fill:url(#Unbenannter_Verlauf_173-2);}.cls-20{fill:url(#Unbenannter_Verlauf_173-3);}.cls-21{fill:url(#Unbenannter_Verlauf_167);}.cls-22{fill:url(#Unbenannter_Verlauf_182);}.cls-23{fill:#fff;}.cls-24{fill:#999;}.cls-25,.cls-34{fill:#f2f2f2;}.cls-26{opacity:0.5;}.cls-27{fill:#ccc;}.cls-28,.cls-29{fill:#333427;}.cls-29{mix-blend-mode:screen;}.cls-30{font-size:19px;}.cls-30,.cls-34{font-family:Montserrat-Light, Montserrat;font-weight:300;}.cls-31{letter-spacing:-0.02em;}.cls-32{letter-spacing:0em;}.cls-33{letter-spacing:0em;}.cls-34{font-size:14px;}.cls-35{letter-spacing:-0.01em;}.cls-36{letter-spacing:-0.01em;}.cls-37{letter-spacing:-0.01em;}.cls-38{letter-spacing:-0.01em;}.cls-39{letter-spacing:0em;}.cls-40{font-family:Montserrat-Medium, Montserrat;font-weight:500;}.cls-41{letter-spacing:-0.01em;}.cls-42{letter-spacing:-0.02em;}.cls-43{letter-spacing:-0.05em;}.cls-44{letter-spacing:-0.01em;}.cls-45{letter-spacing:0em;}.cls-46{letter-spacing:-0.02em;}.cls-47{letter-spacing:0em;}.cls-48{letter-spacing:0.08em;}.cls-49{letter-spacing:0em;}.cls-50{letter-spacing:-0.02em;}.cls-51{letter-spacing:-0.01em;}.cls-52{letter-spacing:0em;}</style><linearGradient id="Unbenannter_Verlauf_46" x1="1516.5" y1="222.22" x2="1021.44" y2="222.22" gradientUnits="userSpaceOnUse"><stop offset="0.3" stop-color="#0e559c"/><stop offset="0.48" stop-color="#0d4f93"/><stop offset="0.77" stop-color="#094079"/><stop offset="0.94" stop-color="#063567"/></linearGradient><linearGradient id="Unbenannter_Verlauf_46-2" x1="1781.14" y1="-443.92" x2="517.99" y2="-443.92" xlink:href="#Unbenannter_Verlauf_46"/><linearGradient id="Unbenannter_Verlauf_243" x1="490.65" y1="-211.59" x2="565.04" y2="-267.77" gradientTransform="matrix(0.84, -0.54, -0.54, -0.84, -48.72, 141.31)" gradientUnits="userSpaceOnUse"><stop offset="0"/><stop offset="0.98"/></linearGradient><linearGradient id="Unbenannter_Verlauf_243-2" x1="223.45" y1="-175.87" x2="526.55" y2="-175.87" gradientTransform="matrix(1, 0, 0, -1, 0, -150.26)" xlink:href="#Unbenannter_Verlauf_243"/><linearGradient id="Unbenannter_Verlauf_46-3" x1="1515.5" y1="405.24" x2="895" y2="405.24" xlink:href="#Unbenannter_Verlauf_46"/><linearGradient id="Unbenannter_Verlauf_46-4" x1="1516.28" y1="588.26" x2="1021.22" y2="588.26" xlink:href="#Unbenannter_Verlauf_46"/><linearGradient id="Unbenannter_Verlauf_203" x1="1093.9" y1="169.89" x2="1093.77" y2="177.18" gradientUnits="userSpaceOnUse"><stop offset="0" stop-color="#ffc100"/><stop offset="1" stop-color="#ffc100"/></linearGradient><linearGradient id="Unbenannter_Verlauf_62" x1="1055.32" y1="234.76" x2="1084.92" y2="181.58" gradientTransform="translate(27.89 -16.48) rotate(1.87)" gradientUnits="userSpaceOnUse"><stop offset="0" stop-color="#ffc100"/><stop offset="0.68" stop-color="#ff9000"/><stop offset="1" stop-color="#ffcb00"/></linearGradient><linearGradient id="Unbenannter_Verlauf_209" x1="1074.56" y1="147.73" x2="1072.71" y2="164.38" gradientTransform="translate(27.89 -16.48) rotate(1.87)" xlink:href="#Unbenannter_Verlauf_203"/><linearGradient id="Unbenannter_Verlauf_209-2" x1="1155.13" y1="299.16" x2="1163.11" y2="245.95" gradientTransform="translate(-56.31 -45.53) rotate(1.87)" xlink:href="#Unbenannter_Verlauf_203"/><linearGradient id="Unbenannter_Verlauf_40" x1="1064.17" y1="185.81" x2="1123.13" y2="185.81" gradientUnits="userSpaceOnUse"><stop offset="0" stop-color="#ffc100" stop-opacity="0.87"/><stop offset="1" stop-color="#ff8b00"/></linearGradient><linearGradient id="Unbenannter_Verlauf_173" x1="1083.61" y1="167.16" x2="1076.54" y2="230.85" gradientUnits="userSpaceOnUse"><stop offset="0" stop-color="#ffc100"/><stop offset="1" stop-color="#fff"/></linearGradient><linearGradient id="Unbenannter_Verlauf_173-2" x1="1081.2" y1="158.86" x2="1074.12" y2="222.54" gradientTransform="matrix(1, 0.01, -0.01, 1, 12.96, -7.04)" xlink:href="#Unbenannter_Verlauf_173"/><linearGradient id="Unbenannter_Verlauf_173-3" x1="-183.54" y1="167.16" x2="-190.61" y2="230.85" gradientTransform="matrix(-1, 0, 0, 1, 922.53, 0)" xlink:href="#Unbenannter_Verlauf_173"/><linearGradient id="Unbenannter_Verlauf_167" x1="-185.82" y1="176.98" x2="-192.89" y2="240.66" gradientTransform="matrix(-1, 0.01, 0.01, 1, 909.57, -7.04)" xlink:href="#Unbenannter_Verlauf_173"/><linearGradient id="Unbenannter_Verlauf_182" x1="1100.65" y1="168.11" x2="1093.64" y2="231.21" xlink:href="#Unbenannter_Verlauf_173"/></defs><g class="cls-1"><g id="Ebene_1" data-name="Ebene 1"><path class="cls-2" d="M1516.5,176.85h-323c-23.87-38.65-70.81-55.36-111.37-40.92-35.69,12.72-60.65,47.5-60.64,86.22,0,41.17,28.27,79.34,70.14,89.14,40.49,9.46,82.76-10.17,101.87-47.5h323Z"/><path class="cls-3" d="M1295,69c252.32-47.25,336.89-66.25,380-16,64.77,75.49-18.28,243.42-29,240.88-25.81-6.13,324.8-1054-11.84-1366.34-76.12-70.63-128.78-101.22-177.4-107.49-160.18-20.64-290.41,141.84-310.76,168-119.78,49.06-206.58,108.37-263,153-97.2,76.88-257.3,203.51-239,335,10,71.56,64.63,83.33,53,139-15.06,72.07-113.64,94.45-156,200-6.57,16.36-8.89,28.78-12,45-8.41,43.84-25.82,124.57,14.75,182.63A152.81,152.81,0,0,0,575,74C715.14,177.58,1295,69,1295,69Z"/><path class="cls-4" d="M497.83-11.3C510.77,22.23,527,44.6,540,59.11,555.78,76.84,569.59,86.2,568.31,101c-1.19,13.74-15,27.2-30.52,29.81-16.18,2.71-28.63-7.31-33.77-11.45-13-10.45-17.59-24-20-31.53C470.36,45.93,492.27-.21,497.83-11.3Z"/><path class="cls-5" d="M526.05-16.38c.05,1.94-9,1.43-23.83,8.17A107.73,107.73,0,0,0,487.71.41c-15.52,11-23.62,24.67-30.87,33.94-4.85,6.2-25.67,32.81-57.71,38.71-25.25,4.65-49.52-5-51.24-5.72-9.6-3.71-14.55-7.63-41.71-34.71C278.86,5.39,272.59-1.88,256.72-8.21c-18.64-7.44-32.84-6.52-32.77-8.17C224.28-24,525.8-26.59,526.05-16.38Z"/><path class="cls-6" d="M1515.5,361.5,1067,359.87c-23.87-38.64-70.81-55.36-111.37-40.91C920,331.67,895,366.46,895,405.17c0,41.18,28.27,79.35,70.14,89.14,40.49,9.47,82.77-10.16,101.87-47.49l448.49.68Z"/><path class="cls-7" d="M1516.28,542.89h-323c-23.87-38.64-70.81-55.36-111.37-40.91-35.69,12.71-60.65,47.5-60.64,86.21,0,41.18,28.27,79.35,70.14,89.14,40.49,9.47,82.77-10.16,101.87-47.49h323Z"/><g id="Gruppe_27" data-name="Gruppe 27"><path id="Pfad_518" data-name="Pfad 518" class="cls-8" d="M1179.71,581.52c-.37-1,.16-1.44.37-2.29a12.54,12.54,0,0,0-.48-3.5s-2.23-9.2-2.92-11a3.36,3.36,0,0,0-1.56-1.64c0-.24-.11-.39-.2-.43a14.34,14.34,0,0,0-3.17-1.16,5.09,5.09,0,0,0-.67-.91,2.2,2.2,0,0,0,.24-1.12c-.07-1-.83-1.9-.73-2.9a12.35,12.35,0,0,1,.85-2.12,2.51,2.51,0,0,0-.29-2l.48.5a1.78,1.78,0,0,0-.14-2.13c-.49-.54-1.33-.75-1.71-1.38s-.19-1.54-.56-2.2c-.92-1.63-3.28-.48-4.69-1a3.75,3.75,0,0,0-1.67-.48,7,7,0,0,0-1.63.31,3.43,3.43,0,0,0-1.87,1.34l.15-.14a.76.76,0,0,1,1.06.07l.06.08a.67.67,0,0,1,0,.31,1.45,1.45,0,0,1-.85,1.07,3.17,3.17,0,0,0-1.15.83c-.45.65-.19,1.52-.19,2.31a3.34,3.34,0,0,1-1.26,2.6l1.5-.62a11.37,11.37,0,0,0-1.39,4.07l2-1.68a8.88,8.88,0,0,0-1.33,4l1.63-1.67a.8.8,0,0,1,.1.43l-.17.65a2.75,2.75,0,0,1-.2.38c-.26.45-.53,1-.28,1.46h0a3.23,3.23,0,0,1-1.52,2.16,2.52,2.52,0,0,0,2.4-1.14,2.59,2.59,0,0,0,.25.39l.09.1-.24.16-.64.43s-4.2.85-3.94,2.44l0,.23-1.21,2.06-1.75,5.95a7,7,0,0,0-.74,2.71,13.11,13.11,0,0,1,0,2.55c0,1.44-.7,2,0,3.19s2.76,4.57,2.76,4.57l.45.34a2.15,2.15,0,0,0,0,.62c.42,2.12,4.41,22.48,4.41,22.48s-2,16.11,2.07,17.12c.52.12,1,.24,1.51.34l.62,4.07-.37,5.15s-2.82,6.38,2.34,6.75,2.81-5.52,2.81-5.52a2.72,2.72,0,0,0,.32-1.65c0-.47-.49-2.94-.93-5.3,2-.24,1.59-2.31,1.33-3.23a.53.53,0,0,0,.24-.29,9.24,9.24,0,0,0-.33-2.22c-.2-1.16-.55-3-.78-4.31l1.27.2L1175,590.4s0-.5,0-1.24a20.69,20.69,0,0,1,2.26-1c1.76-.69,2.45-3.24,3-4.3S1180.08,582.48,1179.71,581.52Zm-19.06-20a1.13,1.13,0,0,1,.59-.2c0,.24-.47.32-.83.45a1,1,0,0,1,.24-.25ZM1158,577.32c.43.71-.35,2.63-1,4.15-.4-.35-.83-.24-.33-1.23a5.06,5.06,0,0,0,.58-2,1.9,1.9,0,0,1,.59-1.38,2.06,2.06,0,0,0,.21.48Zm-1.61,6.11c.24-.1.61-.25,1.11-.42-.24.31-.51.68-.79,1.09a.81.81,0,0,1-.32-.67Zm17.24.69a9.63,9.63,0,0,1-.8-.92l1.22.34a1.44,1.44,0,0,0,.62,0c0,.37,0,.89,0,.89l-.58.4a4.54,4.54,0,0,0-.48-.67Zm1.65-1.84,0,0a3.3,3.3,0,0,0-.15-.62,23.31,23.31,0,0,1-.63-4.71l1,3.38s0,1.7-.22,1.93Z"/><path id="Pfad_519" data-name="Pfad 519" class="cls-8" d="M1154.6,568.31s-5.45-9.37-5.62-10.39-2.9-2.9-2.9-2.9a5.63,5.63,0,0,0-4.07-1.21c.61-.5-1.56-.84-1.72-1.18s-.69-.34-1.37-.85-2.38-.08-2.38-.08a6,6,0,0,1-.53-1.7,4.79,4.79,0,0,0,1.12-3.07v0l.13.21c.32-1.92.88-3.51-.19-5.25a5.85,5.85,0,0,0-3.35-2.56l-1,.82.4-1a4.29,4.29,0,0,0-1-.06l-.92,1.18.38-1.15a5.84,5.84,0,0,0-4,2.4,5.15,5.15,0,0,0,.06,5.73v0a4.75,4.75,0,0,0,2.44,3.86l.29,2.32h0a1.55,1.55,0,0,1-.95.41c-.51,0-1,1.37-1,1.37s-.29.14-.6.83a22.82,22.82,0,0,0-4.17,3.47,2,2,0,0,0-1,2.17c.17,2.39,0,13.47,0,13.47s-1.53,9.37-1,10-.17,2.9-.17,2.9l.51.11v.57s-1.54,7.13.85,6.81c3.92-.51,1-6.3,1-6.3v-.66l.68.15s.35-2.39,1-2.56c.23-.06.51-.69.78-1.5l.24,2,1.07-.23.29,1.09.23.1-.23,1.26a9.16,9.16,0,0,0,0,2.22c.09.43,3.25,9.61,6.37,18.61l-.06,2.18s-1.54,1.7-1.2,2.89-.85,11.08-.85,11.08l-1,4.94.26.08-.24.87a1.76,1.76,0,0,0-.53.41c-1.36,1.54-3.07,6-3.07,6s-3.07,4.6,1.7,4.43,5.12-1.88,5.12-1.88.68-4.43.68-4.6-.34-1.92-.34-1.92l-.14-.15.1-2.12.89.27s.85-4.43,1.53-4.94a23.59,23.59,0,0,0,1.6-4.72c.74,2.12,1.45,9.49,1.69,10.16a1.86,1.86,0,0,0-.22.35,41.79,41.79,0,0,1-2.56,4.26s-5.45,3.24,0,4.09c0,0,3.07.17,4.61-.85s5.62-2.56,5.62-2.9-1-5.35-2-4.8h0l-.68-1.58.68-.26-4.31-19.37a8.84,8.84,0,0,0,.22-1.25c0-.9,2.21-18.27,2.77-22.68,2.47.7,4.73-4.42,4.73-4.42l.56-1,.8.5s.69-1.7,1.71-1.87,2.89-9.21,2.89-10.4A5.44,5.44,0,0,0,1154.6,568.31Zm-7.94,13.35a4.61,4.61,0,0,0-.58-.74,21.19,21.19,0,0,0,1-3.58c.34-1.87-.51-8-.51-8l0-.41a11.52,11.52,0,0,1,1.89,3,1.26,1.26,0,0,0,.52,1l-1,3.58a22.58,22.58,0,0,0-.85,2.56,8.64,8.64,0,0,0-.17,1.53l.24.15Z"/><path id="Pfad_520" data-name="Pfad 520" class="cls-8" d="M1076.59,571.46l.91-.2-3.75-10.57-8.1-3-.09.1a4.36,4.36,0,0,1-1.1-2.4,4.78,4.78,0,0,0,2.64-6.21,4.69,4.69,0,0,0-.42-.8c.67-.16.91-.77,1.13-1.49l-.42-.09.31-.71-.55-.05.14-.66-.7.49a1.44,1.44,0,0,0-.24-1.37,2.85,2.85,0,0,0-1.19-.84,5.27,5.27,0,0,0-5.4,1l0-.2a6.82,6.82,0,0,0-2.61,4.54,7,7,0,0,0,1.73,5l0-.18.15.19.14,5.19-.34.3s-5.74,2.59-6,5.69h0c-.35,1.51-.52,9.35-.52,9.35h.48l-.48,3.07-3.07,11.92s-3.92,5.12-.51,6.14c2.12.63,2.72-1.82,2.88-3.77a1.19,1.19,0,0,0,1.21.87l.18,0c-1.61,4.16-.52,17.7-.52,17.7-.85,1.71,9.2,13.47,9.2,13.47l.61-.33.13.26-.57.06v5.29s-1.53,5.28.51,6.3a1.45,1.45,0,0,0,1.61-.36c-.1,1.63-.24,4.07-.24,4.62,0,.85,2.21,2.39,2.21,2.39s.51,1.87,4.6,1.87,1-4.94,1-4.94l-2.22-4.94s-.16.08-.67-.33l.18-2,1,.09,1.36-19.93s1.2-17.73,1.37-20.45a19.07,19.07,0,0,0-.06-2.62l5-10.34Zm-3.7,6.62-.51,1.78v-3.94Zm-21.27,12.63c0-.62,0-1.05,0-1.05l3.34-6.66-.1,2.06s-2.67,3.38-3.21,5.65Zm7.81,19.23,3.24-11.42,1.87,13.81-.13,5a8.7,8.7,0,0,1-.55-1.44c-.51-2-4.43-6-4.43-6Z"/><path id="Pfad_521" data-name="Pfad 521" class="cls-8" d="M1105.55,637.06c-1.6-.65-4.7-2.06-5.08-2.81s-2.25-6.58-2.25-6.58l-.48,0c-.07-2.65-.33-12.9-.74-14.13,0,0,2-16.24-2-22.73l-.71-2.87a16,16,0,0,0,0-4.26c-.19-.57,2.16-2.35,1.5-3.48s-2.44-5-2.44-5a6.14,6.14,0,0,0-2.35-4.69s-.74-4.2-4.08-4.26c-.45-.79-1.08-2-.89-2.6s1-2.46,1.39-3.5a4.7,4.7,0,0,0,.65-.37,8.27,8.27,0,0,0-.57-15,2.53,2.53,0,1,0-4.74-1.79,2.41,2.41,0,0,0-.16.88,2.53,2.53,0,0,1,1.35-3.32,2.64,2.64,0,0,1,1.47-.15,3.24,3.24,0,0,0-2.85,3.58,3,3,0,0,0,.24.93,8,8,0,0,0-4.76,7.49,8.05,8.05,0,0,0,4.17,7.22,4.8,4.8,0,0,1-1.7,3.86,4.38,4.38,0,0,0-2.43-.54c-.34-.27-.85-.36-1.55.34-1.41,1.41-2.63,5.08-2.63,7.33s.28,15.31.28,15.31-1.5.56-.47,1.41a1.22,1.22,0,0,0,.76.28l1,7.61s-.66,7.32,1.87,7.42a1,1,0,0,0,.57-.14l-1.88,8.49a28.32,28.32,0,0,0-7.7,8.36,45.25,45.25,0,0,0-3,5.65l-.61-.39-2.17,4.14s-4.79,2.91-3.75,5.07a6.43,6.43,0,0,0,2,2.72l.66-.28,1.22,2.25s3.19,4.61,8.36,2.26a1.89,1.89,0,0,0,0-2.26c-.85-1.22-3-3.85-3-3.85l1.41-7.13-.29-.18,8.93-10.81a14.45,14.45,0,0,0,3.57-3c.94-1.41,6.76-16,6.76-16l3.29,15.21a43.11,43.11,0,0,0,.66,9.11,39.07,39.07,0,0,1,.9,6.09l-.24,0,.56,4.22s-2.44,6-.75,6.48a25.06,25.06,0,0,0,3.66.66l.19-.66s7.23,4,9.86,1C1106.58,639.79,1107.14,637.72,1105.55,637.06ZM1079.81,591c.28.28.19,1.59.19,1.59l-.56,3.66-.57,2.54a25.28,25.28,0,0,0-.47-3.57l-.26-7,.17.07c.19,0,.09-1.6.09-1.6s.11-.28.25-.73c.36,1.09.81,1.81,1.35,2l.09,1.22s-1.22.56-.09.56a.63.63,0,0,0,.19,0l-.1.5s-.56.57-.28.85Z"/><path id="Pfad_522" data-name="Pfad 522" class="cls-9" d="M1121.47,631.79l.83,5.81,4.15-.41-.42-6Z"/><path id="Pfad_523" data-name="Pfad 523" class="cls-9" d="M1101.76,631.79l-.83,5.81-4.14-.41.41-6Z"/><path id="Pfad_524" data-name="Pfad 524" class="cls-10" d="M1095.75,571.64a15.31,15.31,0,0,0-2.91,11.2c.83,6.85,2.29,22.4,2.29,22.4l1,27.59,6.64-.41,1-23.44,3.32-18.88,8.92,22s4.35,20.53,4.56,20.53,6.22-.62,6.22-.62l-2.9-24.26s-4.57-35.27-7.26-35.89S1095.75,571.64,1095.75,571.64Z"/><path id="Pfad_525" data-name="Pfad 525" class="cls-10" d="M1126.86,636.36s-3.73-2.49-5.18.41a5.34,5.34,0,0,0-.21,5s1.24.83.62,1.66-.83,6.22,4.56,5.39,2.7-6.43,2.7-6.43Z"/><path id="Pfad_526" data-name="Pfad 526" class="cls-10" d="M1096.37,636.36s3.73-2.49,5.19.41a5.35,5.35,0,0,1,.2,5s-1.24.83-.62,1.66.83,6.22-4.56,5.39-2.7-6.43-2.7-6.43Z"/><path id="Pfad_527" data-name="Pfad 527" class="cls-9" d="M1100.83,531.3s1.87,5.19.41,8.09,2.28,6.22,2.28,6.22,9.75-5,8.51-7.46-3.32-5.81-2.91-7.89Z"/><circle id="Ellipse_139" data-name="Ellipse 139" class="cls-9" cx="1104.46" cy="526.64" r="6.64"/><path id="Pfad_528" data-name="Pfad 528" class="cls-8" d="M1099.69,539.08s6.66,5.54,11.63-2.31l5.17,2.93,2.7,31.53s-15.15,8.71-22.4,1.25l1-29.25Z"/><path id="Pfad_529" data-name="Pfad 529" class="cls-11" d="M1101.78,536l-9.35,6.21,3.32,15.35-4.36,23.85,7-10.57Z"/><path id="Pfad_530" data-name="Pfad 530" class="cls-11" d="M1110,534.25l2.3,1.51,9.34,3.32-1.46,25.72,4,16.59-5.6,2.9s-1-7.88-7.47-11.82S1108.58,535.43,1110,534.25Z"/><path id="Pfad_531" data-name="Pfad 531" class="cls-9" d="M1094.5,574.55l2.7,1.86s-3.42,3.63-4,3a1.67,1.67,0,0,1-.52-1.35l-.62-1.45Z"/><path id="Pfad_532" data-name="Pfad 532" class="cls-9" d="M1112.43,574.14l-.92,1.44s-2.69,1.25-2.07,2.08,5.81,2.7,6.84.83l1-1.87Z"/><path id="Pfad_533" data-name="Pfad 533" class="cls-11" d="M1093.67,542l-1.45.21-2.38,15.45s-.94,2.8.1,9.44,2.07,11,2.07,11l4.57-3.29-2.07-5.39,2.69-19.7Z"/><path id="Pfad_534" data-name="Pfad 534" class="cls-11" d="M1118.36,538.67l3.32.41s3.73,3.94,4.35,8.09.41,16,.41,16l-9.54,15.14-5.18-3.73,7.26-12.86-3.53-15.35Z"/><path id="Pfad_535" data-name="Pfad 535" class="cls-12" d="M1110.79,520.63a7.75,7.75,0,0,0-4.41-3.37l-1.35,1.08.52-1.26a7.37,7.37,0,0,0-1.33-.08l-1.21,1.56.5-1.5a7.65,7.65,0,0,0-5.3,3.15,6.83,6.83,0,0,0-.28,7.57c.41-1.29.92-2.49,1.34-3.77a3.57,3.57,0,0,0,1,0l.51-1.18.14,1.13c1.58-.14,3.91-.44,5.4-.71l-.15-.87.87.72c.46-.11.73-.2.71-.28,1.11,1.79,2.2,2.93,3.31,4.72C1111.46,525,1112.21,522.93,1110.79,520.63Z"/><ellipse id="Ellipse_140" data-name="Ellipse 140" class="cls-9" cx="1110.42" cy="526.43" rx="0.45" ry="0.9"/><path id="Pfad_542" data-name="Pfad 542" class="cls-10" d="M1223.78,527.62l0-.06s0,0,0,0Z"/></g><path class="cls-13" d="M1084.45,177.56l-.3-4a2.8,2.8,0,0,1,2.47-3,62.94,62.94,0,0,1,14.15-.22,3.15,3.15,0,0,1,2.7,3.12v4.12h-4.17l.14-2.11a3.14,3.14,0,0,0-2.85-3.34,29.23,29.23,0,0,0-6.78.15,2.79,2.79,0,0,0-2.32,3.44l.46,1.86Z"/><polygon class="cls-14" points="1117.27 256.92 1072.45 255.97 1069.26 187.44 1119.63 184.48 1117.27 256.92"/><path class="cls-15" d="M1119.67,183.13l-50.34,2.14,5.53-6.92a6,6,0,0,1,4.64-2.13l30.4-.47a4.05,4.05,0,0,1,2.77,1Z"/><path class="cls-16" d="M1072.45,256l44.82,1-8.13,6.13a3.6,3.6,0,0,1-2.15.73l-25.81.08a3.59,3.59,0,0,1-2.68-1.2Z"/><path class="cls-17" d="M1121.69,190.12l-54.46.07c-2,0-3.42-1.29-3-2.61l1.2-3.6a2.84,2.84,0,0,1,2.76-1.57l51.85-1a3.06,3.06,0,0,1,3.07,1.69"/><path class="cls-18" d="M1078.49,254.47h0a.75.75,0,0,1-.75-.71l-2.6-57.56a.75.75,0,0,1,.75-.79h0a.76.76,0,0,1,.75.72l2.6,57.56A.74.74,0,0,1,1078.49,254.47Z"/><path class="cls-19" d="M1085.41,254.49h0a.76.76,0,0,1-.74-.73l-1.77-57.59a.74.74,0,0,1,.76-.77h0a.73.73,0,0,1,.73.73l1.78,57.59A.75.75,0,0,1,1085.41,254.49Z"/><path class="cls-20" d="M1111.18,254.47h0a.75.75,0,0,0,.75-.71l2.6-57.56a.75.75,0,0,0-.75-.79h0a.76.76,0,0,0-.75.72l-2.6,57.56A.74.74,0,0,0,1111.18,254.47Z"/><path class="cls-21" d="M1104.26,254.49h0a.75.75,0,0,0,.74-.73l1.78-57.59a.74.74,0,0,0-.76-.77h0a.74.74,0,0,0-.74.73l-1.78,57.59A.76.76,0,0,0,1104.26,254.49Z"/><rect class="cls-22" x="1093.79" y="196.25" width="1" height="58.23" rx="0.46"/><path class="cls-23" d="M1105,196.83l0,0Z"/><path class="cls-23" d="M1105,196.83l0,.07Z"/><path class="cls-24" d="M1120,220.25l6.1,2-.72,2.4a24.8,24.8,0,0,1,3.81-.38l-1-5-2.77-.67,1.28-3.27c-1.71.17-4.46-1.23-6.17-2.07a15,15,0,0,0,4.07,3.86A30.17,30.17,0,0,0,1120,220.25Z"/><path class="cls-25" d="M1167.4,250.33c-2-4.09-5.66-11.27-8.11-13.45s-5.47-2.35-10.93-2.77-6.55-1-6.55-1c-6.47-7.64-11.44-7.35-19.93-7.49a14.42,14.42,0,0,1,3.54-1.06l.72-2.4-6.1-2a30.17,30.17,0,0,1,4.65-3.22,15,15,0,0,1-4.07-3.86.8.8,0,0,1-.16-.08,45.4,45.4,0,0,0-6.28,10.31,10.08,10.08,0,0,0,0,6.21,45.76,45.76,0,0,0-1,16.42c-.78,3.53-2.11,11.79,2.79,15.35a24.62,24.62,0,0,0,12.67,4.63c12.39,8.42,13.19,8.42,19.42,6.89a42.25,42.25,0,0,0,15.25-7.25C1168.05,259.62,1169.41,254.43,1167.4,250.33Z"/><path class="cls-24" d="M1119.26,220.7l-.71.72c-.21.21-.45.46-.7.74l-.37.43c-.13.15-.25.31-.37.46a10.87,10.87,0,0,0-.66.95c-.08.16-.18.31-.25.46l-.2.43c0,.14-.09.27-.13.38a1.58,1.58,0,0,0-.08.31c0,.17-.07.27-.07.27s0-.1,0-.28a1.8,1.8,0,0,1,0-.33q0-.18.06-.42a4.8,4.8,0,0,1,.35-1c.09-.18.19-.35.3-.53s.22-.34.35-.51a7.79,7.79,0,0,1,.82-.89,8.43,8.43,0,0,1,.81-.66A5.83,5.83,0,0,1,1119.26,220.7Z"/><path class="cls-24" d="M1121.39,223.06l-.81.44-.82.44c-.29.16-.61.33-.9.53a8.1,8.1,0,0,0-.86.59c-.13.1-.24.21-.36.31s-.2.21-.3.3a2.6,2.6,0,0,0-.23.28,1.32,1.32,0,0,0-.15.24l-.12.22s0-.09,0-.25a1,1,0,0,1,.09-.29,1.76,1.76,0,0,1,.16-.35,3,3,0,0,1,.27-.38,3,3,0,0,1,.35-.37,3.44,3.44,0,0,1,.41-.35,3.55,3.55,0,0,1,.47-.32,7.22,7.22,0,0,1,1.86-.83A5,5,0,0,1,1121.39,223.06Z"/><path class="cls-24" d="M1121.88,225.67a4.68,4.68,0,0,1-.56.2,10.07,10.07,0,0,1-1.25.26,8.68,8.68,0,0,1-1.29.07,3.19,3.19,0,0,1-.59,0,4.68,4.68,0,0,1,.56-.2,8.68,8.68,0,0,1,1.26-.26,8.55,8.55,0,0,1,1.28-.07A3.19,3.19,0,0,1,1121.88,225.67Z"/><path class="cls-24" d="M1119.08,228.09s.1.74.26,1.86c.06.56.18,1.21.27,1.9,0,.35.1.71.16,1.07s.11.74.16,1.11.13.73.19,1.09.12.72.18,1.07c.16.68.27,1.33.39,1.88s.26,1,.35,1.31.12.5.12.5l-.2-.47c-.12-.31-.31-.74-.51-1.28s-.34-1.17-.52-1.86c-.08-.35-.15-.7-.22-1.07s-.15-.73-.21-1.11c-.09-.75-.22-1.49-.27-2.19s-.11-1.36-.13-1.93,0-1,0-1.36S1119.08,228.09,1119.08,228.09Z"/><path class="cls-24" d="M1121.36,229.06a7.63,7.63,0,0,1,.75.53,12.33,12.33,0,0,1,1.47,1.35,6.76,6.76,0,0,1,.67.85c0,.08.09.16.13.24a.47.47,0,0,1,0,.37.14.14,0,0,1,0,.08l0,0,0,0a.37.37,0,0,1-.2.07.62.62,0,0,1-.27-.08,1.86,1.86,0,0,1-.49-.49c-.09-.13-.14-.22-.14-.22l.2.16a2.19,2.19,0,0,0,.54.32s.11,0,.13,0h0l0,0v0l0,0s0,0-.06-.09l-.13-.18c-.2-.25-.43-.52-.68-.78-.48-.52-1-1-1.32-1.46S1121.36,229.06,1121.36,229.06Z"/><path class="cls-24" d="M1118.5,251.2l.31.05c.2,0,.48.06.81.12s.73.11,1.15.2c.2,0,.42.06.63.09l.66.1.68.11c.23,0,.44.1.65.15a10.75,10.75,0,0,0,1.11.26l.44,0a1.69,1.69,0,0,0,.35,0l.22-.06.07,0a1.53,1.53,0,0,1-.27.17,1.3,1.3,0,0,1-.35.12,2.25,2.25,0,0,1-.48.06,7.34,7.34,0,0,1-1.17-.13l-.64-.11c-.21,0-.43-.06-.66-.09-.45-.09-.91-.14-1.32-.26s-.8-.21-1.13-.33l-.77-.28Z"/><path class="cls-24" d="M1113.13,246s.12.22.27.55c.07.17.15.37.24.57s.16.44.24.66.17.44.23.66.16.39.21.57a2.35,2.35,0,0,0,.1.22l.07.18.07.16-.13-.11-.15-.13a1.12,1.12,0,0,1-.17-.2,1.21,1.21,0,0,1-.17-.25,2,2,0,0,1-.18-.29,5.71,5.71,0,0,1-.29-.66c0-.12-.08-.23-.11-.35s-.06-.23-.09-.34a4.07,4.07,0,0,1-.11-.62A3.21,3.21,0,0,1,1113.13,246Z"/><path class="cls-24" d="M1141.81,233.12l.26.22.66.61c.27.26.58.55.91.88l1,1c.34.35.7.69,1,1l.89.89c.13.14.25.25.36.35l.28.28.24.24-.29-.18a3.49,3.49,0,0,1-.33-.21,3.19,3.19,0,0,1-.42-.29l-.48-.37c-.16-.14-.34-.27-.51-.43-.35-.32-.71-.65-1.06-1s-.69-.71-1-1.07-.59-.68-.82-1-.41-.55-.54-.72Z"/><path class="cls-24" d="M1148.71,245.4l.31,1c.18.63.46,1.52.75,2.61s.63,2.35.93,3.72c.15.69.29,1.4.43,2.13s.25,1.47.33,2.22l0,.58v.58c0,.22,0,.37-.07.57s-.1.37-.15.56a12.29,12.29,0,0,1-.87,2c-.32.63-.69,1.21-1,1.75s-.69,1.05-1,1.51c-.65.93-1.23,1.66-1.64,2.18s-.65.79-.65.79l.59-.84c.37-.54.88-1.32,1.49-2.26.3-.47.62-1,.95-1.54s.65-1.15,1-1.77a12,12,0,0,0,.81-1.95,4.23,4.23,0,0,0,.13-.51,3.81,3.81,0,0,0,.07-.54v-.54l0-.55c-.06-.73-.17-1.47-.29-2.19s-.26-1.43-.4-2.12c-.28-1.37-.55-2.65-.8-3.75Z"/><path class="cls-24" d="M1163.13,252.39l-.06.21a4.06,4.06,0,0,1-.19.55,6.21,6.21,0,0,1-.37.72,4.4,4.4,0,0,1-.26.39,3.2,3.2,0,0,1-.29.38l-.32.35a2,2,0,0,1-.34.31c-.12.1-.24.18-.34.27a2,2,0,0,1-.33.21c-.43.22-.72.33-.72.33a6.3,6.3,0,0,1,.57-.53c.18-.15.35-.37.55-.56l.16-.15a1.15,1.15,0,0,1,.14-.17l.3-.34c.11-.11.19-.24.29-.36l.27-.34c.16-.24.34-.45.47-.64Z"/><path class="cls-24" d="M1128.7,266s.35,0,.86,0l.87,0,1,.05a4.18,4.18,0,0,0,.5,0l.48,0h.86l.35,0,.27,0h.24l-.22.09-.26.09a2.42,2.42,0,0,1-.35.11l-.41.07c-.15,0-.3,0-.47.06-.32,0-.67,0-1,0s-.69-.05-1-.1-.61-.11-.86-.17A7.06,7.06,0,0,1,1128.7,266Z"/><path class="cls-23" d="M1128,269.22l.43.52c.12.16.27.34.41.54s.29.41.45.62l.23.31c.08.11.14.21.22.31s.27.39.39.54a5.05,5.05,0,0,1,.37.56,5.6,5.6,0,0,1-.56-.38c-.16-.13-.32-.3-.5-.48a7.75,7.75,0,0,1-.5-.61,6.39,6.39,0,0,1-.73-1.28A3.27,3.27,0,0,1,1128,269.22Z"/><path class="cls-23" d="M1127.53,271.93l.07.09.19.19.13.12a.55.55,0,0,0,.14.12,2.09,2.09,0,0,0,.32.25,1,1,0,0,0,.16.12l.17.12c.06,0,.11.08.16.11l.15.1a2.78,2.78,0,0,1,.31.24,1.78,1.78,0,0,1-.4,0,1.3,1.3,0,0,1-.4-.1,1.39,1.39,0,0,1-.41-.23l-.19-.15c-.06-.06-.11-.13-.16-.19a1.11,1.11,0,0,1-.25-.66A.55.55,0,0,1,1127.53,271.93Z"/><path class="cls-23" d="M1170.3,248.61a1.8,1.8,0,0,1,.32.21,4.09,4.09,0,0,1,.33.3,3.54,3.54,0,0,1,.36.45c.06.09.11.19.18.29s.1.21.15.32a4.07,4.07,0,0,1,.25.72,5.27,5.27,0,0,1,.14.81l0,.42,0,.43a4.58,4.58,0,0,1-.09.83,5.16,5.16,0,0,1-.17.8,5.06,5.06,0,0,1-.23.72l-.25.62a5,5,0,0,1-.24.51l-.21.39c-.11.21-.19.33-.19.33l.11-.36.13-.42c0-.16.12-.33.17-.53s.11-.41.17-.64.1-.47.16-.71.06-.25.08-.38,0-.26,0-.39a5.29,5.29,0,0,0,.08-.79l0-.4c0-.13,0-.26,0-.39s-.06-.52-.09-.77a6.75,6.75,0,0,0-.18-.68,4.16,4.16,0,0,0-.25-.6,5.15,5.15,0,0,0-.27-.48,3.72,3.72,0,0,0-.26-.34A2.18,2.18,0,0,0,1170.3,248.61Z"/><path class="cls-23" d="M1173.28,250.88a3.7,3.7,0,0,1,.25.81c0,.12,0,.26.06.4a3.44,3.44,0,0,1,0,.46c0,.16,0,.32,0,.49a4,4,0,0,1,0,.5c0,.17,0,.34-.07.51s-.08.32-.11.47-.09.3-.13.44a1.88,1.88,0,0,1-.15.38,7.42,7.42,0,0,1-.38.75,6.71,6.71,0,0,1,.14-.82,3.91,3.91,0,0,0,.07-.39c0-.14,0-.29.07-.44a7.1,7.1,0,0,0,.12-.94c.06-.32.06-.65.09-.95s0-.3,0-.44,0-.28,0-.4C1173.29,251.22,1173.28,250.88,1173.28,250.88Z"/><g class="cls-26"><path class="cls-8" d="M1149.14,240.43s-4.26-4.46-1.57-5.32c.76-.25,1.58-.56,2.37-.88l-1.58-.12a30.89,30.89,0,0,1-6.35-.88,33.43,33.43,0,0,0,2.27,2.57C1147.44,239,1149.14,240.43,1149.14,240.43Z"/><path class="cls-27" d="M1167.4,250.33c-1.13-2.28-2.75-5.52-4.4-8.31,2.91,6.29,2.15,8.75-1.39,15.12-3.67,6.6-12,8.46-11.31,6.05s2.25-6.19.91-8.35c1.49,6.76-9.17,17.38-12.91,15.66s-5.2-3.43-1.29-4.59c-8.14.61-21.85-7.2-21.14-10.25s7.17-3.48,7.17-3.48c-7.8-1.74-9.71-7.31-10.17-10.1,0,1.25.11,2.57.26,3.95-.78,3.53-2.11,11.79,2.79,15.35a24.62,24.62,0,0,0,12.67,4.63c12.39,8.42,13.19,8.42,19.42,6.89a42.25,42.25,0,0,0,15.25-7.25C1168.05,259.62,1169.41,254.43,1167.4,250.33Z"/></g><g class="cls-26"><path class="cls-28" d="M1114.92,231.41c1.83-.7,2.53-1.15,3-1.91s1,.37,1.48,2c.22-3.35,1.73-2.68,3.28-1.26-1.8-2.52-2.18-4.09-.26-4.53h-.53a11,11,0,0,1,1.42-.54,10.36,10.36,0,0,0-2.37.34c-2.38.63-3.54.13-2.31-1.31-2.52,1.4-2.18.2-.4-2.63-1.21.55-2.84,3.42-2.82,2.2a10.19,10.19,0,0,1,.86-4.49c-1.31,2.34-2.08,4.16-2.08,4.16a10.08,10.08,0,0,0,0,6.21,30.07,30.07,0,0,0-.79,3.78A3,3,0,0,1,1114.92,231.41Z"/></g><path class="cls-29" d="M1130.41,227.86s5.09.23,6.73,4S1126.32,227.3,1130.41,227.86Z"/><path class="cls-29" d="M1140.5,234.21c-.07.25-.58.32-1.14.16s-1-.49-.89-.74.58-.31,1.14-.15S1140.57,234,1140.5,234.21Z"/><path class="cls-11" d="M1000.38,369.52V358.64a5.54,5.54,0,1,1,11.08-.1v11.08a5.54,5.54,0,1,1-11.08-.1Z"/><path class="cls-11" d="M1020.89,364h-3.66v5.28c0,5.12-4.1,10.19-9.15,11a11.08,11.08,0,0,1-13-10.83V364H973.35v5.28c0,5.12-4.1,10.19-9.15,11a11.08,11.08,0,0,1-13-10.83V364h-4.1A10.07,10.07,0,0,0,937,374v12.09h94V374A10.08,10.08,0,0,0,1020.89,364Z"/><path class="cls-11" d="M956.5,369.52V358.64a5.54,5.54,0,1,1,11.08-.1v11.08a5.54,5.54,0,1,1-11.08-.1Z"/><path class="cls-25" d="M937,391.88v44.88a10.08,10.08,0,0,0,10.08,10.08h73.81A10.08,10.08,0,0,0,1031,436.76V391.88Z"/><text class="cls-30" transform="translate(944.84 422.64)">0<tspan class="cls-31" x="12.5" y="0">9</tspan><tspan x="23.56" y="0">/</tspan><tspan class="cls-32" x="29.64" y="0">2</tspan><tspan class="cls-33" x="40.26" y="0">0</tspan><tspan class="cls-32" x="52.74" y="0">2</tspan><tspan x="63.37" y="0">0</tspan></text><text class="cls-34" transform="translate(1222.47 215.48)">Ab<tspan class="cls-35" x="19.32" y="0">f</tspan><tspan x="23.77" y="0">all p</tspan><tspan class="cls-36" x="52.29" y="0">r</tspan><tspan x="57.61" y="0">o Jahr p</tspan><tspan class="cls-37" x="112.91" y="0">r</tspan><tspan x="118.23" y="0">o </tspan><tspan class="cls-38" x="130.51" y="0">P</tspan><tspan x="140.33" y="0">e</tspan><tspan class="cls-39" x="148.69" y="0">r</tspan><tspan x="154.15" y="0">son </tspan><tspan class="cls-40"><tspan class="cls-41" x="0" y="16.8">5</tspan><tspan class="cls-35" x="7.97" y="16.8">3</tspan><tspan x="15.83" y="16.8">5 </tspan><tspan class="cls-42" x="27.64" y="16.8">k</tspan><tspan x="35.95" y="16.8">g</tspan></tspan></text><text class="cls-34" transform="translate(1223.86 399.07)"><tspan class="cls-43">V</tspan><tspan x="8.85" y="0">e</tspan><tspan class="cls-36" x="17.21" y="0">r</tspan><tspan x="22.53" y="0">öf</tspan><tspan class="cls-44" x="35.8" y="0">f</tspan><tspan x="40.26" y="0">entli</tspan><tspan class="cls-44" x="70.92" y="0">c</tspan><tspan x="78.57" y="0">hu</tspan><tspan class="cls-45" x="97.35" y="0">n</tspan><tspan x="106.79" y="0">g</tspan><tspan class="cls-40"><tspan x="0" y="16.8">Sep</tspan><tspan class="cls-46" x="26.81" y="16.8">t</tspan><tspan x="32.35" y="16.8">ember </tspan><tspan class="cls-47" x="83.34" y="16.8">202</tspan><tspan x="108.63" y="16.8">0</tspan></tspan></text><text class="cls-34" transform="translate(1222.51 584.06)">Be<tspan class="cls-48" x="18.89" y="0">f</tspan><tspan class="cls-44" x="24.6" y="0">r</tspan><tspan class="cls-49" x="29.99" y="0">a</tspan><tspan x="38.16" y="0">g</tspan><tspan class="cls-50" x="47.71" y="0">t</tspan><tspan x="53.02" y="0">e</tspan><tspan class="cls-40"><tspan x="0" y="16.8">1</tspan><tspan class="cls-51" x="5.18" y="16.8">.</tspan><tspan class="cls-47" x="8.19" y="16.8">0</tspan><tspan x="17.49" y="16.8">23 </tspan><tspan class="cls-51" x="37.29" y="16.8">P</tspan><tspan x="47.23" y="16.8">e</tspan><tspan class="cls-47" x="55.8" y="16.8">r</tspan><tspan x="61.5" y="16.8">so</tspan><tspan class="cls-52" x="77.4" y="16.8">n</tspan><tspan x="86.98" y="16.8">en</tspan></tspan></text></g></g></svg>