<svg xmlns="http://www.w3.org/2000/svg" xmlns:xlink="http://www.w3.org/1999/xlink" viewBox="0 0 1440 790"><defs><style>.cls-1{isolation:isolate;}.cls-2{fill:url(#Unbenannter_Verlauf_46);}.cls-3{fill:url(#Unbenannter_Verlauf_46-2);}.cls-4{fill:url(#Unbenannter_Verlauf_46-3);}.cls-5{fill:#e6e6e6;}.cls-6{fill:#e9b0a9;}.cls-7{fill:#2f2e41;}.cls-8{fill:#ffc100;}.cls-9{fill:#582305;}.cls-10{fill:url(#Unbenannter_Verlauf_203);}.cls-11{fill:url(#Unbenannter_Verlauf_62);}.cls-12{fill:url(#Unbenannter_Verlauf_209);}.cls-13{fill:url(#Unbenannter_Verlauf_209-2);}.cls-14{fill:url(#Unbenannter_Verlauf_40);}.cls-15{fill:url(#Unbenannter_Verlauf_173);}.cls-16{fill:url(#Unbenannter_Verlauf_173-2);}.cls-17{fill:url(#Unbenannter_Verlauf_173-3);}.cls-18{fill:url(#Unbenannter_Verlauf_167);}.cls-19{fill:url(#Unbenannter_Verlauf_182);}.cls-20{fill:#fff;}.cls-21{fill:#999;}.cls-22,.cls-31{fill:#f2f2f2;}.cls-23{opacity:0.5;}.cls-24{fill:#ccc;}.cls-25,.cls-26{fill:#333427;}.cls-26{mix-blend-mode:screen;}.cls-27{font-size:19px;}.cls-27,.cls-31{font-family:Montserrat-Light, Montserrat;font-weight:300;}.cls-28{letter-spacing:-0.02em;}.cls-29{letter-spacing:0em;}.cls-30{letter-spacing:0em;}.cls-31{font-size:14px;}.cls-32{letter-spacing:-0.01em;}.cls-33{letter-spacing:-0.01em;}.cls-34{letter-spacing:-0.01em;}.cls-35{letter-spacing:-0.01em;}.cls-36{letter-spacing:0em;}.cls-37{font-family:Montserrat-Medium, Montserrat;font-weight:500;}.cls-38{letter-spacing:-0.01em;}.cls-39{letter-spacing:-0.02em;}.cls-40{letter-spacing:-0.05em;}.cls-41{letter-spacing:-0.01em;}.cls-42{letter-spacing:0em;}.cls-43{letter-spacing:-0.02em;}.cls-44{letter-spacing:0em;}.cls-45{letter-spacing:0.08em;}.cls-46{letter-spacing:0em;}.cls-47{letter-spacing:-0.02em;}.cls-48{letter-spacing:-0.01em;}.cls-49{letter-spacing:0em;}.cls-50,.cls-51,.cls-53,.cls-54{stroke-miterlimit:10;}.cls-50,.cls-53{opacity:0.05;}.cls-50{stroke:url(#Unbenannter_Verlauf_243);}.cls-51,.cls-54{opacity:0.04;}.cls-51{stroke:url(#Unbenannter_Verlauf_243-2);}.cls-52{fill:url(#Unbenannter_Verlauf_46-4);}.cls-53{stroke:url(#Unbenannter_Verlauf_243-3);}.cls-54{stroke:url(#Unbenannter_Verlauf_243-4);}</style><linearGradient id="Unbenannter_Verlauf_46" x1="1439.99" y1="311.14" x2="944.92" y2="311.14" gradientUnits="userSpaceOnUse"><stop offset="0.3" stop-color="#0e559c"/><stop offset="0.48" stop-color="#0d4f93"/><stop offset="0.77" stop-color="#094079"/><stop offset="0.94" stop-color="#063567"/></linearGradient><linearGradient id="Unbenannter_Verlauf_46-2" x1="1438.99" y1="494.17" x2="818.49" y2="494.17" xlink:href="#Unbenannter_Verlauf_46"/><linearGradient id="Unbenannter_Verlauf_46-3" x1="1439.77" y1="677.19" x2="944.71" y2="677.19" xlink:href="#Unbenannter_Verlauf_46"/><linearGradient id="Unbenannter_Verlauf_203" x1="1017.39" y1="258.82" x2="1017.26" y2="266.11" gradientUnits="userSpaceOnUse"><stop offset="0" stop-color="#ffc100"/><stop offset="1" stop-color="#ffc100"/></linearGradient><linearGradient id="Unbenannter_Verlauf_62" x1="968.53" y1="325.12" x2="998.12" y2="271.94" gradientTransform="translate(41.07 -15.04) rotate(1.87)" gradientUnits="userSpaceOnUse"><stop offset="0" stop-color="#ffc100"/><stop offset="0.68" stop-color="#ff9000"/><stop offset="1" stop-color="#ffcb00"/></linearGradient><linearGradient id="Unbenannter_Verlauf_209" x1="987.77" y1="238.09" x2="985.92" y2="254.74" gradientTransform="translate(41.07 -15.04) rotate(1.87)" xlink:href="#Unbenannter_Verlauf_203"/><linearGradient id="Unbenannter_Verlauf_209-2" x1="1068.34" y1="389.52" x2="1076.32" y2="336.31" gradientTransform="translate(-43.12 -44.09) rotate(1.87)" xlink:href="#Unbenannter_Verlauf_203"/><linearGradient id="Unbenannter_Verlauf_40" x1="987.66" y1="274.73" x2="1046.61" y2="274.73" gradientUnits="userSpaceOnUse"><stop offset="0" stop-color="#ffc100" stop-opacity="0.87"/><stop offset="1" stop-color="#ff8b00"/></linearGradient><linearGradient id="Unbenannter_Verlauf_173" x1="1007.1" y1="256.09" x2="1000.02" y2="319.77" gradientUnits="userSpaceOnUse"><stop offset="0" stop-color="#ffc100"/><stop offset="1" stop-color="#fff"/></linearGradient><linearGradient id="Unbenannter_Verlauf_173-2" x1="1000.17" y1="248.37" x2="993.1" y2="312.05" gradientTransform="matrix(1, 0.01, -0.01, 1, 18.75, -6.46)" xlink:href="#Unbenannter_Verlauf_173"/><linearGradient id="Unbenannter_Verlauf_173-3" x1="-183.02" y1="256.09" x2="-190.1" y2="319.77" gradientTransform="matrix(-1, 0, 0, 1, 846.53, 0)" xlink:href="#Unbenannter_Verlauf_173"/><linearGradient id="Unbenannter_Verlauf_167" x1="-189.83" y1="265.39" x2="-196.9" y2="329.07" gradientTransform="matrix(-1, 0.01, 0.01, 1, 827.78, -6.46)" xlink:href="#Unbenannter_Verlauf_173"/><linearGradient id="Unbenannter_Verlauf_182" x1="1024.14" y1="257.04" x2="1017.13" y2="320.13" xlink:href="#Unbenannter_Verlauf_173"/><linearGradient id="Unbenannter_Verlauf_243" x1="656.92" y1="267.4" x2="716.61" y2="222.34" gradientTransform="matrix(0.96, -0.29, -0.29, -0.96, 56.59, 488)" gradientUnits="userSpaceOnUse"><stop offset="0"/><stop offset="0.98"/></linearGradient><linearGradient id="Unbenannter_Verlauf_243-2" x1="400.64" y1="287.99" x2="643.35" y2="287.99" gradientTransform="matrix(1, 0, 0, -1, 0, 313.85)" xlink:href="#Unbenannter_Verlauf_243"/><linearGradient id="Unbenannter_Verlauf_46-4" x1="1443" y1="56.5" x2="647" y2="56.5" xlink:href="#Unbenannter_Verlauf_46"/><linearGradient id="Unbenannter_Verlauf_243-3" x1="218.18" y1="740.25" x2="277.86" y2="695.18" gradientTransform="translate(-55.05 22.85) rotate(-2.06)" xlink:href="#Unbenannter_Verlauf_243"/><linearGradient id="Unbenannter_Verlauf_243-4" x1="-0.45" y1="765.47" x2="242.26" y2="765.47" gradientTransform="matrix(1, 0, 0, 1, 0, 0)" xlink:href="#Unbenannter_Verlauf_243"/></defs><g class="cls-1"><g id="Ebene_1" data-name="Ebene 1"><path class="cls-2" d="M1440,265.77h-323c-23.87-38.64-70.81-55.36-111.37-40.91-35.69,12.71-60.66,47.5-60.65,86.21,0,41.18,28.28,79.35,70.15,89.14,40.49,9.47,82.76-10.16,101.87-47.49h323Z"/><path class="cls-3" d="M1439,450.42,990.5,448.8c-23.87-38.65-70.81-55.37-111.37-40.92-35.69,12.71-60.65,47.5-60.64,86.22,0,41.17,28.27,79.34,70.14,89.13,40.49,9.47,82.76-10.16,101.87-47.49l448.49.68Z"/><path class="cls-4" d="M1439.77,631.82h-323c-23.87-38.64-70.81-55.36-111.37-40.92-35.69,12.72-60.65,47.5-60.64,86.22,0,41.18,28.27,79.35,70.14,89.14,40.49,9.47,82.76-10.17,101.87-47.49h323Z"/><g id="Gruppe_27" data-name="Gruppe 27"><path id="Pfad_518" data-name="Pfad 518" class="cls-5" d="M1103.2,670.44c-.38-1,.15-1.43.37-2.28a12.62,12.62,0,0,0-.48-3.51s-2.23-9.19-2.92-11a3.3,3.3,0,0,0-1.57-1.64c0-.24-.1-.39-.19-.43a14.9,14.9,0,0,0-3.17-1.17,5.39,5.39,0,0,0-.68-.91,2.07,2.07,0,0,0,.24-1.12c-.06-1-.82-1.9-.72-2.9.07-.76.63-1.38.84-2.11a2.49,2.49,0,0,0-.28-2l.47.5a1.76,1.76,0,0,0-.13-2.13c-.5-.55-1.33-.76-1.72-1.39s-.18-1.53-.56-2.2c-.92-1.62-3.27-.47-4.68-1a3.87,3.87,0,0,0-1.67-.47,6.51,6.51,0,0,0-1.63.3,3.48,3.48,0,0,0-1.87,1.34,1,1,0,0,1,.15-.14.75.75,0,0,1,1.06.08l.06.07a.7.7,0,0,1,.05.32,1.48,1.48,0,0,1-.86,1.07,3.26,3.26,0,0,0-1.15.83c-.44.65-.18,1.52-.18,2.31a3.33,3.33,0,0,1-1.27,2.59l1.5-.61a11.44,11.44,0,0,0-1.38,4.06l2-1.67a9,9,0,0,0-1.34,3.95l1.63-1.67a.81.81,0,0,1,.11.43l-.17.66c-.06.13-.13.25-.2.38a1.59,1.59,0,0,0-.29,1.46h0a3.21,3.21,0,0,1-1.51,2.16,2.53,2.53,0,0,0,2.4-1.15,2,2,0,0,0,.25.39l.08.1-.24.16-.64.43s-4.2.85-3.93,2.45l0,.23-1.21,2-1.75,6a7,7,0,0,0-.75,2.72,13.08,13.08,0,0,1,0,2.55c0,1.43-.69,2,0,3.18s2.77,4.58,2.77,4.58l.45.34a2.49,2.49,0,0,0,0,.61c.43,2.13,4.42,22.49,4.42,22.49s-2,16.1,2.07,17.11c.51.13,1,.24,1.51.34l.62,4.07-.37,5.16s-2.82,6.37,2.33,6.75,2.82-5.53,2.82-5.53a2.85,2.85,0,0,0,.32-1.65c0-.47-.5-2.93-.93-5.3,2-.23,1.59-2.31,1.33-3.22a.55.55,0,0,0,.24-.3,9.16,9.16,0,0,0-.33-2.21c-.2-1.16-.55-3-.79-4.32l1.28.21,5.36-31.47s0-.5,0-1.23a20.84,20.84,0,0,1,2.27-1c1.75-.69,2.44-3.24,3-4.31S1103.57,671.4,1103.2,670.44Zm-19.06-20a1.1,1.1,0,0,1,.59-.2c0,.25-.48.32-.83.45a1,1,0,0,1,.24-.25Zm-2.68,15.84c.43.71-.35,2.62-1.06,4.14-.4-.34-.82-.23-.33-1.22a4.92,4.92,0,0,0,.59-2,2,2,0,0,1,.58-1.39,3.06,3.06,0,0,0,.22.49Zm-1.62,6.1c.25-.1.62-.25,1.11-.42-.23.32-.51.69-.78,1.1a.85.85,0,0,1-.33-.68Zm17.24.7c-.32-.34-.58-.65-.8-.93.41.11.81.22,1.23.35a1.44,1.44,0,0,0,.62-.05c0,.37,0,.9,0,.9l-.59.4a3.16,3.16,0,0,0-.48-.67Zm1.65-1.84h0a2.77,2.77,0,0,0-.14-.62,23.31,23.31,0,0,1-.63-4.71l1,3.39s.06,1.7-.21,1.93Z"/><path id="Pfad_519" data-name="Pfad 519" class="cls-5" d="M1078.09,657.24s-5.46-9.38-5.63-10.4-2.89-2.9-2.89-2.9a5.69,5.69,0,0,0-4.07-1.21c.6-.5-1.56-.84-1.73-1.17s-.68-.34-1.36-.85-2.38-.09-2.38-.09a6.36,6.36,0,0,1-.54-1.7,4.73,4.73,0,0,0,1.13-3.07v0l.13.2c.32-1.91.88-3.5-.19-5.25a5.94,5.94,0,0,0-3.35-2.55l-1,.82.4-1a5.82,5.82,0,0,0-1-.06l-.92,1.18.38-1.14a5.81,5.81,0,0,0-4,2.39,5.15,5.15,0,0,0,.06,5.74.08.08,0,0,1,0,0,4.78,4.78,0,0,0,2.43,3.87l.29,2.31h0a1.59,1.59,0,0,1-1,.42c-.51,0-1,1.36-1,1.36a1.74,1.74,0,0,0-.6.84,22.82,22.82,0,0,0-4.17,3.47,2,2,0,0,0-1,2.17c.17,2.38,0,13.46,0,13.46s-1.54,9.37-1,10.05-.18,2.9-.18,2.9l.52.11v.57s-1.54,7.13.85,6.82c3.92-.51,1-6.31,1-6.31v-.66l.68.15s.34-2.38,1-2.55c.24-.06.52-.7.78-1.5l.25,2,1.06-.24.3,1.09.23.11-.23,1.26a9.08,9.08,0,0,0,0,2.21c.08.43,3.25,9.61,6.36,18.61l-.06,2.18s-1.53,1.7-1.19,2.9-.85,11.07-.85,11.07l-1,4.95.25.07-.23.87a1.57,1.57,0,0,0-.53.42c-1.37,1.53-3.07,6-3.07,6s-3.07,4.6,1.7,4.43,5.11-1.87,5.11-1.87.68-4.43.68-4.61-.34-1.92-.34-1.92L1058,723l.09-2.13.9.28s.85-4.43,1.53-4.95a23.63,23.63,0,0,0,1.59-4.72c.74,2.13,1.46,9.49,1.69,10.16a2.12,2.12,0,0,0-.21.36,41.79,41.79,0,0,1-2.56,4.26s-5.45,3.23,0,4.09c0,0,3.07.17,4.6-.86s5.63-2.55,5.63-2.89-1-5.35-2-4.81h0l-.68-1.57.68-.27-4.31-19.36a11.08,11.08,0,0,0,.22-1.26c0-.89,2.21-18.27,2.77-22.67,2.47.7,4.73-4.42,4.73-4.42l.56-1,.8.5s.68-1.71,1.7-1.88,2.9-9.2,2.9-10.39A5.57,5.57,0,0,0,1078.09,657.24Zm-7.94,13.35a4.74,4.74,0,0,0-.58-.74,22.46,22.46,0,0,0,1-3.58c.34-1.88-.51-8-.51-8l0-.42a11.69,11.69,0,0,1,1.89,3,1.3,1.3,0,0,0,.51,1l-1,3.57a21.32,21.32,0,0,0-.85,2.56,8.85,8.85,0,0,0-.17,1.54l.24.15Z"/><path id="Pfad_520" data-name="Pfad 520" class="cls-5" d="M1000.07,660.39l.91-.21-3.75-10.56-8.09-3-.09.09a4.23,4.23,0,0,1-1.1-2.4,4.77,4.77,0,0,0,2.63-6.21,4.55,4.55,0,0,0-.41-.79c.67-.16.9-.77,1.13-1.49a3.15,3.15,0,0,0-.42-.09l.31-.71-.55,0,.14-.66-.71.49a1.46,1.46,0,0,0-.24-1.38,2.74,2.74,0,0,0-1.18-.83,5.27,5.27,0,0,0-5.4.94l0-.19a6.83,6.83,0,0,0-2.62,4.53,7,7,0,0,0,1.74,5l0-.19.15.2.14,5.19-.35.29s-5.73,2.6-6,5.7h0c-.35,1.5-.52,9.34-.52,9.34h.47l-.47,3.07-3.07,11.93s-3.92,5.11-.51,6.13c2.12.64,2.72-1.82,2.88-3.77a1.2,1.2,0,0,0,1.21.88h.18c-1.62,4.17-.52,17.71-.52,17.71-.85,1.7,9.2,13.46,9.2,13.46l.61-.32.13.26-.57.06v5.28s-1.54,5.28.51,6.31a1.47,1.47,0,0,0,1.61-.36c-.1,1.63-.25,4.06-.25,4.62,0,.85,2.22,2.38,2.22,2.38S989.9,733,994,733s1-5,1-5l-2.21-4.94s-.17.08-.67-.32l.18-2,1,.09,1.36-19.94s1.19-17.72,1.36-20.45a19.11,19.11,0,0,0-.06-2.62l5-10.33ZM996.38,667l-.51,1.78v-3.94Zm-21.27,12.64c0-.63,0-1,0-1l3.33-6.66-.09,2.06s-2.67,3.37-3.21,5.65Zm7.81,19.23,3.24-11.42,1.87,13.8-.14,5a8,8,0,0,1-.54-1.44c-.51-2-4.43-6-4.43-6Z"/><path id="Pfad_521" data-name="Pfad 521" class="cls-5" d="M1029,726c-1.59-.66-4.69-2.07-5.07-2.82s-2.25-6.57-2.25-6.57l-.49,0c-.06-2.64-.33-12.9-.73-14.12,0,0,2-16.25-2-22.73l-.7-2.87a16.5,16.5,0,0,0,.05-4.27c-.19-.56,2.16-2.35,1.5-3.48s-2.44-5-2.44-5a6.17,6.17,0,0,0-2.35-4.7s-.74-4.19-4.08-4.26c-.45-.78-1.08-2-.9-2.59s1-2.46,1.39-3.51a4.22,4.22,0,0,0,.66-.36,8,8,0,0,0,4.53-7.39,7.94,7.94,0,0,0-5.1-7.62,2.54,2.54,0,1,0-4.74-1.8,2.43,2.43,0,0,0-.17.89,2.54,2.54,0,0,1,1.35-3.32,2.5,2.5,0,0,1,1.48-.15,3.22,3.22,0,0,0-2.61,4.5,8,8,0,0,0-4.77,7.5,8.09,8.09,0,0,0,4.18,7.22,4.77,4.77,0,0,1-1.7,3.85,4.55,4.55,0,0,0-2.43-.54c-.34-.26-.85-.35-1.55.35-1.41,1.41-2.63,5.07-2.63,7.32s.28,15.31.28,15.31-1.5.57-.47,1.41a1.17,1.17,0,0,0,.76.28l1,7.61s-.66,7.33,1.88,7.42a1,1,0,0,0,.57-.14l-1.88,8.5a28.19,28.19,0,0,0-7.7,8.36,44.43,44.43,0,0,0-3.05,5.64l-.62-.38-2.16,4.13s-4.79,2.91-3.76,5.07a6.59,6.59,0,0,0,2,2.73l.66-.28,1.22,2.25s3.19,4.6,8.36,2.25a1.91,1.91,0,0,0,0-2.25c-.85-1.22-3-3.85-3-3.85L993,716.5l-.29-.18,8.93-10.81a14.33,14.33,0,0,0,3.57-3c.94-1.41,6.76-16,6.76-16l3.29,15.22a43.11,43.11,0,0,0,.66,9.11,37.77,37.77,0,0,1,.89,6.08l-.24,0,.57,4.23s-2.45,6-.75,6.48a23.77,23.77,0,0,0,3.66.65l.18-.65s7.24,3.94,9.86,1C1030.07,728.71,1030.63,726.65,1029,726Zm-25.73-46.12c.28.29.19,1.6.19,1.6l-.57,3.66-.56,2.54a28.75,28.75,0,0,0-.47-3.58l-.26-7a.36.36,0,0,0,.17.07c.18,0,.09-1.59.09-1.59s.11-.29.25-.74c.36,1.1.81,1.81,1.35,2l.09,1.22s-1.22.56-.09.56l.19,0-.1.49s-.56.57-.28.85Z"/><path id="Pfad_522" data-name="Pfad 522" class="cls-6" d="M1045,720.72l.83,5.81,4.15-.42-.41-6Z"/><path id="Pfad_523" data-name="Pfad 523" class="cls-6" d="M1025.25,720.72l-.83,5.81-4.15-.42.42-6Z"/><path id="Pfad_524" data-name="Pfad 524" class="cls-7" d="M1019.24,660.57a15.31,15.31,0,0,0-2.91,11.2c.83,6.84,2.28,22.4,2.28,22.4l1,27.59,6.64-.42,1-23.44,3.32-18.87,8.92,22s4.36,20.54,4.57,20.54,6.22-.62,6.22-.62l-2.91-24.27s-4.56-35.26-7.26-35.88S1019.24,660.57,1019.24,660.57Z"/><path id="Pfad_525" data-name="Pfad 525" class="cls-7" d="M1050.35,725.28s-3.74-2.49-5.19.42a5.33,5.33,0,0,0-.2,5s1.24.83.62,1.66-.83,6.22,4.56,5.4,2.7-6.43,2.7-6.43Z"/><path id="Pfad_526" data-name="Pfad 526" class="cls-7" d="M1019.86,725.28s3.73-2.49,5.18.42a5.31,5.31,0,0,1,.21,5s-1.24.83-.62,1.66.83,6.22-4.57,5.4-2.69-6.43-2.69-6.43Z"/><path id="Pfad_527" data-name="Pfad 527" class="cls-6" d="M1024.32,620.23s1.86,5.18.41,8.09,2.28,6.22,2.28,6.22,9.75-5,8.5-7.47-3.32-5.81-2.9-7.88Z"/><circle id="Ellipse_139" data-name="Ellipse 139" class="cls-6" cx="1027.95" cy="615.56" r="6.64"/><path id="Pfad_528" data-name="Pfad 528" class="cls-5" d="M1023.18,628s6.66,5.54,11.62-2.32l5.18,2.94,2.69,31.53s-15.14,8.71-22.4,1.24l1-29.24Z"/><path id="Pfad_529" data-name="Pfad 529" class="cls-8" d="M1025.27,624.9l-9.36,6.22,3.32,15.35-4.35,23.85,7-10.58Z"/><path id="Pfad_530" data-name="Pfad 530" class="cls-8" d="M1033.53,623.17l2.3,1.52,9.33,3.31-1.45,25.72,3.94,16.59-5.6,2.91s-1-7.88-7.47-11.82S1032.06,624.35,1033.53,623.17Z"/><path id="Pfad_531" data-name="Pfad 531" class="cls-6" d="M1018,663.47l2.7,1.87s-3.43,3.63-4.05,3a1.75,1.75,0,0,1-.52-1.35l-.62-1.45Z"/><path id="Pfad_532" data-name="Pfad 532" class="cls-6" d="M1035.92,663.07l-.92,1.44s-2.7,1.24-2.08,2.07,5.81,2.7,6.85.83l1-1.86Z"/><path id="Pfad_533" data-name="Pfad 533" class="cls-8" d="M1017.16,630.91l-1.45.21-2.39,15.45s-.93,2.8.11,9.44,2.06,11,2.06,11l4.58-3.28-2.08-5.39,2.7-19.71Z"/><path id="Pfad_534" data-name="Pfad 534" class="cls-8" d="M1041.84,627.59l3.32.41s3.74,4,4.36,8.09.41,16,.41,16l-9.54,15.14-5.19-3.73,7.27-12.86-3.53-15.35Z"/><path id="Pfad_535" data-name="Pfad 535" class="cls-9" d="M1034.28,609.56a7.78,7.78,0,0,0-4.41-3.37l-1.35,1.07L1029,606a6.6,6.6,0,0,0-1.33-.08l-1.22,1.56L1027,606a7.72,7.72,0,0,0-5.3,3.15,6.81,6.81,0,0,0-.29,7.57c.42-1.28.93-2.48,1.34-3.76a4.1,4.1,0,0,0,1,0l.51-1.18.14,1.13c1.57-.13,3.9-.43,5.39-.71l-.14-.87.87.72c.46-.1.73-.2.7-.27,1.11,1.78,2.21,2.93,3.32,4.71C1035,614,1035.69,611.86,1034.28,609.56Z"/><ellipse id="Ellipse_140" data-name="Ellipse 140" class="cls-6" cx="1033.91" cy="615.35" rx="0.45" ry="0.9"/><path id="Pfad_542" data-name="Pfad 542" class="cls-7" d="M1147.27,616.54l0-.06v.06Z"/></g><path class="cls-10" d="M1007.94,266.49l-.31-4a2.81,2.81,0,0,1,2.48-3,62.34,62.34,0,0,1,14.15-.22,3.15,3.15,0,0,1,2.7,3.12v4.12h-4.17l.14-2.11a3.16,3.16,0,0,0-2.85-3.35,29.8,29.8,0,0,0-6.78.15,2.8,2.8,0,0,0-2.32,3.45l.46,1.86Z"/><polygon class="cls-11" points="1040.76 345.85 995.94 344.9 992.75 276.37 1043.12 273.41 1040.76 345.85"/><path class="cls-12" d="M1043.16,272.06l-50.34,2.14,5.52-6.92a6,6,0,0,1,4.65-2.14l30.39-.47a4.08,4.08,0,0,1,2.77,1Z"/><path class="cls-13" d="M995.94,344.9l44.82,1-8.13,6.13a3.6,3.6,0,0,1-2.16.72l-25.8.09a3.66,3.66,0,0,1-2.69-1.2Z"/><path class="cls-14" d="M1045.18,279l-54.46.08c-2,0-3.43-1.29-3-2.62l1.2-3.6a2.86,2.86,0,0,1,2.75-1.57l51.86-1a3,3,0,0,1,3.06,1.69"/><path class="cls-15" d="M1002,343.4h0a.76.76,0,0,1-.75-.72l-2.6-57.56a.75.75,0,0,1,.75-.78h0a.75.75,0,0,1,.75.72l2.6,57.55A.75.75,0,0,1,1002,343.4Z"/><path class="cls-16" d="M1008.9,343.41h0a.74.74,0,0,1-.74-.72l-1.78-57.59a.76.76,0,0,1,.76-.78h0a.76.76,0,0,1,.74.73l1.78,57.59A.74.74,0,0,1,1008.9,343.41Z"/><path class="cls-17" d="M1034.67,343.4h0a.76.76,0,0,0,.75-.72l2.6-57.56a.75.75,0,0,0-.75-.78h0a.75.75,0,0,0-.75.72l-2.6,57.55A.75.75,0,0,0,1034.67,343.4Z"/><path class="cls-18" d="M1027.75,343.41h0a.74.74,0,0,0,.74-.72l1.78-57.59a.76.76,0,0,0-.76-.78h0a.76.76,0,0,0-.74.73L1027,342.64A.74.74,0,0,0,1027.75,343.41Z"/><rect class="cls-19" x="1017.28" y="285.17" width="1" height="58.23" rx="0.46"/><path class="cls-20" d="M1028.45,285.75l0,0Z"/><path class="cls-20" d="M1028.45,285.75l0,.07Z"/><path class="cls-21" d="M1043.53,309.18l6.09,1.95-.71,2.41a24.8,24.8,0,0,1,3.81-.38l-1-5.05-2.76-.67s.43-1.13,1.27-3.28c-1.7.18-4.45-1.23-6.17-2.07a14.72,14.72,0,0,0,4.08,3.86A30.4,30.4,0,0,0,1043.53,309.18Z"/><path class="cls-22" d="M1090.88,339.26c-2-4.1-5.66-11.28-8.11-13.45s-5.47-2.36-10.92-2.77-6.55-1-6.55-1c-6.47-7.64-11.44-7.35-19.93-7.49a14.7,14.7,0,0,1,3.54-1l.71-2.41-6.09-1.95a30.4,30.4,0,0,1,4.65-3.23,14.72,14.72,0,0,1-4.08-3.86L1044,302a45.21,45.21,0,0,0-6.28,10.3,10.13,10.13,0,0,0,0,6.21,45.64,45.64,0,0,0-1,16.42c-.78,3.54-2.11,11.8,2.79,15.35a24.58,24.58,0,0,0,12.67,4.64c12.39,8.41,13.18,8.41,19.41,6.89a42.06,42.06,0,0,0,15.26-7.26C1091.54,348.54,1092.9,343.36,1090.88,339.26Z"/><path class="cls-21" d="M1042.75,309.62l-.71.72c-.21.22-.45.47-.7.75s-.25.28-.38.43-.24.3-.37.46a9.31,9.31,0,0,0-.65.94c-.08.16-.18.32-.25.47l-.2.43-.13.38a3.08,3.08,0,0,0-.09.3c0,.18-.07.27-.07.27s0-.1,0-.28a1.7,1.7,0,0,1,0-.32c0-.13,0-.27.06-.42a4.68,4.68,0,0,1,.35-1l.29-.52c.12-.17.23-.35.36-.51a7.79,7.79,0,0,1,.82-.89,6.5,6.5,0,0,1,.81-.67A5.29,5.29,0,0,1,1042.75,309.62Z"/><path class="cls-21" d="M1044.88,312l-.81.43-.82.44c-.29.17-.61.34-.91.53a9.1,9.1,0,0,0-.85.59c-.14.1-.25.21-.37.31s-.2.21-.3.3-.15.2-.22.29a1.28,1.28,0,0,0-.15.23l-.13.22s0-.09,0-.25a.86.86,0,0,1,.08-.28,1.87,1.87,0,0,1,.17-.35,2.22,2.22,0,0,1,.27-.38,4,4,0,0,1,.34-.38,4.58,4.58,0,0,1,.42-.35c.15-.11.3-.22.46-.32a7.92,7.92,0,0,1,1.86-.83A5.72,5.72,0,0,1,1044.88,312Z"/><path class="cls-21" d="M1045.37,314.59a4.68,4.68,0,0,1-.56.2,9.11,9.11,0,0,1-2.54.34,4.8,4.8,0,0,1-.59-.05,4.68,4.68,0,0,1,.56-.2,8.4,8.4,0,0,1,1.26-.26,8.6,8.6,0,0,1,1.28-.08A4.8,4.8,0,0,1,1045.37,314.59Z"/><path class="cls-21" d="M1042.57,317s.1.75.26,1.86c.06.56.17,1.21.27,1.91,0,.34.1.7.15,1.07s.12.73.17,1.1.13.74.19,1.1.12.72.18,1.06c.15.69.27,1.33.39,1.88s.26,1,.35,1.31.12.51.12.51-.07-.18-.2-.48-.32-.74-.51-1.27-.35-1.18-.53-1.87c-.07-.34-.15-.7-.22-1.07s-.14-.73-.2-1.1c-.1-.75-.22-1.49-.28-2.2s-.1-1.36-.13-1.92,0-1,0-1.37S1042.57,317,1042.57,317Z"/><path class="cls-21" d="M1044.85,318a7,7,0,0,1,.74.53,13.33,13.33,0,0,1,1.47,1.35,6.11,6.11,0,0,1,.68.86,2.6,2.6,0,0,1,.13.24.48.48,0,0,1,0,.36s0,0-.05.08l0,0s0,0,0,0a.29.29,0,0,1-.2.07.5.5,0,0,1-.26-.08,1.6,1.6,0,0,1-.49-.49,1.46,1.46,0,0,1-.14-.21l.2.15a2.31,2.31,0,0,0,.53.32.26.26,0,0,0,.14,0h0l0,0,0,0s0,0,0,0,0,0,0-.09l-.13-.19c-.2-.25-.44-.51-.68-.77-.48-.53-1-1.06-1.32-1.47S1044.85,318,1044.85,318Z"/><path class="cls-21" d="M1042,340.13l.31,0,.81.13c.34.05.73.11,1.14.19l.64.1.66.1c.22,0,.45.06.68.11s.44.1.64.15c.41.1.79.2,1.11.25a2.48,2.48,0,0,0,.45,0,1.16,1.16,0,0,0,.34,0,1.15,1.15,0,0,0,.22-.07l.08,0a1.53,1.53,0,0,1-.27.17,1.77,1.77,0,0,1-.35.12,2.28,2.28,0,0,1-.48.05,5.67,5.67,0,0,1-1.18-.13l-.64-.11c-.21,0-.43-.06-.65-.09a13,13,0,0,1-1.33-.26c-.41-.11-.8-.21-1.12-.32s-.59-.22-.77-.29Z"/><path class="cls-21" d="M1036.62,335s.12.22.27.56c.07.17.15.36.23.57l.25.66c.07.23.17.44.23.65s.16.4.21.57.07.16.1.23,0,.12.07.17l.06.17-.13-.11a1.84,1.84,0,0,1-.14-.14.82.82,0,0,1-.18-.19l-.17-.25a1.38,1.38,0,0,1-.17-.29,6.58,6.58,0,0,1-.29-.66l-.12-.35c0-.12-.06-.24-.09-.35a5.43,5.43,0,0,1-.11-.62A3.67,3.67,0,0,1,1036.62,335Z"/><path class="cls-21" d="M1065.3,322l.25.23.66.61.91.87,1,1c.34.36.69.7,1,1l.89.9c.12.13.25.24.36.35l.28.27.24.25-.3-.18-.33-.22a3.82,3.82,0,0,1-.42-.28c-.15-.12-.31-.24-.47-.38a6.57,6.57,0,0,1-.52-.43c-.34-.31-.71-.65-1.05-1s-.69-.71-1-1.06-.58-.68-.81-1-.41-.54-.54-.72A2.45,2.45,0,0,1,1065.3,322Z"/><path class="cls-21" d="M1072.2,334.33s.11.36.31,1,.46,1.53.75,2.61.63,2.35.92,3.73c.15.69.3,1.4.44,2.12s.25,1.48.32,2.23l0,.57v.58a4.6,4.6,0,0,1-.08.57c0,.18-.1.37-.14.56a13.23,13.23,0,0,1-.88,2c-.32.63-.68,1.21-1,1.76s-.68,1.05-1,1.51c-.64.92-1.22,1.65-1.63,2.17s-.65.8-.65.8l.58-.85c.38-.53.89-1.32,1.5-2.26.3-.47.62-1,.94-1.54s.65-1.14,1-1.76a12.06,12.06,0,0,0,.81-2,3.8,3.8,0,0,0,.13-.51c0-.17.07-.39.07-.53v-.54l0-.55c-.06-.74-.17-1.47-.3-2.19s-.25-1.44-.4-2.13c-.28-1.37-.54-2.65-.79-3.74Z"/><path class="cls-21" d="M1086.61,341.31a1.63,1.63,0,0,1,0,.22c0,.13-.1.32-.19.54s-.23.46-.37.73l-.26.38c-.1.13-.18.26-.29.38l-.32.35a3.4,3.4,0,0,1-.34.32l-.35.26a1.46,1.46,0,0,1-.32.21,5.23,5.23,0,0,1-.73.33s.23-.23.58-.53c.18-.14.34-.36.55-.55,0-.05.1-.11.16-.16l.14-.17.3-.34a4.29,4.29,0,0,0,.28-.35l.28-.35c.16-.23.34-.44.47-.63Z"/><path class="cls-21" d="M1052.19,354.87h.86l.87,0,1,.05.5,0,.48,0c.31,0,.61,0,.86,0l.34,0h.51l-.22.09-.26.1a2.31,2.31,0,0,1-.34.1l-.41.07c-.15,0-.31.05-.47.06-.32,0-.67,0-1,0s-.69,0-1-.1a7.91,7.91,0,0,1-.87-.17A5.38,5.38,0,0,1,1052.19,354.87Z"/><path class="cls-20" d="M1051.48,358.15s.18.2.43.52c.11.15.26.33.4.53s.3.41.46.62a3.55,3.55,0,0,0,.23.31,2.44,2.44,0,0,0,.22.31l.38.55a5.67,5.67,0,0,1,.38.55,4.49,4.49,0,0,1-.56-.38,5.22,5.22,0,0,1-.5-.47,7.83,7.83,0,0,1-.51-.61,6.58,6.58,0,0,1-.72-1.29A3.31,3.31,0,0,1,1051.48,358.15Z"/><path class="cls-20" d="M1051,360.86l.07.08c0,.06.12.12.18.2a.74.74,0,0,1,.13.12l.14.12a3.92,3.92,0,0,0,.32.25,1,1,0,0,0,.17.12l.17.11.15.12.16.09a1.84,1.84,0,0,1,.3.25,1.78,1.78,0,0,1-.4,0,1.05,1.05,0,0,1-.39-.11,1.54,1.54,0,0,1-.42-.22l-.19-.16c-.05-.05-.1-.12-.15-.18a1.51,1.51,0,0,1-.2-.37,1.33,1.33,0,0,1,0-.3A.5.5,0,0,1,1051,360.86Z"/><path class="cls-20" d="M1093.79,337.54a1.8,1.8,0,0,1,.32.21,2.12,2.12,0,0,1,.32.3,2.47,2.47,0,0,1,.37.45l.17.28c.06.1.1.21.16.32a3.91,3.91,0,0,1,.25.73,4.28,4.28,0,0,1,.13.81l0,.42v.42a5.68,5.68,0,0,1-.09.84,4,4,0,0,1-.18.79,6.78,6.78,0,0,1-.22.72l-.25.63a4,4,0,0,1-.25.51l-.2.38-.19.34.11-.37c0-.11.08-.25.13-.41s.12-.34.17-.54l.17-.63c.07-.23.1-.47.16-.72s0-.25.08-.37,0-.26,0-.39a4.25,4.25,0,0,0,.07-.8l0-.4c0-.13,0-.26,0-.39a4.52,4.52,0,0,0-.27-1.45,3.26,3.26,0,0,0-.24-.6,4.91,4.91,0,0,0-.27-.47,2.71,2.71,0,0,0-.26-.34C1093.89,337.63,1093.79,337.54,1093.79,337.54Z"/><path class="cls-20" d="M1096.77,339.81a3.43,3.43,0,0,1,.24.81,7,7,0,0,1,.1.86c0,.15,0,.32,0,.48a4.36,4.36,0,0,1,0,.51c0,.17,0,.34-.07.5a3.74,3.74,0,0,1-.12.48c0,.15-.08.3-.12.43a2.89,2.89,0,0,1-.15.39,7.36,7.36,0,0,1-.39.75,8.39,8.39,0,0,1,.15-.83,3.08,3.08,0,0,0,.07-.39c0-.13,0-.28.07-.43a9.12,9.12,0,0,0,.12-.95c.06-.32.06-.64.09-.95,0-.15,0-.3,0-.43s0-.28,0-.4C1096.77,340.15,1096.77,339.81,1096.77,339.81Z"/><g class="cls-23"><path class="cls-5" d="M1072.63,329.35s-4.26-4.46-1.58-5.32c.77-.25,1.59-.56,2.38-.87l-1.58-.12a31.61,31.61,0,0,1-6.36-.89,31.8,31.8,0,0,0,2.28,2.57C1070.93,327.9,1072.63,329.35,1072.63,329.35Z"/><path class="cls-24" d="M1090.88,339.26c-1.12-2.28-2.75-5.52-4.39-8.32,2.91,6.29,2.15,8.75-1.39,15.13-3.67,6.6-12,8.45-11.32,6.05s2.25-6.19.92-8.36c1.49,6.76-9.17,17.38-12.91,15.67s-5.2-3.43-1.29-4.59c-8.14.6-21.85-7.2-21.14-10.25s7.16-3.49,7.16-3.49c-7.8-1.74-9.7-7.31-10.16-10.09,0,1.25.11,2.57.26,3.94-.78,3.54-2.11,11.8,2.79,15.35a24.58,24.58,0,0,0,12.67,4.64c12.39,8.41,13.18,8.41,19.41,6.89a42.06,42.06,0,0,0,15.26-7.26C1091.54,348.54,1092.9,343.36,1090.88,339.26Z"/></g><g class="cls-23"><path class="cls-25" d="M1038.41,320.34c1.83-.7,2.52-1.16,3-1.92s1,.38,1.47,2c.22-3.36,1.74-2.68,3.29-1.26-1.81-2.53-2.18-4.09-.26-4.53h-.53a10.92,10.92,0,0,1,1.42-.53,10,10,0,0,0-2.38.34c-2.37.62-3.53.13-2.31-1.31-2.51,1.4-2.17.19-.39-2.64-1.21.55-2.84,3.43-2.83,2.21a10.16,10.16,0,0,1,.87-4.49c-1.31,2.34-2.08,4.15-2.08,4.15a10.13,10.13,0,0,0,0,6.21,32.13,32.13,0,0,0-.78,3.78A2.9,2.9,0,0,1,1038.41,320.34Z"/></g><path class="cls-26" d="M1053.9,316.78s5.09.24,6.73,4S1049.81,316.22,1053.9,316.78Z"/><path class="cls-26" d="M1064,323.14c-.07.24-.59.31-1.15.15s-.95-.49-.88-.73.58-.32,1.14-.16S1064.06,322.89,1064,323.14Z"/><path class="cls-8" d="M923.87,458.44V447.57a5.54,5.54,0,1,1,11.08-.1v11.08a5.54,5.54,0,1,1-11.08-.11Z"/><path class="cls-8" d="M944.38,452.88h-3.67v5.28c0,5.12-4.1,10.19-9.14,11a11.06,11.06,0,0,1-13-10.82v-5.5H896.83v5.28c0,5.12-4.1,10.19-9.14,11a11.06,11.06,0,0,1-13-10.82v-5.5h-4.11A10.07,10.07,0,0,0,860.49,463V475h94V463A10.07,10.07,0,0,0,944.38,452.88Z"/><path class="cls-8" d="M880,458.44V447.57a5.54,5.54,0,1,1,11.08-.1v11.08a5.54,5.54,0,1,1-11.08-.11Z"/><path class="cls-22" d="M860.49,480.8v44.89a10.07,10.07,0,0,0,10.07,10.07h73.82a10.07,10.07,0,0,0,10.07-10.07V480.8Z"/><text class="cls-27" transform="translate(868.33 511.57)">0<tspan class="cls-28" x="12.5" y="0">9</tspan><tspan x="23.56" y="0">/</tspan><tspan class="cls-29" x="29.64" y="0">2</tspan><tspan class="cls-30" x="40.26" y="0">0</tspan><tspan class="cls-29" x="52.74" y="0">2</tspan><tspan x="63.37" y="0">0</tspan></text><text class="cls-31" transform="translate(1145.95 304.4)">Ab<tspan class="cls-32" x="19.32" y="0">f</tspan><tspan x="23.77" y="0">all p</tspan><tspan class="cls-33" x="52.29" y="0">r</tspan><tspan x="57.61" y="0">o Jahr p</tspan><tspan class="cls-34" x="112.91" y="0">r</tspan><tspan x="118.23" y="0">o </tspan><tspan class="cls-35" x="130.51" y="0">P</tspan><tspan x="140.33" y="0">e</tspan><tspan class="cls-36" x="148.69" y="0">r</tspan><tspan x="154.15" y="0">son </tspan><tspan class="cls-37"><tspan class="cls-38" x="0" y="16.8">5</tspan><tspan class="cls-32" x="7.97" y="16.8">3</tspan><tspan x="15.83" y="16.8">5 </tspan><tspan class="cls-39" x="27.64" y="16.8">k</tspan><tspan x="35.95" y="16.8">g</tspan></tspan></text><text class="cls-31" transform="translate(1147.35 488)"><tspan class="cls-40">V</tspan><tspan x="8.85" y="0">e</tspan><tspan class="cls-33" x="17.21" y="0">r</tspan><tspan x="22.53" y="0">öf</tspan><tspan class="cls-41" x="35.8" y="0">f</tspan><tspan x="40.26" y="0">entli</tspan><tspan class="cls-41" x="70.92" y="0">c</tspan><tspan x="78.57" y="0">hu</tspan><tspan class="cls-42" x="97.35" y="0">n</tspan><tspan x="106.79" y="0">g</tspan><tspan class="cls-37"><tspan x="0" y="16.8">Sep</tspan><tspan class="cls-43" x="26.81" y="16.8">t</tspan><tspan x="32.35" y="16.8">ember </tspan><tspan class="cls-44" x="83.34" y="16.8">202</tspan><tspan x="108.63" y="16.8">0</tspan></tspan></text><text class="cls-31" transform="translate(1146 672.98)">Be<tspan class="cls-45" x="18.89" y="0">f</tspan><tspan class="cls-41" x="24.6" y="0">r</tspan><tspan class="cls-46" x="29.99" y="0">a</tspan><tspan x="38.16" y="0">g</tspan><tspan class="cls-47" x="47.71" y="0">t</tspan><tspan x="53.02" y="0">e</tspan><tspan class="cls-37"><tspan x="0" y="16.8">1</tspan><tspan class="cls-48" x="5.18" y="16.8">.</tspan><tspan class="cls-44" x="8.19" y="16.8">0</tspan><tspan x="17.49" y="16.8">23 </tspan><tspan class="cls-48" x="37.29" y="16.8">P</tspan><tspan x="47.23" y="16.8">e</tspan><tspan class="cls-44" x="55.8" y="16.8">r</tspan><tspan x="61.5" y="16.8">so</tspan><tspan class="cls-49" x="77.4" y="16.8">n</tspan><tspan x="86.98" y="16.8">en</tspan></tspan></text><path class="cls-50" d="M637.2-6.49c2.76,28.62,10.48,49.36,17.33,63.33,8.36,17.06,17,27.24,12.83,38.36-3.87,10.33-17.41,17.73-29.93,16.4-13-1.38-20.49-11.79-23.57-16.08-7.75-10.85-8.39-22.28-8.66-28.62C603.71,31.71,630.53.86,637.2-6.49Z"/><path class="cls-51" d="M642.85-7.74c0,1.55-7.18,1.14-19.07,6.54a87.07,87.07,0,0,0-11.61,6.89c-12.41,8.83-18.89,19.74-24.69,27.16-3.88,5-20.54,26.25-46.18,31-20.2,3.73-39.61-4-41-4.57-7.68-3-11.63-6.11-33.37-27.78S440.06,3.86,427.36-1.2c-14.91-5.95-26.28-5.22-26.22-6.54C401.41-13.82,642.65-15.91,642.85-7.74Z"/><path class="cls-52" d="M647-8a230.91,230.91,0,0,0,14,56c4,10.2,10.92,28.61,20.55,40.69,25.41,31.88,79.08,32.41,103.3,32.35,293.24-.68,508.12-36,508.36-36h0c83.36-10.42,132.33-20.4,149.81-30V-4Z"/><path class="cls-53" d="M233,790.92c-6.67-28-6.08-50.08-4.12-65.52,2.39-18.85,7.26-31.28-.28-40.45-7-8.52-22.22-11.14-33.64-5.82-11.9,5.54-15.57,17.79-17.08,22.85-3.83,12.78-.72,23.8,1.07,29.87C188.92,765.64,224.29,786.14,233,790.92Z"/><path class="cls-54" d="M241.76,799.07c0-1.55-7.18-1.14-19.07-6.53a89,89,0,0,1-11.61-6.9c-12.41-8.83-18.89-19.74-24.7-27.16-3.88-5-20.53-26.25-46.17-31-20.2-3.72-39.62,4-41,4.57-7.68,3-11.64,6.11-33.37,27.78S39,787.47,26.27,792.54C11.36,798.48,0,797.75.05,799.07.31,805.15,241.55,807.24,241.76,799.07Z"/></g></g></svg>