<svg id="Ebene_1" data-name="Ebene 1" xmlns="http://www.w3.org/2000/svg" xmlns:xlink="http://www.w3.org/1999/xlink" viewBox="0 0 1440 790"><defs><style>.cls-1{fill:url(#Unbenannter_Verlauf_46);}.cls-2,.cls-5{fill:#063567;}.cls-2{opacity:0.46;}.cls-3,.cls-4{stroke-miterlimit:10;}.cls-3{opacity:0.05;stroke:url(#Unbenannter_Verlauf_243);}.cls-4{opacity:0.04;stroke:url(#Unbenannter_Verlauf_243-2);}.cls-6{fill:#f4a671;}.cls-7{fill:#42210b;}.cls-8{fill:#e6e6e6;}.cls-9{fill:#ccc;}.cls-10{fill:#ffb27d;}.cls-11{fill:#f99746;}.cls-12{fill:#ed985f;}.cls-13{fill:#233862;}.cls-14{fill:#ed7d2b;}.cls-15{fill:#b3b3b3;}.cls-16{fill:#2b478b;}.cls-17{fill:#efcdaf;}.cls-18{fill:#fff3e9;}.cls-19{fill:#1a1a1a;}.cls-20{fill:#ed975d;}.cls-21{fill:gray;}.cls-22{fill:#e58638;}.cls-23{fill:#f2f2f2;}.cls-24{opacity:0.5;}.cls-25{fill:#999;}.cls-26{fill:#333;}.cls-27{fill:#ccdfed;}.cls-28{fill:#e2b99a;}.cls-29{fill:#fff;}.cls-30{fill:#d3671e;}.cls-31{fill:#f1a34f;}.cls-32{fill:#d86713;opacity:0.4;}.cls-33{fill:#c95c12;}.cls-34{fill:#ffc100;}.cls-35{fill:#f9ddbf;}.cls-36{fill:#b64c41;}.cls-37{fill:#c66e26;}.cls-38{fill:#4a75cb;}.cls-39{fill:#699ff0;}.cls-40{fill:#fcfcfc;}.cls-41{fill:url(#Unbenannter_Verlauf_156);}.cls-42{fill:url(#Unbenannter_Verlauf_156-2);}.cls-43{fill:url(#Unbenannter_Verlauf_156-3);}</style><linearGradient id="Unbenannter_Verlauf_46" x1="1442" y1="394.5" x2="642.38" y2="394.5" gradientUnits="userSpaceOnUse"><stop offset="0.3" stop-color="#0e559c"/><stop offset="0.48" stop-color="#0d4f93"/><stop offset="0.77" stop-color="#094079"/><stop offset="0.94" stop-color="#063567"/></linearGradient><linearGradient id="Unbenannter_Verlauf_243" x1="660.21" y1="752.67" x2="719.89" y2="707.61" gradientTransform="translate(-98.76 23.64) rotate(-2.06)" gradientUnits="userSpaceOnUse"><stop offset="0"/><stop offset="0.98"/></linearGradient><linearGradient id="Unbenannter_Verlauf_243-2" x1="398.03" y1="762.77" x2="640.74" y2="762.77" gradientTransform="matrix(1, 0, 0, 1, 0, 0)" xlink:href="#Unbenannter_Verlauf_243"/><linearGradient id="Unbenannter_Verlauf_156" x1="1083.04" y1="226.05" x2="1172.8" y2="226.05" gradientUnits="userSpaceOnUse"><stop offset="0" stop-color="#ff9a00"/><stop offset="1" stop-color="#ffc100"/></linearGradient><linearGradient id="Unbenannter_Verlauf_156-2" x1="998.16" y1="185.86" x2="1065.96" y2="185.86" xlink:href="#Unbenannter_Verlauf_156"/><linearGradient id="Unbenannter_Verlauf_156-3" x1="1069.18" y1="119.51" x2="1165.04" y2="119.51" xlink:href="#Unbenannter_Verlauf_156"/></defs><path class="cls-1" d="M865.39-2C761.83,75.88,733.65,142.3,734.25,194.74c1,88.22,83.22,119.27,74.07,202.75C800,473.86,726.88,486.9,677.18,586.2c-38.06,76.06-37.65,153.29-32,204.76l795.7,0q.57-396,1.15-792Z"/><path class="cls-2" d="M706.89,542.31l28.45-.13v29.3l14,0V548.58L760.51,537h16.22V503.13h23.49V537h16.22v11.59h11.19v13.86h13.42v-66.2h7.27V484.32h63.76v11.92h7.27v56.44l21.26-.27V516.3H1001l2.71,67.89,9-.27V561h19.57V543h11.75V530.87h45.86V543h11.75v18h19.57v42.3L1138,603V561.08h18.7v56.75H706.89V542.31Z"/><path class="cls-2" d="M1157,542.64l28.48-.14v29.3l14,0V548.91l11.2-11.6h16.23V503.46h23.51v33.85h16.23v11.6h11.19v13.86h13.44V496.56h7.27V484.65h63.81v11.91h7.28V553l21.27-.27V516.62h60.45l2.71,67.89,9-.27V561.32h19.59v-18h11.76V531.19h45.89V543.3h11.76v18h19.59v42.31l16.79-.27v-42h18.72v56.76H1157V542.64Z"/><path class="cls-3" d="M631.46,788.23c-6.66-28-6.07-50.09-4.12-65.53,2.39-18.85,7.26-31.28-.28-40.45-7-8.52-22.22-11.14-33.63-5.82-11.9,5.54-15.57,17.79-17.09,22.85-3.82,12.78-.72,23.8,1.08,29.87C587.41,762.94,622.77,783.44,631.46,788.23Z"/><path class="cls-4" d="M640.24,796.37c0-1.55-7.18-1.14-19.07-6.53a87.71,87.71,0,0,1-11.61-6.9c-12.41-8.83-18.89-19.74-24.69-27.16-3.88-5-20.54-26.25-46.17-31-20.21-3.72-39.62,4-41,4.57-7.68,3-11.64,6.11-33.38,27.78s-26.87,27.61-39.57,32.68c-14.91,5.95-26.28,5.21-26.22,6.53C398.8,802.45,640,804.54,640.24,796.37Z"/><ellipse class="cls-5" cx="1073.69" cy="660.62" rx="242.21" ry="10.27"/><path class="cls-6" d="M1123.12,515.86c0-2.16,1.72-5.84-1.59-9.34a70.48,70.48,0,0,1-5.4-6.71c-.36-.56-4.36,2.73-4.27,2.86.66,1,3.68,5.95,4.11,8.72.48,3.12,5.83,6.54,5.83,6.54S1123.11,518,1123.12,515.86Z"/><path class="cls-6" d="M1118.2,502.59l-6.34.08S1101.93,487,1101.63,482c-.3-4.76-9.84-25.55,1.33-38.54a18.89,18.89,0,0,1,1.65-1.71l.06-.06,0,.09a24.64,24.64,0,0,1,2.16,5.52c1.63,5.54,3.64,15.83,4.11,33.59C1111,480.9,1115.41,496.11,1118.2,502.59Z"/><path class="cls-7" d="M1098.4,419.31s-.69,1.85.32,2.58-2.57,4.06-3.26,6.86a6.05,6.05,0,0,0,.18,4.28,4.7,4.7,0,0,1,.51-2.52,3.92,3.92,0,0,0,.44,3.35c1.11,1.43.46,2.15.46,2.15s3.5.06,4.36-2.31a6.74,6.74,0,0,1-.46,1.54s3.42-1.2,4.31-3.55-.77-5.1-1.81-5.47-2.73-3.18-2.42-3.94S1098.4,419.31,1098.4,419.31Z"/><path class="cls-8" d="M1099.2,618.87l-4.11,1.53s-17.84-24.75-20-46.52a33.08,33.08,0,0,1,.59-11.13s-.18-1-.48-2.76c-.14-.82-.32-1.81-.51-2.94-.58-3.33-1.38-7.88-2.3-13.06-2.09-11.91-4.81-27.15-6.93-38.34l1.11-.36,12-3.86,2.47-7.87,8.92-2.34s2,3.89,3.77,22.3c.33,2.42.63,5.08.86,8a158.2,158.2,0,0,1-.85,32.25q-.62,4.8-1.57,9.9a44,44,0,0,0-.34,9.77C1092.67,591.21,1099.2,618.87,1099.2,618.87Z"/><path class="cls-9" d="M1094.53,521.49,1075.16,560c-.14-.82-.32-1.81-.51-2.94-.58-3.33-1.38-7.88-2.3-13.06-2.09-11.91-4.81-27.15-6.93-38.34l1.11-.36,12-3.86,2.47-7.87,10.65-3.16s.26,4.71,2,23.12C1094,515.94,1094.3,518.6,1094.53,521.49Z"/><path class="cls-7" d="M1107.32,407.7,1088,423.36s-.56-3.4-2.55-2.88c-3.11.82-7.87-7.51-4.21-15a15.15,15.15,0,0,1,12.75-8.88C1106.21,397.5,1107.32,407.7,1107.32,407.7Z"/><path class="cls-10" d="M1100.35,449.53a23.43,23.43,0,0,1-8.65,2c-12.91.71-15.84-10.61-16.37-18.12a10.73,10.73,0,0,1,4.43-.56c.91.05,1.87.14,2.66.24,1.58-.83,4.41-4.84,6-11.54l.56.26,9.32,4.38s-1,3-1.72,5.93c-.57,2.27-1,4.47-.64,5.08l1.17.49h0A63.75,63.75,0,0,1,1100.35,449.53Z"/><path class="cls-11" d="M1103.59,458l-.32.77c-3.28,7-12.16,30.31-12.16,30.31.86,5.25-36.59,4.88-36.7.1-1.14-4.07,2.81-10.13,6.29-14.47.85-1.06,1.67-2,2.38-2.81a12.19,12.19,0,0,0,1.23-1.65,11.54,11.54,0,0,0,1.65-4.81,115.23,115.23,0,0,0,.5-12.47c0-1.72,0-3.24,0-4.51.71-.53,1.4-1,2-1.47a19.32,19.32,0,0,0,2.48-2.06,3.78,3.78,0,0,0,1.19-2.35,11.73,11.73,0,0,0-.05-2c0-.32-.07-.63-.12-.94a26.49,26.49,0,0,0-1.87-6.25c3.47-1.4,9.63-.57,9.63-.57s0,.35,0,.91c0,2.25,0,8,.72,9.12.9,1.36,17.41,7.33,18.28,5.48s-1.49-10.33-1.58-10.65v0l.51.21c.84.34,1.57.73,2.27,1,4.49,1.64,4.91,3.13,4.91,3.13C1101.53,444.19,1106.16,451.17,1103.59,458Z"/><path class="cls-12" d="M1098.35,426.21s-1,3-1.72,5.93c-5.45-1.52-7.1-7.24-7.6-10.31Z"/><path class="cls-10" d="M1099.5,429.42s-13-3-11-11.1,1.67-13.92,10.07-12.34,9.25,5.07,9.24,7.93S1102.94,430,1099.5,429.42Z"/><path class="cls-7" d="M1108.51,409.32c-1.4-2.93-3-2.78-4.08-2.26a9.35,9.35,0,0,0-12.13-1,15.9,15.9,0,0,1-7.32,7.86s2,2.05,7.81,2A9.6,9.6,0,0,0,1098,414a31.1,31.1,0,0,1-6.79,5.07c7.26-1.39,12.13-9.8,12.63-10.7a10.47,10.47,0,0,1,1.89,4.48c.14,2.22-.63,6.53.64,6.69C1106.33,419.49,1110.61,413.71,1108.51,409.32Z"/><path class="cls-13" d="M1112.06,626.42h-20.69s-.78-3.3.58-5.55c1.2-2,1.11-3.2.21-4.84a6.46,6.46,0,0,0,3.13.73,8,8,0,0,0,3.13-1.34c.89,1,4.65,5.6,5.84,6.45C1105.61,622.85,1111.64,622.5,1112.06,626.42Z"/><path class="cls-14" d="M1075.13,476.5a95.76,95.76,0,0,1-14.43-1.79c.85-1.06,1.67-2,2.38-2.81a12.19,12.19,0,0,0,1.23-1.65,11.54,11.54,0,0,0,1.65-4.81,115.23,115.23,0,0,0,.5-12.47c4.71-5.27,8.67-9.56,8.67-9.56s8.78,8,10.14,16.07S1089.2,477.5,1075.13,476.5Z"/><path class="cls-9" d="M1077.3,432.66a26.2,26.2,0,0,1,5,18.89H1085s1.5-7.93-5.19-18.68c0,0-.88-.13-1.16-.15S1077.3,432.66,1077.3,432.66Z"/><path class="cls-15" d="M1100.29,457.56l-2.56-.64a26.76,26.76,0,0,0,0-19c.84.34,1.6.67,2.27,1C1103.51,450.51,1100.29,457.56,1100.29,457.56Z"/><path class="cls-8" d="M1101.41,453s-12.72-3.32-16.31-4.24-3.88,1.2-3.88,1.2-.5,6.91-.55,7.62c-.83,10.84-16.36,12.69-16.36,12.69s-4,5-7.46,9.92c-5.9,8.43-5.17,22.67-5.17,22.67h0a40.44,40.44,0,0,0,0,5.63c.46,7.48,1.32,39.28,2.21,48.69.32,3.41.6,5.83.71,6.8h0a1.4,1.4,0,0,1-.22.84,44,44,0,0,0-3.29,6.9c-8.73,23.27,1.35,51.92,1.35,51.92l2.61-1s5.74-31.89,10.4-46a28.41,28.41,0,0,1,2.24-5.39c2-3.27,3.91-8.61,5.61-15,3.23-12,5.82-27.64,7.55-39.7.24,0,2.13-16.2,8.36-23.66l2.43-2.49,7.73-19s2.14-12.62,2.78-14.74A4.08,4.08,0,0,0,1101.41,453Z"/><path class="cls-14" d="M1082.51,450.59a1.11,1.11,0,1,1,1.1,1.1A1.11,1.11,0,0,1,1082.51,450.59Z"/><path class="cls-11" d="M1082.71,450.59a1.11,1.11,0,1,1,1.1,1.1A1.11,1.11,0,0,1,1082.71,450.59Z"/><path class="cls-16" d="M1083.16,450.38a.16.16,0,0,1,.31.09.16.16,0,0,1-.21.11A.16.16,0,0,1,1083.16,450.38Z"/><path class="cls-16" d="M1084.16,450.7a.16.16,0,0,1,.31.09.16.16,0,0,1-.21.11A.16.16,0,0,1,1084.16,450.7Z"/><path class="cls-14" d="M1098.45,454.17a1.11,1.11,0,0,1,2.21,0,1.11,1.11,0,1,1-2.21,0Z"/><path class="cls-11" d="M1098.65,454.17a1.11,1.11,0,0,1,2.21,0,1.11,1.11,0,1,1-2.21,0Z"/><path class="cls-16" d="M1099.1,454a.16.16,0,0,1,.2-.1.17.17,0,0,1,.11.2.17.17,0,0,1-.21.11A.17.17,0,0,1,1099.1,454Z"/><path class="cls-16" d="M1100.1,454.28a.16.16,0,0,1,.2-.1.17.17,0,0,1,.11.2.17.17,0,0,1-.21.11A.17.17,0,0,1,1100.1,454.28Z"/><path class="cls-7" d="M1081,415.44s-.69,1.85.32,2.58-2.57,4.06-3.26,6.86a6.05,6.05,0,0,0,.18,4.28,4.7,4.7,0,0,1,.51-2.52,3.92,3.92,0,0,0,.44,3.35c1.11,1.43.46,2.15.46,2.15s3.5.06,4.36-2.31a6.74,6.74,0,0,1-.46,1.54s3.42-1.2,4.31-3.55-.78-5.1-1.81-5.47-2.73-3.18-2.42-3.94S1081,415.44,1081,415.44Z"/><path class="cls-11" d="M1106.88,447.31a6.17,6.17,0,0,0-4.15,2.19,27.78,27.78,0,0,1,.23-6,2.62,2.62,0,0,1,.82-1.68,1.08,1.08,0,0,1,.83,0l.11,0A24.64,24.64,0,0,1,1106.88,447.31Z"/><path class="cls-17" d="M1148.25,516.29c-5.26.27-8.86-7.89-11.08-8a13.62,13.62,0,0,0-1.94.22,38.53,38.53,0,0,1,4.78,12.41c3.15,15.76-3.5,30.37-14.85,32.65-11.05,2.21-22.48-8.08-26-23.14-.1-.42-.19-.85-.27-1.28a38.42,38.42,0,0,1-.39-13.21s0,0,0,0a7.43,7.43,0,0,0-1.06.34c-2,1-2.18,9.88-7.15,11.65s-8.31-7.74-2.4-15.15c3.61-4.52,10-6.7,14.43-7.71a20.79,20.79,0,0,1,3.16-4l.13-.14a12.87,12.87,0,0,1-6.52-8.82,13.32,13.32,0,0,1-.18-3.92h0a6.55,6.55,0,1,1,7.15-10.18,13.4,13.4,0,0,1,3.18-1.08,12.62,12.62,0,0,1,3-.24,6.55,6.55,0,1,1,10.77,6.49,13,13,0,0,1,1.44,3.87,12.88,12.88,0,0,1-2.24,10.16,21,21,0,0,1,5.36,2.83c4.45-.85,11.72-1.55,17.1,1.42C1152.94,506,1153.51,516,1148.25,516.29Z"/><path class="cls-18" d="M1099.16,530.43c-.1-.42-.19-.85-.27-1.28a38.42,38.42,0,0,1-.39-13.21,2.1,2.1,0,0,1,2.51-.86c2.17,1,1.83,11.44,5.15,13.85C1108.62,530.71,1102.47,530.73,1099.16,530.43Z"/><path class="cls-13" d="M1111.78,499.35a36.82,36.82,0,0,1-6.29,1.66l.13-.14a12.87,12.87,0,0,1-6.52-8.82,13.32,13.32,0,0,1-.18-3.92h0c.13-.05.3,0,.52.33.82,1.18,5.3,10.67,12.37,9.59C1111.78,498,1113.63,498.66,1111.78,499.35Z"/><path class="cls-18" d="M1115.14,477.44s1.66-3.09,4.12-2.29,2.8,4.35,1.2,5.32A15.07,15.07,0,0,0,1115.14,477.44Z"/><path class="cls-18" d="M1103.58,479.25s-3.54-1.64-5.15.25,1.61,4.3,1.61,4.3S1101.58,480.6,1103.58,479.25Z"/><path class="cls-10" d="M1105,496.59l-1.14,4.23s-4-1.46-6.09-2.24c-.62-.24-1-.4-1-.4-1.65-.64-3.62-1.47-5.76-2.37h0c-3.66-1.61-7.75-3.49-11.13-5.36a33,33,0,0,1-5.74-3.91,4.72,4.72,0,0,1-.38-.39c-3.11-3.24-6-11.66-7.8-20.46-.25-1.21-.48-2.42-.71-3.6a85.89,85.89,0,0,1-1.39-12.26,33.66,33.66,0,0,1,.18-5.68,14,14,0,0,1,.25-1.57c1.66-8.86,6.29-9.29,6.29-9.29a2.91,2.91,0,0,1,.32,0c.79,0,1.49.67,2.14,1.83a28.34,28.34,0,0,1,2.22,6.38c1,4.26,2,9.7,2.74,15.09.45,2.95.86,5.9,1.32,8.64.24,1.65.49,3.22.74,4.65a41.93,41.93,0,0,0,1.49,6.43,15.06,15.06,0,0,0,3.15,4.08,140,140,0,0,0,10.76,9.71c1.53,1.29,3,2.47,4.21,3.45A29,29,0,0,0,1105,496.59Z"/><path class="cls-11" d="M1075.82,441.52c-5.89-2.77-11.51,1.05-11.51,1.05,1.71-9,6.56-9.39,6.56-9.39C1072.87,432.77,1074.46,436.28,1075.82,441.52Z"/><path class="cls-10" d="M1102.31,495.65a27.36,27.36,0,0,0,3.83,1.22c1.39.24,3.53-.45,5.28.7s3,1.91,3,1.91.43.65-.51.91c-.53.15-3.22-1.55-3.34-1.1s1.72,1.48,2.78,1.53,3,1,3,1.68-3.14,2.32-5,2.2-5.61-3.35-6.56-3.58-5-1.83-5-1.83Z"/><path class="cls-13" d="M1067.63,626.42h-20.69a11.36,11.36,0,0,1,.58-5.55c1-2.29,2.85-3.43,2.47-6.21a6.68,6.68,0,0,0,6.11,2.26c.37.59,2.51,4.08,3.73,5S1067.21,622.5,1067.63,626.42Z"/><g id="man"><path class="cls-19" d="M1268,637.55s4,3.72,3.22,6.36-4.4,4.4-4.89,7.62-2.44,5-4.2,5h-8.39s-1.29-2.27,1.84-3,4.3-4.47,4.11-8a62.35,62.35,0,0,1,.29-8.21l6.65-1.57Z"/><path class="cls-19" d="M1218,656.16a9.61,9.61,0,0,1-2.47.36h-20.29c.1-.65.63-2.52,3.6-3,3.51-.57,9.58-2.61,10.93-7.09,0-.15.08-.29.12-.44,1.07-4.79,8.89,1.46,8.89,1.46s0,.2.06.52C1219,649.73,1219.48,655.41,1218,656.16Z"/><path class="cls-8" d="M1199.76,528s1.19,14.82,2.59,32.64c1.89,24.19,4.17,53.92,4.4,59.55.39,9.78,2,25.42,2,25.42s3.71,3.71,11.14,2.15a256,256,0,0,0,8.51-46l.09-1.16c1.76-24,4.5-74.69,4.5-74.69Z"/><path class="cls-8" d="M1199.76,528s1.19,14.82,2.59,32.64l26,41.16.09-1.16c1.76-24,4.5-74.69,4.5-74.69Z"/><path class="cls-8" d="M1205.19,529.79s21.4,53.67,35.48,78.89,18.48,32.26,18.48,32.26,8.06-3.22,8.8-5.42c0,0-5.39-48.69-14.81-60.56-5.33-6.71-11.59-26.84-11.88-33.88s-1.91-21-1.91-21Z"/><path class="cls-10" d="M1163.17,522.36s-7.55,3.63-8.57,4.56-3.53,5.5-3.33,5.85.56.45,1.25,0,2.61-2.45,2.68-2.08-5.13,6.48-4.21,7.78,6.13.91,9.11-1.21,5.94-9.89,6.39-10.32C1170.29,523.31,1163.17,522.36,1163.17,522.36Z"/><path class="cls-14" d="M1162.83,526.25c-2.1-1.82-2.15-2.29-2.15-2.29s13.39-23.16,14.56-25.39,8.34-37,8.34-37l24.82-7.2s-17.49,45.21-20.54,50.8c-5,9.23-21.52,22.82-21.52,22.82A7.77,7.77,0,0,1,1162.83,526.25Z"/><path class="cls-10" d="M1195.75,445.3s-8.73,15.37-17.27,17.38c0,0,.36-5.17,2.44-8.7-.86-1-1.6-1.92-2.25-2.75a50.36,50.36,0,0,1-3.17-4.44l2.9-7.79,2-5.29a25.87,25.87,0,0,0,3.07,4.43A20.94,20.94,0,0,0,1195.75,445.3Z"/><path class="cls-20" d="M1183.43,438.14s1,7.7-4.76,13.09a50.36,50.36,0,0,1-3.17-4.44l2.9-7.79A16.41,16.41,0,0,1,1183.43,438.14Z"/><path class="cls-10" d="M1173.2,447.93s13-5.09,9.75-13.17-3.82-14.18-12.3-11.27-8.82,6.65-8.38,9.61S1169.72,449,1173.2,447.93Z"/><path class="cls-11" d="M1240.62,524.17c-5.27,7.57-44.63,17.68-44.16,12.44a57.23,57.23,0,0,0,0-10.33q-.15-1.68-.42-3.57a82.14,82.14,0,0,0-8.67-26c-.4-.77-.81-1.55-1.24-2.33a79.52,79.52,0,0,1-5.46-12.26c-2.73-7.88-3.83-15.43-2.45-20.35a.64.64,0,0,1,0-.07c8.23-3.81,11.42-18.56,11.42-18.56s28.07,5,43.8,42.45c0,0,1.51,4.11,3.23,9.69,2.1,6.76,4.51,15.68,4.93,22C1241.81,520.36,1241.56,522.81,1240.62,524.17Z"/><path d="M1184.83,419.75c.09-.18.35-.37,1-.57a2.76,2.76,0,0,0-1.31-.05c-.37-.89-1.26-2.42-2.93-2.43a2.05,2.05,0,0,1,1.31,1.21c-2.29-1.45-6.53-1.87-17.12,1.66-14,4.65-7,12.75-4.87,13.4s6-3.52,9.51-4.09,5.4,4.31,6.74,4.72.57-.71,2-1.82,2.2,1.5,2.17,3.34,2.7,3.58,2.7,3.58l1.6-2.93c1.6-2.94,1.16-13.59-.37-15.51Z"/><path class="cls-14" d="M1241.61,517.34c-33.87-10.22-39.26-50.6-39.26-50.6s19.28,14.73,34.33,28.56C1238.78,502.06,1241.19,511,1241.61,517.34Z"/><path class="cls-10" d="M1250.9,518.67a68,68,0,0,0-.58,7.45c.18,1,1.4,4.16,1.71,4.17s1.22.06,1.2-.58-.45-1.24-.18-1.14.35,2.53,1.57,2.47,4.82-1.42,4.67-4.23-4-8-4.07-8.42C1254.45,514.43,1250.9,518.67,1250.9,518.67Z"/><path class="cls-11" d="M1252.93,519.75c-2.69,1.23-3.69,0-3.69,0s-15.65-26.14-17.3-28.24-30.55-14.5-30.55-14.5-11.76-4.5-12.22-11.63c-.41-6.2,3.11-10,7-12.31a13,13,0,0,1,14.62.95c9.48,7.36,28.27,22.17,31.3,26.18,6.73,8.94,14.19,36.95,14.19,36.95A9.28,9.28,0,0,1,1252.93,519.75Z"/><path class="cls-21" d="M1185.64,537.47l-7.05,7-.1-.06-10.57-6.63s5.47,1.76,6.21,1.56,8.34-2.82,10.14-2.61a.79.79,0,0,1,.27.08Z"/><path class="cls-22" d="M1178.27,546.42c-.28-.06-1.12-.26-2.26-.55-3.28-.84-9.07-2.45-11.36-3.78-2.05-1.18-12.88-7.48-20.35-11.91a13.84,13.84,0,0,1,8.38-1.5c8.72,5.11,20.1,11.83,21.49,12.81,2.29,1.61,5.42,3.56,5.42,3.56a1.33,1.33,0,0,1,0,.22C1179.44,545.7,1179.11,546.6,1178.27,546.42Z"/><path class="cls-23" d="M1178.27,546.42c-.28-.06-1.12-.26-2.26-.55-3.28-.84-9.07-2.45-11.36-3.78-2.05-1.18-12.88-7.48-20.35-11.91-3.74-2.22-6.64-4-7.15-4.36-1.52-1.17-4.45-4.09-3.73-4.65s2.12,0,2.65-.07h0c.13,0,.33-.05.61-.07a10.52,10.52,0,0,1,5.85,1.72l10.13,5.94c8.72,5.11,20.1,11.83,21.49,12.81,2.29,1.61,5.42,3.56,5.42,3.56a1.33,1.33,0,0,1,0,.22C1179.44,545.7,1179.11,546.6,1178.27,546.42Z"/><path class="cls-21" d="M1178.27,546.42c-.28-.06-1.12-.26-2.26-.55a3.35,3.35,0,0,0-.76-2.34l4.29,1.74C1179.44,545.7,1179.11,546.6,1178.27,546.42Z"/><g class="cls-24"><path class="cls-25" d="M1169,540.89h0a.14.14,0,0,1,0-.19l.07-.13a.15.15,0,0,1,.2-.05h0a.14.14,0,0,1,0,.19l-.08.13A.14.14,0,0,1,1169,540.89Z"/><path class="cls-25" d="M1168.34,540.52h0a.15.15,0,0,1,0-.2l.07-.12a.15.15,0,0,1,.2-.05h0a.13.13,0,0,1,0,.19l-.08.13A.14.14,0,0,1,1168.34,540.52Z"/><path class="cls-25" d="M1167.71,540.15h0a.15.15,0,0,1,0-.2l.08-.13a.14.14,0,0,1,.19-.05h0a.15.15,0,0,1,0,.2l-.08.13A.14.14,0,0,1,1167.71,540.15Z"/><path class="cls-25" d="M1167.08,539.78h0a.16.16,0,0,1,0-.2l.08-.13a.15.15,0,0,1,.19-.05h0a.15.15,0,0,1,0,.2l-.07.13A.16.16,0,0,1,1167.08,539.78Z"/><path class="cls-25" d="M1166.46,539.4h0a.13.13,0,0,1,0-.19l.07-.13a.16.16,0,0,1,.2-.05h0a.17.17,0,0,1,0,.2l-.08.12A.14.14,0,0,1,1166.46,539.4Z"/><path class="cls-25" d="M1165.83,539h0a.13.13,0,0,1,0-.19l.07-.13a.15.15,0,0,1,.2-.05h0a.16.16,0,0,1,0,.2l-.08.12A.14.14,0,0,1,1165.83,539Z"/><path class="cls-25" d="M1165.2,538.66h0a.13.13,0,0,1,0-.19l.08-.13a.13.13,0,0,1,.19-.05h0a.14.14,0,0,1,0,.19l-.08.13A.13.13,0,0,1,1165.2,538.66Z"/><path class="cls-25" d="M1164.57,538.29h0a.14.14,0,0,1,0-.19l.08-.13a.14.14,0,0,1,.19-.05h0a.14.14,0,0,1,0,.19l-.07.13A.15.15,0,0,1,1164.57,538.29Z"/><path class="cls-25" d="M1163.94,537.92h0a.14.14,0,0,1,0-.19l.07-.13a.14.14,0,0,1,.19-.05h0a.14.14,0,0,1,0,.19l-.07.13A.15.15,0,0,1,1163.94,537.92Z"/><path class="cls-25" d="M1156.55,533.55h0a.14.14,0,0,1,0-.19l.08-.13a.13.13,0,0,1,.19-.05h0a.13.13,0,0,1,0,.19l-.08.13A.13.13,0,0,1,1156.55,533.55Z"/><path class="cls-25" d="M1155.92,533.18h0a.15.15,0,0,1-.05-.2l.08-.12a.13.13,0,0,1,.19-.05h0a.13.13,0,0,1,0,.19l-.08.13A.13.13,0,0,1,1155.92,533.18Z"/><path class="cls-25" d="M1155.29,532.81h0a.16.16,0,0,1,0-.2l.08-.13a.16.16,0,0,1,.19-.05h0a.15.15,0,0,1,0,.2l-.07.13A.16.16,0,0,1,1155.29,532.81Z"/><path class="cls-25" d="M1154.67,532.44h0a.15.15,0,0,1-.05-.2l.07-.13a.16.16,0,0,1,.2-.05h0a.16.16,0,0,1,0,.2l-.08.13A.15.15,0,0,1,1154.67,532.44Z"/><path class="cls-25" d="M1154,532.06h0a.13.13,0,0,1,0-.19l.07-.13a.16.16,0,0,1,.2,0h0a.15.15,0,0,1,0,.2l-.08.13A.14.14,0,0,1,1154,532.06Z"/><path class="cls-25" d="M1153.41,531.69h0a.13.13,0,0,1-.05-.19l.08-.13a.13.13,0,0,1,.19,0h0a.15.15,0,0,1,0,.2l-.08.12A.13.13,0,0,1,1153.41,531.69Z"/><path class="cls-25" d="M1152.78,531.32h0a.14.14,0,0,1,0-.19l.08-.13a.14.14,0,0,1,.19,0h0a.14.14,0,0,1,0,.19l-.07.13A.15.15,0,0,1,1152.78,531.32Z"/><path class="cls-25" d="M1152.16,531h0a.13.13,0,0,1-.05-.19l.07-.13a.15.15,0,0,1,.2,0h0a.16.16,0,0,1,0,.19l-.08.13A.14.14,0,0,1,1152.16,531Z"/><path class="cls-25" d="M1151.53,530.58h0a.14.14,0,0,1,0-.19l.07-.13a.15.15,0,0,1,.2,0h0a.15.15,0,0,1,0,.19l-.08.13A.14.14,0,0,1,1151.53,530.58Z"/><path class="cls-25" d="M1149.1,529.15h0a.15.15,0,0,1,0-.2l.08-.13a.14.14,0,0,1,.19-.05h0a.15.15,0,0,1,0,.2l-.08.13A.15.15,0,0,1,1149.1,529.15Z"/><path class="cls-25" d="M1150.33,529.87h0a.14.14,0,0,1,0-.19l.07-.13a.15.15,0,0,1,.2,0h0a.15.15,0,0,1,0,.19l-.08.13A.14.14,0,0,1,1150.33,529.87Z"/><path class="cls-25" d="M1148.47,528.77h0a.13.13,0,0,1,0-.19l.08-.13a.13.13,0,0,1,.19-.05h0a.15.15,0,0,1,0,.2l-.08.12A.13.13,0,0,1,1148.47,528.77Z"/><path class="cls-25" d="M1147.84,528.4h0a.14.14,0,0,1,0-.19l.08-.13a.14.14,0,0,1,.19-.05h0a.14.14,0,0,1,0,.19l-.07.13A.15.15,0,0,1,1147.84,528.4Z"/><path class="cls-25" d="M1147.22,528h0a.13.13,0,0,1,0-.19l.07-.13a.15.15,0,0,1,.2-.05h0a.15.15,0,0,1,0,.19l-.08.13A.14.14,0,0,1,1147.22,528Z"/><path class="cls-25" d="M1146.59,527.66h0a.14.14,0,0,1,0-.19l.07-.13a.15.15,0,0,1,.2-.05h0a.15.15,0,0,1,0,.19l-.08.13A.14.14,0,0,1,1146.59,527.66Z"/><path class="cls-25" d="M1146,527.29h0a.14.14,0,0,1,0-.19l.08-.13a.13.13,0,0,1,.19-.05h0a.13.13,0,0,1,0,.19l-.08.13A.13.13,0,0,1,1146,527.29Z"/><path class="cls-25" d="M1145.33,526.92h0a.15.15,0,0,1,0-.19l.08-.13a.14.14,0,0,1,.19-.05h0a.13.13,0,0,1,0,.19l-.07.13A.15.15,0,0,1,1145.33,526.92Z"/><path class="cls-25" d="M1144.71,526.55h0a.15.15,0,0,1,0-.2l.07-.12a.15.15,0,0,1,.2-.05h0a.14.14,0,0,1,0,.19l-.07.13A.14.14,0,0,1,1144.71,526.55Z"/><path class="cls-25" d="M1144.08,526.18h0a.15.15,0,0,1,0-.2l.07-.13a.15.15,0,0,1,.2,0h0a.14.14,0,0,1,0,.19l-.08.13A.15.15,0,0,1,1144.08,526.18Z"/><path class="cls-25" d="M1143.46,525.81h0a.14.14,0,0,1,0-.19l.08-.13a.14.14,0,0,1,.19,0h0a.14.14,0,0,1,0,.19l-.07.13A.15.15,0,0,1,1143.46,525.81Z"/><path class="cls-25" d="M1142.83,525.44h0a.14.14,0,0,1,0-.19l.07-.13a.14.14,0,0,1,.19,0h0a.14.14,0,0,1,0,.19l-.07.13A.15.15,0,0,1,1142.83,525.44Z"/><path class="cls-25" d="M1142.21,525.07h0a.14.14,0,0,1,0-.19l.07-.13a.15.15,0,0,1,.2,0h0a.15.15,0,0,1,0,.19l-.08.13A.14.14,0,0,1,1142.21,525.07Z"/><path class="cls-25" d="M1137.38,521.84a.2.2,0,0,1-.24.06.09.09,0,0,1-.06,0l-1-.78c.13,0,.33-.05.61-.07l.65.51A.22.22,0,0,1,1137.38,521.84Z"/><rect class="cls-25" x="1153.08" y="530.89" width="0.75" height="1.46" rx="0.38" transform="translate(430.83 -512.84) rotate(30.58)"/><rect class="cls-25" x="1154.32" y="531.62" width="0.75" height="1.46" rx="0.38" transform="translate(431.43 -513.41) rotate(30.58)"/><path class="cls-25" d="M1162.1,536.83h0a.14.14,0,0,1,0-.19l.08-.13a.13.13,0,0,1,.19,0h0a.13.13,0,0,1,0,.19l-.08.13A.13.13,0,0,1,1162.1,536.83Z"/><path class="cls-25" d="M1161.47,536.46h0a.15.15,0,0,1,0-.19l.08-.13a.14.14,0,0,1,.19,0h0a.13.13,0,0,1,0,.19l-.07.13A.15.15,0,0,1,1161.47,536.46Z"/><path class="cls-25" d="M1160.84,536.09h0a.17.17,0,0,1,0-.2l.08-.12a.14.14,0,0,1,.19,0h0a.13.13,0,0,1,0,.19l-.07.13A.15.15,0,0,1,1160.84,536.09Z"/><path class="cls-25" d="M1160.22,535.72h0a.15.15,0,0,1,0-.2l.07-.13a.17.17,0,0,1,.2,0h0a.16.16,0,0,1,0,.2l-.08.13A.15.15,0,0,1,1160.22,535.72Z"/><path class="cls-25" d="M1159.59,535.35h0a.15.15,0,0,1,0-.2l.08-.13a.14.14,0,0,1,.19,0h0a.15.15,0,0,1,0,.2l-.08.13A.14.14,0,0,1,1159.59,535.35Z"/><path class="cls-25" d="M1159,535h0a.13.13,0,0,1,0-.19l.08-.13a.14.14,0,0,1,.19,0h0a.15.15,0,0,1,0,.2l-.08.13A.14.14,0,0,1,1159,535Z"/><path class="cls-25" d="M1158.33,534.6h0a.14.14,0,0,1,0-.19l.08-.13a.14.14,0,0,1,.19,0h0a.15.15,0,0,1,0,.2l-.07.12A.15.15,0,0,1,1158.33,534.6Z"/><path class="cls-25" d="M1157.71,534.23h0a.13.13,0,0,1,0-.19l.07-.13a.15.15,0,0,1,.2,0h0a.15.15,0,0,1,0,.19l-.08.13A.14.14,0,0,1,1157.71,534.23Z"/><path class="cls-25" d="M1157.08,533.86h0a.13.13,0,0,1,0-.19l.07-.13a.15.15,0,0,1,.2,0h0a.14.14,0,0,1,0,.19l-.08.13A.13.13,0,0,1,1157.08,533.86Z"/></g><path class="cls-25" d="M1153.21,535.62a.5.5,0,0,0,.53-.75,2.89,2.89,0,0,0-1-1.07c-1-.55-1.23,1.19-.92,1.39A5.62,5.62,0,0,0,1153.21,535.62Z"/><path class="cls-25" d="M1153.12,533.55l-1.17,2a10.72,10.72,0,0,1-2.75-1.13,8.36,8.36,0,0,1-1.86-1.35,3,3,0,0,1-.28-.31l1.22-2.07a1,1,0,0,1,.44.05,19.72,19.72,0,0,1,4.24,2.65Z"/><path class="cls-21" d="M1148.72,530.72l-1.38,2.33a3,3,0,0,1-.28-.31l1.22-2.07A1,1,0,0,1,1148.72,530.72Z"/><path class="cls-21" d="M1175.3,543.18a19.4,19.4,0,0,1,6.28,2.5l-2.77,0-3.56-2.11S1175,543.29,1175.3,543.18Z"/><path class="cls-25" d="M1167.06,535.15s-2.49,1.72-2.93,2a2.46,2.46,0,0,1-1.13.17h0l-4.29-.73s-4.58-2.67-5.57-3.28h0l-.17-.11c-.29-.21-.38-.39-.29-.45s7.63,2.94,8.46,3.27h0c.82.33,1,.16,1,.16l4.15-1.14a.4.4,0,0,1,.22,0A2,2,0,0,1,1167.06,535.15Z"/><path class="cls-25" d="M1166.51,535c-1.13.35-4.27,1.31-4.54,1.34s-7.14-2.44-8.83-3h0l-.17-.11c-.29-.21-.38-.39-.29-.45s7.63,2.94,8.46,3.27,1,.17,1,.17l4.15-1.14A.4.4,0,0,1,1166.51,535Z"/><path class="cls-25" d="M1167.06,535.15s-2.49,1.72-2.93,2a2.46,2.46,0,0,1-1.13.17h0a9.34,9.34,0,0,1-1.84-1.29c.82.33,1,.16,1,.16l4.15-1.14a.4.4,0,0,1,.22,0A2,2,0,0,1,1167.06,535.15Z"/><path class="cls-15" d="M1178.69,544.55l-10.77-6.73s5.56,1.81,6.31,1.61,8.43-2.77,10.26-2.54c-2.08.84-7,2.92-7.28,4.07S1178.07,543.76,1178.69,544.55Z"/></g><path d="M947.79,413.23c0-.6-.48-7-10.25-7.35,0,0,4.8.58,5.63,2.69,0,0-3.27-2.61-5.93-1.77s-4.23,5.5-4.24,7,1.46,6.48,3.15,6.9a5.05,5.05,0,0,0,2.05,0,23,23,0,0,0-1.31,2.34c-3.9,8,.12,15.82,3.42,15,2.11-.56,2.71,3,2.71,3l20.56-16.64S956,408.83,947.79,413.23Z"/><path class="cls-8" d="M955,648.89l-4.37,1.63s-19-26.31-21.3-49.45a35.12,35.12,0,0,1,.62-11.83s-.18-1.06-.51-2.93c-.15-.87-.33-1.93-.54-3.13-.62-3.53-1.47-8.37-2.44-13.87-2.23-12.67-5.12-28.86-7.37-40.76l1.18-.38,12.73-4.1,2.63-8.36,9.48-2.5s2.12,4.15,4,23.71c.35,2.57.67,5.4.91,8.47a167.64,167.64,0,0,1-.91,34.27q-.65,5.12-1.66,10.52a47,47,0,0,0-.36,10.39C948,619.49,955,648.89,955,648.89Z"/><path class="cls-8" d="M950,545.39l-20.59,40.92c-.15-.87-.33-1.93-.54-3.13-.62-3.53-1.47-8.37-2.44-13.87-2.23-12.67-5.12-28.86-7.37-40.76l1.18-.38,12.73-4.1,2.63-8.36,9.48-2.5s2.12,4.15,4,23.71C949.42,539.49,949.74,542.32,950,545.39Z"/><path class="cls-8" d="M940.92,518.47l-.48-4.09c-8,2.12-29.31-5.92-29.31-5.92s-7.73,6.79-6.71,23.09c.49,8,1.4,41.75,2.34,51.75.34,3.62.64,6.2.76,7.23h0a1.49,1.49,0,0,1-.23.89,45.57,45.57,0,0,0-3.49,7.34c-9.28,24.73,1.42,55.18,1.42,55.18l2.78-1.12s6.1-33.89,11-48.86a30.16,30.16,0,0,1,2.38-5.73c2.16-3.48,4.16-9.15,6-15.91,3.43-12.76,6.19-29.37,8-42.19C935.69,540.15,940.92,518.47,940.92,518.47Z"/><path class="cls-12" d="M1003.81,513.25c-1.72,1.52-6.28-3.7-6.91-4.4l-.06-.1,1.39-3.86s6-.23,7,.76S1005.69,511.63,1003.81,513.25Z"/><path class="cls-12" d="M998.23,504.89l-.6,4s-.26,0-.73,0c-1.45-.1-5-.3-9-.73-6-.59-13.15-1.65-16-3.4-4.32-2.64-11.43-10.74-16-18.83a3.57,3.57,0,0,1-.33-.6c-2.42-4.29-4.1-8.56-4.23-12a17.05,17.05,0,0,1,.56-5.42,13.72,13.72,0,0,1,2.44-4.89,2.74,2.74,0,0,1,.47-.56,11.5,11.5,0,0,1,3.13-2.68c.8-.33,1.66.07,2.55,1v0a15.14,15.14,0,0,1,2.28,3.37.18.18,0,0,1,.06.1c.17.3.34.63.53,1a1.18,1.18,0,0,1,.14.23c.36.76.72,1.56,1.09,2.38,4.06,8.86,8.39,22.27,12,26.27,1.55,1.72,8.66,5.09,14.31,7.6C994.92,503.57,998.23,504.89,998.23,504.89Z"/><path class="cls-10" d="M956.17,468.91a24.86,24.86,0,0,1-9.19,2.15c-13.73.75-16.84-11.28-17.41-19.26a11.53,11.53,0,0,1,4.71-.6c1,.05,2,.15,2.83.26,1.68-.88,4.69-5.14,6.44-12.27l.59.28,9.9,4.65s-1,3.23-1.83,6.31c-.61,2.41-1,4.74-.68,5.4l1.25.51h0A67.65,67.65,0,0,1,956.17,468.91Z"/><path class="cls-11" d="M959.6,477.91c-.1.27-.21.54-.34.82-3.47,7.48-9.91,38.49-9.91,38.49.92,5.58-41.9-1.09-42-6.17-1.51-5.38,5.35-14,9.22-18.37a12.12,12.12,0,0,0,1.3-1.74,12.25,12.25,0,0,0,1.75-5.12,179,179,0,0,0,.54-18h0c.75-.56,1.48-1.08,2.16-1.57A19.65,19.65,0,0,0,925,464a4,4,0,0,0,1.27-2.49,13.31,13.31,0,0,0-.06-2.09c0-.33-.07-.67-.12-1a28.63,28.63,0,0,0-2-6.64c3.68-1.49,10.23-.6,10.23-.6s0,.36,0,1c0,2.39,0,8.53.77,9.69,1,1.45,18.5,7.79,19.42,5.83s-1.58-11-1.68-11.33h0c5.88,2.31,8,4.25,8,4.25C957.22,462.88,962.34,470.65,959.6,477.91Z"/><path class="cls-12" d="M954,444.13s-1,3.22-1.83,6.3c-5.79-1.61-7.54-7.7-8.07-11Z"/><path class="cls-10" d="M955.26,447.53s-13.85-3.2-11.72-11.79,1.77-14.8,10.71-13.12,9.83,5.39,9.81,8.43S958.92,448.15,955.26,447.53Z"/><path d="M964.84,426.17c-1.49-3.11-3.24-2.95-4.33-2.39a9.94,9.94,0,0,0-12.89-1.11,16.9,16.9,0,0,1-7.78,8.36s2.12,2.18,8.29,2.13a10,10,0,0,0,5.5-2.07,33.08,33.08,0,0,1-7.22,5.39c7.72-1.48,12.89-10.41,13.42-11.36a11,11,0,0,1,2,4.75c.15,2.36-.67,6.94.69,7.12C962.53,437,967.08,430.84,964.84,426.17Z"/><path class="cls-11" d="M960.76,460.58s3.33,5.82,3.83,7.32c0,0-4.32-.17-6.07,3.16C958.52,471.06,958.1,461.37,960.76,460.58Z"/><path class="cls-14" d="M937.82,506.8c-8.44-.09-15.59-8.86-20-15.86a12.25,12.25,0,0,0,1.75-5.12,179,179,0,0,0,.54-18h0c.75-.56,1.48-1.08,2.16-1.57A19.65,19.65,0,0,0,925,464C931.87,475.71,949.27,506.92,937.82,506.8Z"/><path class="cls-26" d="M921.39,656.22h-22a12,12,0,0,1,.62-5.89c1.1-2.44,2.83-3.55,2.41-6.51a8,8,0,0,0,6.86,2.63c.39.63,2.51,4,3.81,4.94S921,652.06,921.39,656.22Z"/><path class="cls-13" d="M968.61,656.22h-22s-.82-3.51.62-5.89c1.28-2.12.79-3.32-.16-5.07a8.57,8.57,0,0,0,3.71.7,7.75,7.75,0,0,0,3.27-1.15,78.84,78.84,0,0,0,6.26,6.58C961.76,652.43,968.17,652.06,968.61,656.22Z"/><polygon class="cls-9" points="987.63 493.93 966.24 521.76 967.98 522.98 989.63 495.15 987.63 493.93"/><polygon class="cls-23" points="989.63 495.15 1011.35 495.15 988.62 522.98 967.98 522.98 989.63 495.15"/><polygon class="cls-27" points="987.63 493.93 1009.21 493.93 1010.42 495.15 989.63 495.15 987.63 493.93"/><polygon class="cls-16" points="988.21 494.28 1009.6 494.28 1009.94 493.93 987.63 493.93 988.21 494.28"/><path class="cls-10" d="M985.17,512c-.06-1.11-1.52-1.06-2.63-1.06a21.6,21.6,0,0,1-6.35-.77s5.3-.08,4.17-1.75c-.2-.31-2.84-.08-5.78-.08a10.24,10.24,0,0,0-4,1.73c-2.13-.28-4.07-.69-4.7-.83h0c-1.45-.79-3.2-1.75-5.05-2.81a147.77,147.77,0,0,1-13.09-8.13,16.13,16.13,0,0,1-4.06-3.66,45.5,45.5,0,0,1-2.78-6.45c-.52-1.45-1.09-3-1.65-4.72-1-2.78-2-5.78-3-8.79-1.85-5.49-3.84-11-5.72-15.27a29.58,29.58,0,0,0-3.54-6.24c-.89-1.09-1.75-1.65-2.57-1.52a1.64,1.64,0,0,0-.33.1s-4.76,1.32-4.83,10.9a16.21,16.21,0,0,0,0,1.69,35.66,35.66,0,0,0,.9,6,90.08,90.08,0,0,0,3.76,12.55c.47,1.19.93,2.42,1.42,3.64,3.57,8.85,8.17,17.11,12,19.92.17.13.3.23.46.33a34.48,34.48,0,0,0,6.75,3c3.89,1.32,8.52,2.51,12.65,3.5h0c2.42.53,4.63,1,6.48,1.39,0,0,.3.08.84.18l.25,0a74.87,74.87,0,0,1,8.76,2.68,8.74,8.74,0,0,0,9.84-2.12A5.5,5.5,0,0,0,985.17,512Z"/><path class="cls-11" d="M930.48,459.47c-6.36-1.76-11.27,3.21-11.27,3.21.08-9.57,4.84-10.88,4.84-10.88C926,451,928.19,454.33,930.48,459.47Z"/><path class="cls-17" d="M1054.11,576.86c-2.6-2.33-.46-7.85-1.45-8.94a10,10,0,0,0-1-.81,25.63,25.63,0,0,1-3.58,8.06c-5.9,8.87-15.86,12.62-22.25,8.36-6.22-4.13-6.77-14.31-1.36-23,.15-.25.3-.49.46-.73a25.39,25.39,0,0,1,6-6.38l0,0a4.39,4.39,0,0,0-.65-.33c-1.39-.5-5.65,3.61-8.81,2.11s-.27-7.52,6-8.23c3.81-.43,7.82,1.54,10.38,3.14a14.64,14.64,0,0,1,3.37-.41h.12a8.57,8.57,0,0,1,1.07-7.19,8.3,8.3,0,0,1,1.76-1.92v0a4.34,4.34,0,1,1,8.12-1.43,8.66,8.66,0,0,1,2,1,8.83,8.83,0,0,1,1.51,1.27,4.34,4.34,0,1,1,2,8.1,8.86,8.86,0,0,1-1.14,2.49,8.49,8.49,0,0,1-5.81,3.71,13.66,13.66,0,0,1,1.19,3.84c2.49,1.68,6.22,4.76,7.36,8.67C1061.15,574.21,1056.71,579.2,1054.11,576.86Z"/><path class="cls-28" d="M1024.46,560.51c.15-.25.3-.49.46-.73a25.39,25.39,0,0,1,6-6.38c.67,0,1.34.09,1.58.77.54,1.5-4.5,6.22-4.07,8.9C1028.76,565.06,1025.87,562.19,1024.46,560.51Z"/><path class="cls-28" d="M1044.93,551.83a23.21,23.21,0,0,1-3.72-2.17h.12a8.57,8.57,0,0,1,1.07-7.19,8.3,8.3,0,0,1,1.76-1.92v0c.08,0,.12.15.08.4-.16.93-2.51,7.48,1.32,10.29C1045.55,551.22,1046.12,552.38,1044.93,551.83Z"/><path class="cls-18" d="M1056.77,543.13s2.22-.68,3,.85-.72,3.35-1.93,3.06A9.82,9.82,0,0,0,1056.77,543.13Z"/><path class="cls-18" d="M1050.5,538.56s-.9-2.42-2.53-2.29-1.26,2.77-1.26,2.77A9.07,9.07,0,0,1,1050.5,538.56Z"/><path class="cls-15" d="M1000.1,562.59s-5.57-7.19-5.61-13.06.13-7.81,1.11-7.55a18,18,0,0,1,7,6.8c1.58,3.25,4.36,11.78,4.42,12.94S1000.1,562.59,1000.1,562.59Z"/><path class="cls-29" d="M1000.41,560.29s-3.57-5-3.7-8.93-.07-5.28.54-5.08a12.56,12.56,0,0,1,4.41,4.72,61.94,61.94,0,0,1,3,8.83C1004.68,560.62,1000.41,560.29,1000.41,560.29Z"/><path class="cls-15" d="M1009.1,559.59s-2.68-9.74-1.62-12.39,6.53-.88,7.15,1,.24,9.76.24,9.76Z"/><path class="cls-23" d="M1009.81,548.39s-.39,7.72,1,10.72l2.6-.74s.4-8.61,0-9.19S1009.81,548.39,1009.81,548.39Z"/><path class="cls-15" d="M1007.33,547.75s9,6,9.72,5.33-2-6.67-3.07-7.21S1007.26,544.21,1007.33,547.75Z"/><rect class="cls-30" x="990.8" y="555.44" width="122.55" height="101.05" transform="translate(2104.14 1211.94) rotate(180)"/><rect class="cls-31" x="1052.07" y="555.44" width="122.55" height="101.05"/><polygon class="cls-32" points="1174.63 555.44 1174.63 624.76 1052.07 656.5 1052.07 555.44 1174.63 555.44"/><polygon class="cls-31" points="1052.07 555.44 1076.32 582.03 1197.26 582.03 1174.63 555.44 1052.07 555.44"/><polygon class="cls-31" points="990.87 630.87 1010.29 630.87 1008.58 625.4 1010.29 621.5 990.87 621.5 990.87 630.87"/><polygon class="cls-32" points="1174.65 648.2 1155.23 648.2 1156.94 642.74 1155.23 638.83 1174.65 638.83 1174.65 648.2"/><polygon class="cls-33" points="1052.07 566.87 1026.24 592.7 990.87 592.7 990.87 555.44 1052.07 555.44 1052.07 566.87"/><polygon class="cls-31" points="990.79 555.44 963.24 582.03 1024.56 582.03 1052.07 555.44 990.79 555.44"/><path class="cls-23" d="M960.54,629.88l-2.24.43a4.91,4.91,0,0,1-5.74-3.88l-3.29-16.9a4.93,4.93,0,0,1,3.2-5.56,1.21,1.21,0,0,1-.05-.18l-.2-1a1.28,1.28,0,0,1,1-1.5l1-.19a1.28,1.28,0,0,1,1.5,1l.19,1s0,.09,0,.14v0a4.9,4.9,0,0,1,5.19,4l3.28,16.9A4.92,4.92,0,0,1,960.54,629.88Z"/><rect class="cls-23" x="950.48" y="609.24" width="12.08" height="11.83" transform="translate(-99.73 193.64) rotate(-10.99)"/><path class="cls-34" d="M955.94,603.25l-3.47.72a1.21,1.21,0,0,1-.05-.18l-.2-1a1.28,1.28,0,0,1,1-1.5l1-.19a1.28,1.28,0,0,1,1.5,1l.19,1S955.93,603.2,955.94,603.25Z"/><path class="cls-29" d="M1020.67,599s-1.47,2.07-2.82,2.09a9.88,9.88,0,0,1-3.39-1s-1.24-2.76-.4-3.84a1.8,1.8,0,0,1,1.72.28,3.7,3.7,0,0,1,.46.44,1.43,1.43,0,0,0,.7.48c1,.29,2.1-.4,2.53.27a5.07,5.07,0,0,0,.74.88A4.5,4.5,0,0,0,1020.67,599Z"/><path class="cls-29" d="M1001.51,613.91s5.2-12.59,14.55-12.83c0,0,8.62,1,9.1,12.83Z"/><path class="cls-34" d="M1013.49,601.47s3.75.83,4.91.34a1.17,1.17,0,0,0-1.41-1.35,3.29,3.29,0,0,1-2.19-.57C1014.21,599.59,1013.34,600.81,1013.49,601.47Z"/><path class="cls-34" d="M1016.76,599.11c-.24.18-1-2.54-1-2.54a3.7,3.7,0,0,1,.46.44,1.43,1.43,0,0,0,.7.48C1016.94,597.57,1017,598.93,1016.76,599.11Z"/><path class="cls-34" d="M1020.21,598.64a15.07,15.07,0,0,1-2,1.07c-.24,0,1.28-2,1.28-2A5.07,5.07,0,0,0,1020.21,598.64Z"/><path class="cls-34" d="M1006.59,610.39c-.1-.08,3.67-5.55,4.71-5.59s3.37,1.2,5.06,1.36,3.33-.32,3.65.68,1.2,4.54.66,5.1S1008.66,612.16,1006.59,610.39Z"/><path class="cls-34" d="M962.82,618.9a1.77,1.77,0,0,1-.6.67,1.81,1.81,0,0,1-.44.22,1.75,1.75,0,0,1-1.36-.11l-23.29-11.83a1.79,1.79,0,0,1-.78-2.39,1.75,1.75,0,0,1,1-.89,1.8,1.8,0,0,1,1.36.1L962,616.5A1.8,1.8,0,0,1,962.82,618.9Z"/><polygon class="cls-35" points="944.86 611.78 943.39 607.03 939.64 605.13 941.9 610.27 944.86 611.78"/><polygon class="cls-35" points="950.54 614.66 947.58 613.16 945.32 608.01 949.07 609.92 950.54 614.66"/><polygon class="cls-35" points="956.23 617.55 953.27 616.05 951 610.9 954.76 612.81 956.23 617.55"/><path class="cls-36" d="M962.22,619.57a1.81,1.81,0,0,1-.44.22,1.75,1.75,0,0,1-1.36-.11l-1.37-.69-2.26-5.15,3.75,1.91Z"/><path class="cls-34" d="M936.35,605.46s-.47-2.54-2.53-3.29c0,0,.24.29-.74.61s-.71,1-1.06,1.31A4.45,4.45,0,0,0,936.35,605.46Z"/><rect class="cls-37" x="935.57" y="604.85" width="1.28" height="0.7" rx="0.32" transform="translate(-27 1166.44) rotate(-63.11)"/><path class="cls-36" d="M962.72,618.85s2.32-1.11,4.14.11c0,0-.38,0-.05,1s-.39,1.15-.43,1.62A4.42,4.42,0,0,1,962.72,618.85Z"/><rect class="cls-38" x="962.65" y="618.17" width="0.7" height="1.28" rx="0.35" transform="translate(1541.68 1606.46) rotate(-153.09)"/><path class="cls-34" d="M993,619.08a1.7,1.7,0,0,1-.86.24,2,2,0,0,1-.49-.06,1.75,1.75,0,0,1-1.08-.83l-13.09-22.61a1.79,1.79,0,0,1,.66-2.43,1.77,1.77,0,0,1,2.43.65l13.08,22.61A1.78,1.78,0,0,1,993,619.08Z"/><polygon class="cls-35" points="981.78 603.32 983.14 598.54 981.03 594.9 980.12 600.45 981.78 603.32"/><polygon class="cls-35" points="984.98 608.84 983.32 605.97 984.23 600.42 986.33 604.06 984.98 608.84"/><polygon class="cls-35" points="988.17 614.36 986.51 611.49 987.42 605.94 989.52 609.58 988.17 614.36"/><path class="cls-35" d="M992.1,619.32a2,2,0,0,1-.49-.06,1.75,1.75,0,0,1-1.08-.83l-.77-1.32.91-5.55,2.1,3.64Z"/><path class="cls-31" d="M978.1,593.39s1-2.38-.33-4.13c0,0,0,.37-1,.1s-1.13.45-1.6.52A4.45,4.45,0,0,0,978.1,593.39Z"/><path class="cls-30" d="M977.58,593.45l0-.05a.32.32,0,0,1,.12-.44l.55-.32a.32.32,0,0,1,.44.12l0,0a.32.32,0,0,1-.12.44l-.55.32A.32.32,0,0,1,977.58,593.45Z"/><path class="cls-31" d="M992.91,619s2.55.33,3.41,2.34c0,0-.3-.22-.56.78s-1,.76-1.25,1.13A4.43,4.43,0,0,1,992.91,619Z"/><path class="cls-30" d="M992.6,619.41l0,.05a.33.33,0,0,0,.44.12l.55-.32a.33.33,0,0,0,.12-.44l0-.06a.32.32,0,0,0-.44-.11l-.56.32A.32.32,0,0,0,992.6,619.41Z"/><path class="cls-34" d="M950.63,625.43a1.77,1.77,0,0,1-.66-.61,1.85,1.85,0,0,1-.21-.45,1.73,1.73,0,0,1,.13-1.35l12.2-23.1a1.78,1.78,0,0,1,2.41-.74,1.78,1.78,0,0,1,.74,2.41L953,624.68A1.8,1.8,0,0,1,950.63,625.43Z"/><polygon class="cls-35" points="958.04 607.58 962.81 606.19 964.78 602.47 959.59 604.65 958.04 607.58"/><polygon class="cls-34" points="955.06 613.22 956.61 610.29 961.8 608.11 959.83 611.83 955.06 613.22"/><polygon class="cls-39" points="952.08 618.86 953.63 615.92 958.82 613.74 956.85 617.47 952.08 618.86"/><path class="cls-39" d="M950,624.82a1.85,1.85,0,0,1-.21-.45,1.73,1.73,0,0,1,.13-1.35l.71-1.36,5.19-2.18-2,3.72Z"/><path class="cls-35" d="M964.5,599.18s2.54-.43,3.32-2.48c0,0-.29.24-.59-.75s-1-.72-1.29-1.08A4.44,4.44,0,0,0,964.5,599.18Z"/><rect class="cls-30" x="964.4" y="598.41" width="0.7" height="1.28" rx="0.35" transform="translate(1944.94 25.6) rotate(117.83)"/><path class="cls-38" d="M950.68,625.33s1.08,2.34-.17,4.14c0,0,0-.38-1-.07s-1.15-.41-1.62-.45A4.45,4.45,0,0,1,950.68,625.33Z"/><rect class="cls-38" x="950.36" y="624.97" width="0.7" height="1.28" rx="0.32" transform="translate(-48.04 1171.28) rotate(-62)"/><path class="cls-34" d="M975,604.43s1.07,1.51,2,1.53a7.15,7.15,0,0,0,2.46-.7s.9-2,.29-2.78a1.31,1.31,0,0,0-1.25.2,2,2,0,0,0-.33.32,1.09,1.09,0,0,1-.51.35c-.7.21-1.53-.29-1.84.19a3.39,3.39,0,0,1-.54.64A2.17,2.17,0,0,1,975,604.43Z"/><path class="cls-34" d="M988.91,615.26s-3.77-9.13-10.55-9.3c0,0-6.26.69-6.61,9.3Z"/><path class="cls-35" d="M980.22,606.24s-2.72.6-3.56.25a.84.84,0,0,1,1-1,2.41,2.41,0,0,0,1.59-.42C979.7,604.87,980.33,605.76,980.22,606.24Z"/><path class="cls-35" d="M977.85,604.52c.18.13.71-1.84.71-1.84a2,2,0,0,0-.33.32,1.09,1.09,0,0,1-.51.35S977.68,604.39,977.85,604.52Z"/><path class="cls-35" d="M975.34,604.18a11.73,11.73,0,0,0,1.47.78c.17,0-.93-1.42-.93-1.42A3.39,3.39,0,0,1,975.34,604.18Z"/><path class="cls-35" d="M985.23,612.71c.07-.06-2.67-4-3.42-4.06s-2.45.87-3.67,1-2.42-.23-2.65.49-.87,3.3-.48,3.71S983.73,614,985.23,612.71Z"/><path class="cls-40" d="M1002,604.92h0c-1.13,0-1.69-1.68-1.69-1.68l-10.93,3.31a2.14,2.14,0,0,1-.3,2.12,3.07,3.07,0,0,0-1.31,3.21l2.42,8a2.7,2.7,0,0,0,3.36,1.79l11.53-3.49a2.7,2.7,0,0,0,1.79-3.35l-2.42-8A2.69,2.69,0,0,0,1002,604.92Z"/><path class="cls-34" d="M988.33,606.2l.65,2.16c.24.79,3.24.58,6.69-.47s6.07-2.53,5.83-3.31l-.66-2.17Z"/><path class="cls-34" d="M1000.84,602.41c.24.78-2.37,2.27-5.83,3.31s-6.45,1.26-6.68.48,2.37-2.27,5.82-3.32S1000.6,601.62,1000.84,602.41Z"/><path class="cls-23" d="M972.71,609.26h0c-.79-.38-.59-1.75-.59-1.75L963.38,606a1.64,1.64,0,0,1-.94,1.36,2.4,2.4,0,0,0-2,1.78l-1.09,6.38A2.09,2.09,0,0,0,961,618l9.21,1.58a2.09,2.09,0,0,0,2.41-1.7l1.09-6.39A2.08,2.08,0,0,0,972.71,609.26Z"/><path class="cls-34" d="M962.75,605.39l-.3,1.74c-.11.62,2,1.51,4.81,2s5.09.34,5.2-.28l.29-1.74Z"/><path class="cls-34" d="M972.75,607.1c-.11.63-2.43.75-5.19.28s-4.92-1.36-4.81-2,2.43-.75,5.19-.28S972.86,606.48,972.75,607.1Z"/><rect class="cls-30" x="944.86" y="611.86" width="54.14" height="44.64" transform="translate(1943.86 1268.35) rotate(180)"/><rect class="cls-31" x="971.93" y="611.86" width="54.14" height="44.64" transform="translate(1998 1268.35) rotate(180)"/><polygon class="cls-32" points="971.93 611.86 1026.21 611.86 1026.21 642.44 971.93 656.5 971.93 611.86"/><polygon class="cls-31" points="971.93 611.86 982.64 623.6 1036.07 623.6 1026.07 611.86 971.93 611.86"/><polygon class="cls-31" points="944.89 645.18 953.47 645.18 952.72 642.76 953.47 641.04 944.89 641.04 944.89 645.18"/><polygon class="cls-33" points="971.93 616.9 960.52 628.31 944.89 628.31 944.89 611.86 971.93 611.86 971.93 616.9"/><polygon class="cls-31" points="944.86 611.86 932.69 623.6 959.78 623.6 971.93 611.86 944.86 611.86"/><path class="cls-34" d="M1120.92,167.34l32.4,59.64,24.24-43.26a16.27,16.27,0,0,0,.23-15.5l-14.93-28.5a3.28,3.28,0,0,0-5.84.06l-10.34,20.81-21.59-.18A4.7,4.7,0,0,0,1120.92,167.34Z"/><path class="cls-41" d="M1172.8,192.23l-5,3.41a28.57,28.57,0,0,1-16.4,5l-45.08-.39.09-10.31a1.26,1.26,0,0,0-2.36-.64L1083,226l20.59,36.75a1.26,1.26,0,0,0,2.36-.55l.64-12.21,21,.18a22.72,22.72,0,0,0,20.15-11.87Z"/><path class="cls-34" d="M1069.2,147.06l35.45-57.87-49.58.63a16.24,16.24,0,0,0-13.53,7.56l-17.22,27.17a3.28,3.28,0,0,0,3,5l23.19-1.45,10.64,18.79A4.69,4.69,0,0,0,1069.2,147.06Z"/><path class="cls-34" d="M1076.38,201l-67.85-1.76,25.34,42.62a16.27,16.27,0,0,0,13.31,7.94l32.15,1.33a3.28,3.28,0,0,0,2.87-5.09l-12.85-19.36,11-18.61A4.69,4.69,0,0,0,1076.38,201Z"/><path class="cls-42" d="M1028.89,233.45l-.46-6a28.63,28.63,0,0,1,3.86-16.7l22.88-38.85,8.89,5.23a1.26,1.26,0,0,0,1.73-1.72l-21.28-36.56-42.13-.55a1.27,1.27,0,0,0-.7,2.33l10.26,6.65-10.64,18.07a22.73,22.73,0,0,0,.2,23.39Z"/><path class="cls-43" d="M1069.18,89.69l5.45,2.62a28.52,28.52,0,0,1,12.53,11.7l22.21,39.23-9,5.08a1.26,1.26,0,0,0,.62,2.36l42.3-.15,21.54-36.21a1.26,1.26,0,0,0-1.66-1.77l-10.89,5.56L1142,99.87a22.71,22.71,0,0,0-20.36-11.52Z"/></svg>