<svg id="Ebene_1" data-name="Ebene 1" xmlns="http://www.w3.org/2000/svg" xmlns:xlink="http://www.w3.org/1999/xlink" viewBox="0 0 1440 790"><defs><style>.cls-1{fill:url(#Unbenannter_Verlauf_46);}.cls-2,.cls-9{fill:#063567;}.cls-2{opacity:0.46;}.cls-3{fill:#ffc100;}.cls-4{fill:url(#Unbenannter_Verlauf_156);}.cls-5{fill:url(#Unbenannter_Verlauf_156-2);}.cls-6{fill:url(#Unbenannter_Verlauf_156-3);}.cls-7,.cls-8{stroke-miterlimit:10;}.cls-7{opacity:0.05;stroke:url(#Unbenannter_Verlauf_243);}.cls-8{opacity:0.04;stroke:url(#Unbenannter_Verlauf_243-2);}.cls-10{fill:#f8aa71;}.cls-11{fill:#fff;}.cls-12{fill:#3f3d56;}.cls-13{fill:#f8a570;}.cls-14{fill:#e0e0e0;}.cls-15{fill:#2f2e41;}.cls-16,.cls-17{fill:none;}.cls-16{stroke:#e6e6e6;}.cls-18,.cls-19{isolation:isolate;}.cls-19{font-size:14.74px;fill:#fcfcfc;font-family:Montserrat-Light, Montserrat;font-weight:300;}.cls-20{letter-spacing:-0.06em;}.cls-21{letter-spacing:-0.01em;}.cls-22{letter-spacing:-0.01em;}.cls-23{letter-spacing:0em;}.cls-24{letter-spacing:-0.02em;}.cls-25{letter-spacing:-0.03em;}.cls-26{letter-spacing:-0.01em;}.cls-27{letter-spacing:-0.02em;}.cls-28{letter-spacing:0em;}</style><linearGradient id="Unbenannter_Verlauf_46" x1="1442.71" y1="395.17" x2="643.09" y2="395.17" gradientUnits="userSpaceOnUse"><stop offset="0.3" stop-color="#0e559c"/><stop offset="0.48" stop-color="#0d4f93"/><stop offset="0.77" stop-color="#094079"/><stop offset="0.94" stop-color="#063567"/></linearGradient><linearGradient id="Unbenannter_Verlauf_156" x1="1083.74" y1="226.71" x2="1173.5" y2="226.71" gradientUnits="userSpaceOnUse"><stop offset="0" stop-color="#ff9a00"/><stop offset="1" stop-color="#ffc100"/></linearGradient><linearGradient id="Unbenannter_Verlauf_156-2" x1="998.86" y1="186.53" x2="1066.67" y2="186.53" xlink:href="#Unbenannter_Verlauf_156"/><linearGradient id="Unbenannter_Verlauf_156-3" x1="1069.89" y1="120.18" x2="1165.75" y2="120.18" xlink:href="#Unbenannter_Verlauf_156"/><linearGradient id="Unbenannter_Verlauf_243" x1="1296.93" y1="4.89" x2="1355.41" y2="-39.27" gradientTransform="matrix(1, 0.04, 0.04, -1, -11.35, -4.25)" gradientUnits="userSpaceOnUse"><stop offset="0"/><stop offset="0.98"/></linearGradient><linearGradient id="Unbenannter_Verlauf_243-2" x1="1098.72" y1="-9.23" x2="1336.5" y2="-9.23" gradientTransform="matrix(1, 0, 0, -1, 0, 17.82)" xlink:href="#Unbenannter_Verlauf_243"/></defs><path class="cls-1" d="M866.09-1.33C762.53,76.55,734.36,143,735,195.4c1,88.22,83.23,119.27,74.08,202.76-8.37,76.37-81.45,89.41-131.14,188.71-38.07,76.06-37.66,153.29-32,204.76l795.7,0q.57-396,1.15-792Z"/><path class="cls-2" d="M707.59,543l28.46-.13v29.29l14,0V549.25l11.19-11.6h16.22V503.8h23.49v33.85h16.22v11.6h11.18v13.86h13.43V496.9H849V485h63.76V496.9h7.27v56.45l21.25-.27V517h60.41l2.71,67.89,9-.27V561.67H1033v-18h11.74V531.53h45.87v12.11h11.74v18H1122V604l16.78-.27v-42h18.7V618.5H707.59V543Z"/><path class="cls-2" d="M1157.65,543.3l28.48-.13v29.3l14,0V549.57L1211.32,538h16.23V504.12h23.51V538h16.23v11.59h11.2v13.86h13.43v-66.2h7.28V485.31H1363v11.92h7.27v56.44l21.27-.27V517.29H1452l2.72,67.89,9-.27V562h19.59V544h11.75V531.86H1541V544h11.75v18h19.59v42.3l16.8-.27V562.07h18.71v56.75h-450.2V543.3Z"/><path class="cls-3" d="M1121.63,168l32.4,59.63,24.24-43.25a16.27,16.27,0,0,0,.22-15.5l-14.92-28.5a3.28,3.28,0,0,0-5.84.06l-10.35,20.81-21.59-.18A4.69,4.69,0,0,0,1121.63,168Z"/><path class="cls-4" d="M1173.5,192.9l-5,3.41a28.59,28.59,0,0,1-16.41,5l-45.08-.38.09-10.32a1.26,1.26,0,0,0-2.35-.63l-21,36.7,20.6,36.76a1.26,1.26,0,0,0,2.36-.55l.63-12.21,21,.17A22.71,22.71,0,0,0,1148.45,239Z"/><path class="cls-3" d="M1069.91,147.73l35.45-57.88-49.58.64A16.26,16.26,0,0,0,1042.25,98L1025,125.22a3.27,3.27,0,0,0,3,5l23.19-1.44,10.64,18.79A4.69,4.69,0,0,0,1069.91,147.73Z"/><path class="cls-3" d="M1077.09,201.64l-67.85-1.76,25.34,42.62a16.29,16.29,0,0,0,13.31,7.94l32.14,1.32a3.27,3.27,0,0,0,2.87-5.08l-12.85-19.37,11-18.6A4.69,4.69,0,0,0,1077.09,201.64Z"/><path class="cls-5" d="M1029.59,234.11l-.46-6a28.6,28.6,0,0,1,3.87-16.71l22.87-38.85,8.89,5.24a1.26,1.26,0,0,0,1.73-1.72l-21.28-36.56-42.13-.55a1.26,1.26,0,0,0-.7,2.32l10.26,6.66L1002,166a22.71,22.71,0,0,0,.2,23.39Z"/><path class="cls-6" d="M1069.89,90.36l5.45,2.61a28.59,28.59,0,0,1,12.53,11.71l22.21,39.23-9,5.08a1.26,1.26,0,0,0,.63,2.36l42.3-.15L1165.56,115a1.26,1.26,0,0,0-1.65-1.77l-10.9,5.56-10.33-18.25A22.73,22.73,0,0,0,1122.33,89Z"/><path class="cls-7" d="M1327.4,2.12c-6.53,27.4-6,49.06-4,64.18,2.34,18.47,7.11,30.65-.27,39.63-6.87,8.35-21.77,10.91-32.95,5.7-11.66-5.42-15.25-17.42-16.74-22.38-3.75-12.52-.7-23.31,1.06-29.27C1284.24,26.89,1318.88,6.81,1327.4,2.12Z"/><path class="cls-8" d="M1336-5.86c0,1.52-7,1.11-18.68,6.4A84.85,84.85,0,0,0,1306,7.3c-12.16,8.65-18.51,19.33-24.2,26.6-3.8,4.86-20.11,25.71-45.23,30.34-19.79,3.65-38.81-4-40.16-4.48-7.52-2.91-11.4-6-32.69-27.21s-26.33-27-38.76-32c-14.61-5.83-25.75-5.11-25.69-6.4C1099.48-11.82,1335.8-13.87,1336-5.86Z"/><ellipse class="cls-9" cx="1083.12" cy="666.99" rx="226.56" ry="9.61"/><g id="Gruppe_3" data-name="Gruppe 3"><path id="Pfad_6" data-name="Pfad 6" class="cls-10" d="M1096.41,493.27a5.93,5.93,0,0,1,4.23,7.24,6.09,6.09,0,0,1-.36,1l15.17,14.63-10.68,2.39L1092,504.26a6,6,0,0,1,4.41-11Z"/><path id="Pfad_7" data-name="Pfad 7" class="cls-3" d="M1117.74,531.74,1099,514.19a2.64,2.64,0,0,1-.12-3.75l0-.05,3.82-3.87a2.66,2.66,0,0,1,3.5-.24l15.68,12,9.79-23.72a7.39,7.39,0,0,1,9.66-4l.44.2h0a7.37,7.37,0,0,1,4.05,7.85c-1.77,10.79-12.53,25.06-18.78,32.6a6.43,6.43,0,0,1-9,.87l-.32-.29Z"/><path id="Pfad_8" data-name="Pfad 8" class="cls-11" d="M1107.24,514.72l-13.78-20a1.2,1.2,0,0,1,.3-1.65h0l.56-.38a1.18,1.18,0,0,1,1.64.31h0l13.77,20a1.18,1.18,0,0,1-.3,1.64h0l-.55.38a1.18,1.18,0,0,1-1.64-.3Z"/><path id="Pfad_9" data-name="Pfad 9" class="cls-12" d="M1103.39,514.86,1092,498.28a3.25,3.25,0,0,1,.83-4.51l1.17-.8,15.11,21.92-1.16.8h0a3.23,3.23,0,0,1-4.51-.83Z"/><path id="Pfad_10" data-name="Pfad 10" class="cls-13" d="M1104.77,658l-7.18-.82,1-28,9.43,1.08Z"/><path id="Pfad_11" data-name="Pfad 11" class="cls-14" d="M1105.8,665.17l-23.16-2.68,0-.29a9.07,9.07,0,0,1,10.06-8h0l14.14,1.63Z"/><path id="Pfad_12" data-name="Pfad 12" class="cls-13" d="M1188.28,652.68l-6.91,2.14-11.52-25.63,10.2-3.15Z"/><path id="Pfad_13" data-name="Pfad 13" class="cls-14" d="M1192.11,658.84l-22.27,6.88-.09-.29a9.07,9.07,0,0,1,6-11.34h0l13.6-4.2Z"/><path id="Pfad_14" data-name="Pfad 14" class="cls-11" d="M1096.75,651.75a3,3,0,0,1-2-3.59l4.33-49.83a15.15,15.15,0,0,1,2.09-6.43l26.21-43.48,23.45,4.21.15.06c11.39,7,21.51,40.83,31.3,73.56,1.52,5.09,3.09,10.35,4.63,15.38a3,3,0,0,1-1.59,3.82l-7.1,3a2.93,2.93,0,0,1-3.73-1.31L1138,580.31a.61.61,0,0,0-.46-.3.55.55,0,0,0-.5.19l-21.19,24-7.78,45.68,0,.1a3,3,0,0,1-3.49,1.68l-7.63.15h0Z"/><path id="Pfad_15" data-name="Pfad 15" class="cls-3" d="M1126.14,553l-.15-.05,0-.15c-.11-.36-10.83-36.63-1.17-59.75v0c.28-.55,7-13.5,14.85-14.79l.21,0,2.54,4.76c.8.8,14.57,15.1,8.32,39.69.56,2,8.17,29.68,4,33.82-.93.93-2.8,1.3-5.16,1.3C1141.28,557.74,1126.92,553.23,1126.14,553Z"/><circle id="Ellipse_2" data-name="Ellipse 2" class="cls-15" cx="1138.02" cy="455.4" r="18.28"/><circle id="Ellipse_3" data-name="Ellipse 3" class="cls-10" cx="1130.76" cy="459.11" r="14.48"/><path id="Pfad_16" data-name="Pfad 16" class="cls-15" d="M1140.08,473.18c-1.32.47-2.94.89-4-.09s-.83-2.68-.23-4,1.52-2.42,1.81-3.81a5.88,5.88,0,0,0-2.15-5.36,16,16,0,0,0-5.25-2.64l-10.14-3.61c-2.51-.89-5.21-1.94-6.62-4.28-2-3.4-.18-8.26,3.16-10.24s7.54-1.61,11.14-.22a57,57,0,0,0,5.94,2.38c4.06,1.07,8.67.11,12.24,2.4,3.11,2,4.55,6.06,4.44,9.86s-1.5,7.43-3,10.9a20.2,20.2,0,0,1-3.31,5.81,6.84,6.84,0,0,1-5.79,2.5Z"/><circle id="Ellipse_4" data-name="Ellipse 4" class="cls-15" cx="1153.35" cy="446.56" r="11.79"/><path id="Pfad_17" data-name="Pfad 17" class="cls-11" d="M1133.89,463.66a1.18,1.18,0,0,1,2.36,0,1.31,1.31,0,0,1-.6,1.09v2.6a.72.72,0,0,1-.58.44c-.24,0-.44-.2-.19-.44v-2.6A1.15,1.15,0,0,1,1133.89,463.66Z"/><path id="Pfad_18" data-name="Pfad 18" class="cls-10" d="M1097.12,505.64a5.94,5.94,0,0,1,6.49,5.32,5.16,5.16,0,0,1,0,1l19.32,8.43-9.18,6-16.93-8.92a6,6,0,0,1,.29-11.84Z"/><path id="Pfad_19" data-name="Pfad 19" class="cls-3" d="M1130.53,534.28l-23.66-9.93a2.66,2.66,0,0,1-1.42-3.48l0-.06,2.23-5a2.66,2.66,0,0,1,3.2-1.45l18.87,5.77.9-25.65a7.39,7.39,0,0,1,7.66-7.14,3.87,3.87,0,0,1,.48,0h0a7.36,7.36,0,0,1,6.53,5.94c2.1,10.73-3,27.86-6.24,37.11a6.43,6.43,0,0,1-8.18,4l-.4-.16Z"/><path id="Pfad_27" data-name="Pfad 27" class="cls-16" d="M1094.27,445H917.1a8.48,8.48,0,0,1-8.4-8.54V344.91a8.48,8.48,0,0,1,8.4-8.54h177.17a8.48,8.48,0,0,1,8.41,8.54v91.55A8.48,8.48,0,0,1,1094.27,445Z"/><path id="Pfad_28" data-name="Pfad 28" class="cls-17" d="M1090.3,438.4H890a5,5,0,0,1-5-5V334a5,5,0,0,1,5-5H1090.3a5,5,0,0,1,5,5v99.4A5,5,0,0,1,1090.3,438.4Z"/><path id="Pfad_29" data-name="Pfad 29" class="cls-16" d="M1078.47,463.58l-22.55-18.29,28.91.59v15.56a3,3,0,0,1-2.3,2.79,4.5,4.5,0,0,1-1.45.24A4.11,4.11,0,0,1,1078.47,463.58Z"/><circle id="Ellipse_5" data-name="Ellipse 5" class="cls-3" cx="937.72" cy="363.91" r="14.74"/><g id="Verkaufe_deine_ungenutzten_Produkte_" data-name="Verkaufe deine ungenutzten Produkte " class="cls-18"><text class="cls-19" transform="translate(970.77 378.07)"><tspan class="cls-20">V</tspan><tspan x="9.32" y="0">e</tspan><tspan class="cls-21" x="18.12" y="0">r</tspan><tspan class="cls-22" x="23.79" y="0">k</tspan><tspan x="32.31" y="0">au</tspan><tspan class="cls-21" x="50.77" y="0">f</tspan><tspan x="55.47" y="0">e dei</tspan><tspan class="cls-23" x="90.66" y="0">n</tspan><tspan x="100.6" y="0">e </tspan></text><text class="cls-19" transform="translate(970.77 395.76)">u<tspan class="cls-23" x="9.86" y="0">n</tspan><tspan x="19.8" y="0">genut</tspan><tspan class="cls-23" x="64.3" y="0">z</tspan><tspan class="cls-24" x="71.73" y="0">t</tspan><tspan x="77.32" y="0">en </tspan></text><text class="cls-19" transform="translate(970.77 413.45)"><tspan class="cls-25">P</tspan><tspan class="cls-26" x="10.16" y="0">r</tspan><tspan x="15.76" y="0">oduk</tspan><tspan class="cls-27" x="53.38" y="0">t</tspan><tspan class="cls-28" x="58.97" y="0">e!</tspan></text></g></g></svg>