<svg id="Ebene_1" data-name="Ebene 1" xmlns="http://www.w3.org/2000/svg" xmlns:xlink="http://www.w3.org/1999/xlink" viewBox="0 0 1440 790"><defs><style>.cls-1,.cls-2,.cls-3,.cls-4{stroke-miterlimit:10;}.cls-1,.cls-3{opacity:0.05;}.cls-1{stroke:url(#Unbenannter_Verlauf_243);}.cls-2,.cls-4{opacity:0.04;}.cls-2{stroke:url(#Unbenannter_Verlauf_243-2);}.cls-3{stroke:url(#Unbenannter_Verlauf_243-3);}.cls-4{stroke:url(#Unbenannter_Verlauf_243-4);}</style><linearGradient id="Unbenannter_Verlauf_243" x1="204.67" y1="697.74" x2="264.36" y2="652.67" gradientTransform="matrix(1, 0.04, 0.04, -1, -40.49, 725.7)" gradientUnits="userSpaceOnUse"><stop offset="0"/><stop offset="0.98"/></linearGradient><linearGradient id="Unbenannter_Verlauf_243-2" x1="-0.91" y1="723.21" x2="241.8" y2="723.21" gradientTransform="matrix(1, 0, 0, -1, 0, 748.29)" xlink:href="#Unbenannter_Verlauf_243"/><linearGradient id="Unbenannter_Verlauf_243-3" x1="1301.79" y1="778.24" x2="1361.47" y2="733.17" gradientTransform="translate(-40.49 22.59) rotate(-2.06)" xlink:href="#Unbenannter_Verlauf_243"/><linearGradient id="Unbenannter_Verlauf_243-4" x1="1098.39" y1="764.2" x2="1341.1" y2="764.2" gradientTransform="matrix(1, 0, 0, 1, 0, 0)" xlink:href="#Unbenannter_Verlauf_243"/></defs><path class="cls-1" d="M232.52-.37c-6.67,28-6.08,50.09-4.12,65.52,2.39,18.85,7.26,31.28-.28,40.45-7,8.53-22.22,11.14-33.64,5.83-11.9-5.54-15.57-17.79-17.08-22.86-3.83-12.77-.72-23.79,1.07-29.87C188.47,24.92,223.83,4.42,232.52-.37Z"/><path class="cls-2" d="M241.3-8.52c0,1.55-7.18,1.14-19.07,6.54a86.48,86.48,0,0,0-11.61,6.9c-12.41,8.83-18.89,19.73-24.7,27.15-3.88,5-20.53,26.25-46.17,31-20.2,3.73-39.62-4-41-4.57-7.68-3-11.64-6.11-33.37-27.78S38.51,3.08,25.81-2C10.9-7.93-.47-7.2-.41-8.52-.15-14.6,241.1-16.69,241.3-8.52Z"/><path class="cls-3" d="M1331.82,789.65c-6.66-28-6.07-50.08-4.12-65.52,2.39-18.85,7.26-31.28-.28-40.45-7-8.52-22.22-11.14-33.63-5.83-11.91,5.55-15.57,17.79-17.09,22.86-3.82,12.78-.72,23.8,1.08,29.87C1287.77,764.37,1323.13,784.86,1331.82,789.65Z"/><path class="cls-4" d="M1340.6,797.8c0-1.55-7.18-1.14-19.07-6.54a87.07,87.07,0,0,1-11.61-6.89c-12.41-8.83-18.89-19.74-24.69-27.16-3.88-5-20.54-26.25-46.18-31-20.2-3.73-39.61,4-41,4.57-7.68,3-11.64,6.11-33.37,27.78s-26.87,27.61-39.57,32.67c-14.91,6-26.28,5.22-26.22,6.54C1099.16,803.88,1340.4,806,1340.6,797.8Z"/></svg>